<svg width="800" height="800" viewBox="0 0 800 800" fill="none" xmlns="http://www.w3.org/2000/svg">
<circle cx="399.5" cy="399.5" r="343.5" fill="#FFC657"/>
<circle cx="245.5" cy="402.5" r="107.5" fill="white"/>
<circle cx="555.5" cy="399.5" r="107.5" fill="white"/>
<path d="M244.102 351.734C217.488 351.734 195.836 373.386 195.836 400C195.836 426.614 217.488 448.266 244.102 448.266C270.716 448.266 292.367 426.614 292.367 400C292.366 373.386 270.714 351.734 244.102 351.734Z" fill="black"/>
<path d="M555.705 351.734C529.091 351.734 507.439 373.386 507.439 400C507.439 426.614 529.091 448.266 555.705 448.266C582.319 448.266 603.97 426.614 603.97 400C603.969 373.386 582.317 351.734 555.705 351.734Z" fill="black"/>
<path d="M485.017 543.108C479.919 538.014 471.661 538.014 466.564 543.108C429.806 579.865 369.997 579.865 333.238 543.108C328.146 538.011 319.885 538.014 314.791 543.108C309.697 548.201 309.697 556.462 314.792 561.554C338.256 585.02 369.081 596.751 399.903 596.751C430.728 596.751 461.549 585.019 485.016 561.554C490.113 556.461 490.113 548.2 485.017 543.108Z" fill="black"/>
<path d="M786.955 386.955H764.639C757.742 191.716 596.792 35.0049 399.903 35.0049C203.014 35.0049 42.0625 191.717 35.1656 386.955H13.0453C5.83906 386.955 0 392.796 0 400C0 407.205 5.83906 413.046 13.0453 413.046H35.1656C42.0625 608.285 203.012 764.995 399.902 764.995C596.791 764.995 757.742 608.285 764.638 413.046H786.953C794.159 413.046 799.998 407.205 799.998 400C800 392.796 794.161 386.955 786.955 386.955ZM399.903 61.0939C582.405 61.0939 731.652 206.105 738.533 386.955H679.333C672.791 324.624 619.936 275.878 555.9 275.878C491.864 275.878 439.009 324.624 432.467 386.955H367.534C360.992 324.624 308.138 275.878 244.1 275.878C180.066 275.878 127.209 324.624 120.667 386.955H61.2734C68.1547 206.106 217.4 61.0939 399.903 61.0939ZM653.931 400C653.931 454.055 609.956 498.033 555.9 498.033C501.845 498.033 457.869 454.055 457.869 400C457.869 345.946 501.845 301.969 555.9 301.969C609.956 301.969 653.931 345.947 653.931 400ZM342.134 400C342.134 454.055 298.156 498.033 244.102 498.033C190.047 498.033 146.07 454.055 146.07 400C146.07 345.946 190.045 301.969 244.102 301.969C298.156 301.969 342.134 345.947 342.134 400ZM399.903 738.906C217.402 738.906 68.1547 593.896 61.2734 413.046H120.669C127.211 475.377 180.066 524.124 244.102 524.124C308.138 524.124 360.994 475.378 367.536 413.046H432.469C439.011 475.377 491.866 524.124 555.902 524.124C619.938 524.124 672.792 475.378 679.334 413.046H738.534C731.652 593.896 582.405 738.906 399.903 738.906Z" fill="black"/>
<path d="M259.126 403.075C266.331 403.075 272.172 397.234 272.172 390.03C272.172 382.825 266.331 376.984 259.126 376.984C251.922 376.984 246.081 382.825 246.081 390.03C246.081 397.234 251.922 403.075 259.126 403.075Z" fill="black"/>
<path d="M570.469 403.075C577.673 403.075 583.514 397.234 583.514 390.03C583.514 382.825 577.673 376.984 570.469 376.984C563.264 376.984 557.423 382.825 557.423 390.03C557.423 397.234 563.264 403.075 570.469 403.075Z" fill="black"/>
</svg>
