<svg width="1940" height="343" viewBox="0 0 1940 343" fill="none" xmlns="http://www.w3.org/2000/svg">
<g clip-path="url(#clip0_443_857)">
<rect width="1940" height="343" fill="white"/>
<rect x="-3.8999" width="80.3148" height="20.5514" rx="3" fill="#E14646" fill-opacity="0.3"/>
<path d="M3.75297 14V3.81818H7.19332C7.98877 3.81818 8.64171 3.95407 9.15212 4.22585C9.66254 4.49432 10.0404 4.86387 10.2856 5.33452C10.5309 5.80516 10.6535 6.34044 10.6535 6.94034C10.6535 7.54025 10.5309 8.07221 10.2856 8.53622C10.0404 9.00024 9.6642 9.36482 9.15709 9.62997C8.64999 9.89181 8.00203 10.0227 7.2132 10.0227H4.42911V8.90909H7.17343C7.71699 8.90909 8.15449 8.82955 8.48593 8.67045C8.82068 8.51136 9.06263 8.28598 9.21178 7.99432C9.36424 7.69934 9.44047 7.34801 9.44047 6.94034C9.44047 6.53267 9.36424 6.17637 9.21178 5.87145C9.05932 5.56652 8.81571 5.3312 8.48096 5.16548C8.1462 4.99645 7.70373 4.91193 7.15354 4.91193H4.98593V14H3.75297ZM8.54559 9.42614L11.0513 14H9.61945L7.15354 9.42614H8.54559ZM15.6686 14.1591C14.9328 14.1591 14.2981 13.9967 13.7645 13.6719C13.2342 13.3438 12.8249 12.8864 12.5365 12.2997C12.2515 11.7098 12.109 11.0237 12.109 10.2415C12.109 9.45928 12.2515 8.76989 12.5365 8.1733C12.8249 7.57339 13.2259 7.10606 13.7397 6.77131C14.2567 6.43324 14.8599 6.2642 15.5493 6.2642C15.947 6.2642 16.3398 6.33049 16.7276 6.46307C17.1154 6.59564 17.4684 6.81108 17.7865 7.10938C18.1047 7.40436 18.3583 7.79545 18.5472 8.28267C18.7361 8.76989 18.8306 9.36979 18.8306 10.0824V10.5795H12.9442V9.56534H17.6374C17.6374 9.13447 17.5512 8.75 17.3789 8.41193C17.2098 8.07386 16.9679 7.80705 16.653 7.61151C16.3415 7.41596 15.9736 7.31818 15.5493 7.31818C15.082 7.31818 14.6776 7.43419 14.3362 7.66619C13.9982 7.89489 13.738 8.19318 13.5557 8.56108C13.3734 8.92898 13.2823 9.32339 13.2823 9.74432V10.4205C13.2823 10.9972 13.3817 11.486 13.5806 11.8871C13.7827 12.2848 14.0628 12.5881 14.4208 12.7969C14.7787 13.0024 15.1947 13.1051 15.6686 13.1051C15.9769 13.1051 16.2553 13.062 16.5039 12.9759C16.7558 12.8864 16.9728 12.7538 17.1551 12.5781C17.3374 12.3991 17.4783 12.1771 17.5777 11.9119L18.7112 12.2301C18.5919 12.6146 18.3914 12.9527 18.1097 13.2443C17.828 13.5327 17.48 13.758 17.0657 13.9205C16.6514 14.0795 16.1857 14.1591 15.6686 14.1591ZM23.4989 14.1591C22.8625 14.1591 22.3007 13.9983 21.8135 13.6768C21.3263 13.352 20.9451 12.8946 20.6701 12.3047C20.395 11.7114 20.2574 11.0104 20.2574 10.2017C20.2574 9.39962 20.395 8.7036 20.6701 8.11364C20.9451 7.52367 21.328 7.06794 21.8185 6.74645C22.309 6.42495 22.8758 6.2642 23.5188 6.2642C24.0159 6.2642 24.4087 6.34706 24.697 6.51278C24.9887 6.67519 25.2108 6.8608 25.3632 7.0696C25.519 7.27509 25.64 7.44413 25.7262 7.5767H25.8256V3.81818H26.9989V14H25.8654V12.8267H25.7262C25.64 12.9659 25.5174 13.1416 25.3583 13.3537C25.1992 13.5625 24.9721 13.7498 24.6772 13.9155C24.3822 14.0779 23.9894 14.1591 23.4989 14.1591ZM23.658 13.1051C24.1286 13.1051 24.5264 12.9825 24.8512 12.7372C25.176 12.4886 25.4229 12.1456 25.5919 11.7081C25.761 11.2673 25.8455 10.7585 25.8455 10.1818C25.8455 9.61174 25.7626 9.11293 25.5969 8.68537C25.4312 8.2545 25.1859 7.91974 24.8611 7.68111C24.5363 7.43916 24.1353 7.31818 23.658 7.31818C23.1608 7.31818 22.7465 7.44579 22.4151 7.70099C22.087 7.95289 21.84 8.29593 21.6743 8.73011C21.5119 9.16098 21.4307 9.64489 21.4307 10.1818C21.4307 10.7254 21.5136 11.2192 21.6793 11.6634C21.8483 12.1042 22.0969 12.4555 22.425 12.7173C22.7565 12.9759 23.1675 13.1051 23.658 13.1051ZM36.5692 6.36364V7.35795H32.6118V6.36364H36.5692ZM33.7652 4.53409H34.9385V11.8125C34.9385 12.1439 34.9866 12.3925 35.0827 12.5582C35.1821 12.7206 35.3081 12.83 35.4605 12.8864C35.6163 12.9394 35.7804 12.9659 35.9527 12.9659C36.082 12.9659 36.188 12.9593 36.2709 12.946C36.3538 12.9295 36.4201 12.9162 36.4698 12.9062L36.7084 13.9602C36.6289 13.9901 36.5178 14.0199 36.3753 14.0497C36.2328 14.0829 36.0522 14.0994 35.8334 14.0994C35.502 14.0994 35.1772 14.0282 34.859 13.8857C34.5441 13.7431 34.2823 13.526 34.0735 13.2344C33.868 12.9427 33.7652 12.5748 33.7652 12.1307V4.53409ZM40.5813 14.179C40.0974 14.179 39.6582 14.0878 39.2638 13.9055C38.8694 13.7199 38.5562 13.4531 38.3242 13.1051C38.0922 12.7538 37.9762 12.3295 37.9762 11.8324C37.9762 11.3949 38.0623 11.0402 38.2347 10.7685C38.407 10.4934 38.6374 10.2779 38.9257 10.1222C39.2141 9.96638 39.5323 9.85038 39.8803 9.77415C40.2316 9.6946 40.5846 9.63163 40.9392 9.58523C41.4032 9.52557 41.7794 9.48082 42.0678 9.45099C42.3594 9.41785 42.5716 9.36316 42.7041 9.28693C42.84 9.2107 42.908 9.07812 42.908 8.8892V8.84943C42.908 8.3589 42.7737 7.97775 42.5053 7.70597C42.2401 7.43419 41.8374 7.2983 41.2972 7.2983C40.7371 7.2983 40.2979 7.42093 39.9797 7.66619C39.6615 7.91146 39.4378 8.1733 39.3085 8.4517L38.1949 8.05398C38.3938 7.58996 38.6589 7.22869 38.9904 6.97017C39.3251 6.70833 39.6897 6.52604 40.0841 6.4233C40.4818 6.31723 40.8729 6.2642 41.2574 6.2642C41.5027 6.2642 41.7844 6.29403 42.1026 6.35369C42.4241 6.41004 42.734 6.5277 43.0323 6.70668C43.3339 6.88565 43.5841 7.15578 43.783 7.51705C43.9818 7.87831 44.0813 8.36222 44.0813 8.96875V14H42.908V12.9659H42.8483C42.7688 13.1316 42.6362 13.3089 42.4506 13.4979C42.265 13.6868 42.0181 13.8475 41.7098 13.9801C41.4016 14.1127 41.0254 14.179 40.5813 14.179ZM40.7603 13.125C41.2243 13.125 41.6154 13.0339 41.9335 12.8516C42.255 12.6693 42.497 12.4339 42.6594 12.1456C42.8251 11.8572 42.908 11.554 42.908 11.2358V10.1619C42.8583 10.2216 42.7489 10.2763 42.5799 10.326C42.4141 10.3724 42.2219 10.4138 42.0032 10.4503C41.7877 10.4834 41.5773 10.5133 41.3718 10.5398C41.1696 10.563 41.0055 10.5829 40.8796 10.5994C40.5746 10.6392 40.2896 10.7038 40.0245 10.7933C39.7626 10.8795 39.5505 11.0104 39.3881 11.1861C39.229 11.3584 39.1495 11.5937 39.1495 11.892C39.1495 12.2997 39.3003 12.608 39.6019 12.8168C39.9068 13.0223 40.2929 13.125 40.7603 13.125ZM49.3052 17.0227C48.7384 17.0227 48.2512 16.9498 47.8435 16.804C47.4359 16.6615 47.0961 16.4725 46.8244 16.2372C46.5559 16.0052 46.3421 15.7566 46.183 15.4915L47.1177 14.8352C47.2237 14.9744 47.358 15.1335 47.5204 15.3125C47.6828 15.4948 47.9048 15.6522 48.1866 15.7848C48.4716 15.9207 48.8445 15.9886 49.3052 15.9886C49.9217 15.9886 50.4304 15.8395 50.8315 15.5412C51.2325 15.2429 51.433 14.7756 51.433 14.1392V12.5881H51.3336C51.2474 12.7273 51.1248 12.8996 50.9657 13.1051C50.8099 13.3073 50.5845 13.4879 50.2896 13.647C49.9979 13.8028 49.6035 13.8807 49.1063 13.8807C48.4898 13.8807 47.9363 13.7348 47.4458 13.4432C46.9586 13.1515 46.5725 12.7273 46.2874 12.1705C46.0057 11.6136 45.8648 10.9375 45.8648 10.142C45.8648 9.35985 46.0024 8.67874 46.2775 8.09872C46.5526 7.51539 46.9354 7.06463 47.4259 6.74645C47.9164 6.42495 48.4832 6.2642 49.1262 6.2642C49.6234 6.2642 50.0178 6.34706 50.3094 6.51278C50.6044 6.67519 50.8298 6.8608 50.9856 7.0696C51.1447 7.27509 51.2673 7.44413 51.3535 7.5767H51.4728V6.36364H52.6063V14.2188C52.6063 14.875 52.4572 15.4086 52.1589 15.8196C51.8639 16.2339 51.4662 16.5372 50.9657 16.7294C50.4685 16.925 49.915 17.0227 49.3052 17.0227ZM49.2654 12.8267C49.736 12.8267 50.1338 12.719 50.4586 12.5036C50.7834 12.2881 51.0303 11.9782 51.1994 11.5739C51.3684 11.1695 51.4529 10.6856 51.4529 10.1222C51.4529 9.57197 51.37 9.08641 51.2043 8.66548C51.0386 8.24455 50.7933 7.91477 50.4685 7.67614C50.1437 7.4375 49.7427 7.31818 49.2654 7.31818C48.7682 7.31818 48.3539 7.44413 48.0225 7.69602C47.6944 7.94792 47.4475 8.28598 47.2817 8.71023C47.1193 9.13447 47.0381 9.60511 47.0381 10.1222C47.0381 10.6525 47.121 11.1214 47.2867 11.5291C47.4557 11.9335 47.7043 12.2517 48.0324 12.4837C48.3639 12.7124 48.7749 12.8267 49.2654 12.8267Z" fill="#37352F"/>
<path d="M-4 0H1944V343H-4V0Z" fill="#CCFFE2"/>
<path fill-rule="evenodd" clip-rule="evenodd" d="M1943.55 237.166V343H475.379C535.532 293.689 599.915 248.214 668.419 207.174C1082.63 -40.9782 1540.57 29.3675 1943.55 237.166Z" fill="#FFECEA"/>
<path fill-rule="evenodd" clip-rule="evenodd" d="M1373.87 169.08C1373.93 113.585 1408.92 58.5252 1467.21 46.2886C1518.96 35.4249 1554.8 83.747 1584.16 124.933C1611.76 163.654 1640.07 210.579 1611.16 248.223C1579.64 289.281 1518.29 294.69 1466.96 277.572C1415.17 260.296 1373.82 220.063 1373.87 169.08Z" fill="#0018A4"/>
<path fill-rule="evenodd" clip-rule="evenodd" d="M135.668 64.0355C166.613 63.0843 197.932 81.711 205.784 114.146C212.755 142.942 186.443 163.876 163.996 181.054C142.892 197.204 117.226 213.893 95.7253 198.369C72.2753 181.438 68.1762 147.165 76.8156 118.11C85.5343 88.7876 107.239 64.9093 135.668 64.0355Z" fill="white"/>
<rect x="-4" width="1944" height="100" fill="#0018A4"/>
<path d="M-63.6753 62H-64.3313L-70.2353 46.871V62H-70.8913V39.532H-75.8113V62H-76.4673V33.3H-67.3243C-62.0763 33.3 -57.8943 37.482 -57.8943 42.73C-57.8943 46.912 -59.9853 49.372 -62.4043 50.889L-58.0993 62H-58.7553L-62.9373 51.217C-64.1263 51.914 -65.8073 52.529 -67.2013 52.939L-63.6753 62ZM-64.5773 45.313L-62.6503 50.274C-60.4363 48.88 -58.5503 46.584 -58.5503 42.73C-58.5503 37.81 -62.4043 33.956 -67.3243 33.956H-70.2353V38.876H-67.3243C-65.1923 38.876 -63.4703 40.598 -63.4703 42.73C-63.4703 43.714 -63.8393 44.575 -64.5773 45.313ZM-70.2353 39.532V46.871L-68.6773 46.543C-65.4793 45.846 -64.1263 44.493 -64.1263 42.73C-64.1263 40.926 -65.5203 39.532 -67.3243 39.532H-70.2353ZM-75.8113 33.956V38.876H-70.8913V33.956H-75.8113ZM-63.1833 50.602L-65.0693 45.764C-66.2993 46.707 -67.7343 47.035 -69.3333 47.363L-67.4473 52.283C-66.2173 51.955 -64.2083 51.217 -63.1833 50.602ZM-56.409 51.135C-56.409 44.862 -51.325 39.778 -45.052 39.778C-40.05 39.778 -35.827 42.976 -34.31 47.486L-47.635 55.563C-46.856 56.014 -45.995 56.26 -45.052 56.26C-43.002 56.26 -41.239 55.03 -40.419 53.308L-39.804 53.595C-40.706 55.563 -42.715 56.916 -45.052 56.916C-46.241 56.916 -47.348 56.547 -48.25 55.932L-52.678 58.638C-50.751 60.606 -48.045 61.836 -45.052 61.836C-40.788 61.836 -37.057 59.294 -35.335 55.645L-34.761 55.932C-36.565 59.827 -40.501 62.492 -45.052 62.492C-51.325 62.492 -56.409 57.408 -56.409 51.135ZM-55.753 51.135C-55.753 52.324 -55.548 53.431 -55.22 54.497L-50.792 51.791C-50.833 51.586 -50.833 51.34 -50.833 51.135C-50.833 47.937 -48.25 45.354 -45.052 45.354C-43.863 45.354 -42.715 45.723 -41.813 46.338L-37.426 43.673C-39.353 41.664 -42.059 40.434 -45.052 40.434C-50.956 40.434 -55.753 45.231 -55.753 51.135ZM-54.974 55.112C-54.523 56.219 -53.908 57.244 -53.129 58.146L-48.824 55.522C-49.726 54.743 -50.382 53.677 -50.669 52.488L-54.974 55.112ZM-50.177 51.135V51.422L-42.428 46.707C-43.207 46.256 -44.109 46.01 -45.052 46.01C-47.881 46.01 -50.177 48.306 -50.177 51.135ZM-50.095 52.16C-49.849 53.349 -49.152 54.415 -48.209 55.153L-40.009 50.151C-40.255 48.962 -40.911 47.896 -41.854 47.117L-50.095 52.16ZM-41.239 46.789C-40.337 47.568 -39.681 48.593 -39.435 49.823L-35.089 47.158C-35.54 46.051 -36.196 45.067 -36.934 44.165L-41.239 46.789ZM-16.4087 42.115V60.155C-13.6617 58.474 -11.4887 55.071 -11.4887 51.135C-11.4887 47.199 -13.6617 43.796 -16.4087 42.115ZM-22.1897 39.778C-20.3447 39.778 -18.6227 40.229 -17.0647 41.008V40.27H-16.4087V41.377C-14.1127 42.648 -12.3497 44.944 -11.4887 47.322V40.27H-10.8327V62H-11.4887V54.907C-12.3087 57.244 -14.1127 59.663 -16.4087 60.934V62H-17.0647V61.262C-18.6227 62.041 -20.3447 62.492 -22.1897 62.492C-28.4627 62.492 -33.5467 57.408 -33.5467 51.135C-33.5467 44.862 -28.4627 39.778 -22.1897 39.778ZM-22.1897 61.836C-20.3447 61.836 -18.5817 61.385 -17.0647 60.565V53.841C-18.0487 55.645 -19.9757 56.916 -22.1897 56.916C-25.3877 56.916 -27.9707 54.333 -27.9707 51.135C-27.9707 47.937 -25.3877 45.354 -22.1897 45.354C-19.9757 45.354 -18.0487 46.625 -17.0647 48.47V41.746C-18.5817 40.926 -20.3447 40.434 -22.1897 40.434C-28.0937 40.434 -32.8907 45.231 -32.8907 51.135C-32.8907 57.039 -28.0937 61.836 -22.1897 61.836ZM-22.1897 56.26C-19.3197 56.26 -17.0647 53.964 -17.0647 51.135C-17.0647 48.306 -19.3197 46.01 -22.1897 46.01C-25.0187 46.01 -27.3147 48.306 -27.3147 51.135C-27.3147 53.964 -25.0187 56.26 -22.1897 56.26ZM4.21332 45.846V46.502H3.02432C0.523325 46.502 -1.60868 48.634 -1.60868 51.135C-1.60868 53.636 0.523325 55.768 3.02432 55.768H4.21332V56.424H3.02432C0.154325 56.424 -2.26468 54.005 -2.26468 51.135C-2.26468 48.265 0.154325 45.846 3.02432 45.846H4.21332ZM4.21332 40.926H3.02432C-2.59268 40.926 -7.18468 45.518 -7.18468 51.135C-7.18468 56.752 -2.59268 61.344 3.02432 61.344H4.21332V62H3.02432C-2.96168 62 -7.84068 57.121 -7.84068 51.135C-7.84068 45.149 -2.96168 40.27 3.02432 40.27H4.21332V40.926ZM9.73231 40.926H6.49331V40.27H9.73231V33.3H10.3883V40.27H15.3083V33.3H15.9643V40.27H19.2033V40.926H15.9643V45.846H19.2033V46.502H15.9643V62H15.3083V46.502H10.3883V62H9.73231V46.502H6.49331V45.846H9.73231V40.926ZM15.3083 40.926H10.3883V45.846H15.3083V40.926ZM44.1098 62H43.4538L37.5498 46.871V62H36.8938V39.532H31.9738V62H31.3178V33.3H40.4608C45.7088 33.3 49.8908 37.482 49.8908 42.73C49.8908 46.912 47.7998 49.372 45.3808 50.889L49.6858 62H49.0298L44.8478 51.217C43.6588 51.914 41.9778 52.529 40.5838 52.939L44.1098 62ZM43.2078 45.313L45.1348 50.274C47.3488 48.88 49.2348 46.584 49.2348 42.73C49.2348 37.81 45.3808 33.956 40.4608 33.956H37.5498V38.876H40.4608C42.5928 38.876 44.3148 40.598 44.3148 42.73C44.3148 43.714 43.9458 44.575 43.2078 45.313ZM37.5498 39.532V46.871L39.1078 46.543C42.3058 45.846 43.6588 44.493 43.6588 42.73C43.6588 40.926 42.2648 39.532 40.4608 39.532H37.5498ZM31.9738 33.956V38.876H36.8938V33.956H31.9738ZM44.6018 50.602L42.7158 45.764C41.4858 46.707 40.0508 47.035 38.4518 47.363L40.3378 52.283C41.5678 51.955 43.5768 51.217 44.6018 50.602ZM62.7331 62.492C56.4601 62.492 51.3761 57.408 51.3761 51.135C51.3761 44.862 56.4601 39.778 62.7331 39.778C69.0061 39.778 74.0901 44.862 74.0901 51.135C74.0901 57.408 69.0061 62.492 62.7331 62.492ZM62.7331 61.836C68.6371 61.836 73.4341 57.039 73.4341 51.135C73.4341 45.231 68.6371 40.434 62.7331 40.434C56.8291 40.434 52.0321 45.231 52.0321 51.135C52.0321 57.039 56.8291 61.836 62.7331 61.836ZM62.7331 56.916C59.5351 56.916 56.9521 54.333 56.9521 51.135C56.9521 47.937 59.5351 45.354 62.7331 45.354C65.9311 45.354 68.5141 47.937 68.5141 51.135C68.5141 54.333 65.9311 56.916 62.7331 56.916ZM62.7331 56.26C65.5621 56.26 67.8581 53.964 67.8581 51.135C67.8581 48.306 65.5621 46.01 62.7331 46.01C59.9041 46.01 57.6081 48.306 57.6081 51.135C57.6081 53.964 59.9041 56.26 62.7331 56.26ZM96.546 40.27V62H95.89V55.809C94.988 58.146 93.225 60.073 90.97 61.18V62H90.314V61.508C89.166 61.959 87.936 62.205 86.624 62.205C81.171 62.205 76.702 57.736 76.702 52.283V40.27H77.358V52.283C77.358 57.367 81.54 61.549 86.624 61.549C87.936 61.549 89.166 61.262 90.314 60.77V54.579C89.535 55.809 88.182 56.629 86.624 56.629C84.246 56.629 82.278 54.661 82.278 52.283V40.27H82.934V52.283C82.934 54.292 84.615 55.973 86.624 55.973C88.633 55.973 90.314 54.292 90.314 52.283V40.27H90.97V60.442C93.881 58.884 95.89 55.809 95.89 52.283V40.27H96.546ZM102.783 40.926H99.5441V40.27H102.783V33.3H103.439V40.27H108.359V33.3H109.015V40.27H112.254V40.926H109.015V45.846H112.254V46.502H109.015V62H108.359V46.502H103.439V62H102.783V46.502H99.5441V45.846H102.783V40.926ZM108.359 40.926H103.439V45.846H108.359V40.926ZM113.597 51.135C113.597 44.862 118.681 39.778 124.954 39.778C129.956 39.778 134.179 42.976 135.696 47.486L122.371 55.563C123.15 56.014 124.011 56.26 124.954 56.26C127.004 56.26 128.767 55.03 129.587 53.308L130.202 53.595C129.3 55.563 127.291 56.916 124.954 56.916C123.765 56.916 122.658 56.547 121.756 55.932L117.328 58.638C119.255 60.606 121.961 61.836 124.954 61.836C129.218 61.836 132.949 59.294 134.671 55.645L135.245 55.932C133.441 59.827 129.505 62.492 124.954 62.492C118.681 62.492 113.597 57.408 113.597 51.135ZM114.253 51.135C114.253 52.324 114.458 53.431 114.786 54.497L119.214 51.791C119.173 51.586 119.173 51.34 119.173 51.135C119.173 47.937 121.756 45.354 124.954 45.354C126.143 45.354 127.291 45.723 128.193 46.338L132.58 43.673C130.653 41.664 127.947 40.434 124.954 40.434C119.05 40.434 114.253 45.231 114.253 51.135ZM115.032 55.112C115.483 56.219 116.098 57.244 116.877 58.146L121.182 55.522C120.28 54.743 119.624 53.677 119.337 52.488L115.032 55.112ZM119.829 51.135V51.422L127.578 46.707C126.799 46.256 125.897 46.01 124.954 46.01C122.125 46.01 119.829 48.306 119.829 51.135ZM119.911 52.16C120.157 53.349 120.854 54.415 121.797 55.153L129.997 50.151C129.751 48.962 129.095 47.896 128.152 47.117L119.911 52.16ZM128.767 46.789C129.669 47.568 130.325 48.593 130.571 49.823L134.917 47.158C134.466 46.051 133.81 45.067 133.072 44.165L128.767 46.789ZM143.265 62V42.689C141.051 44.042 138.345 46.83 138.345 51.709V62H137.689V40.27H138.345V47.732C139.37 44.903 140.969 43.304 143.265 41.951V40.27H143.921V41.582C145.561 40.762 147.324 40.352 149.046 40.352V41.008C147.324 41.008 145.52 41.459 143.921 42.32V49.044C144.864 47.199 146.832 45.928 149.046 45.928V46.584C146.176 46.584 143.921 48.88 143.921 51.709V62H143.265ZM160.644 62V33.3H168.68C173.887 33.3 178.11 37.523 178.11 42.73C178.11 44.534 177.618 46.215 176.716 47.65C177.618 49.044 178.11 50.766 178.11 52.57C178.11 57.777 173.887 62 168.68 62H160.644ZM161.3 61.344H166.22V56.424H161.3V61.344ZM161.3 55.768H166.22V49.372H161.3V55.768ZM161.3 48.716H166.22V46.584H161.3V48.716ZM161.3 45.928H166.22V39.532H161.3V45.928ZM161.3 38.876H166.22V33.956H161.3V38.876ZM166.876 61.344H168.68C173.518 61.344 177.454 57.408 177.454 52.57C177.454 50.725 176.88 49.044 175.937 47.65C176.88 46.256 177.454 44.575 177.454 42.73C177.454 37.892 173.518 33.956 168.68 33.956H166.876V38.876H168.68C170.812 38.876 172.534 40.598 172.534 42.73C172.534 44.862 170.812 46.584 168.68 46.584H166.876V48.716H168.68C170.812 48.716 172.534 50.438 172.534 52.57C172.534 54.702 170.812 56.424 168.68 56.424H166.876V61.344ZM166.876 55.768H168.68C170.443 55.768 171.878 54.333 171.878 52.57C171.878 50.807 170.443 49.372 168.68 49.372H166.876V55.768ZM166.876 45.928H168.68C170.443 45.928 171.878 44.493 171.878 42.73C171.878 40.967 170.443 39.532 168.68 39.532H166.876V45.928ZM191.779 62.492C185.506 62.492 180.422 57.408 180.422 51.135C180.422 44.862 185.506 39.778 191.779 39.778C198.052 39.778 203.136 44.862 203.136 51.135C203.136 57.408 198.052 62.492 191.779 62.492ZM191.779 61.836C197.683 61.836 202.48 57.039 202.48 51.135C202.48 45.231 197.683 40.434 191.779 40.434C185.875 40.434 181.078 45.231 181.078 51.135C181.078 57.039 185.875 61.836 191.779 61.836ZM191.779 56.916C188.581 56.916 185.998 54.333 185.998 51.135C185.998 47.937 188.581 45.354 191.779 45.354C194.977 45.354 197.56 47.937 197.56 51.135C197.56 54.333 194.977 56.916 191.779 56.916ZM191.779 56.26C194.608 56.26 196.904 53.964 196.904 51.135C196.904 48.306 194.608 46.01 191.779 46.01C188.95 46.01 186.654 48.306 186.654 51.135C186.654 53.964 188.95 56.26 191.779 56.26ZM206.076 62V40.27H206.732V62H206.076ZM212.308 40.27V62H211.652V40.27H212.308ZM211.652 38.138V31.25H212.308V38.138H211.652ZM206.732 31.25V38.138H206.076V31.25H206.732ZM217.142 31.25V62H216.486V31.25H217.142ZM222.718 31.25V62H222.062V31.25H222.718ZM225.666 51.135C225.666 44.862 230.75 39.778 237.023 39.778C242.025 39.778 246.248 42.976 247.765 47.486L234.44 55.563C235.219 56.014 236.08 56.26 237.023 56.26C239.073 56.26 240.836 55.03 241.656 53.308L242.271 53.595C241.369 55.563 239.36 56.916 237.023 56.916C235.834 56.916 234.727 56.547 233.825 55.932L229.397 58.638C231.324 60.606 234.03 61.836 237.023 61.836C241.287 61.836 245.018 59.294 246.74 55.645L247.314 55.932C245.51 59.827 241.574 62.492 237.023 62.492C230.75 62.492 225.666 57.408 225.666 51.135ZM226.322 51.135C226.322 52.324 226.527 53.431 226.855 54.497L231.283 51.791C231.242 51.586 231.242 51.34 231.242 51.135C231.242 47.937 233.825 45.354 237.023 45.354C238.212 45.354 239.36 45.723 240.262 46.338L244.649 43.673C242.722 41.664 240.016 40.434 237.023 40.434C231.119 40.434 226.322 45.231 226.322 51.135ZM227.101 55.112C227.552 56.219 228.167 57.244 228.946 58.146L233.251 55.522C232.349 54.743 231.693 53.677 231.406 52.488L227.101 55.112ZM231.898 51.135V51.422L239.647 46.707C238.868 46.256 237.966 46.01 237.023 46.01C234.194 46.01 231.898 48.306 231.898 51.135ZM231.98 52.16C232.226 53.349 232.923 54.415 233.866 55.153L242.066 50.151C241.82 48.962 241.164 47.896 240.221 47.117L231.98 52.16ZM240.836 46.789C241.738 47.568 242.394 48.593 242.64 49.823L246.986 47.158C246.535 46.051 245.879 45.067 245.141 44.165L240.836 46.789ZM255.334 62V42.689C253.12 44.042 250.414 46.83 250.414 51.709V62H249.758V40.27H250.414V47.732C251.439 44.903 253.038 43.304 255.334 41.951V40.27H255.99V41.582C257.63 40.762 259.393 40.352 261.115 40.352V41.008C259.393 41.008 257.589 41.459 255.99 42.32V49.044C256.933 47.199 258.901 45.928 261.115 45.928V46.584C258.245 46.584 255.99 48.88 255.99 51.709V62H255.334ZM278.945 39.532V45.928H281.856C283.66 45.928 285.054 44.534 285.054 42.73C285.054 40.926 283.66 39.532 281.856 39.532H278.945ZM278.945 38.876H281.856C283.988 38.876 285.71 40.598 285.71 42.73C285.71 44.862 283.988 46.584 281.856 46.584H278.945V51.504H281.856C286.776 51.504 290.63 47.65 290.63 42.73C290.63 37.81 286.776 33.956 281.856 33.956H278.945V38.876ZM273.369 52.16V62H272.713V33.3H281.856C287.104 33.3 291.286 37.482 291.286 42.73C291.286 47.978 287.104 52.16 281.856 52.16H278.945V62H278.289V52.16H273.369ZM273.369 39.532V45.928H278.289V39.532H273.369ZM278.289 33.956H273.369V38.876H278.289V33.956ZM278.289 46.584H273.369V51.504H278.289V46.584ZM294.738 31.25V62H294.082V31.25H294.738ZM300.314 31.25V62H299.658V31.25H300.314ZM320.4 42.115V60.155C323.147 58.474 325.32 55.071 325.32 51.135C325.32 47.199 323.147 43.796 320.4 42.115ZM314.619 39.778C316.464 39.778 318.186 40.229 319.744 41.008V40.27H320.4V41.377C322.696 42.648 324.459 44.944 325.32 47.322V40.27H325.976V62H325.32V54.907C324.5 57.244 322.696 59.663 320.4 60.934V62H319.744V61.262C318.186 62.041 316.464 62.492 314.619 62.492C308.346 62.492 303.262 57.408 303.262 51.135C303.262 44.862 308.346 39.778 314.619 39.778ZM314.619 61.836C316.464 61.836 318.227 61.385 319.744 60.565V53.841C318.76 55.645 316.833 56.916 314.619 56.916C311.421 56.916 308.838 54.333 308.838 51.135C308.838 47.937 311.421 45.354 314.619 45.354C316.833 45.354 318.76 46.625 319.744 48.47V41.746C318.227 40.926 316.464 40.434 314.619 40.434C308.715 40.434 303.918 45.231 303.918 51.135C303.918 57.039 308.715 61.836 314.619 61.836ZM314.619 56.26C317.489 56.26 319.744 53.964 319.744 51.135C319.744 48.306 317.489 46.01 314.619 46.01C311.79 46.01 309.494 48.306 309.494 51.135C309.494 53.964 311.79 56.26 314.619 56.26ZM332.207 40.926H328.968V40.27H332.207V33.3H332.863V40.27H337.783V33.3H338.439V40.27H341.678V40.926H338.439V45.846H341.678V46.502H338.439V62H337.783V46.502H332.863V62H332.207V46.502H328.968V45.846H332.207V40.926ZM337.783 40.926H332.863V45.846H337.783V40.926ZM343.021 51.135C343.021 44.862 348.105 39.778 354.378 39.778C359.38 39.778 363.603 42.976 365.12 47.486L351.795 55.563C352.574 56.014 353.435 56.26 354.378 56.26C356.428 56.26 358.191 55.03 359.011 53.308L359.626 53.595C358.724 55.563 356.715 56.916 354.378 56.916C353.189 56.916 352.082 56.547 351.18 55.932L346.752 58.638C348.679 60.606 351.385 61.836 354.378 61.836C358.642 61.836 362.373 59.294 364.095 55.645L364.669 55.932C362.865 59.827 358.929 62.492 354.378 62.492C348.105 62.492 343.021 57.408 343.021 51.135ZM343.677 51.135C343.677 52.324 343.882 53.431 344.21 54.497L348.638 51.791C348.597 51.586 348.597 51.34 348.597 51.135C348.597 47.937 351.18 45.354 354.378 45.354C355.567 45.354 356.715 45.723 357.617 46.338L362.004 43.673C360.077 41.664 357.371 40.434 354.378 40.434C348.474 40.434 343.677 45.231 343.677 51.135ZM344.456 55.112C344.907 56.219 345.522 57.244 346.301 58.146L350.606 55.522C349.704 54.743 349.048 53.677 348.761 52.488L344.456 55.112ZM349.253 51.135V51.422L357.002 46.707C356.223 46.256 355.321 46.01 354.378 46.01C351.549 46.01 349.253 48.306 349.253 51.135ZM349.335 52.16C349.581 53.349 350.278 54.415 351.221 55.153L359.421 50.151C359.175 48.962 358.519 47.896 357.576 47.117L349.335 52.16ZM358.191 46.789C359.093 47.568 359.749 48.593 359.995 49.823L364.341 47.158C363.89 46.051 363.234 45.067 362.496 44.165L358.191 46.789ZM389.046 62H388.39L382.486 46.871V62H381.83V39.532H376.91V62H376.254V33.3H385.397C390.645 33.3 394.827 37.482 394.827 42.73C394.827 46.912 392.736 49.372 390.317 50.889L394.622 62H393.966L389.784 51.217C388.595 51.914 386.914 52.529 385.52 52.939L389.046 62ZM388.144 45.313L390.071 50.274C392.285 48.88 394.171 46.584 394.171 42.73C394.171 37.81 390.317 33.956 385.397 33.956H382.486V38.876H385.397C387.529 38.876 389.251 40.598 389.251 42.73C389.251 43.714 388.882 44.575 388.144 45.313ZM382.486 39.532V46.871L384.044 46.543C387.242 45.846 388.595 44.493 388.595 42.73C388.595 40.926 387.201 39.532 385.397 39.532H382.486ZM376.91 33.956V38.876H381.83V33.956H376.91ZM389.538 50.602L387.652 45.764C386.422 46.707 384.987 47.035 383.388 47.363L385.274 52.283C386.504 51.955 388.513 51.217 389.538 50.602ZM396.313 51.135C396.313 44.862 401.397 39.778 407.67 39.778C412.672 39.778 416.895 42.976 418.412 47.486L405.087 55.563C405.866 56.014 406.727 56.26 407.67 56.26C409.72 56.26 411.483 55.03 412.303 53.308L412.918 53.595C412.016 55.563 410.007 56.916 407.67 56.916C406.481 56.916 405.374 56.547 404.472 55.932L400.044 58.638C401.971 60.606 404.677 61.836 407.67 61.836C411.934 61.836 415.665 59.294 417.387 55.645L417.961 55.932C416.157 59.827 412.221 62.492 407.67 62.492C401.397 62.492 396.313 57.408 396.313 51.135ZM396.969 51.135C396.969 52.324 397.174 53.431 397.502 54.497L401.93 51.791C401.889 51.586 401.889 51.34 401.889 51.135C401.889 47.937 404.472 45.354 407.67 45.354C408.859 45.354 410.007 45.723 410.909 46.338L415.296 43.673C413.369 41.664 410.663 40.434 407.67 40.434C401.766 40.434 396.969 45.231 396.969 51.135ZM397.748 55.112C398.199 56.219 398.814 57.244 399.593 58.146L403.898 55.522C402.996 54.743 402.34 53.677 402.053 52.488L397.748 55.112ZM402.545 51.135V51.422L410.294 46.707C409.515 46.256 408.613 46.01 407.67 46.01C404.841 46.01 402.545 48.306 402.545 51.135ZM402.627 52.16C402.873 53.349 403.57 54.415 404.513 55.153L412.713 50.151C412.467 48.962 411.811 47.896 410.868 47.117L402.627 52.16ZM411.483 46.789C412.385 47.568 413.041 48.593 413.287 49.823L417.633 47.158C417.182 46.051 416.526 45.067 415.788 44.165L411.483 46.789ZM436.313 42.115V60.155C439.06 58.474 441.233 55.071 441.233 51.135C441.233 47.199 439.06 43.796 436.313 42.115ZM430.532 39.778C432.377 39.778 434.099 40.229 435.657 41.008V40.27H436.313V41.377C438.609 42.648 440.372 44.944 441.233 47.322V40.27H441.889V62H441.233V54.907C440.413 57.244 438.609 59.663 436.313 60.934V62H435.657V61.262C434.099 62.041 432.377 62.492 430.532 62.492C424.259 62.492 419.175 57.408 419.175 51.135C419.175 44.862 424.259 39.778 430.532 39.778ZM430.532 61.836C432.377 61.836 434.14 61.385 435.657 60.565V53.841C434.673 55.645 432.746 56.916 430.532 56.916C427.334 56.916 424.751 54.333 424.751 51.135C424.751 47.937 427.334 45.354 430.532 45.354C432.746 45.354 434.673 46.625 435.657 48.47V41.746C434.14 40.926 432.377 40.434 430.532 40.434C424.628 40.434 419.831 45.231 419.831 51.135C419.831 57.039 424.628 61.836 430.532 61.836ZM430.532 56.26C433.402 56.26 435.657 53.964 435.657 51.135C435.657 48.306 433.402 46.01 430.532 46.01C427.703 46.01 425.407 48.306 425.407 51.135C425.407 53.964 427.703 56.26 430.532 56.26ZM456.935 45.846V46.502H455.746C453.245 46.502 451.113 48.634 451.113 51.135C451.113 53.636 453.245 55.768 455.746 55.768H456.935V56.424H455.746C452.876 56.424 450.457 54.005 450.457 51.135C450.457 48.265 452.876 45.846 455.746 45.846H456.935ZM456.935 40.926H455.746C450.129 40.926 445.537 45.518 445.537 51.135C445.537 56.752 450.129 61.344 455.746 61.344H456.935V62H455.746C449.76 62 444.881 57.121 444.881 51.135C444.881 45.149 449.76 40.27 455.746 40.27H456.935V40.926ZM462.454 40.926H459.215V40.27H462.454V33.3H463.11V40.27H468.03V33.3H468.686V40.27H471.925V40.926H468.686V45.846H471.925V46.502H468.686V62H468.03V46.502H463.11V62H462.454V46.502H459.215V45.846H462.454V40.926ZM468.03 40.926H463.11V45.846H468.03V40.926ZM496.832 62H496.176L490.272 46.871V62H489.616V39.532H484.696V62H484.04V33.3H493.183C498.431 33.3 502.613 37.482 502.613 42.73C502.613 46.912 500.522 49.372 498.103 50.889L502.408 62H501.752L497.57 51.217C496.381 51.914 494.7 52.529 493.306 52.939L496.832 62ZM495.93 45.313L497.857 50.274C500.071 48.88 501.957 46.584 501.957 42.73C501.957 37.81 498.103 33.956 493.183 33.956H490.272V38.876H493.183C495.315 38.876 497.037 40.598 497.037 42.73C497.037 43.714 496.668 44.575 495.93 45.313ZM490.272 39.532V46.871L491.83 46.543C495.028 45.846 496.381 44.493 496.381 42.73C496.381 40.926 494.987 39.532 493.183 39.532H490.272ZM484.696 33.956V38.876H489.616V33.956H484.696ZM497.324 50.602L495.438 45.764C494.208 46.707 492.773 47.035 491.174 47.363L493.06 52.283C494.29 51.955 496.299 51.217 497.324 50.602ZM515.455 62.492C509.182 62.492 504.098 57.408 504.098 51.135C504.098 44.862 509.182 39.778 515.455 39.778C521.728 39.778 526.812 44.862 526.812 51.135C526.812 57.408 521.728 62.492 515.455 62.492ZM515.455 61.836C521.359 61.836 526.156 57.039 526.156 51.135C526.156 45.231 521.359 40.434 515.455 40.434C509.551 40.434 504.754 45.231 504.754 51.135C504.754 57.039 509.551 61.836 515.455 61.836ZM515.455 56.916C512.257 56.916 509.674 54.333 509.674 51.135C509.674 47.937 512.257 45.354 515.455 45.354C518.653 45.354 521.236 47.937 521.236 51.135C521.236 54.333 518.653 56.916 515.455 56.916ZM515.455 56.26C518.284 56.26 520.58 53.964 520.58 51.135C520.58 48.306 518.284 46.01 515.455 46.01C512.626 46.01 510.33 48.306 510.33 51.135C510.33 53.964 512.626 56.26 515.455 56.26ZM549.268 40.27V62H548.612V55.809C547.71 58.146 545.947 60.073 543.692 61.18V62H543.036V61.508C541.888 61.959 540.658 62.205 539.346 62.205C533.893 62.205 529.424 57.736 529.424 52.283V40.27H530.08V52.283C530.08 57.367 534.262 61.549 539.346 61.549C540.658 61.549 541.888 61.262 543.036 60.77V54.579C542.257 55.809 540.904 56.629 539.346 56.629C536.968 56.629 535 54.661 535 52.283V40.27H535.656V52.283C535.656 54.292 537.337 55.973 539.346 55.973C541.355 55.973 543.036 54.292 543.036 52.283V40.27H543.692V60.442C546.603 58.884 548.612 55.809 548.612 52.283V40.27H549.268ZM555.505 40.926H552.266V40.27H555.505V33.3H556.161V40.27H561.081V33.3H561.737V40.27H564.976V40.926H561.737V45.846H564.976V46.502H561.737V62H561.081V46.502H556.161V62H555.505V46.502H552.266V45.846H555.505V40.926ZM561.081 40.926H556.161V45.846H561.081V40.926ZM566.319 51.135C566.319 44.862 571.403 39.778 577.676 39.778C582.678 39.778 586.901 42.976 588.418 47.486L575.093 55.563C575.872 56.014 576.733 56.26 577.676 56.26C579.726 56.26 581.489 55.03 582.309 53.308L582.924 53.595C582.022 55.563 580.013 56.916 577.676 56.916C576.487 56.916 575.38 56.547 574.478 55.932L570.05 58.638C571.977 60.606 574.683 61.836 577.676 61.836C581.94 61.836 585.671 59.294 587.393 55.645L587.967 55.932C586.163 59.827 582.227 62.492 577.676 62.492C571.403 62.492 566.319 57.408 566.319 51.135ZM566.975 51.135C566.975 52.324 567.18 53.431 567.508 54.497L571.936 51.791C571.895 51.586 571.895 51.34 571.895 51.135C571.895 47.937 574.478 45.354 577.676 45.354C578.865 45.354 580.013 45.723 580.915 46.338L585.302 43.673C583.375 41.664 580.669 40.434 577.676 40.434C571.772 40.434 566.975 45.231 566.975 51.135ZM567.754 55.112C568.205 56.219 568.82 57.244 569.599 58.146L573.904 55.522C573.002 54.743 572.346 53.677 572.059 52.488L567.754 55.112ZM572.551 51.135V51.422L580.3 46.707C579.521 46.256 578.619 46.01 577.676 46.01C574.847 46.01 572.551 48.306 572.551 51.135ZM572.633 52.16C572.879 53.349 573.576 54.415 574.519 55.153L582.719 50.151C582.473 48.962 581.817 47.896 580.874 47.117L572.633 52.16ZM581.489 46.789C582.391 47.568 583.047 48.593 583.293 49.823L587.639 47.158C587.188 46.051 586.532 45.067 585.794 44.165L581.489 46.789ZM595.987 62V42.689C593.773 44.042 591.067 46.83 591.067 51.709V62H590.411V40.27H591.067V47.732C592.092 44.903 593.691 43.304 595.987 41.951V40.27H596.643V41.582C598.283 40.762 600.046 40.352 601.768 40.352V41.008C600.046 41.008 598.242 41.459 596.643 42.32V49.044C597.586 47.199 599.554 45.928 601.768 45.928V46.584C598.898 46.584 596.643 48.88 596.643 51.709V62H595.987ZM613.366 62V33.3H621.402C626.609 33.3 630.832 37.523 630.832 42.73C630.832 44.534 630.34 46.215 629.438 47.65C630.34 49.044 630.832 50.766 630.832 52.57C630.832 57.777 626.609 62 621.402 62H613.366ZM614.022 61.344H618.942V56.424H614.022V61.344ZM614.022 55.768H618.942V49.372H614.022V55.768ZM614.022 48.716H618.942V46.584H614.022V48.716ZM614.022 45.928H618.942V39.532H614.022V45.928ZM614.022 38.876H618.942V33.956H614.022V38.876ZM619.598 61.344H621.402C626.24 61.344 630.176 57.408 630.176 52.57C630.176 50.725 629.602 49.044 628.659 47.65C629.602 46.256 630.176 44.575 630.176 42.73C630.176 37.892 626.24 33.956 621.402 33.956H619.598V38.876H621.402C623.534 38.876 625.256 40.598 625.256 42.73C625.256 44.862 623.534 46.584 621.402 46.584H619.598V48.716H621.402C623.534 48.716 625.256 50.438 625.256 52.57C625.256 54.702 623.534 56.424 621.402 56.424H619.598V61.344ZM619.598 55.768H621.402C623.165 55.768 624.6 54.333 624.6 52.57C624.6 50.807 623.165 49.372 621.402 49.372H619.598V55.768ZM619.598 45.928H621.402C623.165 45.928 624.6 44.493 624.6 42.73C624.6 40.967 623.165 39.532 621.402 39.532H619.598V45.928ZM644.501 62.492C638.228 62.492 633.144 57.408 633.144 51.135C633.144 44.862 638.228 39.778 644.501 39.778C650.774 39.778 655.858 44.862 655.858 51.135C655.858 57.408 650.774 62.492 644.501 62.492ZM644.501 61.836C650.405 61.836 655.202 57.039 655.202 51.135C655.202 45.231 650.405 40.434 644.501 40.434C638.597 40.434 633.8 45.231 633.8 51.135C633.8 57.039 638.597 61.836 644.501 61.836ZM644.501 56.916C641.303 56.916 638.72 54.333 638.72 51.135C638.72 47.937 641.303 45.354 644.501 45.354C647.699 45.354 650.282 47.937 650.282 51.135C650.282 54.333 647.699 56.916 644.501 56.916ZM644.501 56.26C647.33 56.26 649.626 53.964 649.626 51.135C649.626 48.306 647.33 46.01 644.501 46.01C641.672 46.01 639.376 48.306 639.376 51.135C639.376 53.964 641.672 56.26 644.501 56.26ZM658.798 62V40.27H659.454V62H658.798ZM665.03 40.27V62H664.374V40.27H665.03ZM664.374 38.138V31.25H665.03V38.138H664.374ZM659.454 31.25V38.138H658.798V31.25H659.454ZM669.864 31.25V62H669.208V31.25H669.864ZM675.44 31.25V62H674.784V31.25H675.44ZM678.388 51.135C678.388 44.862 683.472 39.778 689.745 39.778C694.747 39.778 698.97 42.976 700.487 47.486L687.162 55.563C687.941 56.014 688.802 56.26 689.745 56.26C691.795 56.26 693.558 55.03 694.378 53.308L694.993 53.595C694.091 55.563 692.082 56.916 689.745 56.916C688.556 56.916 687.449 56.547 686.547 55.932L682.119 58.638C684.046 60.606 686.752 61.836 689.745 61.836C694.009 61.836 697.74 59.294 699.462 55.645L700.036 55.932C698.232 59.827 694.296 62.492 689.745 62.492C683.472 62.492 678.388 57.408 678.388 51.135ZM679.044 51.135C679.044 52.324 679.249 53.431 679.577 54.497L684.005 51.791C683.964 51.586 683.964 51.34 683.964 51.135C683.964 47.937 686.547 45.354 689.745 45.354C690.934 45.354 692.082 45.723 692.984 46.338L697.371 43.673C695.444 41.664 692.738 40.434 689.745 40.434C683.841 40.434 679.044 45.231 679.044 51.135ZM679.823 55.112C680.274 56.219 680.889 57.244 681.668 58.146L685.973 55.522C685.071 54.743 684.415 53.677 684.128 52.488L679.823 55.112ZM684.62 51.135V51.422L692.369 46.707C691.59 46.256 690.688 46.01 689.745 46.01C686.916 46.01 684.62 48.306 684.62 51.135ZM684.702 52.16C684.948 53.349 685.645 54.415 686.588 55.153L694.788 50.151C694.542 48.962 693.886 47.896 692.943 47.117L684.702 52.16ZM693.558 46.789C694.46 47.568 695.116 48.593 695.362 49.823L699.708 47.158C699.257 46.051 698.601 45.067 697.863 44.165L693.558 46.789ZM708.056 62V42.689C705.842 44.042 703.136 46.83 703.136 51.709V62H702.48V40.27H703.136V47.732C704.161 44.903 705.76 43.304 708.056 41.951V40.27H708.712V41.582C710.352 40.762 712.115 40.352 713.837 40.352V41.008C712.115 41.008 710.311 41.459 708.712 42.32V49.044C709.655 47.199 711.623 45.928 713.837 45.928V46.584C710.967 46.584 708.712 48.88 708.712 51.709V62H708.056ZM731.667 39.532V45.928H734.578C736.382 45.928 737.776 44.534 737.776 42.73C737.776 40.926 736.382 39.532 734.578 39.532H731.667ZM731.667 38.876H734.578C736.71 38.876 738.432 40.598 738.432 42.73C738.432 44.862 736.71 46.584 734.578 46.584H731.667V51.504H734.578C739.498 51.504 743.352 47.65 743.352 42.73C743.352 37.81 739.498 33.956 734.578 33.956H731.667V38.876ZM726.091 52.16V62H725.435V33.3H734.578C739.826 33.3 744.008 37.482 744.008 42.73C744.008 47.978 739.826 52.16 734.578 52.16H731.667V62H731.011V52.16H726.091ZM726.091 39.532V45.928H731.011V39.532H726.091ZM731.011 33.956H726.091V38.876H731.011V33.956ZM731.011 46.584H726.091V51.504H731.011V46.584ZM747.459 31.25V62H746.803V31.25H747.459ZM753.035 31.25V62H752.379V31.25H753.035ZM773.122 42.115V60.155C775.869 58.474 778.042 55.071 778.042 51.135C778.042 47.199 775.869 43.796 773.122 42.115ZM767.341 39.778C769.186 39.778 770.908 40.229 772.466 41.008V40.27H773.122V41.377C775.418 42.648 777.181 44.944 778.042 47.322V40.27H778.698V62H778.042V54.907C777.222 57.244 775.418 59.663 773.122 60.934V62H772.466V61.262C770.908 62.041 769.186 62.492 767.341 62.492C761.068 62.492 755.984 57.408 755.984 51.135C755.984 44.862 761.068 39.778 767.341 39.778ZM767.341 61.836C769.186 61.836 770.949 61.385 772.466 60.565V53.841C771.482 55.645 769.555 56.916 767.341 56.916C764.143 56.916 761.56 54.333 761.56 51.135C761.56 47.937 764.143 45.354 767.341 45.354C769.555 45.354 771.482 46.625 772.466 48.47V41.746C770.949 40.926 769.186 40.434 767.341 40.434C761.437 40.434 756.64 45.231 756.64 51.135C756.64 57.039 761.437 61.836 767.341 61.836ZM767.341 56.26C770.211 56.26 772.466 53.964 772.466 51.135C772.466 48.306 770.211 46.01 767.341 46.01C764.512 46.01 762.216 48.306 762.216 51.135C762.216 53.964 764.512 56.26 767.341 56.26ZM784.929 40.926H781.69V40.27H784.929V33.3H785.585V40.27H790.505V33.3H791.161V40.27H794.4V40.926H791.161V45.846H794.4V46.502H791.161V62H790.505V46.502H785.585V62H784.929V46.502H781.69V45.846H784.929V40.926ZM790.505 40.926H785.585V45.846H790.505V40.926ZM795.742 51.135C795.742 44.862 800.826 39.778 807.099 39.778C812.101 39.778 816.324 42.976 817.841 47.486L804.516 55.563C805.295 56.014 806.156 56.26 807.099 56.26C809.149 56.26 810.912 55.03 811.732 53.308L812.347 53.595C811.445 55.563 809.436 56.916 807.099 56.916C805.91 56.916 804.803 56.547 803.901 55.932L799.473 58.638C801.4 60.606 804.106 61.836 807.099 61.836C811.363 61.836 815.094 59.294 816.816 55.645L817.39 55.932C815.586 59.827 811.65 62.492 807.099 62.492C800.826 62.492 795.742 57.408 795.742 51.135ZM796.398 51.135C796.398 52.324 796.603 53.431 796.931 54.497L801.359 51.791C801.318 51.586 801.318 51.34 801.318 51.135C801.318 47.937 803.901 45.354 807.099 45.354C808.288 45.354 809.436 45.723 810.338 46.338L814.725 43.673C812.798 41.664 810.092 40.434 807.099 40.434C801.195 40.434 796.398 45.231 796.398 51.135ZM797.177 55.112C797.628 56.219 798.243 57.244 799.022 58.146L803.327 55.522C802.425 54.743 801.769 53.677 801.482 52.488L797.177 55.112ZM801.974 51.135V51.422L809.723 46.707C808.944 46.256 808.042 46.01 807.099 46.01C804.27 46.01 801.974 48.306 801.974 51.135ZM802.056 52.16C802.302 53.349 802.999 54.415 803.942 55.153L812.142 50.151C811.896 48.962 811.24 47.896 810.297 47.117L802.056 52.16ZM810.912 46.789C811.814 47.568 812.47 48.593 812.716 49.823L817.062 47.158C816.611 46.051 815.955 45.067 815.217 44.165L810.912 46.789ZM841.768 62H841.112L835.208 46.871V62H834.552V39.532H829.632V62H828.976V33.3H838.119C843.367 33.3 847.549 37.482 847.549 42.73C847.549 46.912 845.458 49.372 843.039 50.889L847.344 62H846.688L842.506 51.217C841.317 51.914 839.636 52.529 838.242 52.939L841.768 62ZM840.866 45.313L842.793 50.274C845.007 48.88 846.893 46.584 846.893 42.73C846.893 37.81 843.039 33.956 838.119 33.956H835.208V38.876H838.119C840.251 38.876 841.973 40.598 841.973 42.73C841.973 43.714 841.604 44.575 840.866 45.313ZM835.208 39.532V46.871L836.766 46.543C839.964 45.846 841.317 44.493 841.317 42.73C841.317 40.926 839.923 39.532 838.119 39.532H835.208ZM829.632 33.956V38.876H834.552V33.956H829.632ZM842.26 50.602L840.374 45.764C839.144 46.707 837.709 47.035 836.11 47.363L837.996 52.283C839.226 51.955 841.235 51.217 842.26 50.602ZM849.034 51.135C849.034 44.862 854.118 39.778 860.391 39.778C865.393 39.778 869.616 42.976 871.133 47.486L857.808 55.563C858.587 56.014 859.448 56.26 860.391 56.26C862.441 56.26 864.204 55.03 865.024 53.308L865.639 53.595C864.737 55.563 862.728 56.916 860.391 56.916C859.202 56.916 858.095 56.547 857.193 55.932L852.765 58.638C854.692 60.606 857.398 61.836 860.391 61.836C864.655 61.836 868.386 59.294 870.108 55.645L870.682 55.932C868.878 59.827 864.942 62.492 860.391 62.492C854.118 62.492 849.034 57.408 849.034 51.135ZM849.69 51.135C849.69 52.324 849.895 53.431 850.223 54.497L854.651 51.791C854.61 51.586 854.61 51.34 854.61 51.135C854.61 47.937 857.193 45.354 860.391 45.354C861.58 45.354 862.728 45.723 863.63 46.338L868.017 43.673C866.09 41.664 863.384 40.434 860.391 40.434C854.487 40.434 849.69 45.231 849.69 51.135ZM850.469 55.112C850.92 56.219 851.535 57.244 852.314 58.146L856.619 55.522C855.717 54.743 855.061 53.677 854.774 52.488L850.469 55.112ZM855.266 51.135V51.422L863.015 46.707C862.236 46.256 861.334 46.01 860.391 46.01C857.562 46.01 855.266 48.306 855.266 51.135ZM855.348 52.16C855.594 53.349 856.291 54.415 857.234 55.153L865.434 50.151C865.188 48.962 864.532 47.896 863.589 47.117L855.348 52.16ZM864.204 46.789C865.106 47.568 865.762 48.593 866.008 49.823L870.354 47.158C869.903 46.051 869.247 45.067 868.509 44.165L864.204 46.789ZM889.035 42.115V60.155C891.782 58.474 893.955 55.071 893.955 51.135C893.955 47.199 891.782 43.796 889.035 42.115ZM883.254 39.778C885.099 39.778 886.821 40.229 888.379 41.008V40.27H889.035V41.377C891.331 42.648 893.094 44.944 893.955 47.322V40.27H894.611V62H893.955V54.907C893.135 57.244 891.331 59.663 889.035 60.934V62H888.379V61.262C886.821 62.041 885.099 62.492 883.254 62.492C876.981 62.492 871.897 57.408 871.897 51.135C871.897 44.862 876.981 39.778 883.254 39.778ZM883.254 61.836C885.099 61.836 886.862 61.385 888.379 60.565V53.841C887.395 55.645 885.468 56.916 883.254 56.916C880.056 56.916 877.473 54.333 877.473 51.135C877.473 47.937 880.056 45.354 883.254 45.354C885.468 45.354 887.395 46.625 888.379 48.47V41.746C886.862 40.926 885.099 40.434 883.254 40.434C877.35 40.434 872.553 45.231 872.553 51.135C872.553 57.039 877.35 61.836 883.254 61.836ZM883.254 56.26C886.124 56.26 888.379 53.964 888.379 51.135C888.379 48.306 886.124 46.01 883.254 46.01C880.425 46.01 878.129 48.306 878.129 51.135C878.129 53.964 880.425 56.26 883.254 56.26ZM909.657 45.846V46.502H908.468C905.967 46.502 903.835 48.634 903.835 51.135C903.835 53.636 905.967 55.768 908.468 55.768H909.657V56.424H908.468C905.598 56.424 903.179 54.005 903.179 51.135C903.179 48.265 905.598 45.846 908.468 45.846H909.657ZM909.657 40.926H908.468C902.851 40.926 898.259 45.518 898.259 51.135C898.259 56.752 902.851 61.344 908.468 61.344H909.657V62H908.468C902.482 62 897.603 57.121 897.603 51.135C897.603 45.149 902.482 40.27 908.468 40.27H909.657V40.926ZM915.176 40.926H911.937V40.27H915.176V33.3H915.832V40.27H920.752V33.3H921.408V40.27H924.647V40.926H921.408V45.846H924.647V46.502H921.408V62H920.752V46.502H915.832V62H915.176V46.502H911.937V45.846H915.176V40.926ZM920.752 40.926H915.832V45.846H920.752V40.926ZM949.553 62H948.897L942.993 46.871V62H942.337V39.532H937.417V62H936.761V33.3H945.904C951.152 33.3 955.334 37.482 955.334 42.73C955.334 46.912 953.243 49.372 950.824 50.889L955.129 62H954.473L950.291 51.217C949.102 51.914 947.421 52.529 946.027 52.939L949.553 62ZM948.651 45.313L950.578 50.274C952.792 48.88 954.678 46.584 954.678 42.73C954.678 37.81 950.824 33.956 945.904 33.956H942.993V38.876H945.904C948.036 38.876 949.758 40.598 949.758 42.73C949.758 43.714 949.389 44.575 948.651 45.313ZM942.993 39.532V46.871L944.551 46.543C947.749 45.846 949.102 44.493 949.102 42.73C949.102 40.926 947.708 39.532 945.904 39.532H942.993ZM937.417 33.956V38.876H942.337V33.956H937.417ZM950.045 50.602L948.159 45.764C946.929 46.707 945.494 47.035 943.895 47.363L945.781 52.283C947.011 51.955 949.02 51.217 950.045 50.602ZM968.176 62.492C961.903 62.492 956.819 57.408 956.819 51.135C956.819 44.862 961.903 39.778 968.176 39.778C974.449 39.778 979.533 44.862 979.533 51.135C979.533 57.408 974.449 62.492 968.176 62.492ZM968.176 61.836C974.08 61.836 978.877 57.039 978.877 51.135C978.877 45.231 974.08 40.434 968.176 40.434C962.272 40.434 957.475 45.231 957.475 51.135C957.475 57.039 962.272 61.836 968.176 61.836ZM968.176 56.916C964.978 56.916 962.395 54.333 962.395 51.135C962.395 47.937 964.978 45.354 968.176 45.354C971.374 45.354 973.957 47.937 973.957 51.135C973.957 54.333 971.374 56.916 968.176 56.916ZM968.176 56.26C971.005 56.26 973.301 53.964 973.301 51.135C973.301 48.306 971.005 46.01 968.176 46.01C965.347 46.01 963.051 48.306 963.051 51.135C963.051 53.964 965.347 56.26 968.176 56.26ZM1001.99 40.27V62H1001.33V55.809C1000.43 58.146 998.668 60.073 996.413 61.18V62H995.757V61.508C994.609 61.959 993.379 62.205 992.067 62.205C986.614 62.205 982.145 57.736 982.145 52.283V40.27H982.801V52.283C982.801 57.367 986.983 61.549 992.067 61.549C993.379 61.549 994.609 61.262 995.757 60.77V54.579C994.978 55.809 993.625 56.629 992.067 56.629C989.689 56.629 987.721 54.661 987.721 52.283V40.27H988.377V52.283C988.377 54.292 990.058 55.973 992.067 55.973C994.076 55.973 995.757 54.292 995.757 52.283V40.27H996.413V60.442C999.324 58.884 1001.33 55.809 1001.33 52.283V40.27H1001.99ZM1008.23 40.926H1004.99V40.27H1008.23V33.3H1008.88V40.27H1013.8V33.3H1014.46V40.27H1017.7V40.926H1014.46V45.846H1017.7V46.502H1014.46V62H1013.8V46.502H1008.88V62H1008.23V46.502H1004.99V45.846H1008.23V40.926ZM1013.8 40.926H1008.88V45.846H1013.8V40.926ZM1019.04 51.135C1019.04 44.862 1024.12 39.778 1030.4 39.778C1035.4 39.778 1039.62 42.976 1041.14 47.486L1027.81 55.563C1028.59 56.014 1029.45 56.26 1030.4 56.26C1032.45 56.26 1034.21 55.03 1035.03 53.308L1035.65 53.595C1034.74 55.563 1032.73 56.916 1030.4 56.916C1029.21 56.916 1028.1 56.547 1027.2 55.932L1022.77 58.638C1024.7 60.606 1027.4 61.836 1030.4 61.836C1034.66 61.836 1038.39 59.294 1040.11 55.645L1040.69 55.932C1038.88 59.827 1034.95 62.492 1030.4 62.492C1024.12 62.492 1019.04 57.408 1019.04 51.135ZM1019.7 51.135C1019.7 52.324 1019.9 53.431 1020.23 54.497L1024.66 51.791C1024.62 51.586 1024.62 51.34 1024.62 51.135C1024.62 47.937 1027.2 45.354 1030.4 45.354C1031.59 45.354 1032.73 45.723 1033.64 46.338L1038.02 43.673C1036.1 41.664 1033.39 40.434 1030.4 40.434C1024.49 40.434 1019.7 45.231 1019.7 51.135ZM1020.48 55.112C1020.93 56.219 1021.54 57.244 1022.32 58.146L1026.63 55.522C1025.72 54.743 1025.07 53.677 1024.78 52.488L1020.48 55.112ZM1025.27 51.135V51.422L1033.02 46.707C1032.24 46.256 1031.34 46.01 1030.4 46.01C1027.57 46.01 1025.27 48.306 1025.27 51.135ZM1025.35 52.16C1025.6 53.349 1026.3 54.415 1027.24 55.153L1035.44 50.151C1035.19 48.962 1034.54 47.896 1033.6 47.117L1025.35 52.16ZM1034.21 46.789C1035.11 47.568 1035.77 48.593 1036.01 49.823L1040.36 47.158C1039.91 46.051 1039.25 45.067 1038.52 44.165L1034.21 46.789ZM1048.71 62V42.689C1046.49 44.042 1043.79 46.83 1043.79 51.709V62H1043.13V40.27H1043.79V47.732C1044.81 44.903 1046.41 43.304 1048.71 41.951V40.27H1049.36V41.582C1051 40.762 1052.77 40.352 1054.49 40.352V41.008C1052.77 41.008 1050.96 41.459 1049.36 42.32V49.044C1050.31 47.199 1052.28 45.928 1054.49 45.928V46.584C1051.62 46.584 1049.36 48.88 1049.36 51.709V62H1048.71ZM1066.09 62V33.3H1074.12C1079.33 33.3 1083.55 37.523 1083.55 42.73C1083.55 44.534 1083.06 46.215 1082.16 47.65C1083.06 49.044 1083.55 50.766 1083.55 52.57C1083.55 57.777 1079.33 62 1074.12 62H1066.09ZM1066.74 61.344H1071.66V56.424H1066.74V61.344ZM1066.74 55.768H1071.66V49.372H1066.74V55.768ZM1066.74 48.716H1071.66V46.584H1066.74V48.716ZM1066.74 45.928H1071.66V39.532H1066.74V45.928ZM1066.74 38.876H1071.66V33.956H1066.74V38.876ZM1072.32 61.344H1074.12C1078.96 61.344 1082.9 57.408 1082.9 52.57C1082.9 50.725 1082.32 49.044 1081.38 47.65C1082.32 46.256 1082.9 44.575 1082.9 42.73C1082.9 37.892 1078.96 33.956 1074.12 33.956H1072.32V38.876H1074.12C1076.26 38.876 1077.98 40.598 1077.98 42.73C1077.98 44.862 1076.26 46.584 1074.12 46.584H1072.32V48.716H1074.12C1076.26 48.716 1077.98 50.438 1077.98 52.57C1077.98 54.702 1076.26 56.424 1074.12 56.424H1072.32V61.344ZM1072.32 55.768H1074.12C1075.89 55.768 1077.32 54.333 1077.32 52.57C1077.32 50.807 1075.89 49.372 1074.12 49.372H1072.32V55.768ZM1072.32 45.928H1074.12C1075.89 45.928 1077.32 44.493 1077.32 42.73C1077.32 40.967 1075.89 39.532 1074.12 39.532H1072.32V45.928ZM1097.22 62.492C1090.95 62.492 1085.87 57.408 1085.87 51.135C1085.87 44.862 1090.95 39.778 1097.22 39.778C1103.5 39.778 1108.58 44.862 1108.58 51.135C1108.58 57.408 1103.5 62.492 1097.22 62.492ZM1097.22 61.836C1103.13 61.836 1107.92 57.039 1107.92 51.135C1107.92 45.231 1103.13 40.434 1097.22 40.434C1091.32 40.434 1086.52 45.231 1086.52 51.135C1086.52 57.039 1091.32 61.836 1097.22 61.836ZM1097.22 56.916C1094.02 56.916 1091.44 54.333 1091.44 51.135C1091.44 47.937 1094.02 45.354 1097.22 45.354C1100.42 45.354 1103 47.937 1103 51.135C1103 54.333 1100.42 56.916 1097.22 56.916ZM1097.22 56.26C1100.05 56.26 1102.35 53.964 1102.35 51.135C1102.35 48.306 1100.05 46.01 1097.22 46.01C1094.39 46.01 1092.1 48.306 1092.1 51.135C1092.1 53.964 1094.39 56.26 1097.22 56.26ZM1111.52 62V40.27H1112.18V62H1111.52ZM1117.75 40.27V62H1117.1V40.27H1117.75ZM1117.1 38.138V31.25H1117.75V38.138H1117.1ZM1112.18 31.25V38.138H1111.52V31.25H1112.18ZM1122.59 31.25V62H1121.93V31.25H1122.59ZM1128.16 31.25V62H1127.51V31.25H1128.16ZM1131.11 51.135C1131.11 44.862 1136.19 39.778 1142.47 39.778C1147.47 39.778 1151.69 42.976 1153.21 47.486L1139.88 55.563C1140.66 56.014 1141.52 56.26 1142.47 56.26C1144.52 56.26 1146.28 55.03 1147.1 53.308L1147.71 53.595C1146.81 55.563 1144.8 56.916 1142.47 56.916C1141.28 56.916 1140.17 56.547 1139.27 55.932L1134.84 58.638C1136.77 60.606 1139.47 61.836 1142.47 61.836C1146.73 61.836 1150.46 59.294 1152.18 55.645L1152.76 55.932C1150.95 59.827 1147.02 62.492 1142.47 62.492C1136.19 62.492 1131.11 57.408 1131.11 51.135ZM1131.77 51.135C1131.77 52.324 1131.97 53.431 1132.3 54.497L1136.73 51.791C1136.69 51.586 1136.69 51.34 1136.69 51.135C1136.69 47.937 1139.27 45.354 1142.47 45.354C1143.66 45.354 1144.8 45.723 1145.71 46.338L1150.09 43.673C1148.17 41.664 1145.46 40.434 1142.47 40.434C1136.56 40.434 1131.77 45.231 1131.77 51.135ZM1132.54 55.112C1133 56.219 1133.61 57.244 1134.39 58.146L1138.69 55.522C1137.79 54.743 1137.14 53.677 1136.85 52.488L1132.54 55.112ZM1137.34 51.135V51.422L1145.09 46.707C1144.31 46.256 1143.41 46.01 1142.47 46.01C1139.64 46.01 1137.34 48.306 1137.34 51.135ZM1137.42 52.16C1137.67 53.349 1138.37 54.415 1139.31 55.153L1147.51 50.151C1147.26 48.962 1146.61 47.896 1145.66 47.117L1137.42 52.16ZM1146.28 46.789C1147.18 47.568 1147.84 48.593 1148.08 49.823L1152.43 47.158C1151.98 46.051 1151.32 45.067 1150.58 44.165L1146.28 46.789ZM1160.78 62V42.689C1158.56 44.042 1155.86 46.83 1155.86 51.709V62H1155.2V40.27H1155.86V47.732C1156.88 44.903 1158.48 43.304 1160.78 41.951V40.27H1161.43V41.582C1163.07 40.762 1164.84 40.352 1166.56 40.352V41.008C1164.84 41.008 1163.03 41.459 1161.43 42.32V49.044C1162.38 47.199 1164.34 45.928 1166.56 45.928V46.584C1163.69 46.584 1161.43 48.88 1161.43 51.709V62H1160.78ZM1184.39 39.532V45.928H1187.3C1189.1 45.928 1190.5 44.534 1190.5 42.73C1190.5 40.926 1189.1 39.532 1187.3 39.532H1184.39ZM1184.39 38.876H1187.3C1189.43 38.876 1191.15 40.598 1191.15 42.73C1191.15 44.862 1189.43 46.584 1187.3 46.584H1184.39V51.504H1187.3C1192.22 51.504 1196.07 47.65 1196.07 42.73C1196.07 37.81 1192.22 33.956 1187.3 33.956H1184.39V38.876ZM1178.81 52.16V62H1178.16V33.3H1187.3C1192.55 33.3 1196.73 37.482 1196.73 42.73C1196.73 47.978 1192.55 52.16 1187.3 52.16H1184.39V62H1183.73V52.16H1178.81ZM1178.81 39.532V45.928H1183.73V39.532H1178.81ZM1183.73 33.956H1178.81V38.876H1183.73V33.956ZM1183.73 46.584H1178.81V51.504H1183.73V46.584ZM1200.18 31.25V62H1199.53V31.25H1200.18ZM1205.76 31.25V62H1205.1V31.25H1205.76ZM1225.84 42.115V60.155C1228.59 58.474 1230.76 55.071 1230.76 51.135C1230.76 47.199 1228.59 43.796 1225.84 42.115ZM1220.06 39.778C1221.91 39.778 1223.63 40.229 1225.19 41.008V40.27H1225.84V41.377C1228.14 42.648 1229.9 44.944 1230.76 47.322V40.27H1231.42V62H1230.76V54.907C1229.94 57.244 1228.14 59.663 1225.84 60.934V62H1225.19V61.262C1223.63 62.041 1221.91 62.492 1220.06 62.492C1213.79 62.492 1208.71 57.408 1208.71 51.135C1208.71 44.862 1213.79 39.778 1220.06 39.778ZM1220.06 61.836C1221.91 61.836 1223.67 61.385 1225.19 60.565V53.841C1224.2 55.645 1222.28 56.916 1220.06 56.916C1216.86 56.916 1214.28 54.333 1214.28 51.135C1214.28 47.937 1216.86 45.354 1220.06 45.354C1222.28 45.354 1224.2 46.625 1225.19 48.47V41.746C1223.67 40.926 1221.91 40.434 1220.06 40.434C1214.16 40.434 1209.36 45.231 1209.36 51.135C1209.36 57.039 1214.16 61.836 1220.06 61.836ZM1220.06 56.26C1222.93 56.26 1225.19 53.964 1225.19 51.135C1225.19 48.306 1222.93 46.01 1220.06 46.01C1217.23 46.01 1214.94 48.306 1214.94 51.135C1214.94 53.964 1217.23 56.26 1220.06 56.26ZM1237.65 40.926H1234.41V40.27H1237.65V33.3H1238.31V40.27H1243.23V33.3H1243.88V40.27H1247.12V40.926H1243.88V45.846H1247.12V46.502H1243.88V62H1243.23V46.502H1238.31V62H1237.65V46.502H1234.41V45.846H1237.65V40.926ZM1243.23 40.926H1238.31V45.846H1243.23V40.926ZM1248.46 51.135C1248.46 44.862 1253.55 39.778 1259.82 39.778C1264.82 39.778 1269.05 42.976 1270.56 47.486L1257.24 55.563C1258.02 56.014 1258.88 56.26 1259.82 56.26C1261.87 56.26 1263.63 55.03 1264.45 53.308L1265.07 53.595C1264.17 55.563 1262.16 56.916 1259.82 56.916C1258.63 56.916 1257.53 56.547 1256.62 55.932L1252.2 58.638C1254.12 60.606 1256.83 61.836 1259.82 61.836C1264.09 61.836 1267.82 59.294 1269.54 55.645L1270.11 55.932C1268.31 59.827 1264.37 62.492 1259.82 62.492C1253.55 62.492 1248.46 57.408 1248.46 51.135ZM1249.12 51.135C1249.12 52.324 1249.33 53.431 1249.65 54.497L1254.08 51.791C1254.04 51.586 1254.04 51.34 1254.04 51.135C1254.04 47.937 1256.62 45.354 1259.82 45.354C1261.01 45.354 1262.16 45.723 1263.06 46.338L1267.45 43.673C1265.52 41.664 1262.81 40.434 1259.82 40.434C1253.92 40.434 1249.12 45.231 1249.12 51.135ZM1249.9 55.112C1250.35 56.219 1250.97 57.244 1251.74 58.146L1256.05 55.522C1255.15 54.743 1254.49 53.677 1254.2 52.488L1249.9 55.112ZM1254.7 51.135V51.422L1262.45 46.707C1261.67 46.256 1260.76 46.01 1259.82 46.01C1256.99 46.01 1254.7 48.306 1254.7 51.135ZM1254.78 52.16C1255.02 53.349 1255.72 54.415 1256.66 55.153L1264.86 50.151C1264.62 48.962 1263.96 47.896 1263.02 47.117L1254.78 52.16ZM1263.63 46.789C1264.54 47.568 1265.19 48.593 1265.44 49.823L1269.78 47.158C1269.33 46.051 1268.68 45.067 1267.94 44.165L1263.63 46.789ZM1294.49 62H1293.83L1287.93 46.871V62H1287.27V39.532H1282.35V62H1281.7V33.3H1290.84C1296.09 33.3 1300.27 37.482 1300.27 42.73C1300.27 46.912 1298.18 49.372 1295.76 50.889L1300.07 62H1299.41L1295.23 51.217C1294.04 51.914 1292.36 52.529 1290.96 52.939L1294.49 62ZM1293.59 45.313L1295.51 50.274C1297.73 48.88 1299.61 46.584 1299.61 42.73C1299.61 37.81 1295.76 33.956 1290.84 33.956H1287.93V38.876H1290.84C1292.97 38.876 1294.69 40.598 1294.69 42.73C1294.69 43.714 1294.33 44.575 1293.59 45.313ZM1287.93 39.532V46.871L1289.49 46.543C1292.69 45.846 1294.04 44.493 1294.04 42.73C1294.04 40.926 1292.64 39.532 1290.84 39.532H1287.93ZM1282.35 33.956V38.876H1287.27V33.956H1282.35ZM1294.98 50.602L1293.1 45.764C1291.87 46.707 1290.43 47.035 1288.83 47.363L1290.72 52.283C1291.95 51.955 1293.96 51.217 1294.98 50.602ZM1301.76 51.135C1301.76 44.862 1306.84 39.778 1313.11 39.778C1318.12 39.778 1322.34 42.976 1323.86 47.486L1310.53 55.563C1311.31 56.014 1312.17 56.26 1313.11 56.26C1315.16 56.26 1316.93 55.03 1317.75 53.308L1318.36 53.595C1317.46 55.563 1315.45 56.916 1313.11 56.916C1311.92 56.916 1310.82 56.547 1309.92 55.932L1305.49 58.638C1307.41 60.606 1310.12 61.836 1313.11 61.836C1317.38 61.836 1321.11 59.294 1322.83 55.645L1323.4 55.932C1321.6 59.827 1317.66 62.492 1313.11 62.492C1306.84 62.492 1301.76 57.408 1301.76 51.135ZM1302.41 51.135C1302.41 52.324 1302.62 53.431 1302.95 54.497L1307.37 51.791C1307.33 51.586 1307.33 51.34 1307.33 51.135C1307.33 47.937 1309.92 45.354 1313.11 45.354C1314.3 45.354 1315.45 45.723 1316.35 46.338L1320.74 43.673C1318.81 41.664 1316.11 40.434 1313.11 40.434C1307.21 40.434 1302.41 45.231 1302.41 51.135ZM1303.19 55.112C1303.64 56.219 1304.26 57.244 1305.04 58.146L1309.34 55.522C1308.44 54.743 1307.78 53.677 1307.5 52.488L1303.19 55.112ZM1307.99 51.135V51.422L1315.74 46.707C1314.96 46.256 1314.06 46.01 1313.11 46.01C1310.28 46.01 1307.99 48.306 1307.99 51.135ZM1308.07 52.16C1308.32 53.349 1309.01 54.415 1309.96 55.153L1318.16 50.151C1317.91 48.962 1317.25 47.896 1316.31 47.117L1308.07 52.16ZM1316.93 46.789C1317.83 47.568 1318.48 48.593 1318.73 49.823L1323.08 47.158C1322.63 46.051 1321.97 45.067 1321.23 44.165L1316.93 46.789ZM1341.76 42.115V60.155C1344.5 58.474 1346.68 55.071 1346.68 51.135C1346.68 47.199 1344.5 43.796 1341.76 42.115ZM1335.98 39.778C1337.82 39.778 1339.54 40.229 1341.1 41.008V40.27H1341.76V41.377C1344.05 42.648 1345.82 44.944 1346.68 47.322V40.27H1347.33V62H1346.68V54.907C1345.86 57.244 1344.05 59.663 1341.76 60.934V62H1341.1V61.262C1339.54 62.041 1337.82 62.492 1335.98 62.492C1329.7 62.492 1324.62 57.408 1324.62 51.135C1324.62 44.862 1329.7 39.778 1335.98 39.778ZM1335.98 61.836C1337.82 61.836 1339.58 61.385 1341.1 60.565V53.841C1340.12 55.645 1338.19 56.916 1335.98 56.916C1332.78 56.916 1330.19 54.333 1330.19 51.135C1330.19 47.937 1332.78 45.354 1335.98 45.354C1338.19 45.354 1340.12 46.625 1341.1 48.47V41.746C1339.58 40.926 1337.82 40.434 1335.98 40.434C1330.07 40.434 1325.27 45.231 1325.27 51.135C1325.27 57.039 1330.07 61.836 1335.98 61.836ZM1335.98 56.26C1338.85 56.26 1341.1 53.964 1341.1 51.135C1341.1 48.306 1338.85 46.01 1335.98 46.01C1333.15 46.01 1330.85 48.306 1330.85 51.135C1330.85 53.964 1333.15 56.26 1335.98 56.26ZM1362.38 45.846V46.502H1361.19C1358.69 46.502 1356.56 48.634 1356.56 51.135C1356.56 53.636 1358.69 55.768 1361.19 55.768H1362.38V56.424H1361.19C1358.32 56.424 1355.9 54.005 1355.9 51.135C1355.9 48.265 1358.32 45.846 1361.19 45.846H1362.38ZM1362.38 40.926H1361.19C1355.57 40.926 1350.98 45.518 1350.98 51.135C1350.98 56.752 1355.57 61.344 1361.19 61.344H1362.38V62H1361.19C1355.2 62 1350.32 57.121 1350.32 51.135C1350.32 45.149 1355.2 40.27 1361.19 40.27H1362.38V40.926ZM1367.9 40.926H1364.66V40.27H1367.9V33.3H1368.55V40.27H1373.47V33.3H1374.13V40.27H1377.37V40.926H1374.13V45.846H1377.37V46.502H1374.13V62H1373.47V46.502H1368.55V62H1367.9V46.502H1364.66V45.846H1367.9V40.926ZM1373.47 40.926H1368.55V45.846H1373.47V40.926ZM1402.27 62H1401.62L1395.71 46.871V62H1395.06V39.532H1390.14V62H1389.48V33.3H1398.63C1403.87 33.3 1408.06 37.482 1408.06 42.73C1408.06 46.912 1405.96 49.372 1403.55 50.889L1407.85 62H1407.19L1403.01 51.217C1401.82 51.914 1400.14 52.529 1398.75 52.939L1402.27 62ZM1401.37 45.313L1403.3 50.274C1405.51 48.88 1407.4 46.584 1407.4 42.73C1407.4 37.81 1403.55 33.956 1398.63 33.956H1395.71V38.876H1398.63C1400.76 38.876 1402.48 40.598 1402.48 42.73C1402.48 43.714 1402.11 44.575 1401.37 45.313ZM1395.71 39.532V46.871L1397.27 46.543C1400.47 45.846 1401.82 44.493 1401.82 42.73C1401.82 40.926 1400.43 39.532 1398.63 39.532H1395.71ZM1390.14 33.956V38.876H1395.06V33.956H1390.14ZM1402.77 50.602L1400.88 45.764C1399.65 46.707 1398.22 47.035 1396.62 47.363L1398.5 52.283C1399.73 51.955 1401.74 51.217 1402.77 50.602ZM1420.9 62.492C1414.63 62.492 1409.54 57.408 1409.54 51.135C1409.54 44.862 1414.63 39.778 1420.9 39.778C1427.17 39.778 1432.26 44.862 1432.26 51.135C1432.26 57.408 1427.17 62.492 1420.9 62.492ZM1420.9 61.836C1426.8 61.836 1431.6 57.039 1431.6 51.135C1431.6 45.231 1426.8 40.434 1420.9 40.434C1414.99 40.434 1410.2 45.231 1410.2 51.135C1410.2 57.039 1414.99 61.836 1420.9 61.836ZM1420.9 56.916C1417.7 56.916 1415.12 54.333 1415.12 51.135C1415.12 47.937 1417.7 45.354 1420.9 45.354C1424.1 45.354 1426.68 47.937 1426.68 51.135C1426.68 54.333 1424.1 56.916 1420.9 56.916ZM1420.9 56.26C1423.73 56.26 1426.02 53.964 1426.02 51.135C1426.02 48.306 1423.73 46.01 1420.9 46.01C1418.07 46.01 1415.77 48.306 1415.77 51.135C1415.77 53.964 1418.07 56.26 1420.9 56.26ZM1454.71 40.27V62H1454.06V55.809C1453.15 58.146 1451.39 60.073 1449.14 61.18V62H1448.48V61.508C1447.33 61.959 1446.1 62.205 1444.79 62.205C1439.34 62.205 1434.87 57.736 1434.87 52.283V40.27H1435.52V52.283C1435.52 57.367 1439.71 61.549 1444.79 61.549C1446.1 61.549 1447.33 61.262 1448.48 60.77V54.579C1447.7 55.809 1446.35 56.629 1444.79 56.629C1442.41 56.629 1440.44 54.661 1440.44 52.283V40.27H1441.1V52.283C1441.1 54.292 1442.78 55.973 1444.79 55.973C1446.8 55.973 1448.48 54.292 1448.48 52.283V40.27H1449.14V60.442C1452.05 58.884 1454.06 55.809 1454.06 52.283V40.27H1454.71ZM1460.95 40.926H1457.71V40.27H1460.95V33.3H1461.6V40.27H1466.52V33.3H1467.18V40.27H1470.42V40.926H1467.18V45.846H1470.42V46.502H1467.18V62H1466.52V46.502H1461.6V62H1460.95V46.502H1457.71V45.846H1460.95V40.926ZM1466.52 40.926H1461.6V45.846H1466.52V40.926ZM1471.76 51.135C1471.76 44.862 1476.85 39.778 1483.12 39.778C1488.12 39.778 1492.34 42.976 1493.86 47.486L1480.54 55.563C1481.31 56.014 1482.18 56.26 1483.12 56.26C1485.17 56.26 1486.93 55.03 1487.75 53.308L1488.37 53.595C1487.46 55.563 1485.46 56.916 1483.12 56.916C1481.93 56.916 1480.82 56.547 1479.92 55.932L1475.49 58.638C1477.42 60.606 1480.13 61.836 1483.12 61.836C1487.38 61.836 1491.11 59.294 1492.84 55.645L1493.41 55.932C1491.61 59.827 1487.67 62.492 1483.12 62.492C1476.85 62.492 1471.76 57.408 1471.76 51.135ZM1472.42 51.135C1472.42 52.324 1472.62 53.431 1472.95 54.497L1477.38 51.791C1477.34 51.586 1477.34 51.34 1477.34 51.135C1477.34 47.937 1479.92 45.354 1483.12 45.354C1484.31 45.354 1485.46 45.723 1486.36 46.338L1490.74 43.673C1488.82 41.664 1486.11 40.434 1483.12 40.434C1477.21 40.434 1472.42 45.231 1472.42 51.135ZM1473.2 55.112C1473.65 56.219 1474.26 57.244 1475.04 58.146L1479.35 55.522C1478.44 54.743 1477.79 53.677 1477.5 52.488L1473.2 55.112ZM1477.99 51.135V51.422L1485.74 46.707C1484.96 46.256 1484.06 46.01 1483.12 46.01C1480.29 46.01 1477.99 48.306 1477.99 51.135ZM1478.08 52.16C1478.32 53.349 1479.02 54.415 1479.96 55.153L1488.16 50.151C1487.92 48.962 1487.26 47.896 1486.32 47.117L1478.08 52.16ZM1486.93 46.789C1487.83 47.568 1488.49 48.593 1488.74 49.823L1493.08 47.158C1492.63 46.051 1491.97 45.067 1491.24 44.165L1486.93 46.789ZM1501.43 62V42.689C1499.22 44.042 1496.51 46.83 1496.51 51.709V62H1495.85V40.27H1496.51V47.732C1497.54 44.903 1499.13 43.304 1501.43 41.951V40.27H1502.09V41.582C1503.73 40.762 1505.49 40.352 1507.21 40.352V41.008C1505.49 41.008 1503.69 41.459 1502.09 42.32V49.044C1503.03 47.199 1505 45.928 1507.21 45.928V46.584C1504.34 46.584 1502.09 48.88 1502.09 51.709V62H1501.43ZM1518.81 62V33.3H1526.85C1532.05 33.3 1536.28 37.523 1536.28 42.73C1536.28 44.534 1535.78 46.215 1534.88 47.65C1535.78 49.044 1536.28 50.766 1536.28 52.57C1536.28 57.777 1532.05 62 1526.85 62H1518.81ZM1519.47 61.344H1524.39V56.424H1519.47V61.344ZM1519.47 55.768H1524.39V49.372H1519.47V55.768ZM1519.47 48.716H1524.39V46.584H1519.47V48.716ZM1519.47 45.928H1524.39V39.532H1519.47V45.928ZM1519.47 38.876H1524.39V33.956H1519.47V38.876ZM1525.04 61.344H1526.85C1531.68 61.344 1535.62 57.408 1535.62 52.57C1535.62 50.725 1535.05 49.044 1534.1 47.65C1535.05 46.256 1535.62 44.575 1535.62 42.73C1535.62 37.892 1531.68 33.956 1526.85 33.956H1525.04V38.876H1526.85C1528.98 38.876 1530.7 40.598 1530.7 42.73C1530.7 44.862 1528.98 46.584 1526.85 46.584H1525.04V48.716H1526.85C1528.98 48.716 1530.7 50.438 1530.7 52.57C1530.7 54.702 1528.98 56.424 1526.85 56.424H1525.04V61.344ZM1525.04 55.768H1526.85C1528.61 55.768 1530.04 54.333 1530.04 52.57C1530.04 50.807 1528.61 49.372 1526.85 49.372H1525.04V55.768ZM1525.04 45.928H1526.85C1528.61 45.928 1530.04 44.493 1530.04 42.73C1530.04 40.967 1528.61 39.532 1526.85 39.532H1525.04V45.928ZM1549.94 62.492C1543.67 62.492 1538.59 57.408 1538.59 51.135C1538.59 44.862 1543.67 39.778 1549.94 39.778C1556.22 39.778 1561.3 44.862 1561.3 51.135C1561.3 57.408 1556.22 62.492 1549.94 62.492ZM1549.94 61.836C1555.85 61.836 1560.65 57.039 1560.65 51.135C1560.65 45.231 1555.85 40.434 1549.94 40.434C1544.04 40.434 1539.24 45.231 1539.24 51.135C1539.24 57.039 1544.04 61.836 1549.94 61.836ZM1549.94 56.916C1546.75 56.916 1544.16 54.333 1544.16 51.135C1544.16 47.937 1546.75 45.354 1549.94 45.354C1553.14 45.354 1555.73 47.937 1555.73 51.135C1555.73 54.333 1553.14 56.916 1549.94 56.916ZM1549.94 56.26C1552.77 56.26 1555.07 53.964 1555.07 51.135C1555.07 48.306 1552.77 46.01 1549.94 46.01C1547.12 46.01 1544.82 48.306 1544.82 51.135C1544.82 53.964 1547.12 56.26 1549.94 56.26ZM1564.24 62V40.27H1564.9V62H1564.24ZM1570.47 40.27V62H1569.82V40.27H1570.47ZM1569.82 38.138V31.25H1570.47V38.138H1569.82ZM1564.9 31.25V38.138H1564.24V31.25H1564.9ZM1575.31 31.25V62H1574.65V31.25H1575.31ZM1580.88 31.25V62H1580.23V31.25H1580.88ZM1583.83 51.135C1583.83 44.862 1588.92 39.778 1595.19 39.778C1600.19 39.778 1604.41 42.976 1605.93 47.486L1592.61 55.563C1593.38 56.014 1594.25 56.26 1595.19 56.26C1597.24 56.26 1599 55.03 1599.82 53.308L1600.44 53.595C1599.53 55.563 1597.53 56.916 1595.19 56.916C1594 56.916 1592.89 56.547 1591.99 55.932L1587.56 58.638C1589.49 60.606 1592.2 61.836 1595.19 61.836C1599.45 61.836 1603.18 59.294 1604.91 55.645L1605.48 55.932C1603.68 59.827 1599.74 62.492 1595.19 62.492C1588.92 62.492 1583.83 57.408 1583.83 51.135ZM1584.49 51.135C1584.49 52.324 1584.69 53.431 1585.02 54.497L1589.45 51.791C1589.41 51.586 1589.41 51.34 1589.41 51.135C1589.41 47.937 1591.99 45.354 1595.19 45.354C1596.38 45.354 1597.53 45.723 1598.43 46.338L1602.81 43.673C1600.89 41.664 1598.18 40.434 1595.19 40.434C1589.28 40.434 1584.49 45.231 1584.49 51.135ZM1585.27 55.112C1585.72 56.219 1586.33 57.244 1587.11 58.146L1591.42 55.522C1590.51 54.743 1589.86 53.677 1589.57 52.488L1585.27 55.112ZM1590.06 51.135V51.422L1597.81 46.707C1597.03 46.256 1596.13 46.01 1595.19 46.01C1592.36 46.01 1590.06 48.306 1590.06 51.135ZM1590.15 52.16C1590.39 53.349 1591.09 54.415 1592.03 55.153L1600.23 50.151C1599.99 48.962 1599.33 47.896 1598.39 47.117L1590.15 52.16ZM1599 46.789C1599.9 47.568 1600.56 48.593 1600.81 49.823L1605.15 47.158C1604.7 46.051 1604.04 45.067 1603.31 44.165L1599 46.789ZM1613.5 62V42.689C1611.29 44.042 1608.58 46.83 1608.58 51.709V62H1607.92V40.27H1608.58V47.732C1609.6 44.903 1611.2 43.304 1613.5 41.951V40.27H1614.16V41.582C1615.8 40.762 1617.56 40.352 1619.28 40.352V41.008C1617.56 41.008 1615.75 41.459 1614.16 42.32V49.044C1615.1 47.199 1617.07 45.928 1619.28 45.928V46.584C1616.41 46.584 1614.16 48.88 1614.16 51.709V62H1613.5ZM1637.11 39.532V45.928H1640.02C1641.83 45.928 1643.22 44.534 1643.22 42.73C1643.22 40.926 1641.83 39.532 1640.02 39.532H1637.11ZM1637.11 38.876H1640.02C1642.15 38.876 1643.88 40.598 1643.88 42.73C1643.88 44.862 1642.15 46.584 1640.02 46.584H1637.11V51.504H1640.02C1644.94 51.504 1648.8 47.65 1648.8 42.73C1648.8 37.81 1644.94 33.956 1640.02 33.956H1637.11V38.876ZM1631.53 52.16V62H1630.88V33.3H1640.02C1645.27 33.3 1649.45 37.482 1649.45 42.73C1649.45 47.978 1645.27 52.16 1640.02 52.16H1637.11V62H1636.45V52.16H1631.53ZM1631.53 39.532V45.928H1636.45V39.532H1631.53ZM1636.45 33.956H1631.53V38.876H1636.45V33.956ZM1636.45 46.584H1631.53V51.504H1636.45V46.584ZM1652.9 31.25V62H1652.25V31.25H1652.9ZM1658.48 31.25V62H1657.82V31.25H1658.48ZM1678.56 42.115V60.155C1681.31 58.474 1683.48 55.071 1683.48 51.135C1683.48 47.199 1681.31 43.796 1678.56 42.115ZM1672.78 39.778C1674.63 39.778 1676.35 40.229 1677.91 41.008V40.27H1678.56V41.377C1680.86 42.648 1682.62 44.944 1683.48 47.322V40.27H1684.14V62H1683.48V54.907C1682.66 57.244 1680.86 59.663 1678.56 60.934V62H1677.91V61.262C1676.35 62.041 1674.63 62.492 1672.78 62.492C1666.51 62.492 1661.43 57.408 1661.43 51.135C1661.43 44.862 1666.51 39.778 1672.78 39.778ZM1672.78 61.836C1674.63 61.836 1676.39 61.385 1677.91 60.565V53.841C1676.92 55.645 1675 56.916 1672.78 56.916C1669.59 56.916 1667 54.333 1667 51.135C1667 47.937 1669.59 45.354 1672.78 45.354C1675 45.354 1676.92 46.625 1677.91 48.47V41.746C1676.39 40.926 1674.63 40.434 1672.78 40.434C1666.88 40.434 1662.08 45.231 1662.08 51.135C1662.08 57.039 1666.88 61.836 1672.78 61.836ZM1672.78 56.26C1675.65 56.26 1677.91 53.964 1677.91 51.135C1677.91 48.306 1675.65 46.01 1672.78 46.01C1669.95 46.01 1667.66 48.306 1667.66 51.135C1667.66 53.964 1669.95 56.26 1672.78 56.26ZM1690.37 40.926H1687.13V40.27H1690.37V33.3H1691.03V40.27H1695.95V33.3H1696.6V40.27H1699.84V40.926H1696.6V45.846H1699.84V46.502H1696.6V62H1695.95V46.502H1691.03V62H1690.37V46.502H1687.13V45.846H1690.37V40.926ZM1695.95 40.926H1691.03V45.846H1695.95V40.926ZM1701.19 51.135C1701.19 44.862 1706.27 39.778 1712.54 39.778C1717.54 39.778 1721.77 42.976 1723.28 47.486L1709.96 55.563C1710.74 56.014 1711.6 56.26 1712.54 56.26C1714.59 56.26 1716.36 55.03 1717.18 53.308L1717.79 53.595C1716.89 55.563 1714.88 56.916 1712.54 56.916C1711.35 56.916 1710.25 56.547 1709.34 55.932L1704.92 58.638C1706.84 60.606 1709.55 61.836 1712.54 61.836C1716.81 61.836 1720.54 59.294 1722.26 55.645L1722.83 55.932C1721.03 59.827 1717.09 62.492 1712.54 62.492C1706.27 62.492 1701.19 57.408 1701.19 51.135ZM1701.84 51.135C1701.84 52.324 1702.05 53.431 1702.37 54.497L1706.8 51.791C1706.76 51.586 1706.76 51.34 1706.76 51.135C1706.76 47.937 1709.34 45.354 1712.54 45.354C1713.73 45.354 1714.88 45.723 1715.78 46.338L1720.17 43.673C1718.24 41.664 1715.54 40.434 1712.54 40.434C1706.64 40.434 1701.84 45.231 1701.84 51.135ZM1702.62 55.112C1703.07 56.219 1703.69 57.244 1704.47 58.146L1708.77 55.522C1707.87 54.743 1707.21 53.677 1706.93 52.488L1702.62 55.112ZM1707.42 51.135V51.422L1715.17 46.707C1714.39 46.256 1713.49 46.01 1712.54 46.01C1709.71 46.01 1707.42 48.306 1707.42 51.135ZM1707.5 52.16C1707.75 53.349 1708.44 54.415 1709.39 55.153L1717.59 50.151C1717.34 48.962 1716.68 47.896 1715.74 47.117L1707.5 52.16ZM1716.36 46.789C1717.26 47.568 1717.91 48.593 1718.16 49.823L1722.51 47.158C1722.05 46.051 1721.4 45.067 1720.66 44.165L1716.36 46.789ZM1747.21 62H1746.56L1740.65 46.871V62H1740V39.532H1735.08V62H1734.42V33.3H1743.56C1748.81 33.3 1752.99 37.482 1752.99 42.73C1752.99 46.912 1750.9 49.372 1748.48 50.889L1752.79 62H1752.13L1747.95 51.217C1746.76 51.914 1745.08 52.529 1743.69 52.939L1747.21 62ZM1746.31 45.313L1748.24 50.274C1750.45 48.88 1752.34 46.584 1752.34 42.73C1752.34 37.81 1748.48 33.956 1743.56 33.956H1740.65V38.876H1743.56C1745.69 38.876 1747.42 40.598 1747.42 42.73C1747.42 43.714 1747.05 44.575 1746.31 45.313ZM1740.65 39.532V46.871L1742.21 46.543C1745.41 45.846 1746.76 44.493 1746.76 42.73C1746.76 40.926 1745.37 39.532 1743.56 39.532H1740.65ZM1735.08 33.956V38.876H1740V33.956H1735.08ZM1747.7 50.602L1745.82 45.764C1744.59 46.707 1743.15 47.035 1741.55 47.363L1743.44 52.283C1744.67 51.955 1746.68 51.217 1747.7 50.602ZM1754.48 51.135C1754.48 44.862 1759.56 39.778 1765.83 39.778C1770.84 39.778 1775.06 42.976 1776.58 47.486L1763.25 55.563C1764.03 56.014 1764.89 56.26 1765.83 56.26C1767.88 56.26 1769.65 55.03 1770.47 53.308L1771.08 53.595C1770.18 55.563 1768.17 56.916 1765.83 56.916C1764.65 56.916 1763.54 56.547 1762.64 55.932L1758.21 58.638C1760.14 60.606 1762.84 61.836 1765.83 61.836C1770.1 61.836 1773.83 59.294 1775.55 55.645L1776.13 55.932C1774.32 59.827 1770.39 62.492 1765.83 62.492C1759.56 62.492 1754.48 57.408 1754.48 51.135ZM1755.13 51.135C1755.13 52.324 1755.34 53.431 1755.67 54.497L1760.09 51.791C1760.05 51.586 1760.05 51.34 1760.05 51.135C1760.05 47.937 1762.64 45.354 1765.83 45.354C1767.02 45.354 1768.17 45.723 1769.07 46.338L1773.46 43.673C1771.53 41.664 1768.83 40.434 1765.83 40.434C1759.93 40.434 1755.13 45.231 1755.13 51.135ZM1755.91 55.112C1756.36 56.219 1756.98 57.244 1757.76 58.146L1762.06 55.522C1761.16 54.743 1760.5 53.677 1760.22 52.488L1755.91 55.112ZM1760.71 51.135V51.422L1768.46 46.707C1767.68 46.256 1766.78 46.01 1765.83 46.01C1763.01 46.01 1760.71 48.306 1760.71 51.135ZM1760.79 52.16C1761.04 53.349 1761.73 54.415 1762.68 55.153L1770.88 50.151C1770.63 48.962 1769.98 47.896 1769.03 47.117L1760.79 52.16ZM1769.65 46.789C1770.55 47.568 1771.21 48.593 1771.45 49.823L1775.8 47.158C1775.35 46.051 1774.69 45.067 1773.95 44.165L1769.65 46.789ZM1794.48 42.115V60.155C1797.23 58.474 1799.4 55.071 1799.4 51.135C1799.4 47.199 1797.23 43.796 1794.48 42.115ZM1788.7 39.778C1790.54 39.778 1792.26 40.229 1793.82 41.008V40.27H1794.48V41.377C1796.77 42.648 1798.54 44.944 1799.4 47.322V40.27H1800.05V62H1799.4V54.907C1798.58 57.244 1796.77 59.663 1794.48 60.934V62H1793.82V61.262C1792.26 62.041 1790.54 62.492 1788.7 62.492C1782.42 62.492 1777.34 57.408 1777.34 51.135C1777.34 44.862 1782.42 39.778 1788.7 39.778ZM1788.7 61.836C1790.54 61.836 1792.31 61.385 1793.82 60.565V53.841C1792.84 55.645 1790.91 56.916 1788.7 56.916C1785.5 56.916 1782.92 54.333 1782.92 51.135C1782.92 47.937 1785.5 45.354 1788.7 45.354C1790.91 45.354 1792.84 46.625 1793.82 48.47V41.746C1792.31 40.926 1790.54 40.434 1788.7 40.434C1782.79 40.434 1778 45.231 1778 51.135C1778 57.039 1782.79 61.836 1788.7 61.836ZM1788.7 56.26C1791.57 56.26 1793.82 53.964 1793.82 51.135C1793.82 48.306 1791.57 46.01 1788.7 46.01C1785.87 46.01 1783.57 48.306 1783.57 51.135C1783.57 53.964 1785.87 56.26 1788.7 56.26ZM1815.1 45.846V46.502H1813.91C1811.41 46.502 1809.28 48.634 1809.28 51.135C1809.28 53.636 1811.41 55.768 1813.91 55.768H1815.1V56.424H1813.91C1811.04 56.424 1808.62 54.005 1808.62 51.135C1808.62 48.265 1811.04 45.846 1813.91 45.846H1815.1ZM1815.1 40.926H1813.91C1808.29 40.926 1803.7 45.518 1803.7 51.135C1803.7 56.752 1808.29 61.344 1813.91 61.344H1815.1V62H1813.91C1807.93 62 1803.05 57.121 1803.05 51.135C1803.05 45.149 1807.93 40.27 1813.91 40.27H1815.1V40.926ZM1820.62 40.926H1817.38V40.27H1820.62V33.3H1821.28V40.27H1826.2V33.3H1826.85V40.27H1830.09V40.926H1826.85V45.846H1830.09V46.502H1826.85V62H1826.2V46.502H1821.28V62H1820.62V46.502H1817.38V45.846H1820.62V40.926ZM1826.2 40.926H1821.28V45.846H1826.2V40.926ZM1855 62H1854.34L1848.44 46.871V62H1847.78V39.532H1842.86V62H1842.2V33.3H1851.35C1856.6 33.3 1860.78 37.482 1860.78 42.73C1860.78 46.912 1858.69 49.372 1856.27 50.889L1860.57 62H1859.92L1855.73 51.217C1854.55 51.914 1852.86 52.529 1851.47 52.939L1855 62ZM1854.09 45.313L1856.02 50.274C1858.24 48.88 1860.12 46.584 1860.12 42.73C1860.12 37.81 1856.27 33.956 1851.35 33.956H1848.44V38.876H1851.35C1853.48 38.876 1855.2 40.598 1855.2 42.73C1855.2 43.714 1854.83 44.575 1854.09 45.313ZM1848.44 39.532V46.871L1849.99 46.543C1853.19 45.846 1854.55 44.493 1854.55 42.73C1854.55 40.926 1853.15 39.532 1851.35 39.532H1848.44ZM1842.86 33.956V38.876H1847.78V33.956H1842.86ZM1855.49 50.602L1853.6 45.764C1852.37 46.707 1850.94 47.035 1849.34 47.363L1851.22 52.283C1852.45 51.955 1854.46 51.217 1855.49 50.602ZM1873.62 62.492C1867.35 62.492 1862.26 57.408 1862.26 51.135C1862.26 44.862 1867.35 39.778 1873.62 39.778C1879.89 39.778 1884.98 44.862 1884.98 51.135C1884.98 57.408 1879.89 62.492 1873.62 62.492ZM1873.62 61.836C1879.52 61.836 1884.32 57.039 1884.32 51.135C1884.32 45.231 1879.52 40.434 1873.62 40.434C1867.72 40.434 1862.92 45.231 1862.92 51.135C1862.92 57.039 1867.72 61.836 1873.62 61.836ZM1873.62 56.916C1870.42 56.916 1867.84 54.333 1867.84 51.135C1867.84 47.937 1870.42 45.354 1873.62 45.354C1876.82 45.354 1879.4 47.937 1879.4 51.135C1879.4 54.333 1876.82 56.916 1873.62 56.916ZM1873.62 56.26C1876.45 56.26 1878.74 53.964 1878.74 51.135C1878.74 48.306 1876.45 46.01 1873.62 46.01C1870.79 46.01 1868.49 48.306 1868.49 51.135C1868.49 53.964 1870.79 56.26 1873.62 56.26ZM1907.43 40.27V62H1906.78V55.809C1905.87 58.146 1904.11 60.073 1901.86 61.18V62H1901.2V61.508C1900.05 61.959 1898.82 62.205 1897.51 62.205C1892.06 62.205 1887.59 57.736 1887.59 52.283V40.27H1888.24V52.283C1888.24 57.367 1892.43 61.549 1897.51 61.549C1898.82 61.549 1900.05 61.262 1901.2 60.77V54.579C1900.42 55.809 1899.07 56.629 1897.51 56.629C1895.13 56.629 1893.16 54.661 1893.16 52.283V40.27H1893.82V52.283C1893.82 54.292 1895.5 55.973 1897.51 55.973C1899.52 55.973 1901.2 54.292 1901.2 52.283V40.27H1901.86V60.442C1904.77 58.884 1906.78 55.809 1906.78 52.283V40.27H1907.43ZM1913.67 40.926H1910.43V40.27H1913.67V33.3H1914.33V40.27H1919.25V33.3H1919.9V40.27H1923.14V40.926H1919.9V45.846H1923.14V46.502H1919.9V62H1919.25V46.502H1914.33V62H1913.67V46.502H1910.43V45.846H1913.67V40.926ZM1919.25 40.926H1914.33V45.846H1919.25V40.926ZM1924.48 51.135C1924.48 44.862 1929.57 39.778 1935.84 39.778C1940.84 39.778 1945.07 42.976 1946.58 47.486L1933.26 55.563C1934.04 56.014 1934.9 56.26 1935.84 56.26C1937.89 56.26 1939.65 55.03 1940.47 53.308L1941.09 53.595C1940.19 55.563 1938.18 56.916 1935.84 56.916C1934.65 56.916 1933.54 56.547 1932.64 55.932L1928.21 58.638C1930.14 60.606 1932.85 61.836 1935.84 61.836C1940.1 61.836 1943.84 59.294 1945.56 55.645L1946.13 55.932C1944.33 59.827 1940.39 62.492 1935.84 62.492C1929.57 62.492 1924.48 57.408 1924.48 51.135ZM1925.14 51.135C1925.14 52.324 1925.34 53.431 1925.67 54.497L1930.1 51.791C1930.06 51.586 1930.06 51.34 1930.06 51.135C1930.06 47.937 1932.64 45.354 1935.84 45.354C1937.03 45.354 1938.18 45.723 1939.08 46.338L1943.47 43.673C1941.54 41.664 1938.83 40.434 1935.84 40.434C1929.94 40.434 1925.14 45.231 1925.14 51.135ZM1925.92 55.112C1926.37 56.219 1926.98 57.244 1927.76 58.146L1932.07 55.522C1931.17 54.743 1930.51 53.677 1930.22 52.488L1925.92 55.112ZM1930.72 51.135V51.422L1938.46 46.707C1937.69 46.256 1936.78 46.01 1935.84 46.01C1933.01 46.01 1930.72 48.306 1930.72 51.135ZM1930.8 52.16C1931.04 53.349 1931.74 54.415 1932.68 55.153L1940.88 50.151C1940.64 48.962 1939.98 47.896 1939.04 47.117L1930.8 52.16ZM1939.65 46.789C1940.56 47.568 1941.21 48.593 1941.46 49.823L1945.8 47.158C1945.35 46.051 1944.7 45.067 1943.96 44.165L1939.65 46.789ZM1954.15 62V42.689C1951.94 44.042 1949.23 46.83 1949.23 51.709V62H1948.58V40.27H1949.23V47.732C1950.26 44.903 1951.86 43.304 1954.15 41.951V40.27H1954.81V41.582C1956.45 40.762 1958.21 40.352 1959.93 40.352V41.008C1958.21 41.008 1956.41 41.459 1954.81 42.32V49.044C1955.75 47.199 1957.72 45.928 1959.93 45.928V46.584C1957.06 46.584 1954.81 48.88 1954.81 51.709V62H1954.15ZM1971.53 62V33.3H1979.57C1984.77 33.3 1989 37.523 1989 42.73C1989 44.534 1988.5 46.215 1987.6 47.65C1988.5 49.044 1989 50.766 1989 52.57C1989 57.777 1984.77 62 1979.57 62H1971.53ZM1972.19 61.344H1977.11V56.424H1972.19V61.344ZM1972.19 55.768H1977.11V49.372H1972.19V55.768ZM1972.19 48.716H1977.11V46.584H1972.19V48.716ZM1972.19 45.928H1977.11V39.532H1972.19V45.928ZM1972.19 38.876H1977.11V33.956H1972.19V38.876ZM1977.76 61.344H1979.57C1984.4 61.344 1988.34 57.408 1988.34 52.57C1988.34 50.725 1987.77 49.044 1986.82 47.65C1987.77 46.256 1988.34 44.575 1988.34 42.73C1988.34 37.892 1984.4 33.956 1979.57 33.956H1977.76V38.876H1979.57C1981.7 38.876 1983.42 40.598 1983.42 42.73C1983.42 44.862 1981.7 46.584 1979.57 46.584H1977.76V48.716H1979.57C1981.7 48.716 1983.42 50.438 1983.42 52.57C1983.42 54.702 1981.7 56.424 1979.57 56.424H1977.76V61.344ZM1977.76 55.768H1979.57C1981.33 55.768 1982.76 54.333 1982.76 52.57C1982.76 50.807 1981.33 49.372 1979.57 49.372H1977.76V55.768ZM1977.76 45.928H1979.57C1981.33 45.928 1982.76 44.493 1982.76 42.73C1982.76 40.967 1981.33 39.532 1979.57 39.532H1977.76V45.928Z" fill="white"/>
</g>
<defs>
<clipPath id="clip0_443_857">
<rect width="1940" height="343" fill="white"/>
</clipPath>
</defs>
</svg>
