<svg width="80" height="80" viewBox="0 0 80 80" fill="none" xmlns="http://www.w3.org/2000/svg">
<g id="call-calling-communication-svgrepo-com 1" clip-path="url(#clip0_25_386)">
<path id="Vector" d="M30.625 41.25C30.625 44.9 35.45 46.875 40 46.875C44.55 46.875 49.375 44.9 49.375 41.25C49.375 35.7875 40.9625 35.625 40 35.625C39.0375 35.625 30.625 35.7875 30.625 41.25ZM48.125 41.25C48.125 43.9875 44 45.625 40 45.625C36 45.625 31.875 43.9875 31.875 41.25C31.875 36.925 39.6625 36.875 40 36.875C40.3375 36.875 48.125 36.925 48.125 41.25Z" fill="#272826"/>
<path id="Vector_2" d="M51.25 61.875H43.75C43.5842 61.875 43.4253 61.9408 43.3081 62.0581C43.1908 62.1753 43.125 62.3342 43.125 62.5C43.125 62.6658 43.1908 62.8247 43.3081 62.9419C43.4253 63.0592 43.5842 63.125 43.75 63.125H51.25C51.4158 63.125 51.5747 63.0592 51.6919 62.9419C51.8092 62.8247 51.875 62.6658 51.875 62.5C51.875 62.3342 51.8092 62.1753 51.6919 62.0581C51.5747 61.9408 51.4158 61.875 51.25 61.875Z" fill="#272826"/>
<path id="Vector_3" d="M55.55 16.075L56.0875 17.4C56.4499 18.2783 57.055 19.0352 57.8321 19.582C58.6091 20.1288 59.5259 20.4429 60.475 20.4875C64.9004 20.7377 69.3382 20.3163 73.6375 19.2375C74.5236 19.0014 75.3444 18.567 76.0379 17.9671C76.7315 17.3672 77.2796 16.6175 77.6408 15.7746C78.002 14.9318 78.1669 14.0178 78.123 13.1019C78.0791 12.1859 77.8276 11.292 77.3875 10.4875L74.925 6.025C74.0732 4.45649 72.8582 3.11481 71.3816 2.11225C69.9049 1.10969 68.2096 0.475411 66.4375 0.262502C59.825 -0.487498 48.6125 -0.0124969 32.6875 6.5125C16.7625 13.0375 8.48748 20.6375 4.32498 25.825C3.21263 27.2232 2.4526 28.8683 2.10889 30.6217C1.76518 32.375 1.84786 34.1853 2.34998 35.9L3.74998 40.75C4.15982 42.1277 5.04586 43.315 6.24998 44.1C6.47623 44.2453 6.70988 44.3789 6.94998 44.5C6.58748 44.85 6.18748 45.2125 5.77498 45.5875C5.36248 45.9625 5.11248 46.175 4.78748 46.4875C4.67032 46.6037 4.57732 46.742 4.51386 46.8943C4.4504 47.0466 4.41773 47.21 4.41773 47.375C4.41773 47.54 4.4504 47.7034 4.51386 47.8557C4.57732 48.008 4.67032 48.1463 4.78748 48.2625C4.90511 48.3859 5.04674 48.4839 5.20367 48.5506C5.36059 48.6172 5.52949 48.6511 5.69998 48.65C6.01577 48.6489 6.31945 48.5283 6.54998 48.3125C6.87498 48.025 7.18748 47.725 7.51248 47.45C8.29539 46.7274 9.02637 45.9505 9.69998 45.125C10.6822 45.0964 11.6429 44.8305 12.5 44.35C16.3283 42.114 19.7861 39.2971 22.75 36C23.4333 35.2443 23.8694 34.2979 24 33.2875C24.4654 34.0615 25.0191 34.7788 25.65 35.425C24.3661 37.0906 23.6951 39.1477 23.75 41.25C23.8161 43.2089 23.328 45.1467 22.3418 46.8406C21.3555 48.5344 19.9112 49.9155 18.175 50.825C17.0605 51.4288 16.1609 52.3634 15.6 53.5L11.85 60.8875C11.4379 61.758 11.2325 62.712 11.25 63.675V65H9.99998C9.00541 65 8.05159 65.3951 7.34833 66.0984C6.64506 66.8016 6.24998 67.7554 6.24998 68.75C6.24998 69.7446 6.64506 70.6984 7.34833 71.4016C8.05159 72.1049 9.00541 72.5 9.99998 72.5H11.475C11.6616 73.0242 11.9626 73.5004 12.3561 73.8939C12.7496 74.2874 13.2257 74.5884 13.75 74.775V75C13.75 76.3261 14.2768 77.5979 15.2144 78.5355C16.1521 79.4732 17.4239 80 18.75 80H61.25C62.5761 80 63.8478 79.4732 64.7855 78.5355C65.7232 77.5979 66.25 76.3261 66.25 75V74.775C66.9794 74.5171 67.6112 74.0399 68.0588 73.4088C68.5064 72.7778 68.7478 72.0237 68.75 71.25V63.675C68.748 62.7071 68.5212 61.7528 68.0875 60.8875L64.4 53.5C63.8391 52.3634 62.9394 51.4288 61.825 50.825C60.0887 49.9155 58.6444 48.5344 57.6582 46.8406C56.672 45.1467 56.1838 43.2089 56.25 41.25C56.2906 39.1416 55.6018 37.084 54.3 35.425C56.7126 32.6576 58.1987 29.2046 58.55 25.55C58.6309 25.0058 58.5911 24.4505 58.4335 23.9234C58.2758 23.3963 58.004 22.9103 57.6375 22.5C57.2766 22.1035 56.8363 21.7874 56.3453 21.5721C55.8544 21.3567 55.3236 21.247 54.7875 21.25C53.9013 21.235 53.0385 21.5344 52.352 22.095C51.6656 22.6556 51.1998 23.4412 51.0375 24.3125C50.8037 25.6672 50.2764 26.9543 49.4925 28.0836C48.7087 29.213 47.6873 30.1572 46.5 30.85C42.2153 29.7165 37.7096 29.7165 33.425 30.85C32.2376 30.1572 31.2163 29.213 30.4324 28.0836C29.6486 26.9543 29.1213 25.6672 28.8875 24.3125C28.7251 23.4412 28.2594 22.6556 27.5729 22.095C26.8865 21.5344 26.0236 21.235 25.1375 21.25C24.6014 21.247 24.0706 21.3567 23.5796 21.5721C23.0886 21.7874 22.6484 22.1035 22.2875 22.5C21.9262 22.906 21.6574 23.3857 21.4998 23.9059C21.3423 24.426 21.2997 24.9742 21.375 25.5125C21.4625 26.1875 21.5875 26.8375 21.725 27.4875C21.6 27.375 21.475 27.2625 21.325 27.15C20.8491 26.7714 20.4777 26.2777 20.2459 25.7156C20.014 25.1534 19.9294 24.5415 20 23.9375C20.0374 23.5036 20.1954 23.0887 20.456 22.7398C20.7166 22.3908 21.0695 22.1216 21.475 21.9625L51.475 9.6C51.8821 9.41596 52.3331 9.35115 52.7756 9.4131C53.2181 9.47505 53.634 9.66122 53.975 9.95C54.4462 10.3488 54.8083 10.8609 55.0269 11.4383C55.2456 12.0156 55.3138 12.6391 55.225 13.25C55.0687 14.2036 55.1813 15.1818 55.55 16.075ZM8.74998 68.75C8.74998 68.4185 8.88167 68.1005 9.11609 67.8661C9.35051 67.6317 9.66846 67.5 9.99998 67.5H11.25V70H9.99998C9.66846 70 9.35051 69.8683 9.11609 69.6339C8.88167 69.3995 8.74998 69.0815 8.74998 68.75ZM61.25 77.5H18.75C18.0869 77.5 17.4511 77.2366 16.9822 76.7678C16.5134 76.2989 16.25 75.663 16.25 75H63.75C63.75 75.663 63.4866 76.2989 63.0177 76.7678C62.5489 77.2366 61.913 77.5 61.25 77.5ZM28.25 72.5C28.6229 72.002 28.9692 71.4846 29.2875 70.95C30.2 69.4375 30.975 68.125 32.5 68.125H47.5C49.025 68.125 49.8 69.375 50.7125 70.95C51.0307 71.4846 51.377 72.002 51.75 72.5H28.25ZM60.65 53.025C61.301 53.3917 61.8277 53.9445 62.1625 54.6125L65.7875 61.875H56.25C56.0842 61.875 55.9252 61.9408 55.808 62.0581C55.6908 62.1753 55.625 62.3342 55.625 62.5C55.625 62.6658 55.6908 62.8247 55.808 62.9419C55.9252 63.0592 56.0842 63.125 56.25 63.125H66.25C66.2623 63.3081 66.2623 63.4919 66.25 63.675V71.25C66.25 71.5815 66.1183 71.8995 65.8839 72.1339C65.6494 72.3683 65.3315 72.5 65 72.5H53.4125C52.7616 71.854 52.2136 71.1121 51.7875 70.3C50.825 68.75 49.725 66.875 47.5 66.875H32.5C30.275 66.875 29.175 68.7 28.2125 70.3C27.7864 71.1121 27.2384 71.854 26.5875 72.5H15C14.6685 72.5 14.3505 72.3683 14.1161 72.1339C13.8817 71.8995 13.75 71.5815 13.75 71.25V63.675C13.7584 63.4905 13.7793 63.3067 13.8125 63.125H38.75C38.9157 63.125 39.0747 63.0592 39.1919 62.9419C39.3091 62.8247 39.375 62.6658 39.375 62.5C39.375 62.3342 39.3091 62.1753 39.1919 62.0581C39.0747 61.9408 38.9157 61.875 38.75 61.875H14.2125L17.8375 54.6125C18.1722 53.9445 18.6989 53.3917 19.35 53.025C22.0901 51.5532 24.2137 49.1503 25.3375 46.25C28.1375 50.3 34.2 52.5 40 52.5C45.8 52.5 51.8625 50.35 54.6625 46.25C55.7863 49.1503 57.9099 51.5532 60.65 53.025ZM49.5125 31.875C51.5867 30.013 52.9957 27.5242 53.525 24.7875C53.5756 24.494 53.7293 24.2282 53.9585 24.038C54.1876 23.8478 54.4772 23.7457 54.775 23.75C54.9612 23.7466 55.1458 23.7849 55.3153 23.8619C55.4848 23.939 55.6349 24.053 55.7548 24.1956C55.8746 24.3382 55.961 24.5057 56.0078 24.686C56.0545 24.8662 56.0604 25.0547 56.025 25.2375C55.7327 28.3386 54.5032 31.2773 52.5 33.6625L52.35 33.5625C52 33.3 51.6375 33.05 51.25 32.8125L50.825 32.5625C50.4625 32.3625 50.0875 32.175 49.7125 32L49.5125 31.875ZM46.4625 33.4375C46.925 33.575 47.375 33.725 47.8 33.8875L48.075 34C48.4807 34.1564 48.8772 34.3359 49.2625 34.5375L49.425 34.6125C49.8292 34.8263 50.2176 35.0686 50.5875 35.3375C50.9479 35.602 51.2903 35.8901 51.6125 36.2C52.3023 36.8453 52.849 37.6283 53.2172 38.4982C53.5854 39.3681 53.7669 40.3055 53.75 41.25C53.75 46.725 46.7625 50 40 50C33.2375 50 26.25 46.725 26.25 41.25C26.2353 40.3167 26.4143 39.3904 26.7758 38.5298C27.1372 37.6692 27.6732 36.8929 28.35 36.25C28.6722 35.9401 29.0146 35.652 29.375 35.3875C29.7448 35.1186 30.1333 34.8763 30.5375 34.6625L30.7 34.5875C31.0853 34.3859 31.4817 34.2064 31.8875 34.05L32.1625 33.9375C32.5875 33.7708 33.0375 33.6208 33.5125 33.4875C35.6239 32.8826 37.8042 32.5507 40 32.5C42.1851 32.5381 44.3566 32.8531 46.4625 33.4375ZM24.2375 24.1875C24.3602 24.0503 24.5105 23.9404 24.6784 23.865C24.8464 23.7897 25.0284 23.7505 25.2125 23.75C25.5103 23.7457 25.7998 23.8478 26.029 24.038C26.2582 24.2282 26.4119 24.494 26.4625 24.7875C26.9918 27.5242 28.4008 30.013 30.475 31.875L30.2375 32C29.8625 32.175 29.4875 32.3625 29.125 32.575L28.7 32.8125C28.3125 33.05 27.95 33.3 27.6 33.5625L27.45 33.6625C25.4422 31.2788 24.2083 28.34 23.9125 25.2375C23.8884 25.0494 23.9049 24.8584 23.961 24.6772C24.017 24.4961 24.1113 24.3291 24.2375 24.1875ZM75.4875 14.0625C75.3571 14.7119 75.0482 15.3121 74.5955 15.7957C74.1429 16.2792 73.5644 16.627 72.925 16.8C68.8912 17.84 64.7228 18.2615 60.5625 18.05C60.0861 18.0283 59.6259 17.8709 59.2361 17.5963C58.8463 17.3217 58.5432 16.9413 58.3625 16.5L57.825 15.175C57.6429 14.71 57.5953 14.2033 57.6875 13.7125C57.7243 13.3635 57.7243 13.0115 57.6875 12.6625C63.3799 12.3332 69.0505 11.6989 74.675 10.7625L75.1625 11.6625C75.5615 12.3951 75.6899 13.2448 75.525 14.0625H75.4875ZM20.8375 30.3125L21.375 31.6375C21.5569 32.0785 21.6088 32.5623 21.5247 33.0319C21.4405 33.5015 21.2237 33.9371 20.9 34.2875C18.115 37.3826 14.8734 40.034 11.2875 42.15C10.8193 42.4146 10.2973 42.5697 9.76055 42.6037C9.22385 42.6378 8.68641 42.5499 8.18852 42.3467C7.69063 42.1434 7.24521 41.8301 6.88567 41.4302C6.52612 41.0303 6.26179 40.5541 6.11248 40.0375L5.82498 39.0625C10.4336 35.769 14.8687 32.2393 19.1125 28.4875C19.3497 28.7431 19.6091 28.9774 19.8875 29.1875C20.3179 29.4708 20.66 29.8692 20.875 30.3375L20.8375 30.3125ZM50.575 7.2875L20.575 19.65C19.7457 19.9683 19.0202 20.5087 18.4778 21.2121C17.9353 21.9155 17.5971 22.7546 17.5 23.6375C17.3452 24.9909 17.6536 26.3569 18.375 27.5125C14.2618 31.1631 9.96448 34.601 5.49998 37.8125L4.74998 35.2125C4.3566 33.8832 4.28751 32.4791 4.5485 31.1176C4.80948 29.7562 5.39293 28.4771 6.24998 27.3875C10.225 22.3875 18.2 15.1875 33.625 8.85C45.7875 3.85 55 2.5 61.5 2.5C63.0534 2.49743 64.6058 2.58089 66.15 2.75C67.5237 2.92159 68.8372 3.41669 69.9823 4.19463C71.1275 4.97257 72.0718 6.01114 72.7375 7.225L73.9875 9.6125C68.5538 10.4717 63.0801 11.0557 57.5875 11.3625C57.2922 10.0438 56.5666 8.86085 55.525 8C54.8437 7.44032 54.0222 7.078 53.1495 6.95239C52.2768 6.82678 51.3864 6.94268 50.575 7.2875Z" fill="#272826"/>
<path id="Vector_4" d="M2.69991 66.3251C2.81628 66.4844 2.96868 66.6138 3.14465 66.7029C3.32062 66.792 3.51518 66.8381 3.71241 66.8376C3.97719 66.8386 4.23544 66.7554 4.44991 66.6001C4.58315 66.5035 4.696 66.3815 4.78198 66.2411C4.86796 66.1008 4.92537 65.9448 4.95092 65.7822C4.97647 65.6196 4.96966 65.4536 4.93088 65.2936C4.89209 65.1337 4.8221 64.983 4.72491 64.8501C3.86056 63.623 3.2565 62.2319 2.94991 60.7626C2.86857 60.4482 2.66806 60.1778 2.39083 60.0086C2.1136 59.8395 1.78141 59.7849 1.46462 59.8563C1.14782 59.9278 0.871278 60.1198 0.693548 60.3916C0.515819 60.6634 0.450854 60.9937 0.51241 61.3126C0.893637 63.1147 1.63793 64.8202 2.69991 66.3251Z" fill="#272826"/>
<path id="Vector_5" d="M1.25001 57.3251C1.58153 57.3251 1.89947 57.1934 2.13389 56.959C2.36831 56.7246 2.50001 56.4066 2.50001 56.0751C2.49913 54.5996 2.85508 53.1458 3.53751 51.8376C3.69157 51.5442 3.72282 51.2016 3.62437 50.8852C3.52592 50.5687 3.30584 50.3043 3.01251 50.1501C2.7191 49.9961 2.37651 49.9648 2.06007 50.0633C1.74363 50.1617 1.47924 50.3818 1.32501 50.6751C0.452261 52.3322 -0.00258372 54.1773 1.10397e-05 56.0501C1.10397e-05 56.3816 0.131707 56.6996 0.366128 56.934C0.600548 57.1684 0.91849 57.3001 1.25001 57.3001V57.3251Z" fill="#272826"/>
<path id="Vector_6" d="M13.3124 4.56245C13.2527 4.61856 13.205 4.68633 13.1724 4.76158C13.1399 4.83682 13.123 4.91795 13.123 4.99995C13.123 5.08194 13.1399 5.16307 13.1724 5.23831C13.205 5.31356 13.2527 5.38133 13.3124 5.43745L14.5624 6.68745C14.6186 6.74723 14.6863 6.79489 14.7616 6.82746C14.8368 6.86004 14.9179 6.87684 14.9999 6.87684C15.0819 6.87684 15.1631 6.86004 15.2383 6.82746C15.3136 6.79489 15.3813 6.74723 15.4374 6.68745C15.4972 6.63133 15.5449 6.56356 15.5775 6.48831C15.61 6.41307 15.6268 6.33194 15.6268 6.24995C15.6268 6.16795 15.61 6.08682 15.5775 6.01158C15.5449 5.93633 15.4972 5.86856 15.4374 5.81245L14.1874 4.56245C14.1313 4.50266 14.0636 4.455 13.9883 4.42243C13.9131 4.38985 13.8319 4.37305 13.7499 4.37305C13.6679 4.37305 13.5868 4.38985 13.5116 4.42243C13.4363 4.455 13.3686 4.50266 13.3124 4.56245Z" fill="#272826"/>
<path id="Vector_7" d="M18.125 6.25V5C18.125 4.83424 18.0592 4.67527 17.9419 4.55806C17.8247 4.44085 17.6658 4.375 17.5 4.375C17.3342 4.375 17.1753 4.44085 17.0581 4.55806C16.9408 4.67527 16.875 4.83424 16.875 5V6.25C16.875 6.41576 16.9408 6.57473 17.0581 6.69194C17.1753 6.80915 17.3342 6.875 17.5 6.875C17.6658 6.875 17.8247 6.80915 17.9419 6.69194C18.0592 6.57473 18.125 6.41576 18.125 6.25Z" fill="#272826"/>
<path id="Vector_8" d="M13.75 9.375H15C15.1658 9.375 15.3247 9.30915 15.4419 9.19194C15.5592 9.07473 15.625 8.91576 15.625 8.75C15.625 8.58424 15.5592 8.42527 15.4419 8.30806C15.3247 8.19085 15.1658 8.125 15 8.125H13.75C13.5842 8.125 13.4253 8.19085 13.3081 8.30806C13.1908 8.42527 13.125 8.58424 13.125 8.75C13.125 8.91576 13.1908 9.07473 13.3081 9.19194C13.4253 9.30915 13.5842 9.375 13.75 9.375Z" fill="#272826"/>
</g>
<defs>
<clipPath id="clip0_25_386">
<rect width="80" height="80" fill="white"/>
</clipPath>
</defs>
</svg>
