<svg width="80" height="80" viewBox="0 0 80 80" fill="none" xmlns="http://www.w3.org/2000/svg">
<g id="gift-svgrepo-com (1)" clip-path="url(#clip0_25_378)">
<g id="Group">
<g id="Group_2">
<g id="Group_3">
<path id="Vector" d="M79.2792 49.0166C76.9568 45.7823 74.5934 45.6943 68.7148 48.7857L57.0743 55.8978C55.7524 56.5976 52.9723 56.9908 49.092 57.085C48.91 57.0894 48.7296 57.0933 48.5493 57.0964C49.1528 55.8459 48.8618 54.3143 47.7412 52.6412C45.6464 49.5133 42.023 47.6644 38.1598 47.6644H32.9582C30.1342 47.6644 27.4477 46.8118 25.318 45.2063C23.2698 43.6624 20.6335 43.3885 17.6166 44.0946C15.6583 44.553 13.6034 45.4082 11.5199 46.5443C10.758 46.9598 10.0278 47.3956 9.33373 47.8374V46.3682C9.33373 45.6318 8.73684 45.0349 8.00041 45.0349H1.33332C0.596894 45.0349 0 45.6318 0 46.3682V78.3692C0 79.1057 0.59705 79.7026 1.33332 79.7026H8.00025C8.73668 79.7026 9.33357 79.1057 9.33357 78.3692V75.7026H26.6672C29.3959 75.7026 32.1229 75.4963 34.8225 75.0862L52.1062 72.458C52.7307 72.4506 53.3514 72.3781 53.9679 72.2444C55.5747 72.0133 57.091 71.2295 58.3443 70.0477L78.5546 54.3088C80.1583 52.9794 80.4681 50.6743 79.2792 49.0166ZM2.6668 77.0359V47.7017H6.66693V50.3662C6.66693 50.367 6.66677 50.3677 6.66677 50.3685V74.3693C6.66677 74.3702 6.66693 74.371 6.66693 74.3719V77.0361H2.6668V77.0359ZM76.8973 52.2194L56.6544 67.9836L56.5518 68.0724C55.6691 68.9172 54.6286 69.4587 53.5698 69.6073C52.9581 69.7371 52.4798 69.7916 52.0016 69.7916L51.8012 69.8068L34.4219 72.4495C31.8549 72.8397 29.2619 73.0358 26.6674 73.0358H9.33357V51.0446C9.49936 50.9274 9.69358 50.7928 9.9139 50.6435C10.7999 50.0441 11.7719 49.4443 12.7965 48.8855C14.6864 47.8548 16.5302 47.0875 18.2243 46.6911C20.5414 46.1487 22.393 46.3411 23.7126 47.3358C26.3172 49.2993 29.5689 50.3312 32.9582 50.3312H38.1598C41.1513 50.3312 43.9364 51.7523 45.5255 54.1252C46.2544 55.2134 46.3088 55.7534 46.073 56.0535C45.8022 56.3982 45.0684 56.7097 44.0175 56.8875C43.0949 57.0436 42.0963 57.0801 41.2347 57.0473C41.2308 57.0472 41.2268 57.0531 41.2225 57.0617C41.1372 57.0445 41.0489 57.0353 40.9586 57.0353H28.0009C24.0164 57.0353 21.334 58.791 21.334 62.3687C21.334 63.1052 21.9308 63.7021 22.6673 63.7021C23.4037 63.7021 24.0006 63.1052 24.0006 62.3687C24.0006 60.5596 25.3109 59.7019 28.0007 59.7019H40.9585C41.5405 59.7019 41.7569 59.7052 43.6045 59.7385C46.0221 59.7819 47.5187 59.7904 49.1567 59.7507C53.4478 59.6465 56.513 59.213 58.3954 58.2127L70.0308 51.1034C74.7945 48.6016 75.723 48.6361 77.1126 50.5713C77.4781 51.0812 77.3848 51.8039 76.8973 52.2194Z" fill="black"/>
<path id="Vector_2" d="M25.3339 16.8057V35.7011C25.3339 37.9099 27.1246 39.7012 29.334 39.7012H35.9983C35.9992 39.7012 36 39.7014 36.0009 39.7014H44.0012C44.0021 39.7014 44.0029 39.7012 44.0038 39.7012H50.6681C52.8776 39.7012 54.6682 37.9099 54.6682 35.7011V16.8055C56.2219 16.2564 57.335 14.7758 57.335 13.0338V9.03372C57.335 6.82396 55.5447 5.03359 53.3349 5.03359H52.0016V3.22697C52.0016 1.22894 50.0447 -0.181885 48.1491 0.450009L43.2163 2.09459C42.3224 1.41801 41.2088 1.01628 40.0011 1.01628C38.7934 1.01628 37.6799 1.41816 36.7858 2.09459L31.8532 0.449853C29.9576 -0.182042 28.0007 1.22878 28.0007 3.22681V5.03375H26.6674C24.4576 5.03375 22.6672 6.82411 22.6672 9.03387V13.034C22.6672 14.7755 23.7804 16.2564 25.3339 16.8057ZM28.0007 35.7011V17.0343H34.6676V37.0344H29.3342C28.5977 37.0344 28.0007 36.4374 28.0007 35.7011ZM37.3343 15.701V15.7005V10.9692C37.3457 10.9758 37.3575 10.9814 37.3689 10.9878C37.444 11.0305 37.52 11.0714 37.5974 11.1105C37.6152 11.1196 37.6329 11.1289 37.6507 11.1378C37.746 11.1847 37.8426 11.2293 37.941 11.2705C37.9488 11.2738 37.9569 11.2766 37.9647 11.2799C38.0527 11.3163 38.1421 11.35 38.2324 11.3818C38.2594 11.3913 38.2868 11.4002 38.314 11.4094C38.3904 11.4349 38.4676 11.4586 38.5455 11.4807C38.5716 11.488 38.5976 11.4958 38.6238 11.5029C38.726 11.53 38.8292 11.555 38.9337 11.5763C38.9413 11.5779 38.9492 11.579 38.9568 11.5804C39.0527 11.5994 39.1496 11.6154 39.2473 11.6293C39.279 11.6338 39.3107 11.6374 39.3426 11.6413C39.4207 11.651 39.4995 11.6588 39.5787 11.665C39.6106 11.6675 39.6425 11.6704 39.6746 11.6724C39.7828 11.679 39.8914 11.6833 40.0011 11.6833C40.1108 11.6833 40.2194 11.679 40.3275 11.6724C40.3595 11.6705 40.3914 11.6675 40.4233 11.665C40.5025 11.6588 40.5811 11.651 40.6594 11.6413C40.6912 11.6374 40.723 11.6336 40.7547 11.6293C40.8523 11.6155 40.9494 11.5994 41.0452 11.5804C41.0528 11.5788 41.0606 11.5779 41.0683 11.5763C41.1728 11.555 41.2759 11.53 41.3783 11.5029C41.4045 11.4958 41.4303 11.488 41.4564 11.4807C41.5344 11.4586 41.6116 11.4349 41.6881 11.4094C41.7153 11.4004 41.7427 11.3913 41.7696 11.3819C41.8599 11.3502 41.9492 11.3164 42.0372 11.28C42.045 11.2768 42.0532 11.2739 42.061 11.2707C42.1594 11.2294 42.2561 11.1849 42.3514 11.138C42.3694 11.1292 42.3869 11.1197 42.4046 11.1108C42.4819 11.0717 42.558 11.0308 42.633 10.9882C42.6444 10.9816 42.6563 10.9761 42.6677 10.9696V15.7008V37.0349H37.3343V15.701ZM52.0014 35.7011C52.0014 36.4374 51.4045 37.0344 50.6681 37.0344H45.3347V17.0338H52.0016L52.0014 35.7011ZM53.3348 7.70024C54.0717 7.70024 54.6681 8.29666 54.6681 9.03356V13.0337C54.6681 13.7707 54.0717 14.367 53.3348 14.367H45.3345V11.3111L48.1488 12.2494C50.0443 12.8813 52.0013 11.4705 52.0013 9.47248V9.47232V7.70024H53.3348ZM48.9924 2.97978C49.1609 2.92368 49.3348 3.04884 49.3348 3.22697V6.36691V9.47232C49.3348 9.6503 49.161 9.77561 48.9924 9.71936L45.3347 8.49932V6.36707C45.3347 6.36519 45.3344 6.36332 45.3344 6.36144C45.3344 6.35754 45.3347 6.35363 45.3347 6.34973C45.3347 6.2605 45.3323 6.17159 45.3279 6.08315C45.3245 6.01409 45.3187 5.94565 45.3126 5.87721C45.3111 5.85955 45.3103 5.84174 45.3086 5.82408C45.2573 5.30047 45.1298 4.79952 44.9384 4.33154L48.9924 2.97978ZM41.8714 4.44998C41.8913 4.47404 41.9094 4.49889 41.9313 4.52201C42.2841 4.89499 42.5208 5.34829 42.6179 5.83987C42.6227 5.86471 42.6252 5.89034 42.6294 5.91549C42.6391 5.97299 42.649 6.03034 42.6547 6.08878C42.6629 6.17253 42.6674 6.25738 42.6676 6.34332C42.6674 6.34941 42.6666 6.35535 42.6666 6.3616C42.6663 6.45238 42.6611 6.54192 42.6519 6.63036C42.6508 6.64005 42.6488 6.64942 42.6477 6.65911C42.6391 6.73302 42.6279 6.80615 42.6135 6.87818C42.6041 6.92349 42.5921 6.96818 42.5804 7.01287C42.5719 7.046 42.5641 7.07959 42.5544 7.11225C42.4346 7.50632 42.2228 7.86962 41.9313 8.17791C41.9102 8.20025 41.8927 8.22432 41.8735 8.2476C41.5131 8.60355 41.0522 8.85793 40.537 8.96309C40.5194 8.96668 40.5009 8.96809 40.4831 8.97137C40.4137 8.98403 40.3442 8.99621 40.2731 9.0034C40.1837 9.01246 40.0929 9.01715 40.0011 9.01715C39.9092 9.01715 39.8186 9.01246 39.729 9.0034C39.6579 8.99621 39.5884 8.98418 39.519 8.97137C39.5012 8.96809 39.4828 8.96668 39.4651 8.96309C38.9499 8.85793 38.489 8.60355 38.1287 8.2476C38.1094 8.22432 38.0919 8.20041 38.0708 8.17791C37.7793 7.86977 37.5675 7.50648 37.4477 7.11225C37.438 7.07959 37.4304 7.04631 37.4219 7.01318C37.4102 6.96834 37.398 6.92381 37.3888 6.87818C37.3744 6.8063 37.363 6.73333 37.3546 6.65942C37.3535 6.64973 37.3514 6.6402 37.3504 6.63052C37.3411 6.54223 37.3361 6.45254 37.3357 6.36176C37.3357 6.35566 37.3347 6.34973 37.3347 6.34347C37.3349 6.25753 37.3394 6.17269 37.3475 6.08894C37.3533 6.03018 37.3632 5.97253 37.373 5.91471C37.3771 5.89002 37.3796 5.86471 37.3844 5.84018C37.4816 5.3486 37.7182 4.8953 38.071 4.52217C38.0929 4.49904 38.111 4.4742 38.1307 4.45013C38.6121 3.97621 39.2721 3.68308 40.0011 3.68308C40.7301 3.68292 41.3902 3.97606 41.8714 4.44998ZM30.6675 3.22697C30.6675 3.049 30.8412 2.92368 31.0098 2.97993L35.0639 4.33154C34.8723 4.79952 34.7448 5.30047 34.6937 5.82408C34.692 5.84174 34.6912 5.85955 34.6896 5.87721C34.6837 5.94565 34.6778 6.01393 34.6743 6.08315C34.67 6.17159 34.6676 6.2605 34.6676 6.34973C34.6676 6.35363 34.6679 6.35754 34.6679 6.36144C34.6679 6.36332 34.6676 6.36519 34.6676 6.36707V8.49964L31.01 9.71842C30.8541 9.77046 30.6955 9.66655 30.6722 9.51092C30.6703 9.49826 30.6675 9.48592 30.6675 9.47248V6.36723V3.22697ZM25.3339 9.03403C25.3339 8.29713 25.9303 7.70071 26.6672 7.70071H28.0005V9.47248V9.47279C28.0005 9.63795 28.0151 9.79858 28.0407 9.95499C28.3249 11.6896 30.1142 12.8291 31.8528 12.2496L34.6673 11.3113V14.3673H26.6671C26.6656 14.3673 26.6644 14.3675 26.6631 14.3675C25.9286 14.3653 25.3337 13.7692 25.3337 13.0343V9.03403H25.3339Z" fill="black"/>
</g>
</g>
</g>
</g>
<defs>
<clipPath id="clip0_25_378">
<rect width="80" height="80" fill="white"/>
</clipPath>
</defs>
</svg>
