<svg width="916" height="242" viewBox="0 0 916 242" fill="none" xmlns="http://www.w3.org/2000/svg">
<path d="M785.2 241C782.2 240.5 779.2 240 776.2 239.6C753.5 236.1 733.5 226.8 716.2 211.9C694.8 193.4 681.3 170.1 676.4 142.3C665.2 79.2997 704.3 19.2997 765.6 4.59972C811 -6.30028 850.8 5.79972 883.2 39.5997C899.9 56.9997 909.8 78.0997 913.6 101.9C923.5 164.5 883.8 223 823.2 237.7C817.7 239 812 239.6 806.3 240.5C805.6 240.6 805 240.9 804.4 241.1C798 241 791.6 241 785.2 241ZM808.4 77.7997C813 71.3997 809.9 65.0997 805.7 61.3997C803.2 59.1997 800.5 57.6997 797.2 57.4997C792.9 57.1997 789.4 58.9997 786.6 62.2997C784.2 56.9997 780 56.2997 775.1 60.0997C773.5 56.8997 771 55.1997 767.4 55.7997C763.8 56.3997 760.9 57.8997 760.6 62.1997C756.1 58.8997 751.1 58.9997 746.6 62.0997C742.1 65.2997 741.1 69.9997 741.5 75.2997C737 74.7997 733.3 75.6997 731.5 79.8997C729.7 84.2997 730.6 88.1997 734.4 91.2997C730.3 97.8997 733.2 102.8 741.8 104.2C741.7 104.6 741.7 104.9 741.6 105.3C739.9 111.2 743.2 117.4 749.1 118.9C750.8 119.3 752.6 119.5 754.3 119.5C756.5 119.4 757.8 120.4 758.6 122.2C759.1 123.4 759.6 124.6 759.9 125.8C760.9 130.5 761.8 135.2 762.6 139.9C762.9 141.3 763.5 141.8 764.9 141.8C767.9 141.8 770.9 141.8 773.8 141.8C778 141.8 778 141.8 777.9 137.7C777.4 124.4 784.8 112.5 796.3 108.3C797.7 107.8 797.6 107.1 797.4 105.9C796.9 101.9 798.4 98.4997 801.8 96.1997C805 93.9997 808.4 94.2997 811.7 96.1997C814.8 97.9997 814.9 97.9997 817 94.6997C816.4 94.1997 815.9 93.4997 815.2 93.0997C814.5 92.5997 813.6 92.3997 812.7 91.9997C816.2 85.4997 813.1 78.3997 808.4 77.7997ZM745.2 148.4C745.2 150.3 745.2 152 745.2 153.7C745.4 171.6 760.1 186.2 777.9 186.3C794 186.3 810.1 186.3 826.2 186.3C828.4 186.3 830.6 186 832.8 185.6C849.1 181.9 859.2 168.8 859.2 151.6C859.2 148.6 859.2 148.6 856.2 148.6C820.2 148.6 784.2 148.6 748.1 148.6C747.2 148.4 746.3 148.4 745.2 148.4ZM816.1 111.6C814 107.7 811.8 104.4 808.3 102.3C806.9 101.5 805.7 101.5 804.8 103C804 104.5 804.3 105.8 805.8 106.7C806.3 107 806.9 107.2 807.4 107.5C810.2 108.9 812.6 110.9 814.2 114C809.8 112.9 805.6 112.9 801.5 113.9C789.7 116.8 784.2 127.8 784.9 138.1C785.1 141.7 785.3 141.7 788.9 141.7C801.8 141.7 814.7 141.7 827.6 141.7C834.4 141.7 841.2 141.7 848 141.7C849.8 141.7 850.4 141.1 850.5 139.2C850.8 132.9 848.8 127.4 845.3 122.3C842.9 118.8 839.9 116 836 114.5C837.6 112.5 839.7 110.9 840.5 108.8C842 104.5 844.8 101.5 848.3 98.8997C848.9 98.3997 849.5 97.8997 850.5 97.0997C849 96.4997 848.1 95.8997 847.1 95.8997C842.9 95.5997 838.6 95.1997 834.4 95.4997C824.2 96.1997 818.1 101.6 816.1 111.6Z" fill="#333333"/>
<path d="M43.3999 146.6C35.6999 152.8 18.1999 151.6 9.19989 142.6C-4.60011 128.7 -1.7001 99.5999 21.2999 92.3999C31.1999 89.2999 39.7999 92.0999 47.4999 98.3999C48.0999 98.8999 48.7999 99.4999 49.2999 99.8999C52.6999 98.2999 53.0999 92.7999 58.2999 93.4999C58.2999 94.3999 58.3999 95.1999 58.3999 95.9999C58.3999 111.4 58.1999 126.8 58.4999 142.2C58.6999 156 48.4999 168.2 35.3999 170.6C31.7999 171.2 27.9999 171 24.1999 171C23.6999 171 22.7999 170 22.7999 169.5C22.6999 165.8 22.6999 162.2 22.6999 158.5C22.6999 157.2 23.3999 157 24.4999 157C27.0999 157 29.6999 157.1 32.2999 156.9C37.7999 156.6 42.2999 152.4 43.3999 146.6ZM15.1999 120.6C15.0999 129.8 20.9999 136.3 29.2999 136.3C37.3999 136.3 44.2999 129.2 44.2999 120.8C44.2999 112.6 37.2999 105.2 29.4999 105.1C21.0999 105.2 15.2999 111.4 15.1999 120.6Z" fill="#333333"/>
<path d="M565 149.2C563 149.8 561.6 149.3 560.5 147.5C559.3 145.6 557.9 143.8 556.4 141.7C555.4 142.5 554.5 143.1 553.6 143.8C537.8 156.5 519.3 149.4 511.8 136.5C502.2 120 509.4 96.7 529.9 91.8C535.8 90.4 541.7 90.6 547.2 93.8C548.5 94.6 549.6 95.6 551 96.8C551.1 95.7 551.1 94.9 551.1 94.1C551.1 87.1 551.2 80.1 551.1 73.1C551.1 71.1 551.7 70.5 553.7 70.5C557.4 70.6 561.1 70.5 565.1 70.5C565 96.9 565 123 565 149.2ZM536.3 136.4C544 136.4 550.4 129.8 550.9 121.4C551.5 110.9 541.2 102.7 531.6 106C525.2 108.2 522.3 113.1 521.8 119.6C521.1 129.4 528.6 136.7 536.3 136.4Z" fill="#333333"/>
<path d="M485 96.8001C485.1 95.6001 485.1 94.8001 485.1 94.0001C485.1 87.1001 485.2 80.1001 485.1 73.2001C485.1 70.9001 485.8 70.3001 488 70.4001C490.9 70.6001 493.8 70.6001 496.7 70.4001C498.7 70.3001 499.3 70.9001 499.3 72.9001C499.2 92.5001 499.3 112.1 499.3 131.7C499.3 136.7 499.3 141.6 499.3 146.6C499.3 147.4 499.3 148.2 499.3 149C497.1 149.8 495.8 149.2 494.7 147.4C493.5 145.5 492.1 143.7 490.6 141.6C489.2 142.7 487.9 143.7 486.6 144.6C472.3 155.2 455.4 149.8 447.3 138.2C435.9 121.8 442.8 96.7001 464.2 91.6001C470.1 90.2001 476 90.4001 481.5 93.6001C482.4 94.6001 483.5 95.6001 485 96.8001ZM456 119.8C455.4 128 461.3 135.8 468.8 136.4C477.2 137.1 484.6 130.5 485.1 121.5C485.5 113.9 479.7 105.7 470.9 105.3C462.4 104.9 456.2 111.1 456 119.8Z" fill="#333333"/>
<path d="M331.9 97.1996C335.1 93.9996 338.3 92.1996 342.1 91.5996C353.5 89.7996 362.7 93.5996 369.5 102.8C378.5 114.9 377.1 132.9 366.3 142.9C357.6 151 347.3 152.7 336.3 148.7C325.2 144.6 318.6 136.1 318.1 124.4C317.3 107.1 317.7 89.7996 317.6 72.4996C317.6 72.3996 317.6 72.2996 317.6 72.2996C318.1 71.6996 318.7 70.7996 319.2 70.6996C322.9 70.5996 326.5 70.6996 330.2 70.5996C331.8 70.5996 331.9 71.4996 331.8 72.6996C331.8 79.8996 331.8 86.9996 331.8 94.1996C331.9 94.8996 331.9 95.6996 331.9 97.1996ZM361 120.8C361 120.3 361 119.7 361 119.2C360.6 111.1 353 104.3 345.4 105.3C338.7 106.2 334.6 110.2 332.6 116.4C330.7 122.4 332.8 129.4 337.5 133.1C342.1 136.7 347.2 137.5 352.5 135C358.3 132.2 360.9 127.2 361 120.8Z" fill="#333333"/>
<path d="M575.9 93.3998C580.7 93.3998 585.1 93.3998 589.9 93.3998C589.9 94.3998 589.9 95.1998 589.9 95.9998C589.9 105.8 589.8 115.5 589.9 125.3C590 132.7 595.6 137.5 602.7 136.4C607.7 135.6 612.1 130.1 612.1 124.4C612.2 115.1 612.1 105.8 612.1 96.4998C612.1 95.5998 612.1 94.6998 612.1 93.2998C615.2 93.2998 618.3 93.2998 621.3 93.2998C626.2 93.2998 626.2 93.2998 626.2 98.0998C626.2 112.8 626 127.5 626.2 142.2C626.4 155.9 616.3 168.3 602.8 170.6C599.1 171.3 595.2 170.9 591.4 170.9C591 170.9 590.2 170.1 590.2 169.7C590.1 165.5 590.1 161.4 590.1 156.9C593.2 156.9 596.1 157 599 156.9C604 156.8 609.3 152.6 610.6 147.7C609.7 148 608.9 148.2 608.2 148.5C594.4 154.1 578.5 145 576.4 130.2C576 127.6 575.9 125 575.9 122.5C575.9 112.9 575.9 103.3 575.9 93.3998Z" fill="#333333"/>
<path d="M152.7 128.6C156.1 132 159.4 135.2 162.9 138.6C158.7 144.5 153 148.3 146 149.8C127.4 153.8 110.9 140.4 110.8 121.3C110.7 106.3 119.1 94.8995 132.8 91.7995C144.2 89.1995 153.9 92.5995 161.7 101.3C162.8 102.5 162.9 103.4 161.7 104.7C153.7 114.2 145.8 123.8 137.8 133.4C137.2 134.1 136.7 134.8 136.1 135.5C140 137.6 148.4 136.1 152.7 128.6ZM143.8 106.2C138.6 104 131.9 106.1 128.3 110.7C124.7 115.3 123.9 124.7 127 128.5C132.6 121 138.1 113.7 143.8 106.2Z" fill="#333333"/>
<path d="M219.6 103.2C210.6 114 201.7 124.7 192.8 135.5C197.2 137.9 205.3 135.5 209.4 128.5C212.6 131.7 215.8 134.8 218.9 138C219.2 138.3 218.8 139.6 218.4 140.1C212.4 147.2 204.8 150.7 195.5 150.5C179 150 167 136.9 167.5 120.1C168 105.6 176.3 95.0001 189.6 91.8001C200.8 89.1001 213.3 93.8001 219.6 103.2ZM200.3 106.2C195.7 103.8 188.5 106 184.8 110.7C181.1 115.3 180.5 124.6 183.6 128.3C189.2 120.9 194.8 113.6 200.3 106.2Z" fill="#333333"/>
<path d="M235.5 98.6993C239.9 94.9993 244.7 92.8993 250.1 92.1993C262.9 90.4993 276.3 100.699 277.3 113.599C277.9 121.899 277.7 130.199 277.8 138.499C277.8 141.999 277.8 145.499 277.8 149.399C273.3 149.399 269 149.499 264.7 149.299C264.3 149.299 263.8 147.899 263.8 147.199C263.7 137.799 263.8 128.499 263.7 119.099C263.7 117.399 263.5 115.599 263 113.899C261.4 108.599 256.4 105.699 250.7 106.399C245.8 106.999 241.7 111.299 241.6 116.599C241.4 126.499 241.5 136.399 241.4 146.299C241.4 149.399 241.4 149.399 238.3 149.399C235.3 149.399 232.3 149.299 229.4 149.399C228 149.399 227.3 149.099 227.3 147.499C227.3 129.999 227.3 112.599 227.4 95.0993C227.4 94.4993 227.9 93.2993 228.2 93.2993C229.3 93.2993 230.6 93.3993 231.3 93.9993C232.8 95.3993 234 96.9993 235.5 98.6993Z" fill="#333333"/>
<path d="M419.2 93.3998C424 93.3998 428.4 93.3998 433 93.3998C433 112 433 130.5 433 149.2C427.9 150.4 428.1 144.6 425 143.2C423.1 144.5 421.2 146 419.1 147.2C406.3 155.2 386.5 148.1 383.4 130C383 127.9 382.9 125.8 382.9 123.6C382.8 114.4 382.9 105.2 382.9 95.8998C382.9 95.0998 382.9 94.2998 382.9 93.2998C387.6 93.2998 392.1 93.2998 396.9 93.2998C396.9 94.1998 396.9 94.9998 396.9 95.7998C396.9 105.5 396.8 115.2 396.9 124.8C397 132.2 402.5 137.1 409.5 136.2C414.6 135.5 419.1 130 419.1 124.1C419.1 114.8 419.1 105.5 419.1 96.1998C419.2 95.4998 419.2 94.5998 419.2 93.3998Z" fill="#333333"/>
<path d="M83.9999 149.299C79.1999 149.299 74.8 149.299 70.2 149.299C70.2 130.699 70.2 112.099 70.2 93.3993C75.2 92.3993 74.9999 97.8993 78.2999 99.6993C86.4999 91.6993 97.0999 93.3993 107.6 93.3993C107.6 97.9993 107.6 102.399 107.6 107.299C106.1 107.299 104.6 107.299 103.2 107.299C99.6 107.399 95.7999 107.099 92.2999 107.799C87.2999 108.799 84.0999 113.199 84.0999 118.299C84.0999 127.799 84.0999 137.199 84.0999 146.699C83.9999 147.399 83.9999 148.299 83.9999 149.299Z" fill="#333333"/>
</svg>
