<svg width="915" height="241" viewBox="0 0 915 241" fill="none" xmlns="http://www.w3.org/2000/svg">
<path d="M784.327 240.292C781.327 239.792 778.327 239.292 775.327 238.892C752.627 235.392 732.627 226.092 715.327 211.192C693.927 192.692 680.427 169.392 675.527 141.592C664.327 78.5917 703.427 18.5917 764.727 3.89171C810.127 -7.00829 849.927 5.09171 882.327 38.8917C899.027 56.2917 908.927 77.3917 912.727 101.192C922.627 163.792 882.927 222.292 822.327 236.992C816.827 238.292 811.127 238.892 805.427 239.792C804.727 239.892 804.127 240.192 803.527 240.392C797.127 240.292 790.727 240.292 784.327 240.292ZM807.527 77.0917C812.127 70.6917 809.027 64.3917 804.827 60.6917C802.327 58.4917 799.627 56.9917 796.327 56.7917C792.027 56.4917 788.527 58.2917 785.727 61.5917C783.327 56.2917 779.127 55.5917 774.227 59.3917C772.627 56.1917 770.127 54.4917 766.527 55.0917C762.927 55.6917 760.027 57.1917 759.727 61.4917C755.227 58.1917 750.227 58.2917 745.727 61.3917C741.227 64.5917 740.227 69.2917 740.627 74.5917C736.127 74.0917 732.427 74.9917 730.627 79.1917C728.827 83.5917 729.727 87.4917 733.527 90.5917C729.427 97.1917 732.327 102.092 740.927 103.492C740.827 103.892 740.827 104.192 740.727 104.592C739.027 110.492 742.327 116.692 748.227 118.192C749.927 118.592 751.727 118.792 753.427 118.792C755.627 118.692 756.927 119.692 757.727 121.492C758.227 122.692 758.727 123.892 759.027 125.092C760.027 129.792 760.927 134.492 761.727 139.192C762.027 140.592 762.627 141.092 764.027 141.092C767.027 141.092 770.027 141.092 772.927 141.092C777.127 141.092 777.127 141.092 777.027 136.992C776.527 123.692 783.927 111.792 795.427 107.592C796.827 107.092 796.727 106.392 796.527 105.192C796.027 101.192 797.527 97.7917 800.927 95.4917C804.127 93.2917 807.527 93.5917 810.827 95.4917C813.927 97.2917 814.027 97.2917 816.127 93.9917C815.527 93.4917 815.027 92.7917 814.327 92.3917C813.627 91.8917 812.727 91.6917 811.827 91.2917C815.327 84.7917 812.227 77.6917 807.527 77.0917ZM744.327 147.692C744.327 149.592 744.327 151.292 744.327 152.992C744.527 170.892 759.227 185.492 777.027 185.592C793.127 185.592 809.227 185.592 825.327 185.592C827.527 185.592 829.727 185.292 831.927 184.892C848.227 181.192 858.327 168.092 858.327 150.892C858.327 147.892 858.327 147.892 855.327 147.892C819.327 147.892 783.327 147.892 747.227 147.892C746.327 147.692 745.427 147.692 744.327 147.692ZM815.227 110.892C813.127 106.992 810.927 103.692 807.427 101.592C806.027 100.792 804.827 100.792 803.927 102.292C803.127 103.792 803.427 105.092 804.927 105.992C805.427 106.292 806.027 106.492 806.527 106.792C809.327 108.192 811.727 110.192 813.327 113.292C808.927 112.192 804.727 112.192 800.627 113.192C788.827 116.092 783.327 127.092 784.027 137.392C784.227 140.992 784.427 140.992 788.027 140.992C800.927 140.992 813.827 140.992 826.727 140.992C833.527 140.992 840.327 140.992 847.127 140.992C848.927 140.992 849.527 140.392 849.627 138.492C849.927 132.192 847.927 126.692 844.427 121.592C842.027 118.092 839.027 115.292 835.127 113.792C836.727 111.792 838.827 110.192 839.627 108.092C841.127 103.792 843.927 100.792 847.427 98.1917C848.027 97.6917 848.627 97.1917 849.627 96.3917C848.127 95.7917 847.227 95.1917 846.227 95.1917C842.027 94.8917 837.727 94.4917 833.527 94.7917C823.327 95.4917 817.227 100.892 815.227 110.892Z" fill="#F5F5F5"/>
<path d="M42.5268 145.892C34.8268 152.092 17.3268 150.892 8.32685 141.892C-5.47315 127.992 -2.57315 98.8919 20.4269 91.6919C30.3269 88.5919 38.9269 91.3919 46.6269 97.6919C47.2269 98.1919 47.9268 98.7919 48.4268 99.1919C51.8268 97.5919 52.2268 92.0919 57.4268 92.7919C57.4268 93.6919 57.5268 94.4919 57.5268 95.2919C57.5268 110.692 57.3269 126.092 57.6269 141.492C57.8269 155.292 47.6268 167.492 34.5268 169.892C30.9268 170.492 27.1268 170.292 23.3268 170.292C22.8268 170.292 21.9269 169.292 21.9269 168.792C21.8269 165.092 21.8268 161.492 21.8268 157.792C21.8268 156.492 22.5269 156.292 23.6269 156.292C26.2269 156.292 28.8269 156.392 31.4269 156.192C36.9269 155.892 41.4268 151.692 42.5268 145.892ZM14.3268 119.892C14.2268 129.092 20.1269 135.592 28.4269 135.592C36.5269 135.592 43.4269 128.492 43.4269 120.092C43.4269 111.892 36.4269 104.492 28.6269 104.392C20.2269 104.492 14.4268 110.692 14.3268 119.892Z" fill="#F5F5F5"/>
<path d="M564.127 148.492C562.127 149.092 560.727 148.592 559.627 146.792C558.427 144.892 557.027 143.092 555.527 140.992C554.527 141.792 553.627 142.392 552.727 143.092C536.927 155.792 518.427 148.692 510.927 135.792C501.327 119.292 508.527 95.992 529.027 91.092C534.927 89.692 540.827 89.892 546.327 93.092C547.627 93.892 548.727 94.892 550.127 96.092C550.227 94.992 550.227 94.192 550.227 93.392C550.227 86.392 550.327 79.392 550.227 72.392C550.227 70.392 550.827 69.792 552.827 69.792C556.527 69.892 560.227 69.792 564.227 69.792C564.127 96.192 564.127 122.292 564.127 148.492ZM535.427 135.692C543.127 135.692 549.527 129.092 550.027 120.692C550.627 110.192 540.327 101.992 530.727 105.292C524.327 107.492 521.427 112.392 520.927 118.892C520.227 128.692 527.727 135.992 535.427 135.692Z" fill="#F5F5F5"/>
<path d="M484.127 96.0921C484.227 94.8921 484.227 94.0921 484.227 93.2921C484.227 86.3921 484.327 79.3921 484.227 72.4921C484.227 70.1921 484.927 69.5921 487.127 69.6921C490.027 69.8921 492.927 69.8921 495.827 69.6921C497.827 69.5921 498.427 70.1921 498.427 72.1921C498.327 91.7921 498.427 111.392 498.427 130.992C498.427 135.992 498.427 140.892 498.427 145.892C498.427 146.692 498.427 147.492 498.427 148.292C496.227 149.092 494.927 148.492 493.827 146.692C492.627 144.792 491.227 142.992 489.727 140.892C488.327 141.992 487.027 142.992 485.727 143.892C471.427 154.492 454.527 149.092 446.427 137.492C435.027 121.092 441.927 95.9921 463.327 90.8921C469.227 89.4921 475.127 89.6921 480.627 92.8921C481.527 93.8921 482.627 94.8921 484.127 96.0921ZM455.127 119.092C454.527 127.292 460.427 135.092 467.927 135.692C476.327 136.392 483.727 129.792 484.227 120.792C484.627 113.192 478.827 104.992 470.027 104.592C461.527 104.192 455.327 110.392 455.127 119.092Z" fill="#F5F5F5"/>
<path d="M331.027 96.4916C334.227 93.2916 337.427 91.4916 341.227 90.8916C352.627 89.0916 361.827 92.8916 368.627 102.092C377.627 114.192 376.227 132.192 365.427 142.192C356.727 150.292 346.427 151.992 335.427 147.992C324.327 143.892 317.727 135.392 317.227 123.692C316.427 106.392 316.827 89.0916 316.727 71.7916C316.727 71.6916 316.727 71.5916 316.727 71.5916C317.227 70.9916 317.827 70.0916 318.327 69.9916C322.027 69.8916 325.627 69.9916 329.327 69.8916C330.927 69.8916 331.027 70.7916 330.927 71.9916C330.927 79.1916 330.927 86.2916 330.927 93.4916C331.027 94.1916 331.027 94.9916 331.027 96.4916ZM360.127 120.092C360.127 119.592 360.127 118.992 360.127 118.492C359.727 110.392 352.127 103.592 344.527 104.592C337.827 105.492 333.727 109.492 331.727 115.692C329.827 121.692 331.927 128.692 336.627 132.392C341.227 135.992 346.327 136.792 351.627 134.292C357.427 131.492 360.027 126.492 360.127 120.092Z" fill="#F5F5F5"/>
<path d="M575.027 92.6918C579.827 92.6918 584.227 92.6918 589.027 92.6918C589.027 93.6918 589.027 94.4918 589.027 95.2918C589.027 105.092 588.927 114.792 589.027 124.592C589.127 131.992 594.727 136.792 601.827 135.692C606.827 134.892 611.227 129.392 611.227 123.692C611.327 114.392 611.227 105.092 611.227 95.7918C611.227 94.8918 611.227 93.9918 611.227 92.5918C614.327 92.5918 617.427 92.5918 620.427 92.5918C625.327 92.5918 625.327 92.5918 625.327 97.3918C625.327 112.092 625.127 126.792 625.327 141.492C625.527 155.192 615.427 167.592 601.927 169.892C598.227 170.592 594.327 170.192 590.527 170.192C590.127 170.192 589.327 169.392 589.327 168.992C589.227 164.792 589.227 160.692 589.227 156.192C592.327 156.192 595.227 156.292 598.127 156.192C603.127 156.092 608.427 151.892 609.727 146.992C608.827 147.292 608.027 147.492 607.327 147.792C593.527 153.392 577.627 144.292 575.527 129.492C575.127 126.892 575.027 124.292 575.027 121.792C575.027 112.192 575.027 102.592 575.027 92.6918Z" fill="#F5F5F5"/>
<path d="M151.827 127.892C155.227 131.292 158.527 134.492 162.027 137.892C157.827 143.792 152.127 147.592 145.127 149.092C126.527 153.092 110.027 139.692 109.927 120.592C109.827 105.592 118.227 94.1915 131.927 91.0915C143.327 88.4915 153.027 91.8915 160.827 100.592C161.927 101.792 162.027 102.692 160.827 103.992C152.827 113.492 144.927 123.092 136.927 132.692C136.327 133.392 135.827 134.092 135.227 134.792C139.127 136.892 147.527 135.392 151.827 127.892ZM142.927 105.492C137.727 103.292 131.027 105.392 127.427 109.992C123.827 114.592 123.027 123.992 126.127 127.792C131.727 120.292 137.227 112.992 142.927 105.492Z" fill="#F5F5F5"/>
<path d="M218.727 102.492C209.727 113.292 200.827 123.992 191.927 134.792C196.327 137.192 204.427 134.792 208.527 127.792C211.727 130.992 214.927 134.092 218.027 137.292C218.327 137.592 217.927 138.892 217.527 139.392C211.527 146.492 203.927 149.992 194.627 149.792C178.127 149.292 166.127 136.192 166.627 119.392C167.127 104.892 175.427 94.2921 188.727 91.0921C199.927 88.3921 212.427 93.0921 218.727 102.492ZM199.427 105.492C194.827 103.092 187.627 105.292 183.927 109.992C180.227 114.592 179.627 123.892 182.727 127.592C188.327 120.192 193.927 112.892 199.427 105.492Z" fill="#F5F5F5"/>
<path d="M234.627 97.9913C239.027 94.2913 243.827 92.1913 249.227 91.4913C262.027 89.7913 275.427 99.9913 276.427 112.891C277.027 121.191 276.827 129.491 276.927 137.791C276.927 141.291 276.927 144.791 276.927 148.691C272.427 148.691 268.127 148.791 263.827 148.591C263.427 148.591 262.927 147.191 262.927 146.491C262.827 137.091 262.927 127.791 262.827 118.391C262.827 116.691 262.627 114.891 262.127 113.191C260.527 107.891 255.527 104.991 249.827 105.691C244.927 106.291 240.827 110.591 240.727 115.891C240.527 125.791 240.627 135.691 240.527 145.591C240.527 148.691 240.527 148.691 237.427 148.691C234.427 148.691 231.427 148.591 228.527 148.691C227.127 148.691 226.427 148.391 226.427 146.791C226.427 129.291 226.427 111.891 226.527 94.3913C226.527 93.7913 227.027 92.5913 227.327 92.5913C228.427 92.5913 229.727 92.6913 230.427 93.2913C231.927 94.6913 233.127 96.2913 234.627 97.9913Z" fill="#F5F5F5"/>
<path d="M418.327 92.6918C423.127 92.6918 427.527 92.6918 432.127 92.6918C432.127 111.292 432.127 129.792 432.127 148.492C427.027 149.692 427.227 143.892 424.127 142.492C422.227 143.792 420.327 145.292 418.227 146.492C405.427 154.492 385.627 147.392 382.527 129.292C382.127 127.192 382.027 125.092 382.027 122.892C381.927 113.692 382.027 104.492 382.027 95.1918C382.027 94.3918 382.027 93.5918 382.027 92.5918C386.727 92.5918 391.227 92.5918 396.027 92.5918C396.027 93.4918 396.027 94.2918 396.027 95.0918C396.027 104.792 395.927 114.492 396.027 124.092C396.127 131.492 401.627 136.392 408.627 135.492C413.727 134.792 418.227 129.292 418.227 123.392C418.227 114.092 418.227 104.792 418.227 95.4918C418.327 94.7918 418.327 93.8918 418.327 92.6918Z" fill="#F5F5F5"/>
<path d="M83.1269 148.591C78.3269 148.591 73.9269 148.591 69.3269 148.591C69.3269 129.991 69.3269 111.391 69.3269 92.6913C74.3269 91.6913 74.1269 97.1913 77.4269 98.9913C85.6269 90.9913 96.2269 92.6913 106.727 92.6913C106.727 97.2913 106.727 101.691 106.727 106.591C105.227 106.591 103.727 106.591 102.327 106.591C98.7269 106.691 94.9269 106.391 91.4269 107.091C86.4269 108.091 83.2269 112.491 83.2269 117.591C83.2269 127.091 83.2269 136.491 83.2269 145.991C83.1269 146.691 83.1269 147.591 83.1269 148.591Z" fill="#F5F5F5"/>
</svg>
