<?xml version="1.0" encoding="utf-8"?><!-- Uploaded to: SVG Repo, www.svgrepo.com, Generator: SVG Repo Mixer Tools -->
<svg version="1.1" id="designs" xmlns="http://www.w3.org/2000/svg" xmlns:xlink="http://www.w3.org/1999/xlink" 
	 width="800px" height="800px" viewBox="0 0 32 32" xml:space="preserve">
<style type="text/css">
	.sketchy_een{fill:#242424;}
</style>
<path class="sketchy_een" d="M28.869,20.55c-0.11-0.138-0.231-0.271-0.36-0.395c0.171-0.153,0.296-0.362,0.421-0.551
	c0.181-0.277,0.334-0.552,0.445-0.867c0.248-0.706-0.118-1.461-0.577-1.988c-0.067-0.077-0.142-0.149-0.22-0.216
	c0.082-0.099,0.161-0.203,0.239-0.303c0.204-0.262,0.428-0.535,0.487-0.873c0.061-0.344,0.021-0.674-0.067-1.01
	c-0.176-0.672-0.76-1.192-1.329-1.541c-0.187-0.115-0.384-0.2-0.588-0.279c-0.172-0.065-0.374-0.08-0.554-0.103
	c-0.311-0.038-0.628-0.032-0.941-0.038c-0.081-0.001-0.162-0.002-0.243-0.002c-0.85,0-1.696,0.068-2.545,0.105
	c-0.832,0.034-1.667,0.04-2.5,0.04c-0.002-0.39-0.001-0.78-0.016-1.17c-0.018-0.492-0.029-0.981,0.019-1.473
	c0.033-0.191,0.076-0.38,0.109-0.57c0.057-0.336,0.122-0.668,0.166-1.008c0.082-0.615,0.153-1.243,0.074-1.862
	c-0.046-0.372-0.105-0.741-0.187-1.105c-0.082-0.357-0.187-0.733-0.384-1.045c-0.113-0.18-0.254-0.342-0.384-0.508
	c-0.109-0.137-0.223-0.273-0.349-0.395c-0.208-0.206-0.451-0.382-0.682-0.563c-0.208-0.162-0.416-0.327-0.64-0.468
	c-0.242-0.153-0.504-0.26-0.781-0.336C17.415,2.009,17.346,2,17.278,2c-0.348,0-0.675,0.233-0.771,0.581
	c-0.02,0.074-0.016,0.149-0.015,0.223c-0.012,0.018-0.033,0.026-0.045,0.045c-0.067,0.116-0.101,0.242-0.101,0.376
	c-0.04,0.291-0.068,0.582-0.103,0.872c-0.12,0.864-0.299,1.722-0.464,2.58c-0.133,0.701-0.233,1.41-0.488,2.077
	c-0.141,0.316-0.299,0.626-0.452,0.936c-0.197,0.395-0.435,0.771-0.655,1.153c-0.43,0.747-0.871,1.487-1.385,2.178
	c-0.195,0.243-0.397,0.478-0.612,0.706c-0.203,0.217-0.421,0.409-0.651,0.594c-0.124,0.094-0.249,0.185-0.384,0.263
	c-0.093,0.053-0.189,0.097-0.284,0.143c0-0.049,0.003-0.097,0.003-0.145c-0.004-0.422-0.349-0.773-0.775-0.773
	c-0.059,0-0.114,0.022-0.17,0.035c-0.039-0.009-0.076-0.029-0.114-0.029c-0.014,0-0.029,0.001-0.043,0.002
	c-0.995,0.099-2.001,0.115-3.002,0.138c-0.506,0.011-1.012,0.025-1.52,0.019c-0.514-0.004-1.033-0.065-1.545-0.015
	c-0.047,0.005-0.086,0.019-0.13,0.028c-0.077-0.026-0.156-0.05-0.244-0.05c-0.407,0-0.81,0.357-0.783,0.783
	c0.023,0.359,0.05,0.712,0.053,1.071c0.004,0.374,0.004,0.749,0.006,1.121c0.002,0.739-0.017,1.478-0.008,2.217
	c0.021,1.459,0.031,2.916,0.031,4.373c0,0.712-0.019,1.421-0.032,2.131c-0.011,0.624-0.004,1.247-0.017,1.869
	c-0.004,0.2,0.084,0.38,0.221,0.511c0.138,0.173,0.337,0.294,0.566,0.277c1.085-0.08,2.173-0.156,3.261-0.147
	c0.313,0.004,0.628,0.002,0.943,0.002c0.223-0.002,0.449-0.002,0.674-0.002c0.51,0,1.031-0.015,1.537,0.042
	c0.185,0.021,0.399-0.092,0.525-0.218c0.069-0.069,0.123-0.153,0.16-0.243c0.339-0.067,0.623-0.36,0.612-0.719
	c-0.002-0.06-0.009-0.12-0.013-0.179c0.025,0.018,0.051,0.035,0.075,0.053c0.615,0.499,1.205,1.034,1.865,1.474
	c0.315,0.21,0.628,0.433,0.964,0.609c0.382,0.2,0.783,0.37,1.193,0.502c0.749,0.244,1.533,0.324,2.316,0.384
	c0.376,0.029,0.754,0.053,1.13,0.092c0.361,0.034,0.72,0.059,1.083,0.061c1.543,0.004,3.082-0.092,4.623-0.128
	c0.46-0.011,0.918-0.034,1.373-0.103c0.353-0.053,0.714-0.109,1.058-0.202c0.145-0.04,0.292-0.088,0.432-0.145
	c0.12-0.05,0.246-0.094,0.359-0.162c0.109-0.065,0.208-0.147,0.309-0.227c0.225-0.176,0.445-0.353,0.632-0.573
	c0.191-0.225,0.304-0.485,0.441-0.743c0.097-0.185,0.187-0.38,0.231-0.584c0.101-0.466,0.076-0.939-0.055-1.396
	c-0.074-0.25-0.164-0.495-0.273-0.731c-0.084-0.183-0.233-0.338-0.369-0.485c-0.068-0.073-0.137-0.145-0.206-0.218
	c0.03-0.024,0.06-0.048,0.09-0.072c0.197-0.156,0.34-0.334,0.491-0.537c0.162-0.218,0.292-0.452,0.382-0.71
	c0.075-0.214,0.105-0.447,0.147-0.668c0.055-0.306,0.055-0.544-0.002-0.85C29.288,21.115,29.087,20.819,28.869,20.55z M8.733,26.719
	c-0.164,0-0.327-0.002-0.489-0.002c-0.538,0.004-1.079,0.002-1.617,0.013c-0.544,0.013-1.09,0.042-1.635,0.055
	c-0.244,0.008-0.489,0.004-0.733,0C4.173,26.785,4.087,26.789,4,26.788c-0.007-1.095,0.007-2.191,0.007-3.287
	c0.002-1.457,0.025-2.916,0.053-4.373c0.015-0.739,0.036-1.478,0.044-2.217c0.004-0.372,0.002-0.747,0.002-1.121
	c0.001-0.125-0.001-0.249,0.002-0.374c0.374-0.027,0.748-0.042,1.124-0.053c0.506-0.015,1.012-0.032,1.52-0.048
	c0.496-0.013,0.995-0.011,1.491-0.013c0.369,0,0.738-0.006,1.108-0.011c0.022,0.516,0.047,1.032,0.056,1.549
	c0.013,0.722,0.029,1.445,0.04,2.167c0.01,0.747,0.032,1.491,0.055,2.236c0.021,0.737,0.032,1.472,0.04,2.209
	c0.008,0.628-0.013,1.256,0.01,1.885c0.013,0.304,0.031,0.607,0.036,0.909c0.002,0.154,0,0.306-0.002,0.459
	C9.303,26.718,9.018,26.723,8.733,26.719z M27.847,24.618c0.003-0.002,0.005-0.004,0.008-0.006c0.005-0.004,0.01-0.008,0.016-0.012
	C27.863,24.606,27.855,24.612,27.847,24.618z M27.918,18.272c-0.01,0.04-0.021,0.079-0.035,0.118
	c-0.102,0.212-0.227,0.42-0.362,0.612c-0.028,0.032-0.056,0.063-0.086,0.092c-0.171,0.107-0.359,0.187-0.533,0.29
	c-0.258,0.155-0.439,0.409-0.439,0.718c0,0.336,0.218,0.58,0.495,0.741c0.123,0.071,0.25,0.137,0.371,0.215
	c0.136,0.119,0.261,0.25,0.377,0.389c0.05,0.074,0.094,0.15,0.134,0.23c0.014,0.045,0.026,0.09,0.036,0.136
	c0.001,0.043,0,0.085-0.002,0.129c-0.031,0.203-0.066,0.41-0.13,0.603c-0.057,0.108-0.121,0.211-0.191,0.31
	c-0.096,0.115-0.204,0.217-0.32,0.312c-0.121,0.089-0.246,0.172-0.37,0.254c-0.218,0.145-0.378,0.302-0.462,0.556
	c-0.107,0.317,0.034,0.626,0.244,0.857c0.232,0.256,0.473,0.504,0.69,0.772c0.043,0.06,0.081,0.122,0.116,0.187
	c0.067,0.183,0.125,0.367,0.161,0.558c0.009,0.105,0.01,0.211,0.004,0.316c-0.012,0.062-0.027,0.124-0.046,0.184
	c-0.037,0.074-0.076,0.148-0.112,0.223c-0.053,0.109-0.103,0.218-0.166,0.32c-0.13,0.141-0.269,0.268-0.417,0.389
	c-0.081,0.058-0.165,0.111-0.255,0.156c-0.391,0.142-0.799,0.228-1.211,0.292c-0.755,0.078-1.519,0.052-2.276,0.08
	c-0.741,0.025-1.482,0.031-2.223,0.044c-0.768,0.013-1.531,0.048-2.299,0.004c-0.694-0.04-1.391-0.055-2.084-0.138
	c-0.519-0.087-1.017-0.228-1.505-0.421c-0.457-0.218-0.881-0.489-1.3-0.772c-0.417-0.281-0.823-0.578-1.225-0.881
	c-0.222-0.173-0.442-0.346-0.669-0.509c-0.185-0.131-0.382-0.242-0.568-0.371c-0.007-0.006-0.013-0.012-0.02-0.019
	c-0.082-0.073-0.176-0.122-0.274-0.156c0-0.012-0.001-0.024-0.002-0.036c-0.021-0.728-0.032-1.457-0.046-2.186
	c-0.015-0.739-0.04-1.478-0.052-2.217c-0.013-0.754-0.015-1.506-0.015-2.261c0.002-0.611-0.002-1.222-0.004-1.833
	c0-0.09,0.001-0.18,0.001-0.27c0.003-0.002,0.005-0.004,0.008-0.005c0.261-0.18,0.574-0.294,0.859-0.43
	c0.378-0.183,0.728-0.456,1.044-0.726c0.275-0.233,0.519-0.497,0.76-0.762c0.267-0.292,0.516-0.603,0.747-0.924
	c0.428-0.598,0.781-1.243,1.157-1.871c0.183-0.304,0.374-0.602,0.55-0.909c0.176-0.302,0.332-0.615,0.485-0.93
	c0.176-0.355,0.321-0.726,0.433-1.105c0.052-0.174,0.103-0.349,0.128-0.531c0.023-0.17,0.044-0.341,0.065-0.512
	c0.175-1.246,0.443-2.477,0.651-3.719c0.153,0.105,0.303,0.217,0.451,0.332c0.111,0.088,0.221,0.178,0.321,0.278
	c0.148,0.146,0.285,0.304,0.416,0.467c0.055,0.077,0.105,0.155,0.15,0.237c0.166,0.458,0.26,0.935,0.332,1.416
	c0.063,0.585,0.007,1.178-0.066,1.761c-0.053,0.37-0.111,0.743-0.185,1.11c-0.082,0.397-0.09,0.802-0.105,1.205
	c-0.029,0.831,0.071,1.659,0.023,2.49c-0.016,0.256,0.14,0.475,0.349,0.607c0.137,0.154,0.33,0.257,0.548,0.256
	c0.609-0.004,1.216-0.052,1.825-0.08c0.563-0.029,1.127-0.036,1.69-0.055c0.548-0.019,1.094-0.027,1.642-0.031
	c0.474-0.002,0.944,0.008,1.413,0.064c0.142,0.025,0.276,0.061,0.411,0.109c0.139,0.072,0.273,0.153,0.401,0.245
	c0.093,0.079,0.182,0.164,0.264,0.255c0.04,0.062,0.077,0.126,0.112,0.192c0.019,0.06,0.034,0.121,0.047,0.183
	c0.002,0.031,0.004,0.061,0.004,0.092c-0.06,0.106-0.131,0.205-0.205,0.302c-0.092,0.118-0.188,0.231-0.298,0.331
	c-0.104,0.069-0.215,0.125-0.329,0.182c-0.34,0.166-0.559,0.596-0.435,0.964c0.074,0.22,0.214,0.409,0.428,0.506
	c0.057,0.025,0.114,0.049,0.172,0.072c0.104,0.05,0.201,0.11,0.295,0.175c0.124,0.106,0.238,0.222,0.344,0.345
	c0.049,0.074,0.094,0.149,0.133,0.228c0.013,0.039,0.025,0.077,0.035,0.117C27.919,18.236,27.918,18.254,27.918,18.272z
	 M27.523,22.892c-0.004,0.005-0.007,0.01-0.011,0.015c-0.011,0.015-0.023,0.03-0.034,0.045
	C27.492,22.932,27.507,22.912,27.523,22.892z"/>
</svg>