<svg width="23" height="24" viewBox="0 0 23 24" fill="none" xmlns="http://www.w3.org/2000/svg">
<path fill-rule="evenodd" clip-rule="evenodd" d="M4 0C1.79087 0 0 1.79087 0 4V20C0 22.2092 1.79087 24 4 24H18.6667C19.4031 24 20 23.4031 20 22.6667C20 21.9303 19.4031 21.3333 18.6667 21.3333H4C3.26363 21.3333 2.66667 20.7364 2.66667 20V4C2.66667 3.26363 3.26363 2.66667 4 2.66667H18.6667C19.4031 2.66667 20 2.06971 20 1.33333C20 0.59696 19.4031 0 18.6667 0H4ZM16.9428 5.72385C16.4221 5.20316 15.5779 5.20316 15.0572 5.72385C14.5365 6.24456 14.5365 7.08877 15.0572 7.60948L18.1144 10.6667H6.66667C5.93029 10.6667 5.33333 11.2636 5.33333 12C5.33333 12.7364 5.93029 13.3333 6.66667 13.3333H18.1144L15.0572 16.3905C14.5365 16.9112 14.5365 17.7555 15.0572 18.2761C15.5779 18.7968 16.4221 18.7968 16.9428 18.2761L22.2761 12.9428C22.7968 12.4221 22.7968 11.5779 22.2761 11.0572L16.9428 5.72385Z" fill="black"/>
</svg>
