<svg width="80" height="70" viewBox="0 0 80 70" fill="none" xmlns="http://www.w3.org/2000/svg">
<path d="M52 19.0002C50.688 18.9895 49.5573 19.6455 49.088 20.2535L41.7893 29.4722C41.336 30.0268 40.3227 29.6668 39.8507 29.3922L33.304 25.2668C32.5307 24.7602 31.6507 24.3335 30.6693 24.3335C29.656 24.3335 28.5733 24.6375 27.8107 25.4908L19.0293 35.4215C17.8427 36.7495 19.8293 38.5308 21.0187 37.2028L29.8027 27.2722C30.384 26.6482 31.2293 27.1388 31.8427 27.4962L38.4027 31.6348L38.4347 31.6508C39.2507 32.1575 40.168 32.3228 41.0693 32.3335C41.976 32.3442 42.9627 32.2615 43.696 31.3735L51.0747 22.0402C51.6533 21.3388 52.4987 21.6668 53.0587 22.1468L59.0693 26.6482C60.4747 27.9202 62.2827 25.6482 60.7227 24.5682L54.7173 20.0615C54.0053 19.5015 53.1013 19.0002 52 19.0002ZM20 40.3335H60C60.7387 40.3335 61.3333 40.9282 61.3333 41.6668C61.3333 42.4055 60.7387 43.0002 60 43.0002H20C19.2613 43.0002 18.6667 42.4055 18.6667 41.6668C18.6667 40.9282 19.2613 40.3335 20 40.3335ZM29.3333 8.3335C26.4 8.3335 24 10.7335 24 13.6668C24 16.6002 26.4 19.0002 29.3333 19.0002C32.2667 19.0002 34.6667 16.6002 34.6667 13.6668C34.6667 10.7335 32.2667 8.3335 29.3333 8.3335ZM29.3333 11.0002C30.8213 11.0002 32 12.1788 32 13.6668C32 15.1548 30.8213 16.3335 29.3333 16.3335C27.8453 16.3335 26.6667 15.1548 26.6667 13.6668C26.6667 12.1788 27.8453 11.0002 29.3333 11.0002ZM66.6667 63.0002C66.6667 63.3538 66.5262 63.6929 66.2761 63.943C66.0261 64.193 65.687 64.3335 65.3333 64.3335C64.9797 64.3335 64.6406 64.193 64.3905 63.943C64.1405 63.6929 64 63.3538 64 63.0002C64 62.6465 64.1405 62.3074 64.3905 62.0574C64.6406 61.8073 64.9797 61.6668 65.3333 61.6668C65.687 61.6668 66.0261 61.8073 66.2761 62.0574C66.5262 62.3074 66.6667 62.6465 66.6667 63.0002ZM16 63.0002C16 63.3538 15.8595 63.6929 15.6095 63.943C15.3594 64.193 15.0203 64.3335 14.6667 64.3335C14.313 64.3335 13.9739 64.193 13.7239 63.943C13.4738 63.6929 13.3333 63.3538 13.3333 63.0002C13.3333 62.6465 13.4738 62.3074 13.7239 62.0574C13.9739 61.8073 14.313 61.6668 14.6667 61.6668C15.0203 61.6668 15.3594 61.8073 15.6095 62.0574C15.8595 62.3074 16 62.6465 16 63.0002ZM40 59.0002C37.0667 59.0002 34.6667 61.4002 34.6667 64.3335C34.6667 67.2668 37.0667 69.6668 40 69.6668C42.9333 69.6668 45.3333 67.2668 45.3333 64.3335C45.3333 61.4002 42.9333 59.0002 40 59.0002ZM40 61.6668C41.5013 61.6668 42.6667 62.8322 42.6667 64.3335C42.6667 65.8348 41.5013 67.0002 40 67.0002C38.4987 67.0002 37.3333 65.8348 37.3333 64.3335C37.3333 62.8322 38.4987 61.6668 40 61.6668ZM70.6667 3.00016C68.8933 3.00016 68.9387 5.66683 70.6667 5.66683H76C76.7627 5.66683 77.3333 6.2375 77.3333 7.00016V44.3335C77.3333 45.0962 76.7627 45.6668 76 45.6668H70.6667C68.9227 45.6668 68.9067 48.3335 70.6667 48.3335H76C78.192 48.3335 80 46.5255 80 44.3335V7.00016C80 4.80816 78.192 3.00016 76 3.00016H70.6667ZM4 3.00016C1.808 3.00016 0 4.80816 0 7.00016V44.3335C0 46.5255 1.808 48.3335 4 48.3335H9.33333C11.0933 48.3335 11.1067 45.6668 9.33333 45.6668H4C3.23733 45.6668 2.66667 45.0962 2.66667 44.3335V7.00016C2.66667 6.2375 3.23733 5.66683 4 5.66683H9.33333C11.0933 5.66683 11.0933 3.00016 9.33333 3.00016H4ZM17.3333 0.333496C15.1413 0.333496 13.3333 2.1415 13.3333 4.3335V47.0002C13.3333 49.1922 15.1413 51.0002 17.3333 51.0002H62.6667C64.8587 51.0002 66.6667 49.1922 66.6667 47.0002V4.3335C66.6667 2.1415 64.8587 0.333496 62.6667 0.333496H17.3333ZM17.3333 3.00016H62.6667C63.4293 3.00016 64 3.57083 64 4.3335V47.0002C64 47.7628 63.4293 48.3335 62.6667 48.3335H17.3333C16.5707 48.3335 16 47.7628 16 47.0002V4.3335C16 3.57083 16.5707 3.00016 17.3333 3.00016Z" fill="black"/>
</svg>
