<svg width="227" height="190" viewBox="0 0 227 190" fill="none" xmlns="http://www.w3.org/2000/svg">
<path d="M160.32 96.2766C159.901 97.5762 159.451 98.9164 159.387 100.291C159.324 101.613 159.28 102.861 158.734 104.077C158.436 104.415 158.244 104.07 157.865 103.82C156.766 103.094 155.047 103.084 153.494 102.25C150.609 100.702 149.188 100.122 146.38 99.2504C144.658 98.7158 143.053 97.9305 141.349 97.3521C139.844 96.841 138.45 96.0856 136.953 95.5542C134.368 94.6376 131.049 92.6092 127.431 92.8375C125.794 92.941 124.355 92.9656 122.993 93.9771C122.882 94.0582 122.862 94.1798 122.903 94.2663C120.763 95.9148 127.745 95.0548 136.257 99.5769C137.179 100.066 138.031 100.67 138.942 101.165C139.733 101.593 140.563 101.93 141.348 102.369C143.046 103.323 143.352 104.151 146.43 105.639C148.002 106.397 154.703 112.539 158.424 110.683C158.268 111.163 157.9 112.913 157.289 114.213C155.735 117.522 153.789 118.4 152.679 120.566C152.313 121.279 152.248 122.091 151.878 122.791C151.026 124.414 149.749 125.737 148.27 126.81C147.35 126.949 146.118 126.493 145.291 126.3C141.536 125.433 138.371 123.248 135.937 121.535C126.97 115.23 129.505 116.371 125.799 113.477C124.147 112.186 122.683 110.678 121.035 109.378C119.387 108.076 117.52 107.732 115.535 107.254C113.642 106.797 111.681 106.962 109.842 107.556C108.48 107.995 106.567 108.671 105.764 109.968C105.551 110.069 105.441 110.407 105.692 110.541C106.423 110.927 107.265 111.06 108.012 111.443C108.92 111.913 109.908 112.228 110.885 112.506C112.875 113.073 114.71 113.901 116.621 114.678C119.445 115.825 119.798 116.708 121.524 117.86C123.275 119.031 125.093 120.122 126.717 121.476C135.905 129.127 141.113 132.92 147.396 133.955C147.129 134.11 146.862 134.329 146.727 134.5C146.165 135.213 145.437 135.816 144.83 136.493C143.6 137.858 142.511 139.357 141.371 140.793C140.227 142.227 138.207 143.18 136.655 144.127C135.58 144.784 132.641 145.757 132.164 146.295C129.266 145.39 127.841 143.4 126.349 141.301C123.17 136.823 124.184 137.989 121.001 134.956C119.626 133.645 118.421 132.086 114.331 129.961C112.384 128.948 106.707 128.368 106.83 128.987C106.788 128.777 106.501 128.942 106.462 129.175C106.424 129.388 106.555 129.38 106.734 129.383C109.837 130.874 111.309 137.316 112.835 141.502C113.818 144.203 115.621 146.889 118.009 148.978C118.35 149.275 118.583 149.662 118.922 149.905C117.478 150.335 118.077 150.092 115.851 150.296C113.491 150.514 110.388 149.244 109.898 149.128C107.779 148.628 107.424 148.211 105.922 147.94C105.397 146.354 105.68 145.691 105.477 144.35C105.136 142.129 103.056 139.646 102.169 139.097C99.4608 137.416 99.8054 136.975 98.923 135.687C98.4652 135.025 97.9157 134.185 97.8239 133.353C97.8175 133.289 97.7108 133.293 97.7044 133.353C97.5572 133.334 97.4569 134.736 97.3822 135.126C96.4848 137.102 97.0887 138.674 97.4451 139.958C97.5358 140.273 97.4953 140.929 97.4601 141.107C97.2851 141.304 96.9191 141.492 96.7516 141.671C96.7206 141.689 96.6918 141.708 96.6587 141.728C96.0527 141.459 95.6696 140.894 95.1862 140.454C93.5153 138.936 93.0063 137.891 92.1559 135.697C90.6503 131.809 89.9941 127.449 90.6716 123.047C91.2179 119.496 89.9514 119.003 88.7638 119.73C95.9961 107.99 102.498 102.222 107.532 99.0359C109.785 97.6061 111.902 96.0109 114.098 94.5053C116.191 93.0691 126.431 86.5548 132.688 81.0425C134.466 79.4772 136.484 78.2352 138.235 76.641C139.987 75.049 141.647 73.3556 143.42 71.7914C148.656 67.1658 148.879 65.991 151.826 61.3121C155.148 56.0399 155.698 54.7199 156.834 52.1068C157.02 51.6757 157.306 51.0195 157.4 50.5596C157.426 51.8197 157.587 53.0351 158.026 54.26C159.077 57.2093 158.325 57.7471 158.479 59.2964C158.557 60.0914 158.599 60.8671 158.797 61.645C159.157 63.0503 160.405 65.6805 160.812 67.058C160.903 67.36 161.519 69.2892 161.346 69.7181C160.873 69.8643 159.436 70.6657 157.895 70.5878C153.863 70.3872 153.442 70.0671 150.671 71.3379C149.624 71.8181 148.927 72.4412 148.243 73.3194C148.082 73.4143 148.098 73.6864 148.282 73.6576C149.385 73.4773 150.63 73.5402 151.729 73.7024C155.196 74.2189 155.541 77.2994 159.05 77.0252C159.824 76.9633 160.807 76.8011 161.621 76.497C160.606 78.8978 161.517 82.2867 161.478 83.5714C160.362 86.0224 157.772 86.2881 155.156 85.7065C151.823 84.9682 148.127 83.8723 143.538 82.8714C142.402 82.6239 141.251 82.6057 140.092 82.5887C138.428 82.5652 135.937 82.785 135.013 84.4613C135.007 84.472 135.006 84.4827 135.003 84.4933C134.98 84.5179 134.962 84.5445 134.953 84.5776C134.821 84.7654 135.036 84.9201 135.203 84.8348C136.218 85.0695 137.324 84.8614 138.273 85.3694C139.363 85.9541 140.57 86.255 141.696 86.8024C143.865 87.8555 146.033 89.2448 148.444 89.677C154.595 90.776 152.137 89.8893 159.167 90.4538C160.204 90.537 160.956 90.4922 161.827 90.9681C161.806 91.3554 161.663 91.8879 161.549 92.2165C161.081 93.5482 160.755 94.9332 160.32 96.2766ZM80.8261 134.286C81.0182 133.535 80.9392 133.25 81.0779 132.769C81.191 132.38 81.3127 131.999 81.4183 131.606C81.9188 129.793 82.6059 127.896 83.1266 126.7C83.2878 126.33 83.5492 125.988 83.6452 125.596C83.7316 125.248 85.5829 120.951 86.4312 119.471C86.5539 119.257 87.8376 117.281 87.8771 117.225C88.4106 116.771 88.7787 115.952 88.0947 115.442C87.4983 114.997 86.6254 115.032 85.9169 115C84.0699 114.919 83.4254 115.077 82.162 115.845C80.5305 116.152 79.0858 117.143 77.099 118.085C76.1024 118.556 74.8625 118.621 73.7794 118.76C73.3942 118.809 72.9343 118.663 72.547 118.664C73.1552 117.059 74.0174 115.727 75.763 115.136C77.0339 114.704 78.6921 114.369 79.1936 112.936C79.2682 112.803 79.2864 112.589 79.1338 112.584C79.121 112.578 79.1093 112.571 79.0911 112.567C79.1626 112.578 78.9311 112.399 78.8436 112.39C78.5427 112.351 78.0892 112.571 77.8085 112.438C77.5439 112.315 76.8376 112.554 76.5804 112.617C73.4956 113.378 70.9401 116.338 69.5124 116.505C69.1805 116.546 68.9575 116.517 68.7004 116.591C68.6918 116.582 68.6854 116.577 68.6769 116.573C67.882 115.015 67.3474 114.57 66.3998 112.343C66.0242 111.457 66.0029 110.526 65.9922 109.579C65.9848 108.801 66.147 108.101 66.0242 107.317C65.8012 105.886 64.7139 104.74 64.9252 102.548C65.0362 101.397 65.225 101.368 65.3083 101.084C66.1896 100.799 67.5501 101.387 68.4165 101.514C69.4942 101.667 70.4535 101.195 71.48 100.962C71.9335 100.861 72.4019 100.855 72.8597 100.746C74.5968 100.331 76.0736 100.253 78.1148 101.009C80.5273 101.9 81.8142 101.428 84.7677 103.007C87.3777 104.4 90.2661 103.426 90.3248 103.133C90.7463 102.629 89.5726 102.084 89.0263 101.824C87.1483 100.93 87.4118 101.186 86.2466 99.992C85.87 99.6036 85.3887 99.4126 84.9417 99.1138C82.3338 97.366 78.8254 97.3276 71.9335 95.9479C70.9038 95.742 70.4674 94.5149 69.602 93.9558C68.4496 93.2099 67.772 92.1258 67.1436 90.9371C67.15 90.8667 67.1105 90.7888 67.0465 90.7461C67.4658 89.3515 68.4496 88.3336 69.3385 87.2014C70.3361 85.9274 70.7128 84.3151 71.5995 82.9792C71.9783 82.4062 72.0829 81.7372 72.5321 81.1909C73.884 79.5519 74.1476 80.0865 75.2658 78.6471C75.6734 78.1221 76.2016 77.6729 76.5975 77.1447C78.5533 77.9962 78.0497 80.2615 82.0959 81.8279C83.3315 82.308 84.7144 82.7669 85.727 83.6397C91.1262 88.2888 92.9625 86.4161 96.6534 89.2694C98.0437 90.3439 99.5643 92.7415 101.493 92.6764C102.123 92.7511 102.562 92.591 103.076 92.257C103.071 92.2421 103.062 92.2272 103.056 92.2133C103.056 92.2133 102.928 91.9551 102.924 91.9476C102.923 91.9476 102.921 91.9476 102.921 91.9476C101.933 90.0451 101.29 89.7997 100.165 86.9518C100.042 86.7842 99.9217 86.6135 99.7947 86.4492C97.9242 83.9801 94.2334 82.6452 90.5799 80.1814C90.0783 79.8421 89.6569 79.3908 89.1959 79.0013C87.9422 77.9449 86.8111 77.453 85.1476 75.2763C83.5737 72.7698 83.0391 72.4156 82.8802 71.435C82.8268 71.1063 83.1853 70.1311 83.9013 69.6445C84.4252 69.2881 84.9203 68.8816 85.4677 68.5625C86.5571 67.9277 87.0853 66.8958 88.003 66.0913C89.8692 64.4577 92.1911 64.3819 92.9615 63.6713C93.3541 63.3074 93.8492 63.1676 94.2846 62.9051C94.2974 62.9041 94.3113 62.8987 94.3294 62.8859C94.3956 62.8379 94.4606 62.824 94.5215 62.8155C95.0464 65.7434 97.2595 71.0626 99.051 72.8531C100.018 73.8177 101.105 74.6542 102.057 75.6274C102.763 76.3497 103.762 76.8192 104.57 77.4253C107.274 79.4505 105.931 81.4181 108.095 83.9769C108.636 84.616 109.412 85.5892 110.293 85.6831C110.413 85.8186 110.646 85.841 110.744 85.6436C110.8 85.5892 110.83 85.5123 110.834 85.4376C110.989 85.0791 111.165 84.7334 111.291 84.3631C111.457 83.8851 111.392 83.3313 111.444 82.8373C111.58 81.5729 111.733 80.3436 111.79 79.0717C111.939 75.8429 112.493 76.6762 110.765 71.6228C109.123 66.819 104.368 63.0022 105.975 57.4483C109.831 58.5655 111.177 57.379 112.445 56.7174C112.99 56.4336 113.642 56.376 114.218 56.1743C114.094 56.7313 114.115 57.3523 114.089 57.8997C113.994 59.8054 114.841 62.3759 115.572 64.0351C115.949 64.893 116.379 65.4713 116.992 66.1852C119.204 68.7535 121.226 73.505 121.619 75.4993C121.972 77.2941 121.915 77.9385 122.169 78.0655C122.238 78.2192 122.372 78.3088 122.549 78.1402C123.963 76.8224 123.754 76.8278 124.454 75.1973C125.006 73.9169 125.261 72.549 125.466 71.1778C125.899 68.3022 124.98 65.4329 125.385 62.5872C125.484 61.9043 125.676 61.2288 125.799 60.5491C125.931 59.8502 125.907 59.1364 126.025 58.4343C126.257 57.0365 127.37 55.8809 128.252 54.8384C129.282 53.6198 130.592 53.0084 132.11 52.6147C134.639 51.9574 135.261 52.285 136.154 52.5955C136.353 53.9314 134.039 64.2144 137.912 68.0493C137.916 68.0546 137.923 68.0557 137.924 68.0578C137.994 68.2648 138.312 68.2019 138.395 68.0013C138.864 66.8638 139.485 65.8 139.96 64.6657C142.6 58.3446 140.199 53.7585 146.912 52.4376C151.185 51.5967 154.556 52.4589 157.398 49.4435C157.271 49.9962 157.222 50.5478 157.016 51.0995C155.38 55.4978 151.77 60.5182 149.688 63.683C146.392 68.6906 143.681 70.3253 141.532 72.2865C133.705 79.4239 135.735 76.974 132.119 80.0513C126.237 85.0631 114.629 92.7265 105.979 98.5312C100.092 102.482 95.3666 108.025 91.4687 113.521C87.6647 118.882 84.5415 124.523 80.8261 134.286ZM76.2197 76.8801C76.2219 76.8886 76.2229 76.8939 76.2229 76.9025C76.2229 76.9025 76.2197 76.9035 76.2187 76.9057C76.2197 76.8971 76.2197 76.8886 76.2197 76.8801ZM162.328 90.2926C161.591 89.2096 159.857 89.3142 159.131 89.1989C155.419 88.6057 155.568 89.3761 149.755 88.6686C148.471 88.5128 147.232 88.2418 146.043 87.7307C145.41 87.4586 144.758 87.3135 144.138 86.9784C143.26 86.5036 140.507 85.5006 140.279 85.428C140.033 85.3512 139.751 85.3331 139.5 85.2851C138.527 85.1005 138.399 84.3119 135.839 84.377C136.669 83.9555 137.393 83.4391 138.371 83.2342C139 83.103 139.685 83.1947 140.322 83.2033C145.881 83.2822 153.863 86.7544 158.424 86.749C159.902 86.749 162.257 85.5689 162.233 83.8478C162.55 82.3134 161.663 80.811 161.923 78.2234C161.994 77.5299 162.236 76.8544 162.336 76.1619C162.425 76.1097 162.466 75.9357 162.354 75.8824C161.478 75.4545 160.008 76.052 159.096 76.2153C157.337 76.5237 156.321 75.2464 155.069 74.3149C152.803 72.6269 149.945 72.7485 148.912 73.0387C149.707 72.4124 150.536 71.9194 151.6 71.722C152.896 71.4798 154.026 71.4435 155.312 71.7402C159.229 72.645 161.29 71.3464 161.61 70.1876C162.347 69.4823 161.66 67.7409 161.466 66.9705C160.922 64.798 159.728 62.8923 159.239 60.7006C158.841 58.9091 159.361 57.0877 158.947 55.3143C158.74 54.4318 158.245 53.6358 158.05 52.7491C157.787 51.5487 157.778 50.3067 157.65 49.0871C157.639 48.9857 157.563 48.9889 157.5 49.0316C157.444 49.0038 157.37 49.007 157.322 49.0572C154.864 51.5594 152.198 50.9277 149.561 51.1219C147.163 51.298 144.692 51.5039 142.819 53.1813C140.918 54.88 140.832 57.6137 140.612 59.9548C140.277 63.5646 138.578 66.3858 138.102 67.4422C137.811 66.5981 137.276 66.2812 136.72 64.3968C136.264 62.8475 136.222 61.2886 136.129 59.6934C136.045 58.2497 136.242 56.8572 136.341 55.4242C136.536 52.5699 136.601 53.5494 136.335 52.4557C136.357 52.3746 136.35 52.2775 136.315 52.2263C135.724 51.3748 134.245 51.5295 133.34 51.5989C131.957 51.7056 130.455 52.1334 129.322 52.9487C127.433 54.3102 125.532 56.6342 125.322 59.0286C125.191 60.5449 124.771 62.0046 124.648 63.5155C124.474 65.6837 126.176 73.3258 122.48 77.2471C122.477 77.2471 122.471 77.2492 122.468 77.2503C122.465 75.7447 121.879 74.0844 121.333 72.7645C120.886 71.6804 119.801 68.713 118.673 67.4069C118.088 66.7294 117.613 65.9718 117.012 65.3028C116.204 64.4011 115.749 63.349 115.396 62.1913C114.71 59.9505 114.23 58.3895 114.682 55.9609C114.704 55.947 114.727 55.9342 114.748 55.9203C114.854 55.851 114.868 55.6899 114.763 55.613C112.724 54.1693 111.846 57.0781 107.666 56.8967C107.077 56.87 105.558 56.5136 105.666 57.2008C102.669 62.1913 107.949 66.8009 110.597 73.1337C111.258 74.6489 111.744 76.243 111.622 77.8158C111.514 79.1838 111.372 80.5197 111.09 81.8631C110.729 83.5746 111.136 83.4476 110.366 85.1239C109.499 84.5691 108.771 83.8755 108.126 83.0603C107.313 82.0306 107.202 80.8025 106.817 79.6053C106.116 77.4338 104.155 76.0243 102.621 74.4515C100.579 72.3633 99.4117 72.1787 97.7727 68.7952C96.8295 66.8468 95.7571 64.1973 95.5213 63.6745C95.214 62.9916 95.1147 61.6439 94.5919 62.3151C94.61 62.2777 94.6143 62.25 94.5449 62.3097C94.0285 62.2713 93.5302 62.584 93.0778 62.8006C92.8089 62.9286 92.6061 63.1484 92.3735 63.3223C92.0684 63.5496 91.6629 63.5934 91.3054 63.6979C87.3756 64.8546 86.5902 66.2759 85.8913 67.0249C85.1209 67.8434 81.9934 69.1718 82.4053 71.5993C82.4128 71.6505 82.4352 71.6932 82.4651 71.7274C82.6571 72.8894 83.2205 73.2383 84.5511 75.2944C84.804 75.6871 85.1593 76.195 85.5797 76.4852C86.762 77.8382 87.7938 78.3814 89.0177 79.4121C89.9823 80.2273 90.9405 80.9881 92.0492 81.6113C94.2697 82.8597 96.9543 83.915 98.6509 85.8783C99.4309 86.7778 100.084 88.0017 100.648 89.0495C101.135 89.9523 102.037 90.8902 102.267 91.9199C100.433 91.6627 100.216 91.5773 98.6391 89.932C94.3892 85.5006 93.1226 87.417 88.5866 84.6512C87.4417 83.9523 86.5838 82.9739 85.5531 82.1405C85.1924 81.8482 84.7229 81.6742 84.2993 81.5024C83.5705 81.2058 82.8695 80.8473 82.1343 80.5645C78.7507 79.2595 78.6494 76.3647 76.5719 76.4874C76.4812 76.4938 76.4033 76.5397 76.3542 76.6101C76.2582 76.6528 76.2187 76.7595 76.2197 76.864C76.2123 76.7755 76.1525 76.7008 76.2155 76.9057C75.5091 77.2503 74.9254 78.1327 74.5882 78.5393C74.2543 78.9448 73.8243 79.0205 73.4337 79.3097C72.2536 80.1814 71.4448 81.257 70.8888 82.6068C70.5783 83.3559 70.0886 84.0078 69.7909 84.7825C69.4195 85.7482 68.9575 86.6679 68.3386 87.5002C67.5736 88.5331 66.6165 89.8445 66.72 91.1324C66.7232 91.1793 66.7445 91.1975 66.7712 91.1996C66.9974 92.0042 67.6333 92.8642 68.1242 93.4852C68.4549 93.9024 68.8455 94.1724 69.2883 94.4498C69.8581 94.8051 70.1366 95.3098 70.5015 95.8401C71.8588 97.8077 81.3938 97.7459 85.8678 100.804C86.3032 101.102 86.7236 101.419 87.1718 101.694C88.2644 102.366 89.0881 102.496 89.6206 103.034C85.7814 103.567 85.106 102.429 83.514 101.769C82.4235 101.314 81.1825 101.228 80.0322 101.024C78.2727 100.708 77.099 99.7145 74.1134 100.004C73.0859 100.102 72.0508 100.1 71.0318 100.209C69.6586 100.354 69.7535 100.819 67.548 100.452C66.7402 100.317 65.813 100.236 65.1055 100.693C64.9978 100.698 64.8953 100.75 64.8302 100.834C64.1228 101.75 63.9574 102.879 64.0716 104.038C64.1441 104.793 64.2295 105.498 64.4653 106.22C65.2848 108.732 64.7278 108.192 65.0863 110.98C65.2539 112.273 66.8363 114.838 67.0881 115.301C67.3868 115.847 67.8435 116.31 68.0964 116.878C68.121 116.935 68.1711 116.973 68.2287 116.995C68.2437 117.01 68.2639 117.022 68.2853 117.03C68.297 117.062 68.3216 117.089 68.3632 117.1C70.1483 117.562 71.5974 115.993 73.9651 114.411C75.078 113.667 77.0755 112.868 77.6762 113.115C77.9473 113.226 78.3741 112.971 78.6206 112.993C78.1191 113.519 78.0102 113.811 76.7511 114.236C75.8335 114.545 74.8849 114.716 74.1017 115.327C73.168 116.056 72.0797 117.588 71.9826 118.876C71.7937 119.085 71.7126 119.449 71.8887 119.554C72.5844 119.966 73.4785 119.888 74.2543 119.871C75.2882 119.852 76.3691 119.709 77.2964 119.22C79.6737 117.968 81.063 117.507 82.3136 116.824C83.1885 116.346 83.9173 115.815 84.9417 115.755C85.6523 115.713 88.5664 115.23 87.9133 116.843C85.7633 119.021 81.3255 129.559 81.1217 130.772C80.9542 131.743 80.4591 132.677 80.3993 133.655C80.3662 134.143 80.2318 134.517 80.0589 134.965C79.8743 135.442 79.8476 136.058 79.7335 136.564C79.5926 137.204 79.4657 137.834 79.2597 138.458C79.1487 138.792 79.1039 139.05 79.1808 139.39C79.2202 139.572 79.4592 139.441 79.4998 139.331C79.5275 139.25 79.551 139.171 79.5777 139.091C80.2115 139.02 81.8142 133.681 82.798 131.43C84.4273 127.706 86.1517 124.096 88.1972 120.667C88.7542 120.216 89.4979 119.864 90.0271 120.417C90.7666 121.195 89.9695 123.304 89.8596 124.233C89.436 127.796 90.0954 132.815 91.6992 136.661C92.1238 138.094 92.8601 139.546 94.5055 141.157C94.8917 141.534 96.5446 143.514 97.0173 142.579C97.1453 142.541 97.2595 142.421 97.3363 142.338C97.3875 142.283 97.4675 142.238 97.5433 142.188C97.8591 142.108 98.0555 141.859 98.1643 141.54C98.4087 141.155 98.6445 140.671 98.3916 140.288C98.3457 140.11 98.271 139.96 98.1814 139.805C98.0469 139.242 97.4889 138.176 97.4643 137.029C97.4793 136.037 97.7909 135.362 97.8645 134.497C98.1483 135.685 98.7341 136.019 99.1108 136.901C99.7585 138.412 101.225 139.037 102.266 140.176C104.791 142.943 104.435 146.038 104.498 147.08C104.532 147.614 104.456 148.019 104.838 148.453C104.963 148.594 105.191 148.689 105.385 148.65C106.131 149.098 107.987 149.855 109.352 150.192C112.019 150.34 114.682 151.403 117.982 150.629C118.346 150.544 119.258 150.517 119.485 150.187C119.84 149.659 118.843 149.076 118.51 148.767C117.155 147.506 115.99 145.697 115.075 144.079C114.228 142.907 113.934 142.245 112.984 139.619C112.538 138.382 110.24 131.146 107.693 129.429C112.381 129.798 115.836 131.889 121.479 136.545C124.824 139.307 125.687 142.944 129.219 145.717C130.159 146.456 130.946 146.722 132.086 146.769C132.238 146.908 132.811 146.579 136.472 145.221C137.157 144.967 138.703 144.218 140.863 142.583C141.543 142.065 141.972 141.349 142.465 140.665C143.056 139.85 143.667 139.053 144.26 138.238C144.777 137.526 145.243 136.816 145.852 136.175C146.163 135.849 146.553 135.473 146.816 135.117C146.971 134.904 147.488 134.344 147.784 134.268C147.972 134.218 148.117 133.723 147.837 133.773C144.938 132.477 141.313 131.648 136.684 128.233C124.119 118.965 132.22 124.209 121.724 117.015C120.01 115.838 119.921 115.071 117.218 113.901C110.443 110.969 111.608 111.918 108.699 110.824C107.343 110.314 107.806 110.356 106.384 110.058C107.18 109.12 109.933 108.093 111.623 107.824C113.787 107.478 116.113 107.955 118.174 108.615C120.237 109.27 121.832 110.974 123.405 112.38C124.934 113.749 126.615 114.93 128.1 116.348C131.143 119.255 134.749 121.666 138.226 124.03C142.196 126.726 147.258 127.47 148.136 127.198C148.16 127.238 148.205 127.264 148.285 127.252C148.972 127.163 149.492 126.688 149.985 126.236C150.604 125.663 151.157 125.111 151.633 124.412C152.102 123.728 152.657 123.083 152.908 122.279C153.219 121.292 153.805 120.336 154.514 119.586C156.909 117.039 158.718 113.782 158.942 110.223C158.954 110.047 158.751 110.017 158.665 110.151C158.653 110.171 158.644 110.193 158.63 110.213C156.879 110.784 155.168 110.135 153.57 109.365C151.864 108.543 150.325 107.525 148.82 106.382C147.438 105.331 145.873 104.662 144.43 103.712C142.983 102.76 141.733 101.715 140.124 101.012C137.93 100.052 135.929 97.4567 124.77 95.0911C124.427 95.0175 124.092 94.9598 123.755 94.8649C123.385 94.7592 122.782 94.8051 123.238 94.3335C125.654 93.4158 124.997 93.6485 127.733 93.4735C129.408 93.3657 131.177 93.9184 132.699 94.5682C132.877 94.644 142.937 99.0594 145.912 99.9856C147.556 100.496 149.246 101.063 150.785 101.832C152.077 102.478 153.392 103.378 154.803 103.697C155.75 103.909 156.677 104.077 157.53 104.57C157.907 104.787 158.178 104.97 158.62 104.832C158.791 104.781 158.824 104.671 158.862 104.512C159.379 103.989 160.174 102.046 160.368 101.323C160.755 99.8789 160.274 100.203 161.46 96.2851C161.685 95.5456 163.457 90.7877 162.328 90.2926Z" fill="#3F543F"/>
<path d="M102.703 136.136C102.13 135.54 101.757 134.672 101.308 133.999C100.657 133.035 100.18 131.987 99.621 130.97C98.7215 129.325 98.268 127.291 98.0706 125.409C98.6959 126.003 99.1814 126.748 99.6295 127.476C100.891 129.538 102.145 130.419 102.541 133.389C102.61 133.898 102.691 134.401 102.736 134.911C102.751 135.078 102.756 135.702 102.703 136.136ZM100.292 127.645C99.5879 126.63 99.0416 125.546 98.0183 124.797C97.8593 124.68 97.6651 125.018 97.7932 125.156C97.6704 127.182 98.2797 129.515 99.1942 131.298C99.6903 132.269 100.137 133.275 100.738 134.183C101.323 135.066 101.809 136.216 102.649 136.886C102.763 136.975 102.935 136.822 102.984 136.73C103.321 136.111 103.234 135.081 103.172 134.399C102.822 130.697 101.612 129.546 100.292 127.645Z" fill="#3F543F"/>
<path d="M105.158 139.578C104.966 139.428 104.811 138.995 104.706 138.847C104.42 138.45 103.813 137.948 104.259 136.789C104.751 136.267 104.498 136.5 104.753 136.497C104.99 136.493 105.116 136.777 105.211 136.945C105.45 137.371 105.448 137.829 105.448 138.306C105.448 138.62 105.336 139.181 105.158 139.578ZM103.862 136.676C103.674 136.834 103.518 136.947 103.459 137.432C103.372 138.165 103.542 138.54 103.87 139.171C104.061 139.539 104.449 140.304 104.919 140.397C105.261 140.468 105.644 140.173 105.648 139.823C105.648 139.259 105.991 139.222 105.784 137.741C105.713 137.216 105.564 136.729 105.239 136.303C104.751 135.663 104.091 136.079 103.862 136.676Z" fill="#3F543F"/>
<path d="M138.831 117.515C140.139 118.098 141.659 118.276 142.788 119.224C143.263 119.624 143.657 119.974 144.212 120.27C144.61 120.482 145.675 120.786 146.102 121.246C146.103 121.282 146.109 121.322 146.128 121.359C146.148 121.429 146.172 121.435 146.201 121.381C146.201 121.381 146.202 121.382 146.204 121.384C146.169 121.561 146.204 121.689 146.267 121.909C146.251 121.998 146.281 122.041 146.296 122.139C145.796 122.68 144.3 122.017 143.825 121.868C142.995 121.61 142.095 121.473 141.242 121.316C138.892 120.882 138.903 120.354 137.071 119.496C136.461 119.21 135.814 119.045 135.215 118.738C134.235 118.239 133.902 117.472 132.048 115.077C131.922 114.912 131.787 114.729 131.73 114.525C135.105 114.621 135.959 116.236 138.831 117.515ZM133.307 118.01C134.607 119.766 136.739 120.088 138.384 121.399C139.531 122.313 140.796 122.152 144.568 122.984C146.339 123.375 147.028 122.468 146.808 121.752C146.822 121.718 146.834 121.679 146.835 121.632C146.92 120.384 145.027 120.028 144.18 119.59C142.91 118.939 143.361 118.422 139.845 117.185C138.07 116.559 136.757 115.302 135.132 114.42C134.217 113.924 132.754 113.611 131.682 113.973C131.575 113.832 131.358 113.987 131.3 114.143C131.233 114.185 131.202 114.259 131.202 114.334C130.978 115.024 131.255 115.229 133.307 118.01Z" fill="#3F543F"/>
<path d="M145.29 96.7376C145.273 96.697 145.245 96.6714 145.188 96.6863C144.875 96.7717 144.471 96.9093 144.153 96.8261C143.881 96.7568 143.94 96.7002 143.85 96.6298C143.828 96.5764 143.791 96.5338 143.732 96.5209C143.66 96.5039 143.589 95.9223 143.571 95.8477C143.481 95.6321 143.574 95.4774 143.851 95.3846C144.735 95.8967 145.523 95.1573 146.178 95.9213C146.521 96.3214 145.799 96.5967 145.29 96.7376ZM145.873 95.1637C145.374 94.946 144.822 95.2053 144.317 95.1007C143.971 95.0282 143.702 94.6526 143.397 95.0378C143.098 95.4112 143.147 95.8167 143.197 96.2681C143.218 96.4409 143.277 96.9093 143.416 97.0139C143.561 97.1526 143.528 97.1633 143.488 97.0417C143.505 97.0929 143.561 97.1569 143.622 97.1633C143.619 97.1676 143.633 97.175 143.687 97.1782C144.042 97.2017 144.185 97.4418 144.762 97.2423C145.32 97.2359 145.92 97.0534 146.279 96.7183C146.852 96.1806 146.524 95.4496 145.873 95.1637Z" fill="#3F543F"/>
<path d="M153.936 99.1853C152.717 99.1341 151.263 99.4392 150.369 98.4714C149.988 98.0649 149.522 97.7309 149.017 97.5015C148.543 97.286 148.731 96.7973 149.035 96.3673C149.083 96.3811 149.136 96.3747 149.179 96.3374C150.111 95.5488 150.802 96.7567 152.663 97.2166C153.611 97.4482 154.768 96.8197 154.935 98.4512C154.998 99.0989 154.434 99.2088 153.936 99.1853ZM152.063 96.4494C150.762 96.0077 149.835 94.8041 149.097 95.8284C147.706 96.7877 147.622 97.6498 148.265 98.0478C150.104 99.1853 149.823 99.929 152.113 99.8938C154.365 99.8597 154.59 99.9471 154.975 99.7145C155.532 99.3763 155.688 98.6827 155.551 98.066C155.127 96.1485 153.58 96.9637 152.063 96.4494Z" fill="#3F543F"/>
<path d="M146.524 56.2426C146.783 55.7443 147.435 54.4948 147.99 54.4564C147.948 54.561 147.966 54.6922 148.088 54.7306C149.107 55.0625 149.018 56.2746 148.534 57.0568C147.912 58.063 147.667 57.7653 146.261 60.483C146.153 60.6879 146.043 60.8895 145.93 61.0891C145.872 61.3046 145.817 61.3036 145.766 61.0848C145.605 60.8469 145.482 60.5993 145.257 60.4115C144.938 60.149 144.594 59.9986 144.613 59.5152C144.649 58.7982 145.839 57.5732 146.524 56.2426ZM144.624 60.9237C144.972 61.1702 145.168 61.4657 145.431 61.788C145.628 62.0323 145.857 61.9523 146.075 61.8264C146.601 61.5212 146.801 60.1981 147.876 58.5538C148.467 57.6479 149.277 57.0514 149.274 55.8926C149.273 55.3933 149.22 54.7936 148.922 54.4863C148.862 54.3465 148.791 54.2057 148.706 54.0616C148.255 53.2923 147.187 54.3401 146.89 54.6901C146.083 55.6451 145.583 56.8455 144.798 57.8336C144.212 58.5741 143.55 59.6347 144.146 60.5342C144.23 60.6612 144.506 60.8383 144.624 60.9237Z" fill="#3F543F"/>
<path d="M83.5589 89.0656C83.3444 89.5969 82.9944 89.5094 82.621 89.1819C81.9263 88.5726 81.2562 88.086 80.4378 87.6496C79.7272 87.2687 79.0464 86.7661 78.2824 86.4919C77.3861 86.1686 75.8133 85.8485 75.6639 84.6779C75.5081 83.4274 77.6166 82.7978 78.404 83.3175C79.9246 84.3173 79.0731 84.2244 81.3971 85.2221C81.9455 85.4558 82.4001 86.016 82.8653 86.3873C83.2302 86.6818 83.5973 86.9667 83.9355 87.2921C84.5405 87.8769 83.7595 88.5672 83.5589 89.0656ZM83.4607 86.2369C81.3021 84.488 79.6045 83.5735 79.4263 83.5415C78.9013 83.1467 78.4766 82.7583 77.8887 82.5609C77.1023 82.2963 75.7898 82.9824 75.2819 83.5554C74.631 84.2874 74.8786 85.2829 75.4398 85.9594C76.3532 87.0585 78.1608 87.178 79.3537 87.8321C79.948 88.1575 80.5947 88.3912 81.1677 88.754C81.7428 89.1136 82.2624 89.5468 82.8184 89.932C83.8278 90.6298 83.9718 89.1498 84.4883 88.4317C85.1424 87.5216 84.0871 86.7426 83.4607 86.2369Z" fill="#3F543F"/>
<path d="M90.0891 92.2581C88.7457 91.4984 86.7931 91.4835 86.7002 90.648C86.6458 90.1678 86.6021 89.6919 86.5306 89.2118C86.7621 88.8959 87.9156 89.3878 88.113 89.4561C89.4734 89.9256 90.5533 90.8038 90.9022 92.2816C91.0836 93.0541 90.4146 92.4427 90.0891 92.2581ZM89.8053 89.7431C89.2152 89.1371 88.1695 88.9856 87.4087 88.7188C86.1304 88.2706 85.9416 89.2416 86.2649 89.9075C86.2265 90.4698 86.187 91.0567 86.4708 91.5101C86.9659 92.303 89.101 92.3179 90.4092 93.0958C90.5618 93.1854 90.9737 93.4884 91.1583 93.3753C91.6939 93.0509 91.2874 92.3147 91.1818 91.8601C90.9982 91.0759 90.3495 90.3044 89.8053 89.7431Z" fill="#3F543F"/>
<path d="M93.5325 93.9259C93.5175 93.4468 93.8227 92.8898 94.305 92.7383C94.8545 92.5654 95.8191 93.6602 95.1597 94.0016C94.9687 94.1009 94.7051 94.0934 94.4992 94.15C94.1994 94.231 93.7288 94.3324 93.4972 94.055C93.5207 94.0198 93.5357 93.9782 93.5325 93.9259ZM93.048 94.0795C93.0939 94.246 93.2038 94.4007 93.3959 94.5298C93.7896 94.7923 94.3573 94.6696 94.7723 94.5544C95.1383 94.453 95.5865 94.4605 95.7871 94.0646C96.199 93.2494 95.2408 92.3926 94.5024 92.2997C93.4791 92.1738 92.6223 93.6858 93.048 94.0795Z" fill="#3F543F"/>
<path d="M108.14 93.4692C107.573 91.9294 107.157 90.3758 106.48 88.8767C105.832 87.4372 105.035 85.9871 103.971 84.8134C102.825 83.5468 101.837 82.1608 100.627 80.9454C99.4608 79.776 98.1942 78.7121 97.0119 77.5651C95.7817 76.3689 94.6613 74.9828 93.6871 73.5733C91.8742 70.9463 90.3195 68.2083 88.8438 65.3828C88.8972 65.2601 88.863 65.1501 88.6475 65.1416C88.6176 65.1405 88.5899 65.1405 88.56 65.1384C88.306 65.1288 87.9422 65.4009 88.0478 65.6762C88.56 67.01 89.2738 68.2755 89.9674 69.5186C90.7559 70.9228 91.7685 72.1488 92.651 73.4847C94.4521 76.2153 96.8658 78.2938 99.2751 80.4567C100.526 81.5792 101.648 82.8245 102.685 84.1444C103.217 84.8198 103.814 85.4376 104.331 86.1269C104.787 86.733 105.1 87.4287 105.5 88.0679C106.394 89.4923 106.933 91.2156 107.351 92.8332C107.771 94.4668 108.407 96.0226 108.241 97.7256C108.224 97.7554 108.215 97.7875 108.215 97.8173C108.215 97.8771 108.215 97.9368 108.215 97.9966C108.215 98.2559 108.728 98.0147 108.755 97.8269C108.958 96.364 108.648 94.852 108.14 93.4692Z" fill="#3F543F"/>
<path d="M132.408 52.1986C131.898 53.1418 131.617 54.2654 131.283 55.2812C130.868 56.5478 130.313 57.8047 130.052 59.1151C129.56 61.5511 129.643 64.0544 129.948 66.5213C130.282 69.2476 131.092 71.8832 131.21 74.634C131.265 75.9123 131.155 77.1724 131.152 78.4411C131.152 78.9309 131.067 79.4111 131.053 79.9008C131.035 80.3607 130.963 81.4395 130.501 81.734C130.287 81.8663 130.431 82.1523 130.667 82.0723C131.379 81.8279 131.412 81.0426 131.507 80.4066C131.674 79.2617 131.757 78.0527 131.752 76.8971C131.749 75.4791 131.751 74.0684 131.617 72.6546C131.469 71.1042 130.952 69.6232 130.78 68.0771C130.624 66.7113 130.563 65.3444 130.471 63.9733C130.38 62.6267 130.358 61.1339 130.724 59.8225C131.083 58.5335 131.427 57.2723 131.869 56.0025C132.286 54.8117 132.779 53.5345 132.938 52.2829C132.975 52.0022 132.513 52.0054 132.408 52.1986Z" fill="#3F543F"/>
<path d="M161.491 80.0353C160.516 80.6083 159.113 80.1313 158.038 80.0588C156.649 79.967 155.222 80.0652 153.828 80.0662C153.233 80.0684 152.666 80.0033 152.081 79.8923C151.49 79.7813 150.851 79.8571 150.247 79.7482C148.939 79.5103 147.616 79.4057 146.303 79.1913C145.082 78.9928 143.895 78.8914 142.66 78.8167C141.259 78.7314 139.88 78.3248 138.476 78.312C136.518 78.2949 134.331 78.742 133.126 80.4717C133.086 80.5304 133.095 80.7737 133.208 80.6894C134.03 80.0769 134.958 79.4794 135.937 79.1539C137.106 78.7655 138.435 78.7986 139.643 79.0056C140.901 79.2233 142.171 79.3961 143.45 79.4409C144.747 79.4868 146.016 79.7877 147.303 79.9275C148.566 80.063 149.805 80.3789 151.064 80.492C152.384 80.6115 153.685 80.6947 155.016 80.6958C156.19 80.6979 157.391 80.6179 158.555 80.779C159.441 80.8985 160.631 81.1727 161.43 80.651C161.446 80.6467 161.463 80.6381 161.481 80.6232C161.513 80.5965 161.541 80.5731 161.573 80.5485C161.72 80.429 161.759 79.8774 161.491 80.0353Z" fill="#3F543F"/>
<path d="M152.967 118.323C152.082 117.547 151.099 116.887 150.14 116.214C148.035 114.739 146.142 113.067 144.195 111.401C142.424 109.882 140.4 108.956 138.42 107.758C136.324 106.484 134.248 105.358 132.005 104.359C129.629 103.3 127.261 102.217 124.821 101.311C122.512 100.452 119.971 100.034 117.543 99.6687C115.072 99.2984 112.578 99.2515 110.082 99.3283C107.606 99.4041 105.342 100.152 103.124 101.224C102.888 101.339 103.051 101.756 103.306 101.679C104.316 101.377 105.292 101.001 106.292 100.67C107.54 100.255 108.777 100.082 110.087 100.021C112.523 99.9056 114.972 99.9707 117.388 100.301C119.619 100.604 121.892 101.03 124.041 101.704C126.415 102.449 128.661 103.584 130.939 104.572C133.143 105.526 135.266 106.534 137.305 107.803C139.143 108.943 141.121 109.843 142.845 111.154C144.63 112.511 146.184 114.152 147.966 115.522C148.895 116.239 149.869 116.896 150.827 117.573C151.254 117.874 151.672 118.188 152.093 118.496C152.353 118.685 153.448 119.342 153.478 119.745C153.496 120.011 153.882 120.102 153.938 119.808C154.064 119.151 153.4 118.702 152.967 118.323Z" fill="#3F543F"/>
<path d="M140.519 142.132C140.038 142.322 139.525 141.578 139.243 141.287C138.877 140.907 138.476 140.579 138.067 140.248C137.01 139.39 135.937 138.548 134.878 137.69C132.787 135.995 130.877 134.134 128.927 132.284C125.203 128.757 120.789 125.976 116.85 122.695C114.952 121.115 112.978 119.729 110.755 118.648C108.505 117.555 106.174 116.729 103.831 115.872C101.57 115.045 99.3051 114.205 96.9075 113.874C95.6793 113.704 94.4544 113.856 93.2369 114.037C92.3171 114.173 91.3824 114.307 90.7336 115.024C90.4242 115.368 90.9012 115.94 91.2309 115.574C91.9821 114.746 93.5751 114.728 94.6187 114.606C96.0176 114.442 97.3663 114.626 98.731 114.949C101.123 115.514 103.449 116.43 105.778 117.216C108.176 118.03 110.61 118.978 112.796 120.275C114.928 121.54 116.777 123.25 118.726 124.77C120.757 126.352 122.805 127.906 124.85 129.467C126.923 131.05 128.786 132.779 130.617 134.635C132.346 136.389 134.235 137.982 136.133 139.548C137.164 140.399 138.177 141.241 139.16 142.147C139.626 142.577 140.167 143 140.682 142.445C140.787 142.329 140.701 142.062 140.519 142.132Z" fill="#3F543F"/>
<path d="M93.5825 111.508C93.0309 110.688 92.0833 110.2 91.2265 109.758C90.2032 109.233 89.1522 108.731 88.0948 108.278C85.711 107.259 83.0296 106.469 80.4378 106.217C79.2406 106.101 77.9366 106.135 76.7437 106.285C75.4867 106.441 74.2831 106.892 73.0219 107.063C71.7489 107.236 70.4674 107.352 69.2233 107.686C68.0378 108.005 66.8299 108.41 65.6359 108.667C65.3414 108.732 65.3371 109.108 65.6146 109.135V109.138C65.6252 109.138 65.6338 109.137 65.6455 109.135C65.6572 109.137 65.669 109.137 65.6818 109.135C65.7106 109.134 65.7405 109.132 65.7703 109.129C65.7767 109.127 65.7831 109.124 65.7917 109.122C66.6421 109.041 67.5448 108.671 68.3803 108.496C69.5306 108.256 70.6317 107.967 71.7991 107.809C72.976 107.651 74.1145 107.504 75.2637 107.205C76.6199 106.851 77.9334 106.788 79.3302 106.778C80.6597 106.77 81.9487 107.027 83.2451 107.299C84.5298 107.57 85.774 107.863 86.9957 108.35C88.083 108.783 89.1106 109.306 90.168 109.797C91.2265 110.284 92.5112 110.798 93.1792 111.807C93.335 112.043 93.75 111.757 93.5825 111.508Z" fill="#3F543F"/>
<path d="M120.727 87.8385C120.762 87.337 120.805 86.7427 120.721 86.2444C120.47 84.7185 120.474 83.1564 120.184 81.6422C119.64 78.8061 118.698 76.195 117.464 73.5894C116.169 70.8524 114.625 68.2755 113.166 65.625C111.718 62.9991 110.7 60.18 110.506 57.1613C110.49 56.8818 110.081 56.9138 110.028 57.1592C109.797 58.2422 110.119 59.5237 110.333 60.5961C110.616 61.9854 111.271 63.2904 111.81 64.5921C112.339 65.8694 113.282 67.0634 114.011 68.2339C114.805 69.5154 115.49 70.8652 116.197 72.1947C116.875 73.4688 117.502 74.81 118.055 76.1396C118.618 77.4787 119.169 78.8797 119.455 80.301C119.616 81.0949 119.84 81.8514 119.905 82.6655C119.966 83.4455 119.953 84.2245 120.044 85.0066C120.127 85.7215 120.232 86.4161 120.225 87.1385C120.219 87.6539 120.282 88.2834 120.16 88.802C119.968 88.9482 119.968 89.2747 120.302 89.2683C120.33 89.2683 120.362 89.2683 120.39 89.2662C120.515 89.2651 120.635 89.1499 120.667 89.0346C120.789 88.6196 120.697 88.2621 120.727 87.8385Z" fill="#3F543F"/>
<path d="M99.8386 104.37C99.621 103.267 98.3608 102.272 97.6235 101.506C96.6504 100.5 95.6111 99.5193 94.5174 98.6475C93.3415 97.7107 92.0034 97.0203 90.6579 96.363C89.2227 95.662 87.7972 94.9417 86.345 94.2705C85.7741 94.0049 85.1296 93.8555 84.5385 93.6335C83.6635 93.3049 82.8248 92.8759 81.9787 92.4811C80.5008 91.7886 79.0379 91.063 77.5996 90.2862C76.078 89.4646 74.7581 88.3933 73.4296 87.2911C72.8353 86.796 72.2441 86.2966 71.6466 85.8079C71.3692 85.5828 71.1227 85.3747 70.8805 85.1175C70.7695 84.9948 70.6479 84.8828 70.5166 84.7825C70.4857 84.7473 70.4558 84.7323 70.4291 84.7334C70.4441 84.568 70.3 84.408 70.0909 84.5211C69.9788 84.5808 69.8977 84.6363 69.8625 84.7633C69.8316 84.8796 69.8508 84.9724 69.9511 85.0461C70.4867 85.4483 70.9488 85.9808 71.4716 86.4108C72.0649 86.8984 72.6507 87.4021 73.2397 87.895C74.3387 88.8148 75.4431 89.7666 76.7022 90.4687C79.3218 91.9359 82.0907 93.3572 84.9205 94.3773C86.3994 94.9097 87.8057 95.5542 89.2003 96.2776C90.4744 96.9392 91.821 97.478 93.0182 98.2783C94.241 99.0957 95.3272 100.062 96.3665 101.1C96.8552 101.588 97.3365 102.076 97.806 102.584C98.2114 103.017 98.9231 103.731 99.1365 104.36C99.0565 104.551 99.1173 104.789 99.3852 104.785C99.415 104.785 99.4428 104.785 99.4748 104.785C99.6754 104.782 99.8803 104.578 99.8386 104.37Z" fill="#3F543F"/>
<path d="M55.4987 171.575C56.4609 171.575 57.2806 171.742 57.9577 172.074C58.6468 172.395 59.1695 172.858 59.5259 173.464C59.8941 174.07 60.0783 174.807 60.0783 175.674C60.0783 176.185 60.001 176.689 59.8466 177.188C59.6922 177.687 59.4427 178.145 59.0982 178.561C58.7656 178.964 58.3201 179.291 57.7617 179.541C57.2034 179.778 56.5263 179.897 55.7303 179.897H53.8415V184.512H51.9348V171.575H55.4987ZM55.7303 178.062C56.2055 178.062 56.6035 177.984 56.9242 177.83C57.245 177.664 57.4944 177.456 57.6726 177.206C57.8627 176.957 57.9934 176.701 58.0647 176.44C58.1478 176.167 58.1894 175.923 58.1894 175.709C58.1894 175.472 58.1478 175.222 58.0647 174.961C57.9934 174.688 57.8687 174.438 57.6905 174.213C57.5123 173.975 57.2687 173.785 56.9599 173.642C56.651 173.488 56.2649 173.411 55.8016 173.411H53.8415V178.062H55.7303ZM66.2356 171.575H68.1423V182.677H74.6107V184.512H66.2356V171.575ZM79.6354 184.512L85.3198 171.059H85.4267L91.1111 184.512H88.9371L84.803 174.034L86.1751 173.126L81.5064 184.512H79.6354ZM83.0924 179.665H87.6898L88.3491 181.305H82.5221L83.0924 179.665ZM108.275 184.958L98.3137 175.068L98.8661 175.246L98.9195 184.512H96.995V171.165H97.0841L106.92 181.073L106.475 180.948L106.439 171.575H108.328V184.958H108.275ZM114.597 171.575H123.222V173.411H119.819V184.512H117.912V173.411H114.597V171.575ZM136.213 174.052C135.762 173.815 135.275 173.613 134.752 173.446C134.229 173.28 133.724 173.197 133.237 173.197C132.572 173.197 132.043 173.351 131.651 173.66C131.259 173.957 131.063 174.367 131.063 174.89C131.063 175.258 131.194 175.579 131.455 175.852C131.717 176.125 132.055 176.363 132.471 176.565C132.887 176.767 133.326 176.957 133.79 177.135C134.182 177.278 134.568 177.45 134.948 177.652C135.34 177.842 135.69 178.079 135.999 178.364C136.32 178.65 136.569 179.006 136.748 179.434C136.938 179.849 137.033 180.36 137.033 180.966C137.033 181.655 136.86 182.279 136.516 182.837C136.183 183.396 135.696 183.841 135.055 184.174C134.425 184.494 133.659 184.655 132.756 184.655C132.21 184.655 131.675 184.595 131.152 184.477C130.641 184.346 130.154 184.18 129.691 183.978C129.24 183.764 128.83 183.532 128.462 183.283L129.317 181.804C129.602 182.006 129.929 182.202 130.297 182.392C130.665 182.57 131.045 182.712 131.437 182.819C131.841 182.926 132.221 182.98 132.578 182.98C132.97 182.98 133.356 182.914 133.736 182.784C134.116 182.641 134.431 182.427 134.681 182.142C134.93 181.845 135.055 181.459 135.055 180.984C135.055 180.58 134.942 180.241 134.716 179.968C134.502 179.683 134.211 179.44 133.843 179.238C133.487 179.036 133.101 178.857 132.685 178.703C132.281 178.549 131.871 178.376 131.455 178.186C131.039 177.996 130.653 177.771 130.297 177.509C129.941 177.236 129.649 176.903 129.424 176.511C129.21 176.107 129.103 175.614 129.103 175.032C129.103 174.343 129.263 173.743 129.584 173.232C129.917 172.71 130.374 172.3 130.956 172.003C131.538 171.706 132.21 171.54 132.97 171.504C133.837 171.504 134.591 171.611 135.233 171.825C135.874 172.039 136.445 172.294 136.944 172.591L136.213 174.052ZM156.089 171.575C157.395 171.575 158.423 171.843 159.171 172.377C159.932 172.912 160.312 173.731 160.312 174.836C160.312 175.549 160.146 176.161 159.813 176.672C159.492 177.182 159.041 177.58 158.459 177.866C157.888 178.139 157.211 178.293 156.427 178.329L156.142 177.313C157.057 177.337 157.871 177.497 158.583 177.794C159.308 178.079 159.878 178.483 160.294 179.006C160.722 179.517 160.936 180.129 160.936 180.841C160.936 181.495 160.811 182.059 160.561 182.534C160.324 182.998 159.997 183.378 159.581 183.675C159.177 183.96 158.714 184.174 158.191 184.316C157.681 184.447 157.146 184.512 156.588 184.512H152.649V171.575H156.089ZM156.427 177.171C157.092 177.171 157.58 176.981 157.888 176.6C158.197 176.22 158.352 175.769 158.352 175.246C158.352 174.605 158.15 174.141 157.746 173.856C157.354 173.559 156.831 173.411 156.178 173.411H154.556V177.171H156.427ZM156.498 182.748C156.962 182.748 157.378 182.683 157.746 182.552C158.126 182.41 158.423 182.202 158.637 181.928C158.863 181.643 158.975 181.287 158.975 180.859C158.975 180.384 158.845 180.016 158.583 179.754C158.334 179.481 158.007 179.291 157.603 179.184C157.211 179.065 156.801 179.006 156.374 179.006H154.556V182.748H156.498ZM170.25 180.253L165.456 171.575H167.809L171.533 178.632L170.963 178.667L174.651 171.575H176.986L172.157 180.253V184.512H170.25V180.253Z" fill="#3F543F"/>
<line x1="5.29012" y1="141.442" x2="5.29012" y2="180.422" stroke="#3F543F" stroke-width="1.67057"/>
<line x1="32.2977" y1="180.144" x2="4.45483" y2="180.144" stroke="#3F543F" stroke-width="1.67057"/>
<line y1="-0.835287" x2="38.9801" y2="-0.835287" transform="matrix(-4.37114e-08 1 1 4.37114e-08 222.743 141.442)" stroke="#3F543F" stroke-width="1.67057"/>
<line y1="-0.835287" x2="27.8429" y2="-0.835287" transform="matrix(1 0 0 -1 194.9 179.308)" stroke="#3F543F" stroke-width="1.67057"/>
<path d="M8.03342 60.443L22.4905 68.173L20.9676 71.0212L15.0944 67.8809L11.639 74.3433L17.5122 77.4837L15.9893 80.3319L1.53225 72.6019L3.05514 69.7537L8.88905 72.873L12.3444 66.4105L6.51053 63.2912L8.03342 60.443Z" fill="#3F543F"/>
<path d="M19.903 57.1678C19.0368 56.4443 18.3542 55.5937 17.8551 54.616C17.3561 53.6382 17.053 52.6111 16.9458 51.5349C16.8367 50.4377 16.9348 49.3589 17.2401 48.2983C17.5454 47.2377 18.0693 46.2629 18.8118 45.3738C19.5447 44.4962 20.4058 43.8127 21.3949 43.3232C22.3841 42.8337 23.4282 42.5449 24.5273 42.4567C25.6244 42.3475 26.6986 42.4513 27.7496 42.7681C28.8102 43.0734 29.7737 43.5878 30.6399 44.3112C31.5289 45.0536 32.2181 45.9194 32.7076 46.9086C33.2066 47.8864 33.5002 48.9248 33.5884 50.0239C33.6748 51.102 33.5596 52.1666 33.2428 53.2177C32.9261 54.2688 32.4013 55.2331 31.6683 56.1107C30.9259 56.9997 30.0658 57.6938 29.088 58.1928C28.1102 58.6918 27.0832 58.9949 26.0069 59.1021C24.9288 59.1884 23.8642 59.0732 22.8131 58.7565C21.7621 58.4398 20.792 57.9102 19.903 57.1678ZM22.0447 54.6033C22.6031 55.0697 23.2083 55.4107 23.8603 55.6262C24.5103 55.8208 25.1709 55.8985 25.8421 55.8593C26.5114 55.7992 27.1438 55.6211 27.7392 55.3251C28.3441 55.0178 28.8798 54.5848 29.3462 54.0264C29.7936 53.4907 30.1051 52.9092 30.2807 52.282C30.4658 51.6433 30.5187 51.0007 30.4395 50.3542C30.349 49.6982 30.1453 49.0734 29.8284 48.4799C29.5001 47.8768 29.0567 47.3421 28.4982 46.8757C27.9283 46.3997 27.3127 46.0597 26.6512 45.8556C25.9993 45.64 25.3435 45.5566 24.6837 45.6054C24.022 45.6332 23.3934 45.7951 22.798 46.091C22.2026 46.387 21.6764 46.8085 21.2196 47.3556C20.7627 47.9027 20.4417 48.4956 20.2566 49.1342C20.0715 49.7729 20.0194 50.4259 20.1005 51.0933C20.1702 51.7513 20.3691 52.3817 20.6974 52.9848C21.0257 53.5879 21.4748 54.1274 22.0447 54.6033Z" fill="#3F543F"/>
<path d="M31.213 32.6498L33.7009 30.5902L42.1665 40.8163L48.1031 35.9017L50.0917 38.3038L41.6672 45.278L31.213 32.6498Z" fill="#3F543F"/>
<path d="M55.104 34.6112L47.0038 19.5945L47.0234 19.5839L61.1748 26.6292L59.8113 27.0104L61.8245 11.6L61.8637 11.5788L69.9639 26.5955L67.1214 28.1289L62.479 19.5227L63.4486 20.8978L62.3106 30.4708L62.2714 30.4919L53.5093 26.2592L53.2698 24.6422L57.8486 33.1307L55.104 34.6112Z" fill="#3F543F"/>
<path d="M100.325 18.2039C100.121 18.244 99.815 18.3042 99.407 18.3844C99.0136 18.4618 98.6056 18.542 98.1831 18.6251C97.7606 18.7082 97.3963 18.7798 97.0903 18.8399C96.7989 18.8972 96.6532 18.9259 96.6532 18.9259L87.6982 10.7891C87.5124 10.6138 87.2758 10.3727 86.9885 10.066C86.6983 9.74473 86.4301 9.38129 86.1839 8.97569C85.9348 8.55551 85.7659 8.11958 85.6771 7.6679C85.5625 7.08507 85.595 6.48089 85.7747 5.85534C85.9661 5.21235 86.3305 4.64128 86.868 4.14211C87.4172 3.62552 88.1653 3.27411 89.1124 3.08789C90.1469 2.88447 91.0991 2.91669 91.969 3.18453C92.8389 3.45237 93.5657 3.83914 94.1494 4.34486L92.9708 6.77858C92.4217 6.372 91.9072 6.06454 91.4274 5.85621C90.9621 5.64502 90.5327 5.5781 90.1393 5.65546C89.6439 5.75286 89.3156 5.96876 89.1544 6.30315C88.9931 6.63753 88.9468 6.97957 89.0156 7.32926C89.0557 7.53325 89.1511 7.74907 89.3018 7.97671C89.4642 8.18692 89.6238 8.38256 89.7804 8.56363C89.9342 8.73013 90.0402 8.8455 90.0982 8.90976L100.325 18.2039ZM90.0337 12.6227C89.684 12.6914 89.3705 12.8287 89.0932 13.0346C88.813 13.2259 88.5792 13.461 88.392 13.74C88.2047 14.019 88.0741 14.3171 88.0003 14.6343C87.941 14.9486 87.9429 15.266 88.0059 15.5866C88.0947 16.0383 88.2828 16.4175 88.5701 16.7242C88.8691 17.0135 89.234 17.2142 89.6646 17.3262C90.0953 17.4383 90.5437 17.4485 91.01 17.3568C91.4908 17.2623 91.8713 17.1193 92.1515 16.928C92.4434 16.7193 92.6684 16.4783 92.8266 16.2051C92.9993 15.929 93.124 15.6396 93.2007 15.337L95.5642 16.6202C95.3169 17.4407 94.8369 18.1934 94.1241 18.8784C93.4258 19.5605 92.4283 20.029 91.1315 20.284C90.1262 20.4817 89.174 20.4495 88.2749 20.1874C87.3759 19.9253 86.6129 19.4699 85.986 18.8214C85.359 18.1728 84.951 17.3677 84.7619 16.406C84.6187 15.6775 84.6472 14.9758 84.8474 14.3008C85.0622 13.6229 85.402 13.0037 85.8669 12.4431C86.3317 11.8826 86.8808 11.4039 87.514 11.0069C88.1444 10.5954 88.8152 10.3122 89.5263 10.1573L90.0337 12.6227ZM94.3127 9.21613L97.1977 8.64887L95.8283 16.0008L93.267 15.0969L94.3127 9.21613Z" fill="#3F543F"/>
<path d="M116.893 0.802369L120.649 1.28446L122.807 11.9367L122.327 11.6505L126.321 4.50529L127.237 9.09181L121.263 18.543L116.893 0.802369ZM125.045 1.84878L128.227 2.25714L130.958 12.646L130.395 12.4839L134.634 3.07953L138.08 3.52191L129.642 19.5736L125.045 1.84878Z" fill="#3F543F"/>
<path d="M150.142 6.8283L153.212 7.83351L148.109 23.4132L145.04 22.408L150.142 6.8283Z" fill="#3F543F"/>
<path d="M161.35 10.783L171.313 15.5568L169.966 18.3691L166.37 16.6463L160.634 28.6185L157.721 27.223L163.458 15.2507L160.003 13.5953L161.35 10.783Z" fill="#3F543F"/>
<path d="M178.803 19.8309L187.882 26.1271L186.104 28.6896L182.828 26.4173L175.262 37.326L172.608 35.4854L180.174 24.5767L177.026 22.3933L178.803 19.8309Z" fill="#3F543F"/>
<path d="M194.938 32.0105L197.33 34.1805L186.316 46.3232L183.924 44.1533L194.938 32.0105Z" fill="#3F543F"/>
<path d="M200.645 63.4167L201.517 46.691L201.706 47.7714L193.97 54.1454L191.905 51.6045L205.128 40.8569L205.212 40.9606L204.206 57.4508L203.999 56.701L211.89 50.2006L213.941 52.7242L200.701 63.4859L200.645 63.4167Z" fill="#3F543F"/>
<path d="M212.561 79.8256C212.287 79.7519 211.954 79.5832 211.563 79.3195C211.185 79.0489 210.789 78.7122 210.375 78.3095C209.968 77.9199 209.587 77.4999 209.231 77.0494C208.863 76.6058 208.561 76.1608 208.325 75.7143C207.701 74.5324 207.31 73.3785 207.153 72.2528C207.008 71.1201 207.068 70.056 207.331 69.0604C207.608 68.0579 208.08 67.1541 208.746 66.349C209.413 65.5438 210.251 64.8744 211.263 64.3406C212.589 63.6405 213.842 63.2309 215.022 63.1119C216.222 62.9991 217.323 63.1143 218.327 63.4575C219.351 63.8069 220.257 64.3449 221.043 65.0715C221.837 65.8113 222.493 66.6736 223.013 67.6585C223.506 68.5909 223.851 69.5 224.05 70.3857C224.262 71.2645 224.359 72.0528 224.341 72.7507L221.193 73.2286C221.2 72.9229 221.165 72.5384 221.088 72.0751C221.011 71.6118 220.905 71.1558 220.769 70.7071C220.646 70.2515 220.501 69.8661 220.335 69.5509C219.919 68.763 219.453 68.119 218.937 67.6189C218.421 67.1188 217.856 66.7626 217.24 66.5503C216.631 66.3512 215.976 66.3025 215.274 66.4043C214.585 66.4992 213.853 66.7512 213.078 67.1602C212.396 67.5206 211.841 67.9646 211.414 68.4922C211 69.0128 210.714 69.5837 210.555 70.2049C210.403 70.8393 210.381 71.4974 210.489 72.1792C210.604 72.8742 210.848 73.5762 211.223 74.2853C211.438 74.6924 211.662 75.0528 211.894 75.3666C212.14 75.6733 212.391 75.9103 212.647 76.0773L214.4 75.1519L213.08 72.6502L215.838 71.1945L218.687 76.5918L212.561 79.8256Z" fill="#3F543F"/>
</svg>
