<svg width="94" height="93" viewBox="0 0 94 93" fill="none" xmlns="http://www.w3.org/2000/svg">
<path d="M43.4315 92.9613C42.2709 92.7679 41.1103 92.5744 39.9496 92.4197C31.1677 91.0657 23.4304 87.4678 16.7375 81.7034C8.45855 74.5464 3.23583 65.5323 1.34017 54.7774C-2.99276 30.4047 12.1338 7.19255 35.8488 1.50558C53.4127 -2.71129 68.81 1.96982 81.3446 15.046C87.8053 21.7775 91.6353 29.9404 93.1054 39.1479C96.9354 63.3659 81.5767 85.9977 58.1324 91.6847C56.0047 92.1876 53.7995 92.4197 51.5944 92.7679C51.3236 92.8066 51.0915 92.9226 50.8593 93C48.3834 92.9613 45.9074 92.9613 43.4315 92.9613ZM52.4068 29.8244C54.1864 27.3484 52.9871 24.9111 51.3623 23.4797C50.3951 22.6286 49.3506 22.0483 48.0739 21.9709C46.4104 21.8549 45.0563 22.5512 43.9731 23.8279C43.0446 21.7775 41.4197 21.5067 39.5241 22.9768C38.9051 21.7388 37.9379 21.0811 36.5452 21.3132C35.1525 21.5454 34.0305 22.1257 33.9145 23.7892C32.1736 22.5125 30.2392 22.5512 28.4983 23.7505C26.7574 24.9885 26.3706 26.8068 26.5253 28.8572C24.7844 28.6637 23.353 29.0119 22.6566 30.6368C21.9603 32.339 22.3084 33.8478 23.7785 35.0471C22.1924 37.6004 23.3143 39.4961 26.6414 40.0377C26.6027 40.1924 26.6027 40.3085 26.564 40.4632C25.9063 42.7458 27.183 45.1444 29.4655 45.7247C30.1232 45.8794 30.8195 45.9568 31.4772 45.9568C32.3283 45.9181 32.8313 46.305 33.1407 47.0013C33.3342 47.4656 33.5276 47.9298 33.6437 48.394C34.0306 50.2123 34.3787 52.0306 34.6882 53.8489C34.8043 54.3905 35.0364 54.5839 35.578 54.5839C36.7386 54.5839 37.8992 54.5839 39.0212 54.5839C40.646 54.5839 40.646 54.584 40.6073 52.9978C40.4139 47.8524 43.2767 43.2487 47.7257 41.6238C48.2673 41.4304 48.2286 41.1596 48.1513 40.6954C47.9578 39.1479 48.5381 37.8325 49.8535 36.9427C51.0915 36.0916 52.4068 36.2077 53.6835 36.9427C54.8828 37.6391 54.9215 37.6391 55.7339 36.3624C55.5018 36.169 55.3083 35.8982 55.0375 35.7435C54.7667 35.55 54.4185 35.4726 54.0704 35.3179C55.4244 32.8032 54.2251 30.0565 52.4068 29.8244ZM27.9567 57.1373C27.9567 57.8723 27.9567 58.53 27.9567 59.1877C28.0341 66.1126 33.7211 71.7609 40.6073 71.7996C46.8359 71.7996 53.0645 71.7996 59.2931 71.7996C60.1442 71.7996 60.9953 71.6835 61.8464 71.5288C68.1524 70.0974 72.0597 65.0294 72.0597 58.3753C72.0597 57.2147 72.0597 57.2147 70.8991 57.2147C56.9718 57.2147 43.0446 57.2147 29.0786 57.2147C28.7304 57.1373 28.3823 57.1373 27.9567 57.1373ZM55.3857 42.9005C54.5733 41.3917 53.7222 40.1151 52.3681 39.3026C51.8265 38.9931 51.3623 38.9931 51.0141 39.5734C50.7046 40.1538 50.8206 40.6567 51.4009 41.0049C51.5944 41.1209 51.8265 41.1983 52.02 41.3144C53.1032 41.856 54.0317 42.6297 54.6507 43.829C52.9484 43.4034 51.3236 43.4034 49.7374 43.7903C45.1724 44.9122 43.0446 49.1678 43.3154 53.1525C43.3928 54.5453 43.4702 54.5453 44.8629 54.5453C49.8535 54.5453 54.8441 54.5453 59.8347 54.5453C62.4654 54.5453 65.0961 54.5453 67.7268 54.5453C68.4232 54.5453 68.6553 54.3131 68.694 53.5781C68.81 51.1408 68.0363 49.013 66.6823 47.04C65.7538 45.686 64.5932 44.6027 63.0844 44.0224C63.7034 43.2487 64.5158 42.6297 64.8253 41.8173C65.4056 40.1537 66.4888 38.9931 67.8429 37.9873C68.075 37.7938 68.3071 37.6004 68.694 37.2909C68.1137 37.0588 67.7655 36.8267 67.3786 36.8267C65.7538 36.7106 64.0903 36.5559 62.4654 36.6719C58.5193 36.9427 56.1594 39.0318 55.3857 42.9005Z" fill="#528365"/>
</svg>
