<svg width="437" height="59" viewBox="0 0 437 59" fill="none" xmlns="http://www.w3.org/2000/svg">
<path d="M6.12 19.9399C7.22667 19.9399 8.17333 20.1265 8.96 20.4999C9.74667 20.8732 10.3467 21.4065 10.76 22.0999C11.1867 22.7932 11.4 23.6332 11.4 24.6199C11.4 25.1932 11.3067 25.7665 11.12 26.3399C10.9467 26.9132 10.6667 27.4332 10.28 27.8999C9.90667 28.3665 9.4 28.7465 8.76 29.0399C8.13333 29.3199 7.36 29.4599 6.44 29.4599H4.34V34.4999H2V19.9399H6.12ZM6.44 27.1999C6.94667 27.1999 7.37333 27.1132 7.72 26.9399C8.06667 26.7665 8.33333 26.5465 8.52 26.2799C8.72 26.0132 8.86 25.7399 8.94 25.4599C9.03333 25.1665 9.08 24.9065 9.08 24.6799C9.08 24.4399 9.04 24.1799 8.96 23.8999C8.88 23.6065 8.74667 23.3332 8.56 23.0799C8.37333 22.8132 8.11333 22.5999 7.78 22.4399C7.44667 22.2665 7.02 22.1799 6.5 22.1799H4.34V27.1999H6.44ZM17.2266 19.9399H19.5666V32.2599H26.7466V34.4999H17.2266V19.9399ZM31.3042 34.4999L37.7442 19.3399H37.8842L44.3242 34.4999H41.6442L37.1042 22.9999L38.7842 21.8599L33.6042 34.4999H31.3042ZM35.3442 29.0999H40.3242L41.1242 31.0799H34.6442L35.3442 29.0999ZM62.6086 35.0199L51.4286 24.1799L52.1086 24.4599L52.1686 34.4999H49.8086V19.4399H49.9086L60.9286 30.2799L60.3886 30.1199L60.3486 19.9399H62.6686V35.0199H62.6086ZM68.6436 19.9399H78.3836V22.1799H74.6236V34.4999H72.3036V22.1799H68.6436V19.9399ZM91.9838 22.8999C91.4638 22.6332 90.9104 22.4065 90.3238 22.2199C89.7371 22.0199 89.1771 21.9199 88.6438 21.9199C87.9238 21.9199 87.3504 22.0799 86.9238 22.3999C86.5104 22.7199 86.3038 23.1599 86.3038 23.7199C86.3038 24.1199 86.4504 24.4732 86.7438 24.7799C87.0371 25.0732 87.4104 25.3332 87.8638 25.5599C88.3171 25.7732 88.7971 25.9799 89.3038 26.1799C89.7438 26.3399 90.1771 26.5332 90.6038 26.7599C91.0438 26.9732 91.4371 27.2399 91.7838 27.5599C92.1304 27.8799 92.4038 28.2799 92.6038 28.7599C92.8171 29.2265 92.9238 29.8065 92.9238 30.4999C92.9238 31.2599 92.7304 31.9599 92.3438 32.5999C91.9571 33.2265 91.4038 33.7265 90.6838 34.0999C89.9638 34.4732 89.0838 34.6599 88.0438 34.6599C87.4438 34.6599 86.8504 34.5932 86.2638 34.4599C85.6904 34.3265 85.1438 34.1465 84.6238 33.9199C84.1038 33.6799 83.6238 33.4132 83.1838 33.1199L84.2238 31.2999C84.5438 31.5399 84.9104 31.7599 85.3238 31.9599C85.7371 32.1599 86.1638 32.3199 86.6038 32.4399C87.0438 32.5465 87.4571 32.5999 87.8438 32.5999C88.2571 32.5999 88.6638 32.5332 89.0638 32.3999C89.4771 32.2665 89.8171 32.0465 90.0838 31.7399C90.3638 31.4332 90.5038 31.0265 90.5038 30.5199C90.5038 30.1065 90.3838 29.7532 90.1438 29.4599C89.9038 29.1665 89.5904 28.9132 89.2038 28.6999C88.8304 28.4732 88.4171 28.2732 87.9638 28.0999C87.5104 27.9265 87.0438 27.7332 86.5638 27.5199C86.0971 27.3065 85.6638 27.0465 85.2638 26.7399C84.8638 26.4199 84.5371 26.0332 84.2838 25.5799C84.0304 25.1265 83.9038 24.5665 83.9038 23.8999C83.9038 23.0999 84.0904 22.4065 84.4638 21.8199C84.8371 21.2332 85.3504 20.7665 86.0038 20.4199C86.6704 20.0732 87.4371 19.8865 88.3038 19.8599C89.3304 19.8599 90.2038 19.9865 90.9238 20.2399C91.6571 20.4799 92.3038 20.7732 92.8638 21.1199L91.9838 22.8999ZM112.371 19.9399C113.851 19.9399 115.017 20.2399 115.871 20.8399C116.737 21.4399 117.171 22.3599 117.171 23.5999C117.171 24.4265 116.977 25.1332 116.591 25.7199C116.217 26.2932 115.691 26.7399 115.011 27.0599C114.331 27.3665 113.537 27.5332 112.631 27.5599L112.271 26.3199C113.351 26.3332 114.311 26.5065 115.151 26.8399C115.991 27.1599 116.657 27.6199 117.151 28.2199C117.644 28.8065 117.891 29.5065 117.891 30.3199C117.891 31.0799 117.751 31.7265 117.471 32.2599C117.191 32.7799 116.817 33.2065 116.351 33.5399C115.884 33.8732 115.357 34.1199 114.771 34.2799C114.184 34.4265 113.571 34.4999 112.931 34.4999H108.391V19.9399H112.371ZM112.751 26.1399C113.444 26.1399 113.951 25.9399 114.271 25.5399C114.604 25.1265 114.771 24.6465 114.771 24.0999C114.771 23.4332 114.564 22.9465 114.151 22.6399C113.737 22.3332 113.177 22.1799 112.471 22.1799H110.731V26.1399H112.751ZM112.831 32.3399C113.324 32.3399 113.771 32.2732 114.171 32.1399C114.571 31.9932 114.884 31.7732 115.111 31.4799C115.351 31.1732 115.471 30.7932 115.471 30.3399C115.471 29.8332 115.331 29.4399 115.051 29.1599C114.784 28.8799 114.437 28.6799 114.011 28.5599C113.584 28.4399 113.137 28.3799 112.671 28.3799H110.731V32.3399H112.831ZM127.203 29.7799L121.823 19.9399H124.683L128.783 27.7799L128.083 27.8199L132.123 19.9399H134.983L129.523 29.7799V34.4999H127.203V29.7799Z" fill="#3F543F"/>
<path d="M203.744 27.3697C203.501 28.1221 203.241 28.898 203.204 29.6937C203.168 30.4592 203.142 31.182 202.826 31.8856C202.653 32.0815 202.542 31.8819 202.322 31.7374C201.686 31.3166 200.691 31.3111 199.792 30.828C198.122 29.9316 197.299 29.5961 195.673 29.0914C194.676 28.7819 193.747 28.3272 192.76 27.9924C191.889 27.6965 191.082 27.2591 190.215 26.9514C188.718 26.4207 186.797 25.2464 184.702 25.3786C183.755 25.4385 182.921 25.4527 182.133 26.0383C182.069 26.0853 182.057 26.1557 182.081 26.2058C180.842 27.1602 184.884 26.6623 189.812 29.2804C190.346 29.5634 190.839 29.9131 191.367 30.1997C191.825 30.4474 192.305 30.6426 192.76 30.8972C193.743 31.4495 193.92 31.9289 195.702 32.79C196.612 33.2293 200.492 36.7852 202.646 35.7103C202.556 35.9883 202.343 37.0014 201.989 37.7545C201.089 39.6702 199.963 40.1787 199.32 41.4328C199.108 41.8454 199.07 42.3156 198.856 42.7208C198.363 43.6605 197.624 44.4265 196.767 45.0474C196.235 45.1283 195.521 44.8639 195.043 44.7521C192.869 44.2505 191.036 42.9852 189.627 41.9937C184.435 38.3433 185.903 39.0037 183.758 37.3282C182.801 36.5807 181.953 35.7078 180.999 34.9547C180.045 34.2011 178.964 34.0021 177.815 33.7254C176.719 33.461 175.584 33.5561 174.519 33.9002C173.73 34.1541 172.623 34.5458 172.158 35.2964C172.035 35.3551 171.971 35.5509 172.116 35.6281C172.539 35.8518 173.027 35.929 173.459 36.1508C173.985 36.4226 174.557 36.6048 175.123 36.7661C176.275 37.0941 177.337 37.5735 178.443 38.0232C180.079 38.6874 180.283 39.1989 181.282 39.8661C182.296 40.5438 183.349 41.1752 184.289 41.9591C189.609 46.3892 192.624 48.5848 196.261 49.184C196.107 49.2742 195.952 49.4009 195.874 49.4997C195.549 49.9124 195.127 50.2621 194.776 50.6537C194.063 51.4439 193.433 52.3119 192.773 53.1434C192.111 53.9737 190.941 54.5254 190.043 55.0733C189.42 55.4539 187.719 56.0173 187.443 56.3286C185.765 55.8048 184.939 54.6526 184.076 53.4374C182.235 50.8446 182.822 51.5199 180.979 49.7641C180.183 49.0049 179.486 48.1023 177.118 46.8717C175.99 46.2854 172.704 45.9494 172.775 46.3083C172.751 46.1866 172.584 46.2817 172.562 46.417C172.54 46.5399 172.616 46.5356 172.719 46.5375C174.516 47.4005 175.368 51.13 176.252 53.5536C176.821 55.1178 177.865 56.6728 179.247 57.8824C179.445 58.0541 179.58 58.2784 179.776 58.4186C178.94 58.6676 179.287 58.5273 177.998 58.6453C176.632 58.7713 174.835 58.0362 174.551 57.9689C173.325 57.6797 173.119 57.4382 172.249 57.2813C171.945 56.3632 172.109 55.979 171.991 55.2024C171.794 53.9168 170.59 52.4793 170.076 52.1611C168.508 51.1881 168.708 50.933 168.197 50.1873C167.932 49.8037 167.614 49.3175 167.561 48.8356C167.557 48.7985 167.495 48.801 167.491 48.8356C167.406 48.8245 167.348 49.6363 167.305 49.8624C166.785 51.0065 167.135 51.9165 167.341 52.6597C167.394 52.8425 167.37 53.2218 167.35 53.325C167.249 53.4393 167.037 53.548 166.94 53.6518C166.922 53.6623 166.905 53.6728 166.886 53.6846C166.535 53.5289 166.313 53.2021 166.034 52.9469C165.066 52.0684 164.771 51.463 164.279 50.1929C163.407 47.9417 163.027 45.4174 163.42 42.8691C163.736 40.8131 163.003 40.5277 162.315 40.9484C166.502 34.1516 170.267 30.8119 173.181 28.9672C174.486 28.1394 175.712 27.2158 176.983 26.3441C178.195 25.5126 184.123 21.7411 187.746 18.5496C188.775 17.6434 189.943 16.9243 190.957 16.0013C191.972 15.0796 192.933 14.0992 193.96 13.1935C196.991 10.5154 197.12 9.83525 198.826 7.12629C200.75 4.07384 201.068 3.30965 201.726 1.79671C201.833 1.54713 201.999 1.16719 202.053 0.900932C202.069 1.63053 202.162 2.33418 202.416 3.04339C203.024 4.75093 202.589 5.06229 202.678 5.9593C202.723 6.41955 202.748 6.86867 202.862 7.31903C203.071 8.13265 203.793 9.65547 204.029 10.453C204.081 10.6279 204.438 11.7448 204.338 11.9931C204.064 12.0778 203.232 12.5417 202.34 12.4966C200.006 12.3805 199.762 12.1952 198.157 12.9309C197.551 13.2089 197.148 13.5697 196.752 14.0782C196.659 14.1331 196.668 14.2907 196.774 14.274C197.413 14.1696 198.134 14.206 198.77 14.2999C200.777 14.5989 200.977 16.3825 203.009 16.2237C203.457 16.1879 204.026 16.094 204.497 15.9179C203.91 17.3079 204.437 19.27 204.414 20.0138C203.768 21.4328 202.269 21.5866 200.754 21.2499C198.825 20.8224 196.685 20.188 194.028 19.6085C193.37 19.4652 192.704 19.4547 192.033 19.4448C191.069 19.4312 189.627 19.5585 189.092 20.529C189.088 20.5352 189.088 20.5413 189.086 20.5475C189.073 20.5617 189.062 20.5772 189.058 20.5963C188.981 20.7051 189.105 20.7946 189.202 20.7452C189.79 20.8811 190.43 20.7607 190.979 21.0547C191.611 21.3933 192.31 21.5675 192.961 21.8844C194.217 22.4941 195.473 23.2985 196.868 23.5487C200.43 24.185 199.006 23.6716 203.076 23.9984C203.677 24.0466 204.112 24.0207 204.616 24.2962C204.605 24.5205 204.522 24.8287 204.456 25.019C204.184 25.79 203.996 26.5919 203.744 27.3697ZM157.719 49.3762C157.831 48.9413 157.785 48.7763 157.865 48.4977C157.931 48.2722 158.001 48.0517 158.062 47.8243C158.352 46.7747 158.75 45.6763 159.051 44.9838C159.145 44.7694 159.296 44.5717 159.352 44.345C159.402 44.143 160.474 41.6552 160.965 40.7983C161.036 40.6748 161.779 39.5306 161.802 39.4979C162.111 39.2353 162.324 38.7609 161.928 38.4656C161.582 38.208 161.077 38.2284 160.667 38.2098C159.598 38.1629 159.224 38.2543 158.493 38.6991C157.548 38.877 156.712 39.4509 155.562 39.9958C154.985 40.2689 154.267 40.3066 153.64 40.3869C153.417 40.4153 153.15 40.3307 152.926 40.3313C153.278 39.4021 153.777 38.6311 154.788 38.2889C155.524 38.0387 156.484 37.8447 156.774 37.015C156.818 36.9378 156.828 36.8143 156.74 36.8112C156.732 36.8075 156.725 36.8038 156.715 36.8013C156.756 36.8075 156.622 36.7043 156.572 36.6987C156.397 36.6765 156.135 36.8038 155.972 36.7265C155.819 36.6555 155.41 36.7939 155.261 36.8303C153.475 37.2708 151.996 38.9845 151.169 39.0815C150.977 39.105 150.848 39.0883 150.699 39.1309C150.694 39.126 150.69 39.1229 150.685 39.1204C150.225 38.2185 149.916 37.9609 149.367 36.6715C149.15 36.1588 149.137 35.6195 149.131 35.0715C149.127 34.6211 149.221 34.2159 149.15 33.7618C149.021 32.9334 148.391 32.2699 148.513 31.0003C148.578 30.3344 148.687 30.3177 148.735 30.1527C149.245 29.9878 150.033 30.3282 150.535 30.4017C151.159 30.4907 151.714 30.217 152.308 30.0823C152.571 30.0236 152.842 30.0205 153.107 29.9575C154.113 29.7172 154.968 29.6721 156.15 30.1095C157.546 30.6253 158.292 30.3523 160.002 31.2666C161.513 32.0728 163.185 31.5088 163.219 31.3395C163.463 31.0473 162.783 30.7322 162.467 30.5815C161.38 30.0638 161.532 30.2121 160.858 29.5208C160.64 29.2959 160.361 29.1853 160.102 29.0123C158.592 28.0004 156.561 27.9782 152.571 27.1794C151.975 27.0601 151.722 26.3497 151.221 26.026C150.554 25.5942 150.162 24.9665 149.798 24.2783C149.801 24.2375 149.779 24.1924 149.741 24.1677C149.984 23.3603 150.554 22.7709 151.068 22.1154C151.646 21.3778 151.864 20.4444 152.378 19.6709C152.597 19.3392 152.657 18.9518 152.917 18.6355C153.7 17.6866 153.853 17.9961 154.5 17.1627C154.736 16.8588 155.042 16.5987 155.271 16.2929C156.404 16.7859 156.112 18.0974 158.455 19.0043C159.17 19.2823 159.971 19.548 160.557 20.0533C163.683 22.745 164.746 21.6608 166.883 23.3127C167.688 23.9348 168.568 25.323 169.685 25.2853C170.05 25.3285 170.304 25.2358 170.601 25.0425C170.598 25.0338 170.593 25.0252 170.59 25.0172C170.59 25.0172 170.516 24.8677 170.514 24.8633C170.513 24.8633 170.512 24.8633 170.512 24.8633C169.94 23.7618 169.567 23.6197 168.916 21.9709C168.845 21.8739 168.775 21.7751 168.702 21.6799C167.619 20.2504 165.482 19.4775 163.367 18.0511C163.076 17.8546 162.832 17.5933 162.565 17.3678C161.839 16.7562 161.185 16.4714 160.221 15.2112C159.31 13.76 159.001 13.5549 158.909 12.9872C158.878 12.7969 159.085 12.2322 159.5 11.9505C159.803 11.7442 160.09 11.5088 160.407 11.3241C161.038 10.9565 161.343 10.3591 161.875 9.89332C162.955 8.9475 164.299 8.90364 164.745 8.4922C164.973 8.28153 165.259 8.2006 165.512 8.04863C165.519 8.04801 165.527 8.04492 165.537 8.03751C165.576 8.00971 165.613 8.00168 165.649 7.99674C165.953 9.69192 167.234 12.7715 168.271 13.8082C168.831 14.3667 169.46 14.851 170.011 15.4144C170.42 15.8326 170.999 16.1045 171.466 16.4554C173.032 17.6279 172.255 18.7671 173.507 20.2485C173.821 20.6186 174.27 21.182 174.78 21.2364C174.849 21.3148 174.985 21.3278 175.041 21.2135C175.073 21.182 175.091 21.1375 175.093 21.0943C175.183 20.8867 175.285 20.6865 175.358 20.4722C175.454 20.1954 175.416 19.8748 175.446 19.5887C175.525 18.8567 175.613 18.145 175.647 17.4086C175.733 15.5392 176.054 16.0217 175.053 13.0959C174.102 10.3146 171.35 8.10485 172.28 4.88931C174.513 5.53612 175.292 4.84915 176.026 4.46613C176.341 4.3018 176.719 4.26844 177.052 4.15168C176.981 4.47416 176.993 4.83371 176.977 5.15063C176.923 6.25398 177.413 7.74221 177.836 8.70286C178.054 9.19955 178.303 9.53439 178.658 9.94768C179.939 11.4347 181.11 14.1856 181.337 15.3403C181.542 16.3794 181.509 16.7525 181.656 16.826C181.695 16.915 181.773 16.9669 181.876 16.8693C182.694 16.1063 182.573 16.1094 182.979 15.1654C183.298 14.4241 183.446 13.6321 183.565 12.8383C183.815 11.1734 183.283 9.51215 183.518 7.86453C183.575 7.46915 183.686 7.0781 183.758 6.68458C183.834 6.27993 183.82 5.86664 183.888 5.46014C184.023 4.65085 184.667 3.98179 185.178 3.37822C185.774 2.67272 186.533 2.31873 187.411 2.09077C188.875 1.71022 189.235 1.89988 189.753 2.07965C189.868 2.85311 188.528 8.80665 190.771 11.0269C190.772 11.03 190.777 11.0306 190.777 11.0319C190.818 11.1517 191.002 11.1153 191.05 10.9991C191.322 10.3406 191.681 9.72466 191.956 9.06797C193.485 5.40824 192.095 2.75303 195.981 1.98822C198.455 1.50141 200.407 2.00058 202.053 0.254736C201.979 0.574745 201.951 0.894136 201.831 1.21353C200.884 3.76001 198.794 6.66666 197.588 8.49899C195.68 11.3982 194.11 12.3447 192.866 13.4801C188.335 17.6125 189.51 16.194 187.417 17.9757C184.011 20.8774 177.29 25.3143 172.282 28.675C168.874 30.9627 166.138 34.1714 163.881 37.3536C161.679 40.4573 159.871 43.7235 157.719 49.3762ZM155.053 16.1397C155.054 16.1446 155.054 16.1477 155.054 16.1527C155.054 16.1527 155.053 16.1533 155.052 16.1545C155.053 16.1496 155.053 16.1446 155.053 16.1397ZM204.907 23.9052C204.48 23.2781 203.476 23.3387 203.056 23.2719C200.907 22.9284 200.993 23.3745 197.627 22.9649C196.884 22.8747 196.166 22.7178 195.478 22.4219C195.112 22.2643 194.734 22.1803 194.375 21.9863C193.867 21.7114 192.273 21.1307 192.141 21.0887C191.998 21.0442 191.835 21.0337 191.69 21.0059C191.126 20.899 191.052 20.4425 189.57 20.4802C190.051 20.2362 190.47 19.9372 191.036 19.8185C191.4 19.7426 191.797 19.7957 192.166 19.8006C195.384 19.8463 200.006 21.8566 202.646 21.8535C203.502 21.8535 204.865 21.1702 204.852 20.1738C205.035 19.2854 204.522 18.4156 204.672 16.9175C204.713 16.5159 204.854 16.1249 204.911 15.7239C204.963 15.6936 204.986 15.5929 204.921 15.5621C204.414 15.3143 203.564 15.6603 203.035 15.7548C202.017 15.9333 201.429 15.1939 200.704 14.6545C199.392 13.6772 197.737 13.7476 197.139 13.9157C197.6 13.553 198.08 13.2676 198.695 13.1533C199.445 13.0131 200.1 12.9921 200.845 13.1638C203.113 13.6877 204.306 12.9359 204.491 12.265C204.918 11.8566 204.52 10.8484 204.407 10.4024C204.092 9.14457 203.401 8.04122 203.118 6.7723C202.888 5.73505 203.189 4.6805 202.949 3.65375C202.829 3.14285 202.542 2.68199 202.43 2.16861C202.277 1.47361 202.272 0.754518 202.198 0.0483974C202.192 -0.0102916 202.148 -0.00843824 202.111 0.0162729C202.079 0.000210662 202.036 0.00206399 202.008 0.0310996C200.585 1.47979 199.041 1.11407 197.515 1.2265C196.127 1.32843 194.696 1.44767 193.611 2.41881C192.511 3.40232 192.461 4.98507 192.334 6.34047C192.14 8.43042 191.156 10.0638 190.881 10.6754C190.712 10.1868 190.402 10.0033 190.081 8.91229C189.816 8.01527 189.792 7.1127 189.738 6.18912C189.69 5.35326 189.804 4.54706 189.861 3.71738C189.974 2.06483 190.011 2.63195 189.858 1.99872C189.87 1.95177 189.866 1.89556 189.846 1.8659C189.504 1.37291 188.647 1.46249 188.123 1.50265C187.323 1.56443 186.453 1.81216 185.797 2.28414C184.703 3.07242 183.603 4.41795 183.481 5.80424C183.405 6.6821 183.162 7.52723 183.091 8.402C182.99 9.65733 183.976 14.0819 181.836 16.3522C181.834 16.3522 181.831 16.3534 181.829 16.354C181.827 15.4824 181.488 14.5211 181.172 13.7569C180.913 13.1292 180.284 11.4112 179.631 10.655C179.293 10.2627 179.018 9.82413 178.67 9.43678C178.202 8.91476 177.939 8.30563 177.734 7.63534C177.337 6.338 177.059 5.43419 177.321 4.02813C177.334 4.0201 177.347 4.01268 177.359 4.00465C177.42 3.9645 177.428 3.87121 177.368 3.82673C176.187 2.99088 175.679 4.67494 173.259 4.56992C172.918 4.55447 172.038 4.34814 172.101 4.74599C170.366 7.63534 173.423 10.3041 174.956 13.9707C175.339 14.8479 175.62 15.7709 175.549 16.6815C175.487 17.4735 175.405 18.2469 175.242 19.0247C175.032 20.0156 175.268 19.9421 174.822 20.9126C174.32 20.5914 173.898 20.1898 173.525 19.7179C173.055 19.1217 172.99 18.4106 172.767 17.7175C172.361 16.4603 171.226 15.6442 170.338 14.7336C169.156 13.5246 168.48 13.4177 167.531 11.4588C166.985 10.3307 166.364 8.79676 166.228 8.49405C166.05 8.09867 165.992 7.31842 165.689 7.707C165.7 7.68538 165.702 7.66931 165.662 7.70391C165.363 7.68167 165.075 7.86268 164.813 7.98809C164.657 8.06222 164.54 8.18948 164.405 8.29018C164.228 8.42177 163.994 8.4471 163.787 8.50764C161.511 9.17731 161.057 10.0002 160.652 10.4339C160.206 10.9077 158.395 11.6768 158.634 13.0823C158.638 13.1119 158.651 13.1367 158.668 13.1564C158.78 13.8292 159.106 14.0312 159.876 15.2217C160.023 15.449 160.228 15.7431 160.472 15.9111C161.156 16.6944 161.754 17.0089 162.462 17.6057C163.021 18.0776 163.575 18.5181 164.217 18.8789C165.503 19.6017 167.057 20.2127 168.039 21.3494C168.491 21.8702 168.869 22.5788 169.196 23.1854C169.478 23.7081 170 24.2511 170.133 24.8473C169.071 24.6984 168.946 24.649 168.033 23.6963C165.572 21.1307 164.839 22.2402 162.213 20.639C161.55 20.2343 161.053 19.6678 160.456 19.1853C160.247 19.0161 159.976 18.9154 159.73 18.8159C159.308 18.6442 158.903 18.4366 158.477 18.2729C156.518 17.5173 156.459 15.8413 155.256 15.9123C155.204 15.916 155.159 15.9426 155.13 15.9834C155.075 16.0081 155.052 16.0699 155.053 16.1304C155.048 16.0791 155.014 16.0359 155.05 16.1545C154.641 16.354 154.303 16.8649 154.108 17.1003C153.915 17.3351 153.666 17.3789 153.44 17.5464C152.756 18.0511 152.288 18.6738 151.966 19.4553C151.786 19.889 151.503 20.2664 151.33 20.7149C151.115 21.274 150.848 21.8066 150.49 22.2884C150.047 22.8864 149.493 23.6457 149.552 24.3913C149.554 24.4185 149.567 24.429 149.582 24.4303C149.713 24.8961 150.081 25.394 150.365 25.7535C150.557 25.9951 150.783 26.1514 151.039 26.312C151.369 26.5177 151.531 26.8099 151.742 27.117C152.528 28.2562 158.048 28.2203 160.638 29.9909C160.891 30.1633 161.134 30.3467 161.393 30.5061C162.026 30.8953 162.503 30.9707 162.811 31.282C160.588 31.5903 160.197 30.9318 159.276 30.5494C158.644 30.2862 157.926 30.2361 157.26 30.1182C156.241 29.9353 155.562 29.3601 153.833 29.5276C153.238 29.5844 152.639 29.5832 152.049 29.6462C151.254 29.7302 151.309 29.9995 150.032 29.787C149.564 29.7092 149.027 29.6622 148.618 29.9266C148.555 29.9297 148.496 29.9594 148.458 30.0082C148.049 30.5389 147.953 31.1925 148.019 31.8634C148.061 32.3001 148.111 32.7085 148.247 33.1267C148.722 34.581 148.399 34.2684 148.607 35.8826C148.704 36.6314 149.62 38.1159 149.766 38.384C149.939 38.7003 150.203 38.9685 150.349 39.2971C150.364 39.3305 150.393 39.3521 150.426 39.3651C150.435 39.3737 150.446 39.3805 150.459 39.3855C150.466 39.404 150.48 39.4194 150.504 39.4256C151.537 39.6931 152.376 38.785 153.747 37.8688C154.391 37.4382 155.548 36.9755 155.896 37.1188C156.053 37.1831 156.3 37.0354 156.443 37.0478C156.152 37.3523 156.089 37.5216 155.36 37.7675C154.829 37.9466 154.28 38.0455 153.826 38.3995C153.286 38.8214 152.656 39.7085 152.599 40.4542C152.49 40.5753 152.443 40.786 152.545 40.8465C152.948 41.085 153.465 41.0399 153.915 41.03C154.513 41.0189 155.139 40.9361 155.676 40.6531C157.052 39.9285 157.857 39.6616 158.581 39.2662C159.087 38.9895 159.509 38.6818 160.102 38.6472C160.514 38.6225 162.201 38.3433 161.823 39.2767C160.578 40.5382 158.009 46.6394 157.891 47.3412C157.794 47.9034 157.507 48.4446 157.472 49.0104C157.453 49.2934 157.375 49.5096 157.275 49.7691C157.168 50.0452 157.153 50.4017 157.087 50.6951C157.005 51.0652 156.932 51.4303 156.813 51.7917C156.748 51.985 156.722 52.1339 156.767 52.331C156.79 52.4366 156.928 52.3607 156.952 52.297C156.968 52.2501 156.981 52.2044 156.997 52.158C157.364 52.1166 158.292 49.0259 158.861 47.7224C159.804 45.5663 160.803 43.4764 161.987 41.4908C162.31 41.2301 162.74 41.0263 163.047 41.3463C163.475 41.7966 163.013 43.018 162.95 43.5555C162.704 45.6182 163.086 48.5243 164.015 50.7507C164.261 51.5804 164.687 52.4212 165.639 53.354C165.863 53.5721 166.82 54.7187 167.094 54.1775C167.168 54.1553 167.234 54.0861 167.278 54.0379C167.308 54.0058 167.354 53.9799 167.398 53.9508C167.581 53.9045 167.695 53.7605 167.758 53.5758C167.899 53.3528 168.036 53.073 167.889 52.8512C167.863 52.748 167.82 52.6609 167.768 52.5713C167.69 52.2451 167.367 51.628 167.352 50.9639C167.361 50.3899 167.542 49.9989 167.584 49.4979C167.748 50.1861 168.088 50.3794 168.306 50.8897C168.681 51.7645 169.53 52.1265 170.132 52.7863C171.594 54.3882 171.388 56.1798 171.425 56.7833C171.445 57.0922 171.4 57.327 171.621 57.5784C171.694 57.66 171.826 57.7149 171.938 57.6921C172.37 57.9516 173.445 58.3902 174.235 58.5848C175.779 58.6706 177.321 59.286 179.232 58.8381C179.442 58.7886 179.971 58.7732 180.102 58.5823C180.307 58.2765 179.73 57.9392 179.538 57.76C178.753 57.0298 178.078 55.9827 177.548 55.0455C177.058 54.3672 176.888 53.9842 176.338 52.4638C176.08 51.7472 174.749 47.558 173.275 46.564C175.989 46.7778 177.989 47.988 181.256 50.684C183.193 52.2828 183.693 54.3888 185.738 55.9944C186.282 56.4219 186.737 56.5758 187.398 56.6029C187.485 56.6839 187.817 56.493 189.937 55.7072C190.333 55.5601 191.228 55.1265 192.479 54.1794C192.873 53.8798 193.121 53.4652 193.407 53.0692C193.749 52.5973 194.102 52.1358 194.446 51.6638C194.745 51.2517 195.015 50.8409 195.368 50.4696C195.547 50.2806 195.773 50.0631 195.925 49.8568C196.016 49.7339 196.315 49.4095 196.486 49.3657C196.595 49.3366 196.679 49.05 196.517 49.079C194.838 48.3284 192.739 47.8484 190.06 45.8715C182.785 40.5055 187.475 43.5419 181.398 39.3768C180.406 38.6954 180.354 38.2512 178.789 37.5735C174.867 35.8759 175.541 36.4257 173.857 35.7925C173.072 35.4972 173.34 35.5212 172.517 35.3489C172.977 34.8059 174.571 34.2109 175.55 34.0553C176.803 33.8551 178.149 34.1312 179.343 34.513C180.537 34.8923 181.461 35.8789 182.371 36.6932C183.257 37.4858 184.23 38.1697 185.09 38.9907C186.851 40.6735 188.939 42.0691 190.952 43.4381C193.251 44.9992 196.182 45.4298 196.69 45.2723C196.704 45.2951 196.73 45.3106 196.776 45.3038C197.174 45.2519 197.475 44.977 197.76 44.715C198.118 44.3833 198.439 44.0639 198.715 43.6592C198.986 43.2632 199.307 42.8895 199.453 42.4243C199.633 41.8529 199.972 41.2993 200.383 40.865C201.769 39.3904 202.817 37.5049 202.946 35.444C202.953 35.3421 202.836 35.3248 202.786 35.4026C202.779 35.4144 202.773 35.4267 202.765 35.4385C201.752 35.769 200.761 35.3934 199.836 34.9473C198.848 34.4716 197.957 33.8823 197.086 33.2206C196.286 32.6121 195.38 32.2248 194.544 31.6743C193.706 31.1233 192.983 30.5185 192.051 30.1114C190.781 29.5554 189.622 28.0529 183.161 26.6833C182.963 26.6407 182.769 26.6073 182.574 26.5523C182.36 26.4912 182.011 26.5177 182.275 26.2447C183.674 25.7134 183.293 25.8481 184.877 25.7468C185.847 25.6844 186.871 26.0044 187.752 26.3806C187.855 26.4245 193.68 28.9808 195.402 29.5171C196.354 29.8124 197.333 30.141 198.224 30.5858C198.972 30.9602 199.733 31.481 200.55 31.6657C201.098 31.7886 201.635 31.8856 202.128 32.171C202.347 32.2971 202.504 32.4027 202.76 32.323C202.859 32.2934 202.878 32.2297 202.9 32.1377C203.199 31.835 203.659 30.71 203.772 30.2911C203.996 29.4553 203.717 29.6431 204.404 27.3746C204.534 26.9465 205.56 24.1918 204.907 23.9052Z" fill="#3F543F"/>
<path d="M170.385 50.4466C170.054 50.1019 169.838 49.599 169.578 49.2098C169.201 48.6514 168.925 48.0447 168.601 47.456C168.08 46.5034 167.818 45.3259 167.703 44.2361C168.066 44.5802 168.347 45.0114 168.606 45.4327C169.336 46.6269 170.062 47.1372 170.292 48.8565C170.332 49.1512 170.378 49.4421 170.404 49.7374C170.413 49.8344 170.416 50.1958 170.385 50.4466ZM168.99 45.531C168.582 44.9435 168.266 44.3158 167.673 43.8821C167.581 43.8142 167.469 44.01 167.543 44.0897C167.472 45.2629 167.825 46.6133 168.354 47.6456C168.641 48.2078 168.9 48.7904 169.248 49.3161C169.586 49.8276 169.868 50.493 170.354 50.8809C170.42 50.9328 170.52 50.8439 170.548 50.7907C170.744 50.4324 170.693 49.8363 170.657 49.4415C170.454 47.2978 169.754 46.6312 168.99 45.531Z" fill="#3F543F"/>
<path d="M171.807 52.4397C171.696 52.3532 171.606 52.1024 171.545 52.0165C171.38 51.7867 171.028 51.4964 171.287 50.8248C171.571 50.5227 171.425 50.658 171.573 50.6562C171.71 50.6537 171.783 50.818 171.838 50.9156C171.976 51.1621 171.975 51.4272 171.975 51.7033C171.975 51.8849 171.91 52.2099 171.807 52.4397ZM171.057 50.76C170.947 50.8514 170.857 50.9169 170.823 51.1973C170.773 51.6218 170.871 51.8386 171.061 52.2043C171.172 52.4175 171.397 52.8604 171.668 52.9142C171.867 52.9549 172.088 52.7844 172.09 52.5818C172.09 52.255 172.289 52.234 172.169 51.3765C172.128 51.0726 172.042 50.7902 171.854 50.5437C171.571 50.1731 171.189 50.414 171.057 50.76Z" fill="#3F543F"/>
<path d="M191.303 39.666C192.06 40.0039 192.94 40.1064 193.593 40.6556C193.868 40.8873 194.097 41.0899 194.418 41.2611C194.648 41.384 195.265 41.5601 195.512 41.8263C195.513 41.8473 195.516 41.8702 195.527 41.8918C195.539 41.932 195.553 41.9357 195.57 41.9042C195.57 41.9042 195.57 41.9048 195.571 41.906C195.551 42.0086 195.571 42.0827 195.608 42.21C195.599 42.2619 195.616 42.2866 195.625 42.3434C195.335 42.6566 194.469 42.2724 194.194 42.1865C193.713 42.037 193.192 41.9579 192.698 41.8665C191.338 41.6157 191.344 41.3099 190.283 40.8132C189.93 40.6476 189.555 40.5519 189.209 40.3739C188.642 40.0854 188.448 39.6412 187.375 38.2543C187.302 38.1592 187.224 38.0529 187.191 37.9349C189.145 37.9905 189.639 38.9259 191.303 39.666ZM188.104 39.9526C188.857 40.9695 190.091 41.156 191.044 41.9147C191.708 42.4441 192.44 42.3508 194.624 42.8327C195.649 43.0588 196.048 42.5337 195.921 42.1192C195.929 42.0994 195.936 42.0771 195.937 42.05C195.986 41.3272 194.89 41.1208 194.399 40.8675C193.664 40.4907 193.925 40.1911 191.889 39.4751C190.862 39.1124 190.102 38.3847 189.161 37.8744C188.631 37.5871 187.784 37.4055 187.163 37.6155C187.102 37.534 186.976 37.6236 186.942 37.7138C186.903 37.7379 186.885 37.7811 186.885 37.8244C186.756 38.2241 186.916 38.3427 188.104 39.9526Z" fill="#3F543F"/>
<path d="M195.042 27.6365C195.032 27.613 195.016 27.5982 194.983 27.6068C194.802 27.6563 194.568 27.7359 194.384 27.6878C194.226 27.6476 194.26 27.6149 194.208 27.5741C194.196 27.5432 194.174 27.5185 194.14 27.5111C194.099 27.5012 194.057 27.1645 194.047 27.1213C193.995 26.9965 194.048 26.9069 194.209 26.8531C194.721 27.1497 195.177 26.7216 195.556 27.1639C195.755 27.3956 195.337 27.5549 195.042 27.6365ZM195.38 26.7253C195.091 26.5992 194.771 26.7494 194.478 26.6888C194.278 26.6468 194.123 26.4293 193.946 26.6524C193.773 26.8686 193.801 27.1033 193.83 27.3647C193.842 27.4647 193.877 27.7359 193.957 27.7965C194.041 27.8768 194.022 27.883 193.998 27.8126C194.008 27.8422 194.041 27.8793 194.076 27.883C194.074 27.8855 194.082 27.8898 194.114 27.8916C194.32 27.9052 194.402 28.0442 194.736 27.9287C195.059 27.925 195.407 27.8193 195.615 27.6254C195.946 27.314 195.757 26.8908 195.38 26.7253Z" fill="#3F543F"/>
<path d="M200.048 29.0537C199.342 29.024 198.5 29.2007 197.983 28.6404C197.762 28.405 197.492 28.2116 197.2 28.0788C196.926 27.954 197.034 27.6711 197.21 27.4221C197.238 27.4302 197.269 27.4264 197.294 27.4048C197.833 26.9483 198.233 27.6476 199.311 27.9139C199.859 28.0479 200.53 27.6841 200.626 28.6286C200.662 29.0036 200.336 29.0673 200.048 29.0537ZM198.964 27.4697C198.21 27.2139 197.674 26.5171 197.246 27.1101C196.441 27.6655 196.392 28.1647 196.764 28.3951C197.829 29.0537 197.666 29.4843 198.993 29.4639C200.296 29.4441 200.426 29.4948 200.649 29.3601C200.972 29.1643 201.062 28.7627 200.983 28.4056C200.737 27.2955 199.841 27.7675 198.964 27.4697Z" fill="#3F543F"/>
<path d="M195.757 4.19121C195.906 3.90271 196.284 3.17929 196.606 3.15705C196.581 3.21759 196.591 3.29358 196.662 3.31582C197.252 3.50794 197.201 4.20974 196.92 4.66257C196.56 5.24514 196.418 5.07278 195.604 6.64626C195.542 6.76487 195.478 6.88163 195.413 6.99716C195.379 7.12195 195.347 7.12133 195.318 6.99469C195.224 6.85692 195.153 6.7136 195.023 6.60487C194.838 6.4529 194.639 6.36579 194.65 6.08593C194.671 5.67079 195.36 4.96158 195.757 4.19121ZM194.657 6.9014C194.858 7.04411 194.972 7.21523 195.124 7.4018C195.238 7.54327 195.371 7.49694 195.497 7.42404C195.801 7.24736 195.917 6.48131 196.54 5.52932C196.882 5.00482 197.351 4.65948 197.349 3.98858C197.348 3.69946 197.317 3.35226 197.145 3.17434C197.11 3.09341 197.069 3.01187 197.02 2.92847C196.759 2.48305 196.14 3.08971 195.969 3.29234C195.501 3.84525 195.212 4.54025 194.757 5.11232C194.418 5.54105 194.034 6.15513 194.38 6.67591C194.429 6.74943 194.588 6.85198 194.657 6.9014Z" fill="#3F543F"/>
<path d="M159.302 23.1948C159.177 23.5024 158.975 23.4517 158.759 23.2621C158.356 22.9093 157.968 22.6276 157.495 22.375C157.083 22.1544 156.689 21.8634 156.247 21.7047C155.728 21.5175 154.817 21.3321 154.731 20.6544C154.641 19.9304 155.861 19.5659 156.317 19.8668C157.197 20.4456 156.705 20.3919 158.05 20.9695C158.368 21.1048 158.631 21.4291 158.9 21.6441C159.111 21.8146 159.324 21.9796 159.52 22.168C159.87 22.5065 159.418 22.9062 159.302 23.1948ZM159.245 21.557C157.995 20.5445 157.012 20.015 156.909 19.9965C156.605 19.7679 156.359 19.5431 156.019 19.4288C155.563 19.2756 154.804 19.6728 154.51 20.0045C154.133 20.4283 154.276 21.0047 154.601 21.3964C155.13 22.0327 156.176 22.1019 156.867 22.4806C157.211 22.669 157.585 22.8043 157.917 23.0144C158.25 23.2226 158.551 23.4734 158.873 23.6964C159.457 24.1004 159.541 23.2436 159.84 22.8278C160.218 22.3008 159.607 21.8498 159.245 21.557Z" fill="#3F543F"/>
<path d="M163.082 25.043C162.305 24.6031 161.174 24.5945 161.12 24.1108C161.089 23.8328 161.064 23.5572 161.022 23.2792C161.156 23.0964 161.824 23.3812 161.938 23.4207C162.726 23.6925 163.351 24.201 163.553 25.0566C163.658 25.5039 163.271 25.1499 163.082 25.043ZM162.918 23.5869C162.576 23.236 161.971 23.1483 161.531 22.9938C160.79 22.7344 160.681 23.2965 160.868 23.682C160.846 24.0076 160.823 24.3474 160.988 24.6099C161.274 25.0689 162.51 25.0776 163.268 25.528C163.356 25.5798 163.595 25.7553 163.701 25.6898C164.012 25.502 163.776 25.0757 163.715 24.8126C163.609 24.3585 163.233 23.9118 162.918 23.5869Z" fill="#3F543F"/>
<path d="M165.076 26.0087C165.067 25.7313 165.244 25.4088 165.523 25.3211C165.841 25.221 166.4 25.8548 166.018 26.0525C165.907 26.11 165.755 26.1057 165.636 26.1384C165.462 26.1853 165.19 26.244 165.055 26.0834C165.069 26.063 165.078 26.0389 165.076 26.0087ZM164.795 26.0976C164.822 26.194 164.886 26.2836 164.997 26.3583C165.225 26.5103 165.553 26.4393 165.794 26.3725C166.006 26.3138 166.265 26.3182 166.381 26.089C166.62 25.617 166.065 25.1209 165.637 25.0672C165.045 24.9943 164.549 25.8697 164.795 26.0976Z" fill="#3F543F"/>
<path d="M173.533 25.7442C173.205 24.8528 172.964 23.9533 172.572 23.0853C172.197 22.2519 171.736 21.4123 171.12 20.7328C170.456 19.9995 169.884 19.197 169.183 18.4933C168.508 17.8163 167.775 17.2003 167.09 16.5362C166.378 15.8437 165.729 15.0412 165.165 14.2251C164.116 12.7041 163.216 11.1189 162.361 9.48304C162.392 9.412 162.372 9.34837 162.248 9.34343C162.23 9.34281 162.214 9.34281 162.197 9.34157C162.05 9.33601 161.839 9.49355 161.901 9.65293C162.197 10.4252 162.61 11.1578 163.012 11.8776C163.468 12.6906 164.055 13.4004 164.566 14.1738C165.608 15.7547 167.006 16.9582 168.401 18.2104C169.125 18.8603 169.775 19.5813 170.375 20.3454C170.683 20.7365 171.029 21.0942 171.328 21.4933C171.592 21.8442 171.773 22.247 172.005 22.617C172.523 23.4418 172.835 24.4395 173.077 25.376C173.32 26.3218 173.688 27.2226 173.592 28.2085C173.582 28.2258 173.577 28.2444 173.577 28.2617C173.577 28.2963 173.577 28.3309 173.577 28.3654C173.577 28.5156 173.874 28.376 173.889 28.2672C174.007 27.4202 173.827 26.5449 173.533 25.7442Z" fill="#3F543F"/>
<path d="M187.583 1.84985C187.288 2.39596 187.126 3.04648 186.932 3.63461C186.692 4.36791 186.371 5.09565 186.219 5.85429C185.935 7.26468 185.983 8.71398 186.159 10.1423C186.353 11.7207 186.822 13.2466 186.89 14.8393C186.922 15.5794 186.858 16.309 186.856 17.0435C186.856 17.3271 186.808 17.6051 186.799 17.8886C186.789 18.1549 186.747 18.7795 186.479 18.95C186.356 19.0266 186.439 19.1921 186.576 19.1458C186.988 19.0043 187.007 18.5496 187.062 18.1814C187.158 17.5186 187.207 16.8186 187.204 16.1496C187.202 15.3285 187.204 14.5118 187.126 13.6933C187.04 12.7956 186.741 11.9382 186.641 11.043C186.551 10.2523 186.515 9.46088 186.462 8.66703C186.41 7.8874 186.397 7.02312 186.609 6.26387C186.817 5.5176 187.016 4.78738 187.271 4.05223C187.513 3.36279 187.798 2.6233 187.89 1.89865C187.912 1.73617 187.645 1.73803 187.583 1.84985Z" fill="#3F543F"/>
<path d="M204.422 17.9664C203.858 18.2981 203.045 18.022 202.422 17.98C201.619 17.9268 200.792 17.9837 199.985 17.9843C199.641 17.9855 199.313 17.9478 198.974 17.8836C198.632 17.8193 198.262 17.8632 197.912 17.8002C197.155 17.6624 196.389 17.6019 195.629 17.4777C194.921 17.3628 194.234 17.3041 193.519 17.2609C192.708 17.2114 191.91 16.9761 191.097 16.9687C189.963 16.9588 188.697 17.2176 187.999 18.219C187.976 18.253 187.981 18.3939 188.047 18.3451C188.523 17.9905 189.06 17.6445 189.627 17.4561C190.304 17.2312 191.073 17.2504 191.773 17.3702C192.501 17.4962 193.236 17.5963 193.977 17.6223C194.727 17.6488 195.463 17.823 196.208 17.904C196.938 17.9824 197.656 18.1653 198.385 18.2308C199.149 18.3 199.903 18.3482 200.673 18.3488C201.352 18.35 202.048 18.3037 202.722 18.397C203.235 18.4661 203.924 18.6249 204.386 18.3228C204.396 18.3204 204.406 18.3154 204.416 18.3068C204.435 18.2913 204.451 18.2777 204.469 18.2635C204.554 18.1943 204.577 17.8749 204.422 17.9664Z" fill="#3F543F"/>
<path d="M199.487 40.1336C198.974 39.6845 198.405 39.3027 197.85 38.9129C196.631 38.0591 195.535 37.0911 194.408 36.1261C193.383 35.247 192.211 34.7108 191.065 34.017C189.851 33.2794 188.649 32.6276 187.351 32.0494C185.975 31.4359 184.604 30.8089 183.191 30.2844C181.854 29.7871 180.383 29.5449 178.977 29.3336C177.546 29.1192 176.103 29.0921 174.658 29.1365C173.224 29.1804 171.913 29.6135 170.629 30.2343C170.493 30.3004 170.587 30.542 170.735 30.4975C171.319 30.3227 171.884 30.1052 172.463 29.9131C173.186 29.6728 173.902 29.5727 174.661 29.5375C176.071 29.4708 177.489 29.5084 178.888 29.7C180.179 29.8754 181.495 30.1219 182.739 30.5117C184.114 30.9435 185.414 31.6002 186.733 32.1723C188.009 32.7246 189.238 33.3084 190.419 34.0429C191.483 34.7033 192.628 35.2241 193.627 35.9834C194.66 36.7692 195.56 37.7187 196.591 38.512C197.129 38.9271 197.693 39.3077 198.248 39.6999C198.495 39.8742 198.737 40.0558 198.981 40.2343C199.131 40.3437 199.765 40.7236 199.783 40.9571C199.793 41.1109 200.016 41.1641 200.049 40.9936C200.122 40.613 199.738 40.3535 199.487 40.1336Z" fill="#3F543F"/>
<path d="M192.28 53.9188C192.001 54.0287 191.704 53.5982 191.541 53.4295C191.329 53.2096 191.097 53.0193 190.86 52.8278C190.248 52.3311 189.627 51.8437 189.014 51.347C187.804 50.3653 186.698 49.2879 185.568 48.2167C183.412 46.1749 180.857 44.565 178.576 42.6653C177.477 41.7504 176.334 40.9479 175.048 40.3221C173.745 39.6895 172.395 39.2113 171.039 38.7146C169.73 38.2359 168.418 37.7497 167.03 37.5582C166.319 37.4599 165.61 37.5476 164.905 37.6527C164.372 37.7311 163.831 37.809 163.456 38.2241C163.276 38.423 163.553 38.7542 163.744 38.5423C164.178 38.0629 165.101 38.0524 165.705 37.9819C166.515 37.8868 167.296 37.9937 168.086 38.1803C169.471 38.5077 170.818 39.0377 172.166 39.493C173.554 39.9644 174.964 40.513 176.229 41.2642C177.463 41.9963 178.534 42.9866 179.662 43.8663C180.838 44.7825 182.024 45.6819 183.208 46.5857C184.408 47.5025 185.487 48.5033 186.547 49.5783C187.548 50.5939 188.642 51.5156 189.74 52.4225C190.338 52.9155 190.924 53.4029 191.493 53.9274C191.763 54.1764 192.076 54.421 192.374 54.0998C192.435 54.0325 192.385 53.878 192.28 53.9188Z" fill="#3F543F"/>
<path d="M165.105 36.1883C164.786 35.7132 164.237 35.4309 163.741 35.1751C163.149 34.8712 162.54 34.5802 161.928 34.3183C160.548 33.7283 158.995 33.2705 157.495 33.1247C156.802 33.0574 156.047 33.0772 155.356 33.1643C154.628 33.2545 153.931 33.5158 153.201 33.6146C152.464 33.7147 151.722 33.7821 151.002 33.9754C150.315 34.1601 149.616 34.3943 148.925 34.5432C148.754 34.5808 148.752 34.7983 148.912 34.8144V34.8162C148.919 34.8162 148.924 34.8156 148.93 34.8144C148.937 34.8156 148.944 34.8156 148.951 34.8144C148.968 34.8137 148.985 34.8125 149.003 34.8107C149.006 34.8094 149.01 34.8076 149.015 34.8069C149.507 34.76 150.03 34.5456 150.514 34.4443C151.18 34.3053 151.817 34.1379 152.493 34.0465C153.175 33.955 153.834 33.8698 154.499 33.6968C155.284 33.4917 156.045 33.4552 156.853 33.4497C157.623 33.4447 158.369 33.5936 159.12 33.7512C159.864 33.9081 160.584 34.078 161.292 34.3597C161.921 34.6105 162.516 34.9132 163.128 35.1974C163.741 35.4797 164.485 35.7769 164.872 36.3613C164.962 36.4978 165.202 36.3322 165.105 36.1883Z" fill="#3F543F"/>
<path d="M180.821 22.4842C180.841 22.1939 180.866 21.8498 180.818 21.5613C180.672 20.6778 180.674 19.7734 180.506 18.8968C180.192 17.2547 179.646 15.743 178.931 14.2344C178.182 12.6498 177.288 11.1579 176.443 9.62331C175.605 8.10296 175.015 6.47078 174.903 4.72309C174.894 4.56123 174.657 4.57976 174.626 4.72185C174.493 5.3489 174.679 6.09085 174.803 6.71172C174.967 7.51607 175.346 8.27161 175.658 9.0253C175.964 9.76478 176.51 10.4561 176.932 11.1338C177.392 11.8757 177.789 12.6572 178.198 13.427C178.59 14.1646 178.954 14.9411 179.274 15.7109C179.6 16.4862 179.919 17.2974 180.084 18.1202C180.178 18.5799 180.307 19.0179 180.345 19.4892C180.38 19.9408 180.373 20.3918 180.425 20.8446C180.473 21.2586 180.534 21.6607 180.53 22.079C180.527 22.3773 180.563 22.7418 180.493 23.0421C180.381 23.1267 180.381 23.3158 180.575 23.312C180.591 23.312 180.609 23.312 180.625 23.3108C180.698 23.3102 180.768 23.2435 180.786 23.1768C180.856 22.9364 180.803 22.7295 180.821 22.4842Z" fill="#3F543F"/>
<path d="M168.727 32.0555C168.601 31.4167 167.871 30.841 167.445 30.3974C166.881 29.8148 166.279 29.2471 165.646 28.7424C164.965 28.2 164.191 27.8003 163.412 27.4197C162.581 27.0138 161.755 26.5968 160.915 26.2082C160.584 26.0544 160.211 25.9679 159.869 25.8394C159.362 25.6492 158.877 25.4008 158.387 25.1722C157.531 24.7713 156.684 24.3512 155.851 23.9015C154.97 23.4258 154.206 22.8055 153.437 22.1674C153.093 21.8807 152.751 21.5916 152.405 21.3086C152.244 21.1783 152.101 21.0578 151.961 20.9089C151.897 20.8379 151.827 20.773 151.751 20.715C151.733 20.6946 151.715 20.6859 151.7 20.6865C151.709 20.5908 151.625 20.4981 151.504 20.5636C151.439 20.5982 151.392 20.6303 151.372 20.7038C151.354 20.7712 151.365 20.8249 151.423 20.8676C151.733 21.1005 152.001 21.4087 152.303 21.6577C152.647 21.94 152.986 22.2316 153.327 22.517C153.963 23.0495 154.603 23.6006 155.332 24.0071C156.848 24.8565 158.452 25.6794 160.09 26.27C160.946 26.5783 161.76 26.9514 162.568 27.3703C163.305 27.7533 164.085 28.0653 164.778 28.5286C165.486 29.0018 166.115 29.5616 166.717 30.162C167 30.445 167.278 30.7273 167.55 31.0214C167.785 31.2722 168.197 31.6855 168.321 32.05C168.274 32.1605 168.309 32.2983 168.465 32.2958C168.482 32.2958 168.498 32.2958 168.516 32.2958C168.633 32.294 168.751 32.176 168.727 32.0555Z" fill="#3F543F"/>
<path d="M230.963 19.9399V34.4999H228.623V28.3199H221.463V34.4999H219.123V19.9399H221.463V26.0799H228.623V19.9399H230.963ZM237.062 27.2399C237.062 26.2265 237.256 25.2732 237.642 24.3799C238.029 23.4865 238.562 22.6932 239.242 21.9999C239.922 21.3065 240.709 20.7665 241.602 20.3799C242.509 19.9799 243.476 19.7799 244.502 19.7799C245.516 19.7799 246.469 19.9799 247.362 20.3799C248.269 20.7665 249.062 21.3065 249.742 21.9999C250.436 22.6932 250.976 23.4865 251.362 24.3799C251.762 25.2732 251.962 26.2265 251.962 27.2399C251.962 28.2665 251.762 29.2265 251.362 30.1199C250.976 31.0132 250.436 31.8065 249.742 32.4999C249.062 33.1799 248.269 33.7132 247.362 34.0999C246.469 34.4732 245.516 34.6599 244.502 34.6599C243.462 34.6599 242.496 34.4732 241.602 34.0999C240.709 33.7132 239.922 33.1865 239.242 32.5199C238.562 31.8399 238.029 31.0532 237.642 30.1599C237.256 29.2532 237.062 28.2799 237.062 27.2399ZM239.462 27.2399C239.462 27.9599 239.589 28.6332 239.842 29.2599C240.109 29.8865 240.476 30.4399 240.942 30.9199C241.409 31.3865 241.949 31.7532 242.562 32.0199C243.176 32.2865 243.842 32.4199 244.562 32.4199C245.256 32.4199 245.902 32.2865 246.502 32.0199C247.116 31.7532 247.649 31.3865 248.102 30.9199C248.556 30.4399 248.909 29.8865 249.162 29.2599C249.429 28.6332 249.562 27.9599 249.562 27.2399C249.562 26.5065 249.429 25.8265 249.162 25.1999C248.896 24.5732 248.536 24.0199 248.082 23.5399C247.629 23.0599 247.096 22.6865 246.482 22.4199C245.869 22.1532 245.209 22.0199 244.502 22.0199C243.796 22.0199 243.136 22.1532 242.522 22.4199C241.909 22.6865 241.369 23.0599 240.902 23.5399C240.449 24.0199 240.096 24.5799 239.842 25.2199C239.589 25.8465 239.462 26.5199 239.462 27.2399ZM258.072 19.9399H260.412V32.2599H267.592V34.4999H258.072V19.9399ZM273.669 34.4999V19.4199H273.689L281.529 30.5199L280.529 30.2999L288.329 19.4199H288.369V34.4999H286.049V24.6799L286.209 25.8799L280.949 33.3199H280.909L275.529 25.8799L275.929 24.7799V34.4999H273.669ZM316.567 34.4999C316.42 34.4999 316.2 34.4999 315.907 34.4999C315.614 34.4999 315.307 34.4999 314.987 34.4999C314.68 34.4999 314.414 34.4999 314.187 34.4999C313.974 34.4999 313.867 34.4999 313.867 34.4999L307.107 25.5199C306.987 25.3332 306.834 25.0932 306.647 24.7999C306.474 24.4932 306.32 24.1599 306.187 23.7999C306.067 23.4265 306.007 23.0465 306.007 22.6599C306.007 22.0999 306.14 21.5665 306.407 21.0599C306.687 20.5532 307.1 20.1332 307.647 19.7999C308.207 19.4665 308.88 19.2999 309.667 19.2999C310.52 19.2999 311.28 19.4732 311.947 19.8199C312.614 20.1532 313.147 20.5599 313.547 21.0399L312.387 22.5999C311.974 22.1865 311.574 21.8599 311.187 21.6199C310.8 21.3799 310.42 21.2599 310.047 21.2599C309.514 21.2599 309.107 21.4199 308.827 21.7399C308.547 22.0599 308.407 22.4332 308.407 22.8599C308.407 23.0732 308.454 23.2999 308.547 23.5399C308.654 23.7799 308.76 23.9932 308.867 24.1799C308.974 24.3532 309.04 24.4665 309.067 24.5199L316.567 34.4999ZM308.927 27.6399C308.567 27.6399 308.22 27.7132 307.887 27.8599C307.567 27.9932 307.28 28.1799 307.027 28.4199C306.774 28.6599 306.574 28.9332 306.427 29.2399C306.294 29.5465 306.227 29.8732 306.227 30.2199C306.227 30.6999 306.347 31.1199 306.587 31.4799C306.827 31.8399 307.154 32.1265 307.567 32.3399C307.994 32.5399 308.46 32.6399 308.967 32.6399C309.447 32.6399 309.86 32.5665 310.207 32.4199C310.554 32.2732 310.847 32.0799 311.087 31.8399C311.327 31.5999 311.514 31.3332 311.647 31.0399L313.127 32.3199C312.78 32.9865 312.227 33.5532 311.467 34.0199C310.72 34.4865 309.78 34.7199 308.647 34.7199C307.74 34.7199 306.92 34.5332 306.187 34.1599C305.454 33.7732 304.874 33.2532 304.447 32.5999C304.02 31.9332 303.807 31.1799 303.807 30.3399C303.807 29.6999 303.947 29.1132 304.227 28.5799C304.52 28.0332 304.907 27.5599 305.387 27.1599C305.88 26.7599 306.427 26.4399 307.027 26.1999C307.64 25.9599 308.26 25.8332 308.887 25.8199L308.927 27.6399ZM313.667 25.8199H315.807L313.407 31.9199L311.727 30.8999L313.667 25.8199ZM330.542 20.0199H333.262L336.862 30.3399L336.482 30.1799L339.282 22.9999L340.362 26.1599L336.362 35.1799L330.542 20.0199ZM337.682 20.0199H339.982L343.982 30.1199L343.522 30.0399L346.842 20.0199H349.342L343.662 35.1399L337.682 20.0199ZM355.076 19.9399H357.416V34.4999H355.076V19.9399ZM363.383 19.9399H373.123V22.1799H369.363V34.4999H367.043V22.1799H363.383V19.9399ZM378.043 19.9399H387.783V22.1799H384.023V34.4999H381.703V22.1799H378.043V19.9399ZM393.744 19.9399H396.084V34.4999H393.744V19.9399ZM415.891 35.0199L404.711 24.1799L405.391 24.4599L405.451 34.4999H403.091V19.4399H403.191L414.211 30.2799L413.671 30.1199L413.631 19.9399H415.951V35.0199H415.891ZM434.546 33.1599C434.36 33.3465 434.08 33.5265 433.706 33.6999C433.346 33.8732 432.94 34.0332 432.486 34.1799C432.033 34.3265 431.566 34.4399 431.086 34.5199C430.606 34.6132 430.153 34.6599 429.726 34.6599C428.553 34.6599 427.493 34.4799 426.546 34.1199C425.613 33.7599 424.806 33.2665 424.126 32.6399C423.46 31.9999 422.946 31.2465 422.586 30.3799C422.24 29.5132 422.066 28.5732 422.066 27.5599C422.066 26.2932 422.266 25.1799 422.666 24.2199C423.066 23.2465 423.613 22.4332 424.306 21.7799C425 21.1132 425.793 20.6132 426.686 20.2799C427.593 19.9465 428.546 19.7799 429.546 19.7799C430.426 19.7799 431.24 19.8799 431.986 20.0799C432.746 20.2799 433.393 20.5332 433.926 20.8399L433.166 22.9999C432.913 22.8532 432.586 22.7132 432.186 22.5799C431.786 22.4332 431.38 22.3199 430.966 22.2399C430.566 22.1599 430.193 22.1199 429.846 22.1199C429.006 22.1199 428.253 22.2399 427.586 22.4799C426.933 22.7065 426.373 23.0465 425.906 23.4999C425.44 23.9532 425.08 24.5065 424.826 25.1599C424.586 25.7999 424.466 26.5332 424.466 27.3599C424.466 28.1065 424.593 28.7865 424.846 29.3999C425.113 30.0132 425.48 30.5399 425.946 30.9799C426.426 31.4199 426.986 31.7599 427.626 31.9999C428.28 32.2265 429 32.3399 429.786 32.3399C430.24 32.3399 430.68 32.2999 431.106 32.2199C431.533 32.1399 431.893 32.0132 432.186 31.8399V29.4199H429.466V27.1799H434.546V33.1599Z" fill="#3F543F"/>
</svg>
