<svg width="405" height="418" viewBox="0 0 405 418" fill="none" xmlns="http://www.w3.org/2000/svg">
<path d="M9.76718 193.908C11.4873 199.239 13.3299 204.736 13.5925 210.373C13.8508 215.796 14.0346 220.917 16.2711 225.902C17.4966 227.29 18.2845 225.876 19.8383 224.852C24.3464 221.871 31.3974 221.832 37.7657 218.409C49.6006 212.058 55.4305 209.682 66.946 206.106C74.0101 203.913 80.5929 200.692 87.5826 198.32C93.7583 196.223 99.4745 193.124 105.615 190.945C116.22 187.185 129.832 178.865 144.674 179.801C151.388 180.226 157.292 180.326 162.877 184.476C163.332 184.808 163.415 185.307 163.245 185.662C172.025 192.424 143.387 188.896 108.469 207.445C104.687 209.45 101.195 211.927 97.4568 213.958C94.2135 215.713 90.8084 217.096 87.587 218.899C80.6235 222.812 79.3674 226.209 66.7402 232.31C60.2932 235.422 32.8068 260.615 17.5448 252.999C18.1838 254.969 19.6938 262.147 22.2017 267.482C28.5744 281.055 36.5577 284.657 41.1096 293.542C42.6108 296.465 42.8778 299.796 44.3966 302.667C47.8893 309.324 53.1283 314.752 59.1946 319.15C62.9674 319.724 68.0226 317.85 71.4147 317.058C86.8167 313.504 99.7983 304.541 109.782 297.516C146.565 271.653 136.165 276.332 151.366 264.462C158.146 259.166 164.151 252.982 170.909 247.646C177.671 242.307 185.326 240.897 193.471 238.936C201.235 237.063 209.276 237.737 216.821 240.175C222.406 241.974 230.254 244.749 233.55 250.067C234.421 250.482 234.871 251.87 233.843 252.417C230.845 254.001 227.391 254.549 224.328 256.12C220.603 258.046 216.55 259.337 212.541 260.479C204.378 262.803 196.854 266.2 189.015 269.386C177.43 274.091 175.981 277.715 168.904 282.442C161.722 287.243 154.263 291.716 147.602 297.271C109.913 328.657 88.5499 344.212 62.7792 348.458C63.8734 349.097 64.972 349.994 65.5235 350.694C67.8301 353.618 70.8151 356.095 73.3055 358.87C78.3519 364.468 82.8163 370.617 87.4951 376.509C92.1871 382.391 100.472 386.3 106.836 390.182C111.248 392.878 123.302 396.87 125.258 399.075C137.146 395.364 142.993 387.201 149.112 378.592C162.15 360.222 157.993 365.006 171.049 352.567C176.69 347.188 181.632 340.794 198.408 332.075C206.396 327.922 229.68 325.541 229.177 328.083C229.348 327.221 230.525 327.895 230.687 328.854C230.84 329.725 230.302 329.694 229.571 329.707C216.843 335.822 210.803 362.245 204.544 379.415C200.513 390.497 193.116 401.513 183.321 410.083C181.921 411.3 180.966 412.889 179.575 413.882C185.501 415.646 183.041 414.653 192.171 415.489C201.853 416.381 214.58 411.173 216.589 410.696C225.282 408.648 226.739 406.936 232.902 405.825C235.055 399.321 233.891 396.598 234.727 391.097C236.123 381.988 244.658 371.804 248.295 369.549C259.403 362.656 257.99 360.848 261.609 355.566C263.487 352.848 265.741 349.403 266.117 345.989C266.144 345.726 266.581 345.744 266.608 345.989C267.212 345.91 267.623 351.661 267.929 353.263C271.61 361.369 269.133 367.816 267.671 373.082C267.299 374.377 267.466 377.064 267.61 377.795C268.328 378.605 269.829 379.375 270.516 380.111C270.643 380.185 270.761 380.26 270.897 380.343C273.383 379.24 274.954 376.924 276.937 375.117C283.791 368.893 285.879 364.604 289.367 355.605C295.543 339.656 298.235 321.772 295.455 303.718C293.214 289.152 298.41 287.13 303.281 290.11C273.615 241.956 246.947 218.295 226.297 205.226C217.053 199.361 208.37 192.818 199.362 186.642C190.779 180.751 148.775 154.031 123.109 131.42C115.818 124.999 107.541 119.904 100.359 113.365C93.1718 106.835 86.3615 99.8893 79.0872 93.4728C57.6102 74.4993 56.6954 69.6805 44.6067 50.4881C30.9816 28.8622 28.7276 23.4481 24.0663 12.7293C23.3047 10.961 22.1317 8.2693 21.7466 6.38289C21.6371 11.5519 20.9762 16.5371 19.1773 21.5617C14.8662 33.6592 17.9518 35.8651 17.3172 42.2203C16.9977 45.481 16.827 48.663 16.0129 51.8537C14.5379 57.6179 9.41705 68.4068 7.74948 74.0573C7.37744 75.2959 4.84766 83.2092 5.5567 84.9687C7.5 85.5683 13.3912 88.8553 19.7157 88.5358C36.2513 87.7129 37.9802 86.3999 49.3468 91.6127C53.6404 93.5823 56.4985 96.1383 59.304 99.7404C59.9649 100.13 59.8993 101.246 59.1465 101.128C54.6208 100.388 49.5131 100.646 45.0049 101.312C30.7847 103.43 29.371 116.066 14.9756 114.941C11.8024 114.687 7.77136 114.022 4.43185 112.775C8.59421 122.622 4.85638 136.523 5.01834 141.793C9.5965 151.846 20.219 152.936 30.951 150.551C44.6198 147.522 59.7811 143.027 78.6058 138.922C83.2627 137.906 87.9853 137.832 92.7386 137.762C99.5664 137.666 109.782 138.567 113.572 145.443C113.598 145.487 113.603 145.531 113.616 145.574C113.708 145.675 113.782 145.785 113.817 145.92C114.36 146.691 113.48 147.325 112.793 146.975C108.631 147.938 104.092 147.084 100.201 149.168C95.7279 151.566 90.7777 152.801 86.1602 155.046C77.2621 159.366 68.3684 165.064 58.4812 166.837C33.2488 171.345 43.333 167.708 14.4985 170.023C10.2443 170.365 7.1586 170.181 3.58713 172.133C3.67029 173.722 4.25677 175.906 4.7251 177.254C6.64651 182.716 7.98145 188.397 9.76718 193.908ZM335.84 349.819C335.052 346.737 335.376 345.569 334.807 343.595C334.343 341.997 333.844 340.435 333.411 338.824C331.358 331.388 328.54 323.606 326.404 318.7C325.743 317.181 324.671 315.78 324.277 314.174C323.922 312.743 316.328 295.117 312.849 289.047C312.345 288.171 307.08 280.065 306.918 279.833C304.73 277.973 303.22 274.612 306.025 272.52C308.472 270.695 312.052 270.839 314.958 270.708C322.535 270.375 325.178 271.023 330.36 274.174C337.053 275.435 342.979 279.501 351.128 283.361C355.216 285.296 360.302 285.563 364.745 286.132C366.325 286.333 368.211 285.733 369.8 285.738C367.305 279.155 363.769 273.693 356.608 271.268C351.395 269.495 344.594 268.121 342.537 262.243C342.23 261.696 342.156 260.82 342.782 260.799C342.834 260.772 342.882 260.746 342.957 260.729C342.664 260.772 343.613 260.041 343.972 260.002C345.207 259.844 347.067 260.746 348.218 260.199C349.303 259.696 352.201 260.676 353.256 260.934C365.909 264.055 376.391 276.196 382.248 276.883C383.609 277.05 384.524 276.932 385.578 277.234C385.613 277.199 385.64 277.177 385.675 277.159C388.935 270.769 391.128 268.944 395.015 259.809C396.555 256.177 396.643 252.356 396.687 248.473C396.717 245.283 396.052 242.412 396.555 239.195C397.47 233.325 401.93 228.625 401.064 219.63C400.608 214.912 399.834 214.794 399.492 213.625C395.877 212.457 390.297 214.868 386.743 215.389C382.322 216.019 378.387 214.08 374.177 213.126C372.317 212.711 370.395 212.689 368.518 212.242C361.392 210.54 355.335 210.22 346.962 213.319C337.066 216.974 331.787 215.039 319.672 221.517C308.967 227.228 297.118 223.232 296.878 222.033C295.149 219.963 299.963 217.731 302.204 216.663C309.908 212.995 308.826 214.045 313.606 209.148C315.151 207.555 317.125 206.771 318.959 205.546C329.656 198.376 344.047 198.219 372.317 192.56C376.54 191.715 378.33 186.682 381.88 184.388C386.607 181.329 389.386 176.882 391.964 172.006C391.938 171.717 392.1 171.398 392.362 171.223C390.642 165.502 386.607 161.327 382.961 156.683C378.869 151.457 377.324 144.844 373.687 139.364C372.133 137.013 371.704 134.269 369.861 132.028C364.316 125.305 363.235 127.498 358.648 121.594C356.976 119.441 354.809 117.598 353.186 115.431C345.163 118.924 347.229 128.216 330.632 134.641C325.563 136.611 319.891 138.493 315.737 142.073C293.591 161.143 286.058 153.462 270.919 165.165C265.216 169.573 258.979 179.407 251.066 179.14C248.483 179.447 246.684 178.79 244.575 177.42C244.597 177.359 244.632 177.298 244.658 177.241C244.658 177.241 245.183 176.182 245.196 176.151C245.201 176.151 245.209 176.151 245.209 176.151C249.262 168.347 251.902 167.34 256.515 155.659C257.018 154.972 257.513 154.271 258.033 153.597C265.706 143.469 280.845 137.994 295.832 127.888C297.889 126.496 299.618 124.645 301.508 123.047C306.651 118.714 311.291 116.696 318.114 107.768C324.57 97.4864 326.763 96.0333 327.415 92.011C327.634 90.6629 326.163 86.6625 323.226 84.6667C321.077 83.2048 319.046 81.5373 316.801 80.2286C312.332 77.6244 310.166 73.392 306.402 70.0919C298.747 63.391 289.223 63.0802 286.063 60.1652C284.452 58.6727 282.421 58.0994 280.635 57.0227C280.583 57.0183 280.526 56.9964 280.452 56.9439C280.18 56.7469 279.913 56.69 279.664 56.655C277.51 68.665 268.433 90.4835 261.084 97.8278C257.119 101.784 252.659 105.216 248.755 109.208C245.857 112.171 241.76 114.096 238.447 116.582C227.356 124.89 232.862 132.96 223.986 143.456C221.767 146.078 218.585 150.069 214.97 150.455C214.48 151.01 213.521 151.102 213.123 150.293C212.891 150.069 212.768 149.754 212.751 149.448C212.116 147.977 211.394 146.559 210.878 145.041C210.195 143.08 210.462 140.808 210.252 138.782C209.691 133.595 209.066 128.553 208.829 123.336C208.221 110.092 205.945 113.51 213.035 92.7813C219.771 73.0769 239.274 57.421 232.683 34.6396C216.865 39.2222 211.346 34.3551 206.142 31.6415C203.91 30.4773 201.235 30.2409 198.872 29.4137C199.38 31.6984 199.292 34.2457 199.402 36.491C199.791 44.308 196.316 54.8518 193.318 61.6577C191.773 65.1767 190.009 67.5489 187.492 70.477C178.419 81.012 170.125 100.502 168.514 108.682C167.066 116.044 167.298 118.688 166.256 119.209C165.976 119.839 165.424 120.206 164.698 119.515C158.899 114.11 159.756 114.131 156.885 107.444C154.622 102.191 153.576 96.5804 152.732 90.9562C150.959 79.1606 154.727 67.3914 153.064 55.7184C152.662 52.9172 151.874 50.1467 151.366 47.3587C150.828 44.4919 150.924 41.5638 150.443 38.6838C149.488 32.9502 144.923 28.2101 141.304 23.9339C137.08 18.9356 131.705 16.4277 125.482 14.8126C115.108 12.1165 112.557 13.4602 108.893 14.7339C108.075 20.2136 117.568 62.393 101.68 78.1233C101.667 78.1452 101.637 78.1496 101.632 78.1583C101.343 79.0075 100.039 78.7492 99.7021 77.9264C97.7763 73.2607 95.2289 68.897 93.2813 64.2444C82.453 38.3162 92.3009 19.5046 64.7663 14.0861C47.2371 10.6372 33.4108 14.1736 21.7509 1.80474C22.2718 4.07193 22.4731 6.33475 23.3178 8.59756C30.0319 26.6388 44.8386 47.2317 53.3778 60.2134C66.8978 80.7538 78.0193 87.4591 86.8342 95.5037C118.938 124.78 110.613 114.731 125.442 127.354C149.572 147.912 197.187 179.346 232.665 203.156C256.812 219.363 276.197 242.096 292.186 264.641C307.789 286.631 320.6 309.771 335.84 349.819ZM354.735 114.346C354.726 114.381 354.722 114.403 354.722 114.438C354.722 114.438 354.735 114.442 354.739 114.451C354.735 114.416 354.735 114.381 354.735 114.346ZM1.53 169.362C4.55438 164.92 11.6667 165.349 14.643 164.876C29.8699 162.443 29.2572 165.603 53.1021 162.701C58.3718 162.062 63.4532 160.95 68.329 158.854C70.9245 157.738 73.5987 157.142 76.1416 155.768C79.7438 153.82 91.0359 149.706 91.9726 149.409C92.9836 149.093 94.1391 149.019 95.1677 148.822C99.1593 148.065 99.6845 144.83 110.185 145.097C106.779 143.369 103.812 141.25 99.7983 140.41C97.2204 139.872 94.4105 140.248 91.7975 140.283C68.9943 140.607 36.2513 154.849 17.5448 154.827C11.4829 154.827 1.82327 149.986 1.91956 142.927C0.619629 136.633 4.25677 130.47 3.19321 119.856C2.89996 117.011 1.90643 114.241 1.49939 111.4C1.13171 111.186 0.965393 110.472 1.42496 110.254C5.01834 108.498 11.0452 110.949 14.7874 111.619C22.0048 112.884 26.1715 107.645 31.3055 103.824C40.6019 96.8999 52.323 97.3988 56.5598 98.5893C53.299 96.0201 49.8983 93.9981 45.5345 93.1883C40.2211 92.1948 35.586 92.046 30.3076 93.2628C14.2403 96.9743 5.78867 91.6477 4.47562 86.8945C1.45123 84.0014 4.2699 76.8584 5.0665 73.6984C7.29868 64.7872 12.1963 56.9702 14.2009 47.9802C15.8335 40.6315 13.7019 33.1603 15.4001 25.886C16.2493 22.2664 18.2801 19.0013 19.0767 15.3641C20.1577 10.4402 20.1928 5.34559 20.718 0.342884C20.7661 -0.0729135 21.0769 -0.059783 21.3351 0.11529C21.5627 0.00149249 21.8691 0.0146229 22.066 0.220333C32.1459 10.484 43.0835 7.8929 53.8987 8.68948C63.7334 9.41165 73.8701 10.2564 81.5558 17.1367C89.3509 24.1046 89.7054 35.318 90.607 44.9208C91.9814 59.7276 98.9492 71.2999 100.901 75.6329C102.096 72.1709 104.289 70.8709 106.569 63.1415C108.443 56.7863 108.613 50.3918 108.994 43.8485C109.34 37.9266 108.53 32.2149 108.127 26.3368C107.326 14.6288 107.06 18.6467 108.149 14.1605C108.062 13.8279 108.088 13.4296 108.232 13.2195C110.657 9.72678 116.723 10.3614 120.435 10.6459C126.107 11.0836 132.27 12.8387 136.918 16.1826C144.665 21.7674 152.465 31.3001 153.322 41.1217C153.861 47.3412 155.585 53.3287 156.089 59.5262C156.802 68.4199 149.821 99.7667 164.982 115.852C164.995 115.852 165.017 115.86 165.03 115.865C165.044 109.689 167.446 102.879 169.687 97.4645C171.521 93.0177 175.972 80.8457 180.599 75.4885C182.997 72.7092 184.945 69.6017 187.409 66.8574C190.727 63.159 192.591 58.8434 194.04 54.0946C196.854 44.9033 198.824 38.5 196.968 28.5384C196.876 28.4815 196.784 28.4289 196.697 28.372C196.263 28.0875 196.207 27.4266 196.635 27.1115C205 21.1897 208.602 33.1209 225.746 32.3768C228.162 32.2674 234.394 30.8055 233.952 33.6242C246.242 54.0946 224.586 73.0025 213.723 98.9789C211.013 105.194 209.017 111.733 209.521 118.184C209.963 123.795 210.545 129.275 211.7 134.786C213.184 141.806 211.512 141.285 214.672 148.161C218.226 145.885 221.216 143.04 223.859 139.696C227.194 135.473 227.65 130.435 229.23 125.524C232.105 116.617 240.15 110.836 246.439 104.384C254.817 95.8188 259.605 95.0616 266.328 81.1827C270.197 73.1907 274.595 62.323 275.563 60.1784C276.823 57.3772 277.23 51.8493 279.375 54.6023C279.3 54.4491 279.283 54.3353 279.567 54.5804C281.686 54.4229 283.73 55.7053 285.586 56.5938C286.688 57.119 287.52 58.0206 288.474 58.734C289.726 59.6663 291.389 59.8457 292.855 60.2747C308.975 65.0191 312.197 70.8491 315.063 73.9216C318.223 77.2786 331.052 82.7278 329.362 92.685C329.332 92.8951 329.24 93.0702 329.117 93.2102C328.33 97.9766 326.019 99.4078 320.561 107.842C319.523 109.453 318.066 111.536 316.341 112.726C311.492 118.276 307.26 120.504 302.239 124.732C298.283 128.076 294.352 131.197 289.805 133.753C280.697 138.874 269.685 143.202 262.725 151.256C259.526 154.945 256.847 159.965 254.532 164.264C252.536 167.966 248.838 171.814 247.892 176.037C255.416 174.982 256.305 174.632 262.774 167.883C280.206 149.706 285.402 157.567 304.008 146.222C308.704 143.355 312.223 139.342 316.451 135.924C317.93 134.724 319.856 134.011 321.594 133.306C324.583 132.09 327.459 130.619 330.474 129.459C344.353 124.106 344.769 112.232 353.291 112.735C353.663 112.761 353.982 112.95 354.183 113.239C354.577 113.414 354.739 113.851 354.735 114.28C354.766 113.917 355.011 113.611 354.752 114.451C357.65 115.865 360.044 119.484 361.427 121.152C362.797 122.815 364.561 123.126 366.163 124.312C371.004 127.888 374.321 132.3 376.601 137.836C377.875 140.909 379.884 143.583 381.105 146.761C382.628 150.722 384.524 154.494 387.062 157.908C390.2 162.145 394.126 167.524 393.702 172.807C393.689 173 393.601 173.074 393.492 173.083C392.564 176.383 389.955 179.911 387.942 182.458C386.585 184.169 384.983 185.277 383.167 186.415C380.83 187.872 379.687 189.942 378.19 192.118C372.623 200.188 333.512 199.935 315.16 212.479C313.374 213.7 311.649 215 309.811 216.129C305.329 218.886 301.95 219.42 299.766 221.626C315.514 223.81 318.285 219.144 324.815 216.435C329.288 214.571 334.378 214.216 339.097 213.38C346.314 212.085 351.128 208.01 363.375 209.196C367.59 209.599 371.835 209.59 376.015 210.036C381.648 210.632 381.258 212.54 390.305 211.034C393.619 210.483 397.422 210.15 400.324 212.023C400.766 212.045 401.186 212.255 401.453 212.601C404.355 216.361 405.033 220.991 404.565 225.745C404.267 228.839 403.917 231.732 402.95 234.695C399.589 244.998 401.873 242.784 400.403 254.22C399.715 259.525 393.225 270.042 392.192 271.942C390.966 274.183 389.093 276.082 388.056 278.411C387.955 278.647 387.749 278.8 387.513 278.892C387.452 278.954 387.368 279.002 387.281 279.037C387.233 279.168 387.132 279.278 386.961 279.321C379.639 281.216 373.695 274.783 363.983 268.292C359.418 265.241 351.225 261.963 348.761 262.978C347.649 263.433 345.898 262.387 344.887 262.475C346.944 264.633 347.391 265.832 352.555 267.574C356.319 268.843 360.21 269.543 363.423 272.051C367.253 275.041 371.717 281.326 372.115 286.609C372.89 287.467 373.223 288.959 372.5 289.388C369.647 291.077 365.979 290.758 362.797 290.688C358.556 290.609 354.122 290.023 350.319 288.018C340.567 282.884 334.869 280.993 329.739 278.192C326.15 276.231 323.161 274.052 318.959 273.807C316.044 273.631 304.091 271.653 306.769 278.267C315.589 287.204 333.792 330.429 334.628 335.402C335.315 339.384 337.346 343.219 337.591 347.228C337.727 349.232 338.278 350.764 338.987 352.602C339.744 354.559 339.854 357.084 340.322 359.163C340.9 361.785 341.421 364.372 342.265 366.932C342.721 368.302 342.904 369.357 342.589 370.753C342.427 371.502 341.447 370.963 341.281 370.512C341.167 370.18 341.07 369.856 340.961 369.528C338.361 369.234 331.787 347.337 327.752 338.102C321.068 322.827 313.995 308.02 305.605 293.953C303.32 292.106 300.27 290.662 298.099 292.929C295.066 296.12 298.335 304.773 298.786 308.58C300.524 323.195 297.819 343.783 291.24 359.557C289.498 365.435 286.478 371.392 279.729 378.001C278.145 379.546 271.365 387.669 269.426 383.835C268.901 383.678 268.433 383.188 268.118 382.846C267.908 382.619 267.579 382.435 267.269 382.229C265.973 381.901 265.168 380.881 264.721 379.572C263.719 377.992 262.752 376.01 263.789 374.438C263.977 373.707 264.284 373.09 264.651 372.456C265.203 370.145 267.492 365.772 267.592 361.067C267.531 357.001 266.253 354.231 265.951 350.681C264.787 355.557 262.384 356.927 260.839 360.542C258.182 366.74 252.169 369.304 247.897 373.979C237.541 385.328 238.999 398.021 238.74 402.297C238.6 404.485 238.916 406.148 237.349 407.93C236.832 408.508 235.9 408.897 235.103 408.735C232.044 410.573 224.428 413.681 218.83 415.06C207.893 415.668 196.968 420.027 183.431 416.854C181.938 416.504 178.196 416.395 177.268 415.042C175.811 412.876 179.898 410.486 181.264 409.217C186.823 404.043 191.602 396.624 195.357 389.985C198.828 385.179 200.036 382.465 203.932 371.694C205.761 366.617 215.189 336.938 225.636 329.895C206.405 331.41 192.232 339.984 169.088 359.084C155.366 370.412 151.826 385.332 137.338 396.708C133.482 399.736 130.257 400.826 125.578 401.019C124.956 401.592 122.606 400.24 107.589 394.672C104.779 393.631 98.4372 390.558 89.5785 383.849C86.7861 381.726 85.0266 378.789 83.0045 375.983C80.5797 372.639 78.0762 369.37 75.6427 366.026C73.5243 363.107 71.6116 360.196 69.1125 357.566C67.8388 356.226 66.2369 354.686 65.1602 353.224C64.5212 352.353 62.4028 350.055 61.1861 349.744C60.4157 349.539 59.8205 347.508 60.9716 347.714C72.8634 342.396 87.7315 338.995 106.718 324.989C158.26 286.972 125.031 308.484 168.081 278.976C175.115 274.148 175.478 271.001 186.564 266.2C214.357 254.172 209.578 258.067 221.509 253.581C227.072 251.489 225.172 251.66 231.007 250.439C227.742 246.591 216.449 242.377 209.516 241.274C200.64 239.856 191.099 241.812 182.643 244.517C174.182 247.204 167.639 254.194 161.188 259.963C154.916 265.578 148.022 270.423 141.93 276.24C129.447 288.162 114.658 298.05 100.394 307.749C84.1075 318.809 63.3438 321.86 59.7461 320.744C59.6454 320.905 59.4616 321.015 59.1333 320.967C56.3147 320.599 54.1831 318.651 52.161 316.796C49.6225 314.445 47.3509 312.182 45.3989 309.316C43.4774 306.51 41.2015 303.862 40.1686 300.566C38.8949 296.518 36.492 292.596 33.5815 289.519C23.7599 279.072 16.3368 265.714 15.4177 251.113C15.3695 250.391 16.2011 250.268 16.5556 250.819C16.6038 250.903 16.6432 250.99 16.7001 251.073C23.8824 253.415 30.8985 250.754 37.455 247.594C44.4535 244.224 50.7649 240.048 56.9406 235.361C62.6085 231.049 69.0249 228.305 74.9468 224.405C80.8817 220.501 86.007 216.216 92.6072 213.332C101.606 209.393 109.817 198.748 155.59 189.045C156.995 188.743 158.369 188.507 159.752 188.117C161.271 187.684 163.744 187.872 161.87 185.938C151.961 182.173 154.657 183.128 143.435 182.41C136.564 181.968 129.307 184.235 123.065 186.9C122.335 187.211 81.0699 205.322 68.8674 209.122C62.1227 211.214 55.1898 213.542 48.8784 216.693C43.5781 219.346 38.1859 223.035 32.3954 224.344C28.5131 225.215 24.7097 225.902 21.2126 227.924C19.6632 228.817 18.5515 229.566 16.7395 229.001C16.0392 228.791 15.9035 228.34 15.7459 227.688C13.6275 225.543 10.3668 217.573 9.57022 214.606C7.98145 208.684 9.95538 210.014 5.09274 193.943C4.16925 190.91 -3.10065 171.393 1.53 169.362Z" fill="#DDDFD1"/>
<path d="M246.107 357.404C248.457 354.961 249.985 351.399 251.827 348.641C254.497 344.685 256.453 340.387 258.747 336.216C262.437 329.467 264.297 321.124 265.106 313.404C262.542 315.841 260.55 318.896 258.712 321.881C253.539 330.342 248.396 333.957 246.768 346.138C246.487 348.226 246.155 350.287 245.971 352.379C245.91 353.066 245.888 355.627 246.107 357.404ZM255.994 322.577C258.883 318.415 261.124 313.968 265.321 310.896C265.973 310.414 266.77 311.802 266.244 312.366C266.748 320.678 264.249 330.246 260.498 337.559C258.462 341.542 256.629 345.669 254.164 349.394C251.766 353.018 249.77 357.732 246.326 360.481C245.857 360.848 245.153 360.218 244.951 359.842C243.568 357.303 243.927 353.079 244.181 350.283C245.616 335.095 250.58 330.373 255.994 322.577Z" fill="#DDDFD1"/>
<path d="M236.036 371.523C236.823 370.911 237.458 369.134 237.887 368.525C239.06 366.897 241.55 364.84 239.721 360.082C237.703 357.942 238.74 358.901 237.694 358.887C236.723 358.87 236.206 360.034 235.817 360.726C234.836 362.472 234.845 364.35 234.845 366.306C234.845 367.593 235.305 369.895 236.036 371.523ZM241.349 359.623C242.124 360.271 242.763 360.734 243.003 362.722C243.362 365.728 242.662 367.265 241.318 369.856C240.535 371.366 238.942 374.504 237.016 374.885C235.611 375.174 234.04 373.966 234.027 372.53C234.027 370.215 232.617 370.066 233.466 363.991C233.76 361.837 234.368 359.837 235.703 358.091C237.703 355.465 240.412 357.172 241.349 359.623Z" fill="#DDDFD1"/>
<path d="M97.912 281.024C92.546 283.418 86.3134 284.144 81.6827 288.035C79.735 289.677 78.1156 291.112 75.8397 292.325C74.2071 293.196 69.839 294.443 68.0883 296.33C68.0839 296.478 68.0577 296.64 67.9833 296.793C67.9001 297.078 67.7994 297.104 67.6813 296.881C67.6813 296.881 67.6769 296.885 67.6681 296.894C67.8126 297.621 67.6681 298.146 67.4099 299.048C67.4756 299.415 67.353 299.59 67.2917 299.993C69.3445 302.212 75.4808 299.49 77.4284 298.881C80.8336 297.822 84.5233 297.262 88.0247 296.614C97.6625 294.837 97.6187 292.67 105.134 289.152C107.633 287.979 110.29 287.3 112.745 286.04C116.763 283.996 118.133 280.849 125.735 271.023C126.252 270.349 126.808 269.596 127.04 268.76C113.196 269.154 109.694 275.78 97.912 281.024ZM120.571 283.055C115.24 290.259 106.495 291.581 99.7458 296.955C95.0408 300.706 89.8542 300.045 74.3822 303.459C67.1167 305.061 64.2892 301.341 65.1909 298.404C65.134 298.264 65.0858 298.106 65.0814 297.914C64.7313 292.793 72.4958 291.331 75.971 289.537C81.1794 286.867 79.3324 284.744 93.754 279.671C101.033 277.102 106.42 271.946 113.086 268.331C116.837 266.296 122.838 265.009 127.237 266.497C127.674 265.919 128.567 266.554 128.804 267.193C129.079 267.364 129.206 267.67 129.206 267.976C130.125 270.808 128.987 271.649 120.571 283.055Z" fill="#DDDFD1"/>
<path d="M71.419 195.798C71.489 195.632 71.6028 195.527 71.8348 195.588C73.1216 195.938 74.776 196.503 76.0803 196.162C77.1964 195.877 76.9557 195.645 77.3233 195.356C77.4152 195.138 77.5684 194.962 77.8091 194.91C78.1024 194.84 78.3956 192.455 78.47 192.148C78.8377 191.264 78.4569 190.629 77.3189 190.249C73.6949 192.35 70.4605 189.316 67.7775 192.45C66.3681 194.091 69.3312 195.221 71.419 195.798ZM69.0249 189.343C71.0732 188.45 73.336 189.513 75.4106 189.084C76.8287 188.787 77.9317 187.246 79.1835 188.826C80.409 190.358 80.2076 192.021 80.0019 193.873C79.9188 194.582 79.6737 196.503 79.1047 196.932C78.5094 197.501 78.6451 197.545 78.8114 197.046C78.7414 197.256 78.5094 197.519 78.2599 197.545C78.2731 197.562 78.2162 197.593 77.993 197.606C76.5355 197.702 75.949 198.687 73.5855 197.869C71.2964 197.842 68.8323 197.094 67.3617 195.72C65.0113 193.514 66.355 190.516 69.0249 189.343Z" fill="#DDDFD1"/>
<path d="M35.9536 205.839C40.952 205.629 46.9176 206.881 50.5853 202.911C52.1479 201.243 54.0605 199.873 56.1308 198.932C58.0741 198.048 57.3038 196.044 56.0564 194.28C55.8594 194.337 55.6406 194.31 55.4655 194.157C51.6445 190.923 48.8084 195.877 41.1752 197.764C37.2886 198.713 32.5397 196.135 31.8569 202.828C31.5987 205.484 33.9097 205.935 35.9536 205.839ZM43.635 194.617C48.9747 192.805 52.7738 187.868 55.8025 192.069C61.5099 196.004 61.8513 199.541 59.2164 201.173C51.6708 205.839 52.8263 208.89 43.4292 208.745C34.1942 208.605 33.2706 208.964 31.6906 208.01C29.4059 206.622 28.7669 203.777 29.3271 201.248C31.0691 193.382 37.4155 196.726 43.635 194.617Z" fill="#DDDFD1"/>
<path d="M66.355 29.6939C65.2959 27.6499 62.6216 22.5247 60.3413 22.3671C60.5164 22.796 60.442 23.3344 59.943 23.4919C55.7631 24.8531 56.1264 29.8252 58.1135 33.0334C60.6652 37.1607 61.6675 35.9396 67.4361 47.0874C67.8782 47.9277 68.329 48.7549 68.7929 49.5734C69.0293 50.4575 69.2569 50.4531 69.467 49.5559C70.1279 48.5799 70.6312 47.5644 71.5547 46.7941C72.8634 45.7174 74.2727 45.1003 74.1939 43.1176C74.0495 40.1764 69.165 35.1518 66.355 29.6939ZM74.1502 48.895C72.7233 49.906 71.918 51.1184 70.8413 52.4402C70.0316 53.4425 69.0906 53.1143 68.1977 52.5978C66.0399 51.346 65.2215 45.9188 60.8096 39.1741C58.3849 35.4582 55.0629 33.0115 55.076 28.2583C55.0804 26.2099 55.2992 23.7502 56.5203 22.4896C56.7654 21.9163 57.0587 21.3385 57.4045 20.7477C59.2558 17.592 63.637 21.89 64.8538 23.3256C68.1671 27.2429 70.2154 32.1668 73.4367 36.2197C75.8396 39.2572 78.5576 43.6078 76.111 47.2975C75.7652 47.8183 74.636 48.5449 74.1502 48.895Z" fill="#DDDFD1"/>
<path d="M324.631 164.329C325.511 166.509 326.946 166.15 328.478 164.806C331.328 162.307 334.076 160.311 337.433 158.521C340.348 156.959 343.141 154.897 346.274 153.772C349.951 152.446 356.402 151.133 357.015 146.332C357.654 141.202 349.006 138.62 345.775 140.751C339.539 144.852 343.031 144.472 333.499 148.564C331.249 149.522 329.384 151.82 327.476 153.343C325.979 154.551 324.473 155.72 323.086 157.055C320.604 159.453 323.808 162.285 324.631 164.329ZM325.034 152.726C333.888 145.553 340.852 141.802 341.582 141.67C343.736 140.051 345.478 138.458 347.889 137.648C351.115 136.563 356.499 139.377 358.582 141.727C361.252 144.73 360.236 148.813 357.934 151.588C354.188 156.096 346.773 156.587 341.88 159.27C339.442 160.604 336.79 161.563 334.44 163.051C332.08 164.526 329.949 166.303 327.669 167.883C323.528 170.746 322.937 164.675 320.819 161.729C318.136 157.996 322.465 154.801 325.034 152.726Z" fill="#DDDFD1"/>
<path d="M297.845 177.425C303.355 174.308 311.365 174.247 311.746 170.82C311.969 168.851 312.148 166.898 312.442 164.929C311.492 163.633 306.761 165.651 305.951 165.931C300.37 167.857 295.941 171.459 294.51 177.521C293.766 180.69 296.51 178.182 297.845 177.425ZM299.009 167.109C301.43 164.623 305.719 164.001 308.84 162.907C314.083 161.069 314.858 165.051 313.532 167.783C313.689 170.089 313.851 172.496 312.687 174.357C310.656 177.609 301.898 177.67 296.532 180.861C295.906 181.228 294.217 182.471 293.459 182.007C291.262 180.677 292.93 177.657 293.363 175.792C294.116 172.575 296.777 169.411 299.009 167.109Z" fill="#DDDFD1"/>
<path d="M283.721 184.266C283.782 182.3 282.531 180.016 280.552 179.394C278.298 178.685 274.342 183.176 277.046 184.576C277.83 184.983 278.911 184.953 279.756 185.185C280.986 185.517 282.916 185.933 283.865 184.795C283.769 184.651 283.708 184.48 283.721 184.266ZM285.708 184.896C285.52 185.579 285.069 186.213 284.281 186.743C282.666 187.82 280.338 187.316 278.635 186.843C277.134 186.428 275.296 186.458 274.473 184.835C272.783 181.491 276.714 177.976 279.743 177.595C283.94 177.079 287.454 183.281 285.708 184.896Z" fill="#DDDFD1"/>
<path d="M223.802 182.392C226.126 176.077 227.833 169.704 230.613 163.554C233.269 157.65 236.539 151.702 240.903 146.888C245.603 141.692 249.656 136.007 254.62 131.022C259.403 126.225 264.599 121.861 269.448 117.156C274.495 112.249 279.09 106.564 283.086 100.782C290.523 90.0064 296.9 78.7755 302.953 67.1857C302.734 66.6823 302.874 66.2315 303.758 66.1965C303.881 66.1921 303.994 66.1921 304.117 66.1834C305.159 66.144 306.651 67.2601 306.218 68.3893C304.117 73.8603 301.189 79.0512 298.344 84.1502C295.11 89.9101 290.956 94.9391 287.336 100.419C279.948 111.619 270.048 120.145 260.165 129.017C255.035 133.621 250.431 138.729 246.177 144.143C243.997 146.914 241.546 149.448 239.428 152.275C237.554 154.761 236.272 157.615 234.631 160.237C230.963 166.08 228.753 173.148 227.037 179.784C225.317 186.485 222.708 192.866 223.387 199.851C223.457 199.974 223.496 200.105 223.496 200.228C223.496 200.473 223.496 200.718 223.496 200.963C223.496 202.027 221.391 201.038 221.281 200.267C220.445 194.267 221.719 188.065 223.802 182.392Z" fill="#DDDFD1"/>
<path d="M124.26 13.1058C126.352 16.9749 127.504 21.5837 128.874 25.7504C130.576 30.9457 132.852 36.1016 133.924 41.4763C135.942 51.4686 135.601 61.7366 134.349 71.8558C132.979 83.0386 129.657 93.8493 129.171 105.133C128.948 110.376 129.399 115.545 129.412 120.749C129.412 122.758 129.758 124.728 129.819 126.737C129.889 128.623 130.187 133.048 132.082 134.256C132.957 134.799 132.366 135.972 131.399 135.644C128.48 134.641 128.344 131.42 127.954 128.811C127.272 124.115 126.93 119.156 126.948 114.416C126.961 108.599 126.952 102.813 127.504 97.0138C128.112 90.6543 130.23 84.5792 130.935 78.2372C131.578 72.6349 131.828 67.0282 132.204 61.404C132.576 55.8804 132.668 49.7573 131.167 44.3782C129.692 39.091 128.283 33.9176 126.471 28.7091C124.759 23.8246 122.737 18.5856 122.085 13.4515C121.932 12.3004 123.827 12.3136 124.26 13.1058Z" fill="#DDDFD1"/>
<path d="M4.96578 127.288C8.96181 129.639 14.7173 127.682 19.1292 127.385C24.8234 127.008 30.6796 127.411 36.3957 127.415C38.838 127.424 41.1621 127.157 43.5606 126.702C45.9853 126.247 48.607 126.557 51.0843 126.111C56.4503 125.135 61.8776 124.706 67.261 123.826C72.2725 123.012 77.1395 122.596 82.2079 122.29C87.9546 121.94 93.6095 120.272 99.3694 120.22C107.401 120.15 116.369 121.984 121.315 129.078C121.477 129.319 121.442 130.317 120.978 129.971C117.603 127.459 113.8 125.008 109.782 123.673C104.989 122.08 99.5357 122.216 94.5812 123.065C89.4209 123.957 84.2125 124.667 78.9647 124.85C73.6468 125.039 68.4384 126.273 63.16 126.846C57.9822 127.402 52.8963 128.698 47.7361 129.162C42.3176 129.652 36.9822 129.993 31.5243 129.997C26.7098 130.006 21.7815 129.678 17.0064 130.339C13.3736 130.829 8.4935 131.954 5.21526 129.814C5.1496 129.796 5.07957 129.761 5.00517 129.7C4.87386 129.59 4.76007 129.494 4.62876 129.393C4.02477 128.903 3.86282 126.64 4.96578 127.288Z" fill="#DDDFD1"/>
<path d="M39.9279 284.337C43.5606 281.155 47.5917 278.45 51.5264 275.689C60.1575 269.64 67.922 262.781 75.9097 255.945C83.1752 249.716 91.478 245.917 99.597 241.002C108.197 235.776 116.71 231.159 125.91 227.062C135.658 222.716 145.37 218.273 155.38 214.557C164.851 211.034 175.272 209.318 185.234 207.822C195.371 206.303 205.599 206.11 215.837 206.425C225.995 206.736 235.278 209.804 244.378 214.203C245.345 214.671 244.675 216.383 243.629 216.067C239.489 214.829 235.484 213.288 231.383 211.927C226.262 210.224 221.189 209.515 215.815 209.266C205.822 208.793 195.778 209.06 185.869 210.417C176.717 211.66 167.394 213.406 158.579 216.168C148.841 219.228 139.627 223.88 130.283 227.933C121.245 231.846 112.535 235.982 104.171 241.186C96.6339 245.865 88.5193 249.555 81.4464 254.934C74.1239 260.501 67.7513 267.228 60.442 272.848C56.6298 275.789 52.6381 278.485 48.7077 281.265C46.957 282.499 45.2413 283.786 43.5125 285.051C42.4489 285.825 37.9539 288.517 37.8314 290.171C37.757 291.261 36.1769 291.638 35.9449 290.43C35.4285 287.734 38.1509 285.895 39.9279 284.337Z" fill="#DDDFD1"/>
<path d="M90.9878 382.001C92.9617 382.781 95.067 379.73 96.2225 378.535C97.7237 376.977 99.3694 375.629 101.046 374.272C105.383 370.753 109.782 367.3 114.128 363.781C122.702 356.826 130.537 349.193 138.538 341.603C153.813 327.138 171.92 315.732 188.074 302.273C195.861 295.791 203.958 290.106 213.075 285.672C222.305 281.19 231.869 277.802 241.476 274.284C250.75 270.891 260.042 267.447 269.877 266.09C274.915 265.394 279.939 266.016 284.933 266.76C288.706 267.316 292.54 267.867 295.201 270.808C296.471 272.218 294.514 274.564 293.162 273.062C290.081 269.666 283.546 269.592 279.265 269.093C273.527 268.419 267.995 269.176 262.397 270.498C252.584 272.817 243.043 276.573 233.493 279.798C223.654 283.138 213.67 287.024 204.706 292.347C195.961 297.533 188.376 304.549 180.38 310.782C172.051 317.273 163.647 323.645 155.261 330.049C146.757 336.544 139.115 343.634 131.605 351.25C124.514 358.445 116.763 364.976 108.981 371.401C104.749 374.893 100.595 378.347 96.5639 382.063C94.6512 383.827 92.4321 385.56 90.3181 383.284C89.8892 382.807 90.2437 381.713 90.9878 382.001Z" fill="#DDDFD1"/>
<path d="M283.515 256.387C285.778 253.021 289.665 251.021 293.179 249.209C297.377 247.056 301.688 244.994 306.025 243.138C315.803 238.958 326.802 235.715 337.433 234.682C342.344 234.205 347.693 234.345 352.586 234.962C357.742 235.601 362.679 237.453 367.852 238.153C373.074 238.862 378.33 239.339 383.434 240.709C388.296 242.018 393.251 243.677 398.149 244.731C399.357 244.998 399.374 246.539 398.236 246.653V246.666C398.192 246.666 398.157 246.662 398.109 246.653C398.061 246.662 398.013 246.662 397.96 246.653C397.842 246.648 397.72 246.64 397.597 246.627C397.571 246.618 397.545 246.605 397.51 246.6C394.021 246.268 390.318 244.749 386.891 244.031C382.173 243.046 377.656 241.86 372.868 241.212C368.04 240.565 363.37 239.961 358.657 238.735C353.094 237.282 347.706 237.024 341.977 236.984C336.523 236.949 331.236 238.004 325.918 239.12C320.648 240.232 315.545 241.436 310.533 243.432C306.073 245.208 301.859 247.353 297.521 249.366C293.179 251.367 287.91 253.472 285.17 257.612C284.531 258.58 282.828 257.407 283.515 256.387Z" fill="#DDDFD1"/>
<path d="M172.173 159.296C172.029 157.239 171.854 154.801 172.195 152.757C173.228 146.498 173.211 140.09 174.401 133.88C176.629 122.246 180.494 111.536 185.558 100.848C190.867 89.6213 197.2 79.0513 203.188 68.1793C209.127 57.4079 213.302 45.8444 214.099 33.4623C214.165 32.3156 215.841 32.4469 216.06 33.4536C217.005 37.8961 215.683 43.1526 214.808 47.5513C213.648 53.2499 210.961 58.6028 208.751 63.9425C206.58 69.1815 202.711 74.0792 199.721 78.8806C196.465 84.1371 193.655 89.6738 190.753 95.1273C187.974 100.353 185.4 105.855 183.133 111.308C180.822 116.801 178.564 122.548 177.391 128.378C176.73 131.634 175.811 134.738 175.544 138.077C175.294 141.277 175.347 144.472 174.975 147.68C174.633 150.612 174.204 153.462 174.231 156.425C174.257 158.539 173.999 161.121 174.498 163.248C175.285 163.848 175.285 165.187 173.915 165.161C173.802 165.161 173.67 165.161 173.557 165.152C173.04 165.148 172.55 164.675 172.419 164.202C171.92 162.5 172.296 161.033 172.173 159.296Z" fill="#DDDFD1"/>
<path d="M257.854 227.106C258.747 222.58 263.916 218.501 266.94 215.359C270.932 211.231 275.195 207.209 279.681 203.633C284.504 199.79 289.993 196.958 295.512 194.262C301.399 191.387 307.246 188.432 313.203 185.679C315.545 184.59 318.188 183.977 320.613 183.066C324.202 181.718 327.642 179.959 331.113 178.339C337.175 175.499 343.176 172.523 349.076 169.336C355.317 165.966 360.731 161.572 366.18 157.051C368.618 155.02 371.043 152.971 373.494 150.967C374.632 150.043 375.643 149.19 376.636 148.135C377.092 147.632 377.591 147.172 378.129 146.761C378.256 146.616 378.378 146.555 378.488 146.559C378.427 145.881 379.017 145.224 379.875 145.688C380.335 145.934 380.668 146.161 380.812 146.682C380.939 147.159 380.86 147.54 380.449 147.842C378.252 149.492 376.356 151.676 374.212 153.44C371.778 155.44 369.375 157.506 366.959 159.528C362.451 163.301 357.921 167.205 352.757 170.085C342.011 176.103 330.654 181.933 319.046 186.117C312.98 188.301 307.211 190.945 301.491 193.912C296.265 196.626 290.741 198.836 285.831 202.119C280.815 205.471 276.359 209.437 272.096 213.691C270.092 215.696 268.118 217.696 266.192 219.779C264.529 221.556 261.609 224.484 260.734 227.067C261.062 227.85 260.813 228.826 259.714 228.809C259.592 228.809 259.478 228.809 259.346 228.809C258.524 228.795 257.683 227.959 257.854 227.106Z" fill="#DDDFD1"/>
</svg>
