<svg width="20" height="21" viewBox="0 0 20 21" fill="none" xmlns="http://www.w3.org/2000/svg">
<path d="M19.5173 9.58278C19.4323 9.84623 19.3412 10.1179 19.3283 10.3965C19.3155 10.6645 19.3064 10.9176 19.1959 11.1639C19.1353 11.2325 19.0964 11.1626 19.0196 11.112C18.7968 10.9647 18.4484 10.9628 18.1336 10.7936C17.5488 10.4798 17.2607 10.3623 16.6916 10.1856C16.3425 10.0772 16.0172 9.91804 15.6717 9.80081C15.3665 9.6972 15.084 9.54406 14.7806 9.43634C14.2565 9.25054 13.5838 8.83936 12.8503 8.88565C12.5185 8.90663 12.2267 8.9116 11.9507 9.11665C11.9282 9.13309 11.9241 9.15775 11.9326 9.17527C11.4987 9.50945 12.9139 9.33512 14.6395 10.2518C14.8264 10.3509 14.999 10.4733 15.1838 10.5736C15.344 10.6604 15.5123 10.7287 15.6715 10.8178C16.0156 11.0112 16.0777 11.1791 16.7017 11.4806C17.0204 11.6344 18.3787 12.8794 19.1329 12.503C19.1014 12.6004 19.0267 12.9551 18.9028 13.2188C18.5879 13.8895 18.1933 14.0675 17.9684 14.5066C17.8942 14.6511 17.881 14.8157 17.806 14.9576C17.6333 15.2866 17.3744 15.5548 17.0746 15.7722C16.8882 15.8005 16.6384 15.7079 16.4707 15.6688C15.7096 15.4932 15.068 15.0502 14.5747 14.703C12.7569 13.4249 13.2708 13.6561 12.5196 13.0695C12.1846 12.8078 11.8878 12.5022 11.5538 12.2385C11.2196 11.9746 10.8413 11.905 10.4388 11.8081C10.0551 11.7155 9.65775 11.7488 9.28485 11.8693C9.00885 11.9582 8.62102 12.0953 8.45815 12.3581C8.41511 12.3787 8.39283 12.4472 8.44366 12.4743C8.59182 12.5526 8.76248 12.5796 8.91389 12.6573C9.09796 12.7524 9.29826 12.8162 9.49639 12.8727C9.89979 12.9875 10.2716 13.1554 10.659 13.3129C11.2315 13.5454 11.3031 13.7245 11.6529 13.9581C12.0078 14.1954 12.3764 14.4164 12.7056 14.6909C14.5682 16.242 15.6239 17.0107 16.8975 17.2205C16.8434 17.2521 16.7891 17.2964 16.7619 17.3311C16.6479 17.4755 16.5004 17.598 16.3773 17.7351C16.1279 18.0117 15.9073 18.3156 15.6761 18.6068C15.4442 18.8975 15.0347 19.0906 14.7202 19.2825C14.5022 19.4157 13.9065 19.613 13.8098 19.722C13.2224 19.5386 12.9334 19.1352 12.631 18.7097C11.9866 17.8019 12.1921 18.0383 11.5469 17.4236C11.2681 17.1578 11.0239 16.8418 10.1948 16.4109C9.80007 16.2056 8.64936 16.088 8.67423 16.2136C8.6658 16.171 8.60761 16.2043 8.59961 16.2517C8.59204 16.2948 8.61864 16.2932 8.65477 16.2939C9.28376 16.5961 9.58226 17.9019 9.89157 18.7504C10.0908 19.2981 10.4563 19.8425 10.9404 20.266C11.0096 20.3261 11.0568 20.4047 11.1256 20.4538C10.8327 20.5409 10.9542 20.4918 10.503 20.5331C10.0246 20.5773 9.39559 20.3199 9.29631 20.2963C8.86674 20.1951 8.79471 20.1105 8.49016 20.0556C8.38374 19.7341 8.44128 19.5996 8.39997 19.3277C8.33097 18.8776 7.90918 18.3743 7.72944 18.2629C7.18047 17.9222 7.25034 17.8329 7.07146 17.5718C6.97866 17.4375 6.86727 17.2672 6.84867 17.0985C6.84737 17.0856 6.82574 17.0864 6.82444 17.0985C6.79459 17.0946 6.77426 17.3789 6.75912 17.458C6.57721 17.8586 6.69964 18.1772 6.77188 18.4374C6.79027 18.5014 6.78205 18.6343 6.77491 18.6704C6.73944 18.7104 6.66525 18.7485 6.63129 18.7848C6.62501 18.7885 6.61917 18.7922 6.61247 18.7963C6.48961 18.7418 6.41196 18.6273 6.31398 18.538C5.97525 18.2304 5.87208 18.0184 5.69969 17.5737C5.39449 16.7855 5.26146 15.9017 5.39881 15.0095C5.50956 14.2897 5.25281 14.1897 5.01207 14.337C6.47815 11.9573 7.79606 10.788 8.81656 10.1421C9.27338 9.85229 9.70252 9.52892 10.1477 9.22372C10.5718 8.93258 12.6477 7.61208 13.916 6.49467C14.2764 6.17736 14.6854 5.92559 15.0404 5.60244C15.3955 5.27972 15.7321 4.93645 16.0916 4.61936C17.1529 3.6817 17.1982 3.44356 17.7956 2.49509C18.4689 1.42635 18.5803 1.15879 18.8107 0.629072C18.8483 0.541687 18.9063 0.408663 18.9253 0.315438C18.9307 0.570887 18.9634 0.817252 19.0523 1.06556C19.2653 1.66341 19.1128 1.77243 19.1442 2.0865C19.16 2.24764 19.1684 2.40489 19.2087 2.56257C19.2815 2.84744 19.5346 3.38061 19.617 3.65986C19.6354 3.72107 19.7604 4.11214 19.7254 4.19909C19.6294 4.22872 19.3382 4.39116 19.0257 4.37537C18.2085 4.33471 18.123 4.26982 17.5613 4.52743C17.3491 4.62477 17.2079 4.75109 17.0692 4.9291C17.0366 4.94835 17.0398 5.00351 17.077 4.99767C17.3007 4.96111 17.5531 4.97387 17.7759 5.00675C18.4786 5.11144 18.5485 5.7359 19.2599 5.68031C19.4167 5.66776 19.6159 5.63489 19.781 5.57324C19.5753 6.05991 19.76 6.74688 19.752 7.0073C19.5257 7.50414 19.0008 7.558 18.4704 7.44012C17.7949 7.29044 17.0457 7.0683 16.1154 6.86541C15.8852 6.81523 15.6518 6.81155 15.4169 6.80809C15.0795 6.80333 14.5747 6.84789 14.3873 7.1877C14.386 7.18986 14.3858 7.19202 14.3852 7.19419C14.3806 7.19916 14.377 7.20457 14.3752 7.21127C14.3484 7.24934 14.3919 7.28071 14.4258 7.2634C14.6315 7.31099 14.8558 7.26881 15.0481 7.37177C15.2692 7.4903 15.5138 7.5513 15.742 7.66226C16.1818 7.87574 16.6213 8.15737 17.1099 8.24497C18.3569 8.46776 17.8585 8.28801 19.2835 8.40243C19.4937 8.4193 19.6462 8.41022 19.8227 8.50669C19.8186 8.58521 19.7896 8.69314 19.7665 8.75976C19.6715 9.0297 19.6056 9.31046 19.5173 9.58278ZM3.40302 17.2878C3.44196 17.1355 3.42595 17.0778 3.45407 16.9802C3.477 16.9013 3.50165 16.824 3.52307 16.7444C3.62451 16.377 3.76381 15.9924 3.86936 15.7499C3.90202 15.6748 3.95502 15.6056 3.97448 15.5262C3.992 15.4555 4.36728 14.5845 4.53924 14.2845C4.56412 14.2412 4.82432 13.8406 4.83233 13.8292C4.94048 13.7372 5.0151 13.5711 4.87645 13.4677C4.75554 13.3775 4.57861 13.3847 4.43499 13.3782C4.06057 13.3617 3.92993 13.3938 3.67383 13.5495C3.34311 13.6118 3.05024 13.8127 2.64749 14.0035C2.44546 14.0991 2.19413 14.1123 1.97458 14.1404C1.8965 14.1504 1.80327 14.1207 1.72476 14.121C1.84805 13.7956 2.02282 13.5257 2.37668 13.4059C2.63429 13.3183 2.97042 13.2503 3.07208 12.9599C3.08722 12.9328 3.0909 12.8896 3.05997 12.8885C3.05738 12.8872 3.055 12.8859 3.05132 12.885C3.06581 12.8872 3.01887 12.8511 3.00114 12.8491C2.94014 12.8413 2.84821 12.8859 2.79133 12.8588C2.73769 12.834 2.59449 12.8824 2.54237 12.8952C1.91705 13.0494 1.39901 13.6494 1.1096 13.6834C1.04233 13.6916 0.997125 13.6858 0.944997 13.7007C0.943266 13.699 0.941969 13.6979 0.940238 13.697C0.779095 13.3812 0.670729 13.291 0.478656 12.8396C0.402518 12.6601 0.398192 12.4712 0.396029 12.2794C0.394515 12.1217 0.427393 11.9798 0.402518 11.8208C0.357312 11.5308 0.136903 11.2985 0.17973 10.854C0.202225 10.6208 0.24051 10.615 0.257382 10.5572C0.436045 10.4995 0.711826 10.6186 0.887461 10.6444C1.10592 10.6755 1.30038 10.5797 1.50846 10.5325C1.60038 10.512 1.69534 10.5109 1.78813 10.4889C2.14027 10.4047 2.43962 10.3889 2.85341 10.5421C3.34246 10.7227 3.60331 10.6271 4.20203 10.9472C4.7311 11.2295 5.31662 11.032 5.32852 10.9727C5.41396 10.8704 5.17603 10.7601 5.06528 10.7073C4.68459 10.5261 4.73802 10.578 4.50182 10.3359C4.42547 10.2572 4.32792 10.2185 4.23729 10.1579C3.70865 9.80362 2.99746 9.79583 1.60038 9.51616C1.39165 9.47441 1.30319 9.22567 1.12777 9.11233C0.894167 8.96113 0.756817 8.74137 0.629416 8.50042C0.630714 8.48614 0.622711 8.47035 0.609733 8.4617C0.694739 8.179 0.894167 7.97265 1.07434 7.74315C1.27658 7.48489 1.35294 7.15806 1.53268 6.88726C1.60947 6.77111 1.63067 6.63549 1.72173 6.52474C1.99578 6.1925 2.0492 6.30087 2.27589 6.00908C2.35851 5.90266 2.46558 5.8116 2.54583 5.70453C2.9423 5.87714 2.84021 6.33634 3.66042 6.65387C3.91089 6.75121 4.19122 6.84421 4.39648 7.02115C5.49096 7.96356 5.86321 7.58396 6.61139 8.16234C6.89323 8.38015 7.20145 8.86618 7.59252 8.85298C7.72014 8.86813 7.80904 8.83568 7.91329 8.76798C7.91221 8.76495 7.91048 8.76192 7.90918 8.75911C7.90918 8.75911 7.88323 8.70677 7.88258 8.70525C7.88236 8.70525 7.88193 8.70525 7.88193 8.70525C7.68164 8.31959 7.55121 8.26984 7.32323 7.69254C7.29835 7.65858 7.27391 7.62397 7.24817 7.59066C6.869 7.09015 6.12082 6.81956 5.38021 6.32012C5.27855 6.25134 5.19311 6.15984 5.09967 6.08089C4.84552 5.86676 4.61624 5.76704 4.27903 5.32579C3.95999 4.81771 3.85163 4.7459 3.8194 4.54712C3.80858 4.4805 3.88126 4.2828 4.0264 4.18417C4.1326 4.11192 4.23296 4.02951 4.34392 3.96484C4.56476 3.83614 4.67183 3.62698 4.85785 3.46389C5.23616 3.13274 5.70682 3.11738 5.86299 2.97332C5.94259 2.89956 6.04295 2.87123 6.1312 2.81802C6.1338 2.8178 6.13661 2.81672 6.14029 2.81413C6.1537 2.80439 6.16689 2.80158 6.17922 2.79985C6.28564 3.39338 6.73425 4.47163 7.09741 4.83458C7.29338 5.03011 7.51379 5.19969 7.70673 5.39696C7.84992 5.54339 8.05237 5.63856 8.21611 5.76142C8.76421 6.17196 8.49211 6.57081 8.93076 7.0895C9.04043 7.21906 9.19768 7.41633 9.37634 7.43536C9.40057 7.46283 9.44794 7.46737 9.46762 7.42736C9.47908 7.41633 9.48514 7.40075 9.486 7.38561C9.51737 7.31293 9.55306 7.24285 9.57858 7.1678C9.61232 7.0709 9.59913 6.95864 9.60951 6.85849C9.6372 6.60218 9.66813 6.353 9.67981 6.09517C9.70987 5.44065 9.82235 5.60958 9.47195 4.58519C9.13906 3.61141 8.17523 2.8377 8.50098 1.71187C9.28268 1.93833 9.55544 1.69781 9.81262 1.5637C9.92293 1.50617 10.0551 1.49449 10.1719 1.4536C10.1468 1.56651 10.1511 1.6924 10.1457 1.80336C10.1265 2.18967 10.2982 2.71074 10.4464 3.04708C10.5227 3.22099 10.6099 3.33822 10.7343 3.48292C11.1827 4.00356 11.5925 4.96674 11.6721 5.371C11.7437 5.73482 11.7323 5.86546 11.7838 5.8912C11.7976 5.92235 11.8248 5.94052 11.8608 5.90634C12.1474 5.63921 12.105 5.64029 12.2468 5.30979C12.3587 5.05023 12.4104 4.77293 12.4521 4.49499C12.5397 3.91206 12.3535 3.33043 12.4357 2.75356C12.4556 2.61513 12.4945 2.47821 12.5196 2.34043C12.5462 2.19876 12.5414 2.05405 12.5652 1.91173C12.6124 1.62837 12.838 1.39412 13.0169 1.1828C13.2256 0.935784 13.4912 0.811845 13.7988 0.73203C14.3114 0.59879 14.4375 0.665194 14.6186 0.728137C14.659 0.998944 14.1899 3.08342 14.975 3.8608C14.9757 3.86188 14.9772 3.8621 14.9774 3.86253C14.9917 3.90449 15.0561 3.89173 15.0728 3.85107C15.168 3.62049 15.2939 3.40484 15.3901 3.17491C15.9252 1.89356 15.4386 0.963903 16.7993 0.696125C17.6656 0.525681 18.3489 0.700451 18.9251 0.0891891C18.8993 0.201232 18.8894 0.313059 18.8477 0.424885C18.5158 1.31647 17.7841 2.33416 17.3621 2.9757C16.694 3.99079 16.1443 4.32217 15.7087 4.71972C14.1222 6.16655 14.5336 5.66993 13.8007 6.29373C12.6083 7.30969 10.2552 8.86315 8.50184 10.0398C7.30852 10.8408 6.35053 11.9642 5.56039 13.0784C4.78928 14.1651 4.15618 15.3087 3.40302 17.2878ZM2.46926 5.65089C2.46969 5.65262 2.46991 5.6537 2.46991 5.65543C2.46991 5.65543 2.46926 5.65565 2.46904 5.65608C2.46926 5.65435 2.46926 5.65262 2.46926 5.65089ZM19.9244 8.36977C19.7749 8.15023 19.4234 8.17143 19.2764 8.14807C18.5239 8.0278 18.5541 8.18397 17.3757 8.04056C17.1153 8.00899 16.8642 7.95405 16.6232 7.85044C16.495 7.79528 16.3628 7.76586 16.2371 7.69795C16.0591 7.60169 15.5011 7.39837 15.4548 7.38366C15.4048 7.36809 15.3477 7.36441 15.2969 7.35468C15.0996 7.31726 15.0737 7.15742 14.5548 7.17061C14.723 7.08517 14.8697 6.98048 15.068 6.93895C15.1954 6.91235 15.3343 6.93095 15.4634 6.93268C16.5904 6.94869 18.2085 7.65252 19.1329 7.65144C19.4325 7.65144 19.9099 7.41222 19.9051 7.06333C19.9694 6.75229 19.7896 6.44774 19.8422 5.92321C19.8567 5.78262 19.9058 5.6457 19.9259 5.50532C19.9441 5.49472 19.9523 5.45947 19.9296 5.44865C19.752 5.36192 19.4542 5.48304 19.2692 5.51614C18.9125 5.57865 18.7066 5.31974 18.4529 5.13091C17.9935 4.78872 17.4142 4.81338 17.2049 4.87221C17.366 4.74525 17.5341 4.64532 17.7497 4.6053C18.0123 4.5562 18.2414 4.54885 18.5022 4.60898C19.2963 4.7924 19.7139 4.52916 19.7788 4.29426C19.9283 4.15129 19.789 3.79829 19.7496 3.64212C19.6393 3.20174 19.3973 2.81542 19.2982 2.37115C19.2175 2.00798 19.3229 1.63876 19.2389 1.27927C19.197 1.10039 19.0966 0.939029 19.0572 0.759284C19.0038 0.515947 19.0021 0.264175 18.9761 0.0169451C18.9738 -0.00360333 18.9584 -0.00295443 18.9456 0.00569754C18.9344 7.3758e-05 18.9192 0.000722653 18.9095 0.0108887C18.4114 0.51811 17.8708 0.390061 17.3364 0.429428C16.8503 0.465117 16.3494 0.506863 15.9696 0.846885C15.5843 1.19123 15.5668 1.74539 15.5223 2.21995C15.4543 2.95169 15.11 3.52359 15.0135 3.73772C14.9545 3.56663 14.8461 3.50239 14.7334 3.12041C14.6408 2.80634 14.6324 2.49033 14.6136 2.16696C14.5965 1.87431 14.6365 1.59204 14.6564 1.30155C14.696 0.722946 14.7092 0.921509 14.6553 0.699802C14.6597 0.683363 14.6584 0.66368 14.6512 0.653298C14.5314 0.480691 14.2316 0.512054 14.0482 0.526113C13.7679 0.547743 13.4633 0.634479 13.2336 0.799732C12.8508 1.07573 12.4653 1.54683 12.4229 2.0322C12.3963 2.33957 12.3111 2.63546 12.2862 2.94174C12.251 3.38126 12.596 4.9304 11.8467 5.7253C11.846 5.7253 11.845 5.72573 11.8443 5.72595C11.8437 5.42075 11.7249 5.08419 11.6142 4.81663C11.5235 4.59687 11.3036 3.99534 11.0749 3.73059C10.9564 3.59324 10.8602 3.43966 10.7384 3.30404C10.5744 3.12127 10.4823 2.908 10.4107 2.67332C10.2716 2.21909 10.1743 1.90264 10.266 1.41034C10.2705 1.40753 10.2751 1.40494 10.2794 1.40213C10.3008 1.38807 10.3036 1.3554 10.2824 1.33983C9.86907 1.04718 9.69106 1.63681 8.84381 1.60004C8.72442 1.59463 8.41641 1.52239 8.43825 1.66168C7.83088 2.67332 8.90113 3.60773 9.43799 4.89146C9.57188 5.19861 9.67051 5.52176 9.64563 5.84059C9.62379 6.11788 9.59502 6.38869 9.53792 6.66101C9.46459 7.00795 9.54722 6.98221 9.39105 7.32202C9.21541 7.20954 9.06768 7.06895 8.93704 6.9037C8.77222 6.69497 8.74972 6.44601 8.67164 6.20332C8.52953 5.76315 8.13197 5.47742 7.82115 5.15859C7.40715 4.7353 7.17052 4.69788 6.83829 4.01199C6.64708 3.61703 6.4297 3.07996 6.38189 2.97397C6.3196 2.83554 6.29948 2.56235 6.1935 2.69841C6.19717 2.69084 6.19804 2.68521 6.18398 2.69733C6.07929 2.68954 5.97828 2.75291 5.88657 2.79682C5.83206 2.82278 5.79096 2.86734 5.74381 2.90259C5.68195 2.94866 5.59976 2.95753 5.5273 2.97873C4.73067 3.2132 4.57147 3.50131 4.42979 3.65315C4.27363 3.81905 3.63965 4.08835 3.72314 4.58043C3.72466 4.59081 3.7292 4.59946 3.73526 4.60638C3.77419 4.84193 3.8884 4.91266 4.15812 5.32947C4.20938 5.40907 4.28141 5.51203 4.36663 5.57086C4.60629 5.84513 4.81546 5.95522 5.06355 6.16417C5.25909 6.32942 5.45332 6.48364 5.67806 6.60996C6.12818 6.86303 6.67238 7.07695 7.0163 7.47494C7.17441 7.65728 7.30679 7.90538 7.42121 8.11778C7.51984 8.30077 7.70262 8.4909 7.74934 8.69963C7.37752 8.6475 7.33361 8.6302 7.01392 8.29666C6.1524 7.39837 5.89565 7.78685 4.97617 7.2262C4.74408 7.08452 4.57017 6.88618 4.36123 6.71725C4.28812 6.65798 4.19295 6.62272 4.10708 6.5879C3.95934 6.52777 3.81723 6.45509 3.6682 6.39777C2.98232 6.13324 2.96177 5.54642 2.54064 5.57129C2.52225 5.57259 2.50646 5.58189 2.49651 5.59617C2.47704 5.60482 2.46904 5.62645 2.46926 5.64765C2.46774 5.62969 2.45563 5.61455 2.46839 5.65608C2.3252 5.72595 2.20689 5.90483 2.13854 5.98724C2.07083 6.06943 1.98367 6.08479 1.9045 6.1434C1.66527 6.32012 1.50132 6.53815 1.38863 6.81177C1.32568 6.96361 1.2264 7.09577 1.16605 7.2528C1.09078 7.44855 0.997125 7.635 0.871671 7.80372C0.716585 8.01309 0.522564 8.27893 0.543546 8.54C0.544194 8.54952 0.54852 8.55319 0.553928 8.55363C0.599783 8.71672 0.728698 8.89105 0.828195 9.01694C0.895248 9.10151 0.974414 9.15624 1.06418 9.21247C1.17968 9.2845 1.23614 9.38681 1.31011 9.49431C1.58524 9.89317 3.51809 9.88062 4.42504 10.5005C4.51329 10.5609 4.59851 10.6251 4.68935 10.6809C4.91084 10.8172 5.07783 10.8436 5.18576 10.9526C4.40752 11.0605 4.2706 10.83 3.94788 10.6961C3.72682 10.6039 3.47527 10.5864 3.24209 10.5451C2.88542 10.4811 2.64749 10.2797 2.04228 10.3383C1.83399 10.3582 1.62418 10.3578 1.41761 10.3798C1.13923 10.4093 1.15848 10.5036 0.711394 10.4292C0.547655 10.4019 0.359691 10.3855 0.216285 10.478C0.194439 10.4791 0.173674 10.4895 0.16048 10.5066C0.0170732 10.6924 -0.0164532 10.9212 0.00669082 11.1561C0.0213992 11.3091 0.0387031 11.452 0.0865052 11.5985C0.252623 12.1076 0.139715 11.9982 0.212391 12.5634C0.24635 12.8255 0.567122 13.3453 0.618169 13.4392C0.678733 13.5499 0.771309 13.6438 0.822572 13.7589C0.827546 13.7705 0.837712 13.7781 0.849393 13.7827C0.852421 13.7857 0.85653 13.7881 0.860856 13.7898C0.863236 13.7963 0.868211 13.8017 0.876646 13.8039C1.23851 13.8975 1.53225 13.5796 2.01222 13.2588C2.23782 13.108 2.64273 12.946 2.76451 12.9962C2.81945 13.0187 2.90597 12.967 2.95593 12.9713C2.85427 13.078 2.83221 13.1372 2.57697 13.2233C2.39096 13.286 2.19867 13.3206 2.0399 13.4446C1.85064 13.5923 1.63002 13.9029 1.61033 14.164C1.57205 14.2064 1.55561 14.2801 1.5913 14.3013C1.73233 14.3848 1.91358 14.369 2.07083 14.3656C2.28043 14.3617 2.49954 14.3327 2.6875 14.2336C3.16942 13.9799 3.45104 13.8865 3.70454 13.7481C3.88191 13.6512 4.02964 13.5434 4.23729 13.5313C4.38134 13.5227 4.97206 13.4249 4.83968 13.7517C4.40384 14.1934 3.50425 16.3296 3.46294 16.5753C3.42898 16.7721 3.32861 16.9616 3.3165 17.1597C3.3098 17.2588 3.28254 17.3345 3.2475 17.4254C3.21008 17.522 3.20468 17.6468 3.18153 17.7496C3.15298 17.8792 3.12724 18.007 3.08549 18.1335C3.063 18.2012 3.05391 18.2534 3.06949 18.3223C3.07749 18.3593 3.12594 18.3327 3.13416 18.3105C3.13979 18.294 3.14454 18.278 3.14995 18.2618C3.27843 18.2473 3.60331 17.1651 3.80274 16.7088C4.13303 15.9539 4.48257 15.2221 4.89722 14.5269C5.01012 14.4357 5.16089 14.3643 5.26817 14.4763C5.41807 14.634 5.25649 15.0616 5.23421 15.2498C5.14834 15.972 5.28201 16.9895 5.60711 17.7691C5.6932 18.0595 5.84244 18.3539 6.17598 18.6805C6.25428 18.7569 6.58933 19.1583 6.68515 18.9689C6.7111 18.9611 6.73425 18.9369 6.74982 18.92C6.7602 18.9087 6.77642 18.8997 6.79178 18.8895C6.85581 18.8733 6.89561 18.8229 6.91767 18.7582C6.9672 18.6801 7.015 18.5821 6.96374 18.5045C6.95444 18.4684 6.9393 18.4379 6.92113 18.4065C6.89387 18.2923 6.78075 18.0762 6.77578 17.8437C6.7788 17.6427 6.84196 17.5058 6.85689 17.3304C6.91442 17.5714 7.03317 17.6391 7.10953 17.8177C7.24082 18.124 7.53801 18.2508 7.74912 18.4818C8.26089 19.0426 8.18886 19.6699 8.20162 19.8812C8.20854 19.9894 8.19297 20.0716 8.2704 20.1596C8.29593 20.1881 8.342 20.2074 8.38136 20.1994C8.53256 20.2902 8.90892 20.4438 9.18557 20.5119C9.7261 20.542 10.266 20.7574 10.935 20.6006C11.0088 20.5833 11.1937 20.5779 11.2395 20.5111C11.3116 20.404 11.1095 20.2859 11.0421 20.2232C10.7674 19.9675 10.5312 19.6009 10.3456 19.2728C10.1741 19.0353 10.1144 18.9012 9.92185 18.3689C9.83143 18.1179 9.36553 16.6512 8.84922 16.3032C9.79964 16.378 10.5 16.8018 11.6438 17.7457C12.3219 18.3055 12.4969 19.0428 13.2128 19.605C13.4034 19.7547 13.5628 19.8085 13.794 19.8181C13.8248 19.8464 13.9409 19.7796 14.683 19.5044C14.8219 19.4529 15.1353 19.3011 15.5731 18.9695C15.7111 18.8646 15.798 18.7195 15.898 18.5808C16.0178 18.4156 16.1415 18.254 16.2618 18.0887C16.3665 17.9445 16.461 17.8006 16.5845 17.6706C16.6475 17.6045 16.7266 17.5283 16.7798 17.4561C16.8114 17.413 16.9161 17.2995 16.9762 17.2841C17.0143 17.2739 17.0437 17.1736 16.9868 17.1838C16.3991 16.9209 15.6644 16.7529 14.7261 16.0607C12.1789 14.1819 13.8211 15.2451 11.6936 13.7868C11.346 13.5482 11.328 13.3927 10.7801 13.1554C9.40662 12.561 9.64282 12.7535 9.05319 12.5318C8.77827 12.4284 8.87215 12.4368 8.58382 12.3765C8.74518 12.1864 9.30323 11.9781 9.64585 11.9236C10.0845 11.8535 10.556 11.9502 10.9739 12.0838C11.392 12.2167 11.7154 12.5621 12.0342 12.8472C12.3442 13.1247 12.6849 13.3641 12.9859 13.6516C13.6028 14.2408 14.3337 14.7294 15.0386 15.2087C15.8435 15.7553 16.8696 15.9061 17.0474 15.8509C17.0524 15.8589 17.0615 15.8643 17.0777 15.8619C17.217 15.8438 17.3223 15.7475 17.4222 15.6558C17.5477 15.5397 17.66 15.4278 17.7564 15.2862C17.8514 15.1475 17.9639 15.0166 18.0149 14.8538C18.0778 14.6537 18.1966 14.4599 18.3404 14.3078C18.8258 13.7915 19.1926 13.1314 19.2381 12.4098C19.2405 12.3741 19.1994 12.3681 19.1818 12.3953C19.1795 12.3994 19.1775 12.4038 19.1747 12.4079C18.8197 12.5236 18.473 12.3921 18.149 12.2359C17.8031 12.0694 17.4912 11.863 17.186 11.6313C16.9059 11.4183 16.5888 11.2827 16.2962 11.09C16.0029 10.897 15.7496 10.6853 15.4234 10.5427C14.9787 10.348 14.5729 9.82201 12.3109 9.34247C12.2414 9.32755 12.1735 9.31587 12.1052 9.29661C12.0301 9.2752 11.9079 9.2845 12.0005 9.1889C12.4902 9.00288 12.3569 9.05003 12.9115 9.01456C13.2511 8.99271 13.6097 9.10476 13.9182 9.23648C13.9543 9.25184 15.9936 10.1469 16.5966 10.3346C16.9299 10.438 17.2726 10.5531 17.5845 10.7088C17.8464 10.8399 18.1129 11.0222 18.399 11.0869C18.5909 11.13 18.7789 11.1639 18.9517 11.2639C19.0283 11.308 19.0832 11.345 19.1727 11.3171C19.2074 11.3067 19.2141 11.2844 19.2218 11.2522C19.3265 11.1462 19.4877 10.7523 19.527 10.6057C19.6056 10.313 19.508 10.3788 19.7483 9.58451C19.794 9.43461 20.1532 8.47014 19.9244 8.36977Z" fill="#3F543F"/>
<path d="M7.8376 17.6627C7.72145 17.542 7.64596 17.3659 7.5549 17.2297C7.42296 17.0341 7.32627 16.8217 7.21293 16.6156C7.03059 16.2821 6.93866 15.8698 6.89865 15.4882C7.0254 15.6087 7.12382 15.7597 7.21466 15.9072C7.47033 16.3253 7.72448 16.504 7.80494 17.1059C7.81878 17.2091 7.83522 17.311 7.84431 17.4144C7.84734 17.4483 7.84842 17.5749 7.8376 17.6627ZM7.34898 15.9416C7.20623 15.7359 7.09548 15.5161 6.88805 15.3643C6.85582 15.3405 6.81645 15.4091 6.84241 15.437C6.81754 15.8477 6.94104 16.3206 7.12641 16.682C7.22699 16.8788 7.31762 17.0828 7.4394 17.2669C7.55793 17.446 7.65656 17.6789 7.82679 17.8148C7.84993 17.8329 7.88476 17.8018 7.89471 17.7832C7.96306 17.6577 7.94532 17.449 7.93277 17.3108C7.86183 16.5602 7.61654 16.3268 7.34898 15.9416Z" fill="#3F543F"/>
<path d="M8.33529 18.3604C8.29636 18.3301 8.26499 18.2423 8.24379 18.2122C8.18583 18.1317 8.06275 18.0301 8.15317 17.795C8.25288 17.6892 8.20162 17.7366 8.25331 17.7359C8.30133 17.735 8.32685 17.7926 8.3461 17.8268C8.39456 17.9131 8.39412 18.0058 8.39412 18.1025C8.39412 18.1661 8.37141 18.2799 8.33529 18.3604ZM8.0727 17.7722C8.03442 17.8043 8.00284 17.8272 7.99094 17.9254C7.9732 18.074 8.00781 18.1499 8.07422 18.278C8.11293 18.3526 8.19167 18.5077 8.28684 18.5265C8.35627 18.5408 8.43392 18.4811 8.43457 18.4101C8.43457 18.2957 8.50422 18.2883 8.46226 17.9881C8.44776 17.8817 8.4177 17.7828 8.35173 17.6965C8.25288 17.5668 8.11899 17.6511 8.0727 17.7722Z" fill="#3F543F"/>
<path d="M15.1612 13.8879C15.4264 14.0063 15.7344 14.0422 15.9633 14.2345C16.0595 14.3156 16.1396 14.3865 16.252 14.4464C16.3327 14.4895 16.5486 14.5511 16.6351 14.6443C16.6353 14.6517 16.6366 14.6597 16.6403 14.6673C16.6444 14.6813 16.6494 14.6826 16.6552 14.6716C16.6552 14.6716 16.6554 14.6718 16.6559 14.6722C16.6487 14.7082 16.6559 14.7341 16.6686 14.7787C16.6654 14.7968 16.6714 14.8055 16.6745 14.8254C16.573 14.9351 16.2698 14.8005 16.1735 14.7704C16.0052 14.7181 15.8229 14.6904 15.6499 14.6584C15.1736 14.5706 15.1757 14.4635 14.8044 14.2896C14.6808 14.2316 14.5496 14.1981 14.4282 14.1358C14.2296 14.0348 14.1619 13.8793 13.7862 13.3937C13.7607 13.3604 13.7332 13.3232 13.7218 13.2819C14.4059 13.3013 14.579 13.6288 15.1612 13.8879ZM14.0415 13.9883C14.3049 14.3443 14.7371 14.4097 15.0706 14.6753C15.3031 14.8606 15.5595 14.828 16.3241 14.9967C16.6831 15.0759 16.8229 14.892 16.7783 14.7469C16.7811 14.7399 16.7835 14.7322 16.7837 14.7226C16.801 14.4696 16.4173 14.3973 16.2456 14.3086C15.9882 14.1767 16.0794 14.0718 15.3667 13.8211C15.007 13.6941 14.7408 13.4393 14.4113 13.2607C14.226 13.1601 13.9294 13.0965 13.712 13.17C13.6904 13.1415 13.6463 13.1729 13.6346 13.2044C13.621 13.2129 13.6147 13.228 13.6147 13.2432C13.5693 13.3831 13.6255 13.4246 14.0415 13.9883Z" fill="#3F543F"/>
<path d="M16.4705 9.67611C16.467 9.66789 16.4614 9.6627 16.4499 9.66573C16.3864 9.68303 16.3046 9.71093 16.2401 9.69406C16.185 9.68 16.1969 9.66854 16.1787 9.65426C16.1742 9.64345 16.1666 9.6348 16.1547 9.6322C16.1402 9.62874 16.1257 9.51086 16.122 9.49572C16.1039 9.45202 16.1227 9.42066 16.1789 9.40184C16.358 9.50567 16.5179 9.35577 16.6505 9.51064C16.7201 9.59175 16.5737 9.64756 16.4705 9.67611ZM16.5888 9.35707C16.4876 9.31294 16.3758 9.3655 16.2732 9.34431C16.2032 9.3296 16.1486 9.25346 16.0868 9.33154C16.0262 9.40725 16.0362 9.48944 16.0463 9.58094C16.0504 9.61598 16.0626 9.71093 16.0907 9.73213C16.1201 9.76025 16.1134 9.76241 16.1052 9.73775C16.1086 9.74814 16.1201 9.76111 16.1324 9.76241C16.1318 9.76328 16.1346 9.76479 16.1456 9.76544C16.2176 9.7702 16.2466 9.81887 16.3634 9.77842C16.4766 9.77712 16.5983 9.74013 16.671 9.67222C16.7872 9.5632 16.7208 9.41504 16.5888 9.35707Z" fill="#3F543F"/>
<path d="M18.2232 10.1724C17.9762 10.162 17.6814 10.2239 17.5002 10.0277C17.4229 9.94528 17.3284 9.87758 17.2261 9.83108C17.1301 9.78738 17.1681 9.68832 17.2298 9.60115C17.2395 9.60396 17.2503 9.60266 17.259 9.59509C17.4478 9.43525 17.588 9.6801 17.9652 9.77332C18.1573 9.82026 18.392 9.69286 18.4257 10.0236C18.4385 10.1549 18.3243 10.1772 18.2232 10.1724ZM17.8436 9.6178C17.5798 9.52826 17.392 9.28427 17.2423 9.49192C16.9603 9.68637 16.9434 9.86114 17.0736 9.94182C17.4465 10.1724 17.3894 10.3232 17.8538 10.316C18.3102 10.3091 18.3558 10.3268 18.4339 10.2797C18.5468 10.2111 18.5784 10.0705 18.5507 9.9455C18.4646 9.55681 18.151 9.72206 17.8436 9.6178Z" fill="#3F543F"/>
<path d="M16.7208 1.4675C16.7731 1.36649 16.9053 1.1132 17.018 1.10542C17.0093 1.12661 17.013 1.15322 17.0377 1.16101C17.2442 1.22828 17.2263 1.47399 17.1281 1.63254C17.002 1.83651 16.9524 1.77616 16.6673 2.32708C16.6455 2.3686 16.6232 2.40949 16.6003 2.44993C16.5886 2.49363 16.5774 2.49341 16.567 2.44907C16.5343 2.40083 16.5095 2.35065 16.4638 2.31258C16.3991 2.25937 16.3295 2.22888 16.3334 2.13089C16.3405 1.98554 16.5819 1.73723 16.7208 1.4675ZM16.3355 2.41641C16.4061 2.46637 16.4459 2.52629 16.4991 2.59161C16.5391 2.64114 16.5856 2.62492 16.6297 2.5994C16.7363 2.53753 16.7768 2.26932 16.9948 1.93601C17.1147 1.75237 17.2788 1.63146 17.2782 1.39656C17.278 1.29533 17.2671 1.17377 17.2068 1.11147C17.1947 1.08314 17.1802 1.05459 17.1631 1.02539C17.0716 0.869435 16.8551 1.08184 16.795 1.15279C16.6312 1.34637 16.53 1.58971 16.3708 1.79C16.2521 1.94012 16.1177 2.15512 16.2386 2.33746C16.2557 2.3632 16.3115 2.3991 16.3355 2.41641Z" fill="#3F543F"/>
<path d="M3.95692 8.12095C3.91345 8.22866 3.8425 8.21093 3.7668 8.14452C3.62598 8.02102 3.49015 7.92239 3.32425 7.83392C3.18019 7.7567 3.04219 7.65482 2.88732 7.59923C2.70563 7.5337 2.38681 7.46881 2.35652 7.23153C2.32494 6.97802 2.75235 6.85041 2.91198 6.95574C3.22021 7.15842 3.0476 7.1396 3.5187 7.34184C3.62988 7.38921 3.72202 7.50276 3.81633 7.57804C3.8903 7.63774 3.96471 7.69549 4.03328 7.76146C4.15592 7.87999 3.99759 8.01994 3.95692 8.12095ZM3.93702 7.54754C3.49945 7.19302 3.15532 7.00766 3.1192 7.00117C3.01278 6.92114 2.92669 6.8424 2.80751 6.80239C2.6481 6.74875 2.38205 6.88783 2.27909 7.00398C2.14715 7.15236 2.19733 7.35417 2.3111 7.4913C2.49625 7.71409 2.86266 7.73831 3.10449 7.87091C3.22497 7.93688 3.35604 7.98425 3.4722 8.05779C3.58878 8.13068 3.69412 8.2185 3.80681 8.29658C4.01143 8.43804 4.04063 8.13804 4.14532 7.99247C4.27791 7.80796 4.06399 7.65006 3.93702 7.54754Z" fill="#3F543F"/>
<path d="M5.28072 8.76819C5.00839 8.61419 4.61257 8.61116 4.59375 8.4418C4.58272 8.34446 4.57385 8.24799 4.55936 8.15066C4.60629 8.08663 4.84011 8.18635 4.88013 8.20019C5.15591 8.29536 5.37481 8.47338 5.44554 8.77295C5.48231 8.92955 5.34669 8.80561 5.28072 8.76819ZM5.22318 8.25837C5.10357 8.13552 4.89159 8.1048 4.73737 8.05073C4.47825 7.95988 4.43996 8.15671 4.5055 8.29168C4.49771 8.40567 4.48971 8.52464 4.54724 8.61657C4.64761 8.77728 5.08042 8.7803 5.3456 8.93799C5.37654 8.95616 5.46003 9.01758 5.49745 8.99466C5.60603 8.9289 5.52362 8.77966 5.50221 8.68751C5.465 8.52853 5.33349 8.37215 5.22318 8.25837Z" fill="#3F543F"/>
<path d="M5.97876 9.10629C5.97573 9.00917 6.0376 8.89626 6.13536 8.86555C6.24676 8.83051 6.44229 9.05243 6.30862 9.12165C6.2699 9.14176 6.21647 9.14025 6.17473 9.15171C6.11395 9.16815 6.01856 9.1887 5.97162 9.13246C5.97638 9.12533 5.97941 9.11689 5.97876 9.10629ZM5.88056 9.13744C5.88986 9.17118 5.91214 9.20254 5.95108 9.22872C6.03089 9.28193 6.14596 9.25705 6.2301 9.23369C6.30429 9.21314 6.39514 9.21466 6.4358 9.13441C6.51929 8.96916 6.32506 8.79547 6.17538 8.77665C5.96795 8.75113 5.79426 9.05762 5.88056 9.13744Z" fill="#3F543F"/>
<path d="M8.93987 9.01376C8.82502 8.70164 8.74066 8.38671 8.60331 8.08281C8.47202 7.79102 8.31044 7.49707 8.09479 7.25914C7.86249 7.0024 7.6622 6.72142 7.41691 6.47506C7.1805 6.23799 6.92375 6.02234 6.68409 5.78982C6.4347 5.54735 6.20758 5.26638 6.0101 4.98065C5.64261 4.44812 5.32746 3.89309 5.02832 3.32033C5.03913 3.29546 5.03221 3.27318 4.98852 3.27145C4.98246 3.27123 4.97684 3.27123 4.97078 3.2708C4.9193 3.26886 4.84555 3.32401 4.86696 3.37982C4.97078 3.65019 5.11549 3.90672 5.25608 4.15871C5.41593 4.44336 5.6212 4.69189 5.80008 4.96269C6.16519 5.5162 6.65446 5.93756 7.14286 6.37599C7.39636 6.60354 7.62391 6.85596 7.83415 7.12352C7.94187 7.26044 8.063 7.38568 8.16769 7.52541C8.26026 7.64827 8.32364 7.78929 8.40475 7.91886C8.58601 8.20762 8.69524 8.55694 8.78003 8.88485C8.86504 9.216 8.99395 9.53137 8.96042 9.87658C8.95696 9.88264 8.95502 9.88913 8.95502 9.89518C8.95502 9.90729 8.95502 9.91941 8.95502 9.93152C8.95502 9.98408 9.05906 9.9352 9.06446 9.89713C9.10578 9.60058 9.04283 9.29409 8.93987 9.01376Z" fill="#3F543F"/>
<path d="M13.8591 0.647608C13.7557 0.838817 13.6988 1.06658 13.6311 1.2725C13.547 1.52924 13.4345 1.78404 13.3815 2.04966C13.2818 2.54347 13.2987 3.05091 13.3605 3.55099C13.4282 4.10364 13.5924 4.6379 13.6164 5.19552C13.6274 5.45464 13.6052 5.71009 13.6045 5.96727C13.6045 6.06655 13.5874 6.16389 13.5844 6.26317C13.5809 6.35639 13.5662 6.57507 13.4726 6.63477C13.4293 6.66159 13.4585 6.71956 13.5063 6.70334C13.6506 6.65381 13.6573 6.49461 13.6765 6.36569C13.7103 6.13361 13.7272 5.88854 13.7263 5.65429C13.7256 5.36683 13.7261 5.08088 13.6988 4.79428C13.6688 4.48 13.5641 4.17977 13.5292 3.86636C13.4975 3.58949 13.4851 3.31241 13.4665 3.03447C13.4481 2.7615 13.4436 2.4589 13.5178 2.19307C13.5907 1.93178 13.6603 1.67611 13.7499 1.41872C13.8344 1.17733 13.9344 0.918415 13.9666 0.664696C13.9742 0.607809 13.8805 0.608458 13.8591 0.647608Z" fill="#3F543F"/>
<path d="M19.7546 6.29058C19.5571 6.40673 19.2727 6.31005 19.0546 6.29534C18.7732 6.27674 18.4838 6.29664 18.2013 6.29685C18.0806 6.29729 17.9658 6.28409 17.8473 6.2616C17.7274 6.2391 17.5979 6.25446 17.4754 6.2324C17.2103 6.18416 16.942 6.16296 16.676 6.11949C16.4283 6.07926 16.1878 6.05871 15.9373 6.04357C15.6533 6.02626 15.3739 5.94385 15.0892 5.94126C14.6923 5.9378 14.2491 6.02843 14.0047 6.37905C13.9967 6.39094 13.9984 6.44026 14.0214 6.42317C14.1881 6.29902 14.3761 6.17789 14.5747 6.11192C14.8115 6.03318 15.081 6.03989 15.3259 6.08185C15.5809 6.12598 15.8383 6.16102 16.0976 6.1701C16.3604 6.1794 16.6178 6.2404 16.8787 6.26873C17.1346 6.2962 17.3859 6.36023 17.6409 6.38316C17.9087 6.40738 18.1724 6.42425 18.4421 6.42447C18.68 6.4249 18.9236 6.40868 19.1595 6.44134C19.3391 6.46557 19.5802 6.52115 19.7423 6.41538C19.7455 6.41452 19.749 6.41279 19.7526 6.40976C19.7591 6.40435 19.7648 6.39959 19.7712 6.39462C19.8011 6.37039 19.8091 6.25857 19.7546 6.29058Z" fill="#3F543F"/>
<path d="M18.0268 14.0518C17.8473 13.8945 17.6481 13.7608 17.4536 13.6244C17.0271 13.3254 16.6434 12.9865 16.2486 12.6486C15.8896 12.3408 15.4793 12.1531 15.078 11.9102C14.653 11.6519 14.2323 11.4237 13.7776 11.2213C13.2959 11.0065 12.816 10.7869 12.3213 10.6033C11.8532 10.4292 11.3382 10.3444 10.8459 10.2704C10.345 10.1954 9.83947 10.1858 9.33354 10.2014C8.83151 10.2168 8.37274 10.3684 7.92305 10.5858C7.87525 10.6089 7.90835 10.6935 7.96004 10.6779C8.16466 10.6167 8.36257 10.5406 8.56525 10.4733C8.81832 10.3892 9.06901 10.3541 9.33462 10.3418C9.82843 10.3184 10.3248 10.3316 10.8145 10.3987C11.2668 10.4601 11.7275 10.5464 12.1632 10.6829C12.6444 10.8341 13.0997 11.064 13.5615 11.2643C14.0082 11.4577 14.4386 11.6621 14.852 11.9193C15.2245 12.1505 15.6255 12.3328 15.975 12.5987C16.3369 12.8738 16.6518 13.2062 17.013 13.484C17.2014 13.6293 17.3987 13.7626 17.5929 13.8999C17.6794 13.9609 17.7642 14.0245 17.8497 14.087C17.9022 14.1253 18.1244 14.2583 18.1304 14.3401C18.1341 14.3939 18.2122 14.4125 18.2237 14.3528C18.2492 14.2196 18.1146 14.1288 18.0268 14.0518Z" fill="#3F543F"/>
<path d="M15.5035 18.8782C15.4059 18.9167 15.3019 18.766 15.2448 18.7069C15.1706 18.6299 15.0893 18.5633 15.0064 18.4963C14.7921 18.3223 14.5747 18.1517 14.3599 17.9778C13.9362 17.6341 13.549 17.2569 13.1536 16.8818C12.3987 16.1669 11.5039 15.6033 10.7055 14.9381C10.3207 14.6178 9.92059 14.3368 9.47004 14.1177C9.01386 13.8962 8.54125 13.7288 8.06647 13.5549C7.60814 13.3873 7.14893 13.217 6.66291 13.15C6.41395 13.1156 6.16564 13.1463 5.91884 13.1831C5.73239 13.2105 5.54291 13.2378 5.4114 13.3832C5.34867 13.4528 5.44536 13.5687 5.5122 13.4945C5.66447 13.3267 5.98741 13.323 6.19895 13.2984C6.48251 13.2651 6.75592 13.3025 7.03256 13.3678C7.51751 13.4824 7.98904 13.668 8.461 13.8274C8.94724 13.9925 9.44062 14.1845 9.8836 14.4476C10.3158 14.7039 10.6906 15.0506 11.0858 15.3586C11.4974 15.6794 11.9127 15.9943 12.3271 16.3108C12.7474 16.6318 13.1251 16.9822 13.4962 17.3585C13.8466 17.7141 14.2297 18.0368 14.6143 18.3544C14.8234 18.527 15.0287 18.6976 15.2279 18.8813C15.3224 18.9684 15.4321 19.0541 15.5366 18.9416C15.5578 18.918 15.5403 18.864 15.5035 18.8782Z" fill="#3F543F"/>
<path d="M5.98883 12.6705C5.877 12.5041 5.68493 12.4053 5.51124 12.3157C5.30381 12.2093 5.09076 12.1074 4.8764 12.0157C4.39319 11.8092 3.84963 11.6489 3.32424 11.5978C3.08155 11.5743 2.81723 11.5812 2.57541 11.6117C2.32061 11.6433 2.07663 11.7348 1.82096 11.7694C1.56292 11.8044 1.30314 11.828 1.05094 11.8957C0.810627 11.9604 0.565776 12.0423 0.323737 12.0945C0.264039 12.1077 0.263173 12.1838 0.319411 12.1894V12.1901C0.321574 12.1901 0.323304 12.1898 0.325684 12.1894C0.328063 12.1898 0.330442 12.1898 0.333038 12.1894C0.338878 12.1892 0.344934 12.1888 0.350991 12.1881C0.352289 12.1877 0.353586 12.187 0.355317 12.1868C0.527707 12.1704 0.710696 12.0953 0.880059 12.0599C1.11323 12.0112 1.33645 11.9526 1.57308 11.9206C1.81166 11.8885 2.04245 11.8587 2.27541 11.7981C2.55032 11.7263 2.81659 11.7136 3.09972 11.7116C3.36923 11.7099 3.63052 11.762 3.89332 11.8172C4.15375 11.8721 4.40595 11.9316 4.65362 12.0302C4.87402 12.118 5.08232 12.224 5.29667 12.3235C5.51124 12.4224 5.77167 12.5264 5.90707 12.731C5.93865 12.7788 6.02279 12.7209 5.98883 12.6705Z" fill="#3F543F"/>
<path d="M11.4914 7.87228C11.4985 7.77062 11.5072 7.65014 11.4903 7.54913C11.4392 7.23982 11.4401 6.92316 11.3813 6.61623C11.2712 6.04131 11.0802 5.51203 10.8299 4.98382C10.5676 4.42902 10.2546 3.90665 9.95867 3.36937C9.66515 2.83705 9.4588 2.26559 9.41943 1.65368C9.41619 1.59701 9.33335 1.6035 9.32253 1.65325C9.27581 1.87279 9.34113 2.13257 9.38439 2.34995C9.44171 2.63157 9.57452 2.8961 9.68375 3.15999C9.79104 3.4189 9.98225 3.66094 10.13 3.89822C10.2909 4.15799 10.4298 4.43161 10.5732 4.70112C10.7105 4.95938 10.8377 5.23127 10.9498 5.50078C11.064 5.77223 11.1756 6.05624 11.2335 6.34435C11.2662 6.50527 11.3116 6.65863 11.3248 6.82367C11.3371 6.98178 11.3345 7.13968 11.3529 7.29823C11.3698 7.44315 11.391 7.58396 11.3897 7.73039C11.3884 7.83486 11.4012 7.96248 11.3765 8.0676C11.3376 8.09724 11.3376 8.16342 11.4053 8.16212C11.4109 8.16212 11.4174 8.16212 11.423 8.16169C11.4485 8.16148 11.4728 8.13812 11.4793 8.11476C11.5039 8.03061 11.4853 7.95815 11.4914 7.87228Z" fill="#3F543F"/>
<path d="M7.25709 11.2234C7.21297 10.9998 6.95752 10.7982 6.80805 10.6429C6.61079 10.4389 6.40011 10.2401 6.17841 10.0634C5.94005 9.87351 5.66881 9.73356 5.39605 9.60032C5.10513 9.45821 4.81615 9.31221 4.52177 9.17616C4.40605 9.1223 4.27541 9.09202 4.15558 9.04703C3.97821 8.98041 3.8082 8.89346 3.63667 8.81343C3.3371 8.67305 3.04055 8.52596 2.74898 8.3685C2.44054 8.20195 2.17298 7.98478 1.90369 7.76135C1.78321 7.66098 1.66338 7.55976 1.54225 7.46069C1.48601 7.41505 1.43605 7.37287 1.38695 7.32074C1.36445 7.29587 1.33979 7.27316 1.31319 7.25283C1.30692 7.24569 1.30086 7.24266 1.29545 7.24288C1.29848 7.20935 1.26928 7.17691 1.22689 7.19983C1.20417 7.21195 1.18774 7.22319 1.1806 7.24893C1.17432 7.27251 1.17822 7.29133 1.19855 7.30625C1.30713 7.3878 1.40079 7.49573 1.50678 7.5829C1.62704 7.68175 1.74579 7.78384 1.86518 7.88377C2.08797 8.07022 2.31184 8.26316 2.56708 8.40549C3.09809 8.7029 3.65939 8.99101 4.23301 9.19779C4.5328 9.30572 4.81789 9.43637 5.10059 9.58302C5.35885 9.71712 5.63182 9.82636 5.87451 9.98858C6.12239 10.1543 6.34258 10.3502 6.55325 10.5605C6.65232 10.6595 6.74987 10.7584 6.84504 10.8613C6.92724 10.9492 7.07151 11.0939 7.11477 11.2215C7.09854 11.2602 7.11087 11.3084 7.16516 11.3076C7.17122 11.3076 7.17684 11.3076 7.18333 11.3076C7.224 11.3069 7.26553 11.2656 7.25709 11.2234Z" fill="#3F543F"/>
</svg>
